<?xml version="1.0" encoding="UTF-8"?>
<svg id="Camada_1" data-name="Camada 1" xmlns="http://www.w3.org/2000/svg" viewBox="0 0 127 116.49">
  <defs>
    <style>
      .cls-1 {
        fill: #fff;
        stroke: #993399;
        stroke-linecap: round;
        stroke-linejoin: round;
        stroke-width: 2px;
      }
    </style>
  </defs>
  <path class="cls-1" d="m36.12,47.68c0-6.93-7.86-10.3-17.56-10.3S1,51.06,1,57.98s6.84,11.92,16.54,11.92,18.57-15.3,18.57-22.22Z"/>
  <path class="cls-1" d="m126,55.92c0-8.3-10.49-13.74-20.19-13.74s-14.93,6.29-14.93,21.19c0,8.3,7.86,11.67,17.56,11.67s17.56-10.82,17.56-19.12Z"/>
  <path class="cls-1" d="m92.12,14.74c0-8.3-10.49-13.74-20.19-13.74s-14.93,6.29-14.93,21.19c0,8.3,7.86,11.67,17.56,11.67s17.56-10.82,17.56-19.12Z"/>
  <path class="cls-1" d="m14.79,86.53c-1.53-1.83-2.56-3.64-2.77-5.96-.23-2.53,1.01-5.07,2.98-6.81,1.97-1.74,4.6-2.74,7.27-3.1,3.01-.41,6.18-.03,8.83,1.37,4.22,2.23,6.53,6.64,8.06,10.95.91,2.58,1.49,5.8-.58,7.7-.69.64-1.61,1.02-2.52,1.33-7.37,2.48-16.29.19-21.27-5.47Z"/>
  <path class="cls-1" d="m111.48,29.56c0-4.78-6.97-9.19-12.42-9.19-2.82,0-5.33-.21-7.64,1.93-2.14,1.99-4.19,6.25-4.19,8.55,0,4.78,4.85,12.36,10.3,12.36s13.95-8.86,13.95-13.65Z"/>
  <path class="cls-1" d="m44.01,71.02c1.67-1.06,2.73-3.14,2.94-5.08.21-1.94-.29-3.89-1.11-5.67-.4-.87-.89-1.73-1.59-2.4-1.14-1.1-2.78-1.63-4.38-1.67-3.7-.11-7.3,2.43-8.35,5.87-.28.92-.39,1.87-.46,2.82-.1,1.32-.1,2.71.51,3.89.77,1.49,2.38,2.4,3.99,2.99,2.8,1.04,6.32,1.26,8.47-.75Z"/>
  <path class="cls-1" d="m45.32,91.77c1.62,1.17,3.63,1.28,5.52,1.21,3.32-.12,7.01-.42,9.24-2.91,2.27-2.54,2.15-6.42,1.53-9.79-.76-4.09-2.44-8.54-6.22-10.17-2.69-1.16-5.82-.56-8.5.63-2.41,1.08-4.7,2.71-5.91,5.07-1.34,2.6-1.21,5.78-.23,8.54.98,2.76,2.73,5.16,4.57,7.42Z"/>
  <path class="cls-1" d="m80.97,35.53c-6.85-2.45-16.47.72-18.07,5.38-1.59,4.66,4.04,13.14,10.89,15.59,6.85,2.45,16.3-.22,17.89-4.87,1.59-4.66-3.87-13.64-10.72-16.09Z"/>
  <path class="cls-1" d="m38.47,34.26c2.74-4.04.63-10.39-4.72-14.17-5.35-3.78-11.9-3.58-14.64.47-2.74,4.04-4.48,10.18.86,13.97,5.35,3.78,15.75,3.78,18.49-.27Z"/>
  <path class="cls-1" d="m54.85,54.36c5.84-2.67,8.62-13.99,6.37-20.58-2.25-6.6-11.05-8.78-16.89-6.11-5.84,2.67-8.84,16.65-6.59,23.24,2.25,6.59,11.27,6.12,17.1,3.45Z"/>
  <path class="cls-1" d="m52.77,98.49c-2.24-3.02-5.46-5.33-9.04-6.32-3.58-.99-7.48-.64-10.7,1.09-1.2.65-2.32,1.5-3.08,2.64-1.56,2.35-1.32,5.61-.05,8.21,1.27,2.6,3.42,4.66,5.62,6.52,1.7,1.43,3.52,2.82,5.64,3.38,3.97,1.05,8.23-1.21,10.28-4.73,2.05-3.51,3.61-7.25,1.32-10.79Z"/>
  <path class="cls-1" d="m103.09,100.45c-1.62,1.93-3.34,3.37-5.75,4.09-2.63.79-5.55.14-7.78-1.41-2.23-1.56-3.8-3.94-4.71-6.52-1.03-2.89-1.26-6.13-.3-9.07,1.52-4.69,5.73-7.98,9.98-10.47,2.54-1.49,5.83-2.79,8.25-1.16.81.55,1.4,1.36,1.9,2.2,4.07,6.75,3.41,16.11-1.58,22.33Z"/>
  <path class="cls-1" d="m78.13,81.98c6.37,1.79,13.45-3.75,14.07-9.3.61-5.55-6.49-12.21-12.86-14-6.37-1.79-14.72,5.32-15.33,10.86-.62,5.55,7.76,10.65,14.13,12.44Z"/>
  <path class="cls-1" d="m34.26,14.38c.6,4.03,1.39,5.17,3.57,7.84,1.56,1.91,3.44,3.77,5.81,4.23,2.13.41,4.35-.39,6.11-1.71,1.76-1.32,3.13-3.11,4.42-4.92,1.23-1.71,2.45-3.53,2.75-5.64.47-3.24-1.34-6.37-3.4-8.86-1.08-1.29-2.27-2.53-3.74-3.31-1.81-.96-3.93-1.17-5.94-.92-3.06.37-6.06,1.82-8.01,4.29-1.95,2.47-2.1,5.76-1.57,9Z"/>
  <path class="cls-1" d="m80.06,84.84c-4.38-4.15-13.05-5.45-15.61-2.5-2.56,2.95-3.62,11.7.76,15.85,4.38,4.15,14.59,3.06,17.15.12,2.56-2.95,2.07-9.31-2.3-13.46Z"/>
  <path class="cls-1" d="m77.14,100.78c2.52-.72,5.3-.6,7.71.43,2.42,1.03,4.46,2.97,5.53,5.38.4.9.67,1.89.61,2.87-.12,2.03-1.62,3.78-3.42,4.69-1.8.92-3.87,1.13-5.89,1.21-1.55.06-3.16.04-4.58-.59-2.66-1.17-4.1-4.36-3.77-7.27.33-2.91,1.02-5.73,3.8-6.72Z"/>
  <path class="cls-1" d="m51.69,56.8c2.42-.59,5.08-.49,7.41.35,2.32.84,4.28,2.43,5.31,4.4.38.74.64,1.54.59,2.35-.11,1.66-1.55,3.09-3.28,3.84-1.73.75-3.72.92-5.65.99-1.49.05-3.03.03-4.39-.48-2.56-.96-3.94-3.57-3.62-5.94.32-2.38.98-4.69,3.64-5.5Z"/>
  <path class="cls-1" d="m69.45,113.96c1.99-1.06,3.24-3.14,3.49-5.08.25-1.93-.35-3.89-1.32-5.67-.48-.87-1.06-1.73-1.89-2.4-1.36-1.1-3.3-1.63-5.2-1.67-4.39-.11-8.67,2.43-9.92,5.87-.33.92-.47,1.87-.55,2.82-.12,1.32-.12,2.71.61,3.89.91,1.49,2.83,2.4,4.73,2.99,3.33,1.04,7.5,1.27,10.05-.75Z"/>
</svg>