<?xml version="1.0" encoding="UTF-8"?>
<svg id="Camada_1" data-name="Camada 1" xmlns="http://www.w3.org/2000/svg" viewBox="0 0 127 116">
  <defs>
    <style>
      .cls-1 {
        fill: #fff;
        stroke: #333;
        stroke-linecap: round;
        stroke-linejoin: round;
        stroke-width: 2px;
      }
    </style>
  </defs>
  <path class="cls-1" d="m36.12,48.56c0-6.76-7.86-10.06-17.56-10.06S1,51.86,1,58.62s6.84,11.63,16.54,11.63,18.57-14.93,18.57-21.69Z"/>
  <path class="cls-1" d="m126,56.61c0-8.1-10.49-13.41-20.19-13.41s-14.93,6.14-14.93,20.68c0,8.1,7.86,11.39,17.56,11.39s17.56-10.57,17.56-18.67Z"/>
  <path class="cls-1" d="m14.51,83.89c-1.18-1.53-1.97-3.04-2.12-4.98-.17-2.11.77-4.23,2.28-5.68,1.51-1.45,3.53-2.28,5.58-2.59,2.31-.34,4.74-.02,6.78,1.14,3.24,1.86,5.01,5.55,6.18,9.14.7,2.15,1.15,4.84-.45,6.42-.53.53-1.23.85-1.93,1.11-5.66,2.07-12.49.16-16.32-4.57Z"/>
  <path class="cls-1" d="m111.48,30.88c0-4.67-6.97-8.98-12.42-8.98-2.82,0-5.33-.21-7.64,1.88-2.14,1.94-4.19,6.1-4.19,8.35,0,4.67,4.85,12.07,10.3,12.07s13.95-8.65,13.95-13.32Z"/>
  <path class="cls-1" d="m31.63,74.66c-1.53-.75-2.99-1.88-3.81-3.54-.81-1.66-.83-3.93.28-5.35,1.21-1.54,3.25-1.65,5.06-1.65h3.92c.45,0,.92,0,1.34.17,1.16.47,1.68,2,1.89,3.39.19,1.23.23,2.52-.17,3.68-.45,1.3-1.44,2.29-2.53,2.91-1.93,1.09-3.71,1.23-5.99.38Z"/>
  <path class="cls-1" d="m44.4,62.84c1.31-.81,2.15-2.41,2.31-3.89.17-1.48-.23-2.98-.87-4.34-.31-.67-.7-1.33-1.25-1.84-.9-.84-2.18-1.25-3.44-1.28-2.9-.08-5.74,1.86-6.56,4.5-.22.7-.31,1.43-.36,2.16-.08,1.01-.08,2.07.4,2.98.6,1.14,1.87,1.83,3.13,2.29,2.2.8,4.96.97,6.65-.58Z"/>
  <path class="cls-1" d="m38.09,89.65c1.19.86,2.66.95,4.06.89,2.44-.09,5.15-.31,6.79-2.15,1.67-1.88,1.58-4.75,1.12-7.24-.56-3.03-1.79-6.32-4.57-7.52-1.98-.86-4.28-.42-6.25.47-1.77.8-3.45,2-4.35,3.75-.98,1.92-.89,4.28-.17,6.32.72,2.04,2,3.82,3.36,5.49Z"/>
  <path class="cls-1" d="m93.17,48.38c0-5.43-5.24-11.47-9.39-11.47s-9.27,6.03-9.27,11.47,4.79,11.47,8.94,11.47,9.72-6.03,9.72-11.47Z"/>
  <path class="cls-1" d="m89.45,67.54c1.08-.69,1.21-1.55,1.4-2.78.16-1.04-.34-2.01-.74-2.99-.72-1.75-2.95-2.55-4.71-1.91-1.76.64-2.95,2.44-3.21,4.33-.08.57-.08,1.17.13,1.69.19.48.55.86.92,1.22.56.54,1.21,1.05,1.98,1.18.58.1,1.63.17,2.21.03.83-.19,1.31-.17,2.02-.77Z"/>
  <path class="cls-1" d="m17.17,38.12c2.29-.35,4.33-2.08,5.1-4.32.17-.49.27-1.03.09-1.52-.17-.44-.56-.76-.94-1.04-1.04-.75-2.27-1.38-3.53-1.23-.98.12-1.85.7-2.58,1.37-1.14,1.03-2.06,2.32-2.68,3.74-.1.23-.19.46-.18.71,0,.24.11.47.24.68.81,1.36,2.98,2.02,4.49,1.6Z"/>
  <path class="cls-1" d="m41.57,30.93c0-3.76-4.13-6.82-9.23-6.82s-9.23,3.05-9.23,6.82,1.56,8.41,6.66,8.41,11.81-4.64,11.81-8.41Z"/>
  <path class="cls-1" d="m34.14,87.36c.73-.17,1.45.27,2.04.74,1.4,1.15,2.03,2.67,1.83,4.49-.14,1.21-.33,2.47-1.33,3.15-.99.68-2.2,1-3.39,1.1-.81.07-1.7.03-2.35-.46-.51-.38-.81-.98-1-1.58-.48-1.51-.36-3.22.38-4.62.73-1.4,2.31-2.51,3.83-2.82Z"/>
  <path class="cls-1" d="m48.65,50.23c4.1-1.65,6.05-8.65,4.48-12.72-1.58-4.08-7.76-5.42-11.86-3.77-4.1,1.65-6.21,10.29-4.63,14.36,1.58,4.07,7.91,3.79,12.01,2.13Z"/>
  <path class="cls-1" d="m43.06,32.18c-.53-.56-.73-1.49-.71-2.25.02-.66.35-1.31.88-1.71.55-.42,1.26-.54,1.94-.65.22-.04.45-.07.68-.03.41.08.71.42.92.79.44.74.6,1.63.65,2.49,0,.14.01.27-.03.4-.05.14-.16.25-.27.35-.99.86-2.43,1.08-3.72.77-.22-.05-.3-.04-.34-.17Z"/>
  <path class="cls-1" d="m47.42,72.85c.88-.72,1.33-2.03,1.56-3.14.23-1.11.16-2.32-.39-3.25-.41-.69-1.05-1.17-1.71-1.55-.74-.42-1.55-.74-2.4-.78-.85-.04-1.74.21-2.4.83-.64.59-1.01,1.46-1.23,2.33-.15.63-.23,1.3-.08,1.92.19.81.75,1.43,1.3,1.99.73.72,1.52,1.39,2.44,1.76.92.37,2.01.4,2.9-.12Z"/>
  <path class="cls-1" d="m45.01,111.21c.76-2.56.69-5.39-.28-7.88-.98-2.49-2.87-4.6-5.25-5.74-.89-.42-1.86-.72-2.84-.68-2.02.08-3.78,1.58-4.72,3.41-.94,1.82-1.19,3.93-1.3,5.98-.09,1.58-.09,3.22.5,4.68,1.12,2.74,4.25,4.26,7.15,3.97,2.9-.28,5.71-.94,6.74-3.75Z"/>
  <path class="cls-1" d="m49.54,103.06c-.86.22-.89.29-1.77.31-.51,0-1.03-.02-1.5-.23-.47-.21-.86-.58-1.21-.97-.6-.66-1.14-1.38-1.61-2.14-.3-.49-.57-1-.71-1.55-.2-.82-.1-1.68.01-2.52.17-1.32.36-2.71,1.16-3.77.79-1.05,2.05-1.6,3.27-2.04,2.12-.76,4.5-1.3,6.58-.43,1.87.79,3.19,2.67,3.62,4.69.14.63.19,1.29.1,1.93-.14.93-.59,1.78-1.16,2.51-1.67,2.13-4.28,3.22-6.78,4.21Z"/>
  <path class="cls-1" d="m110.43,83.9c2.29-.35,4.33-2.08,5.1-4.32.17-.49.27-1.03.09-1.52-.17-.44-.56-.76-.94-1.04-1.04-.75-2.27-1.38-3.53-1.23-.98.12-1.85.7-2.58,1.37-1.14,1.03-2.06,2.32-2.68,3.74-.1.23-.19.46-.18.71,0,.24.11.47.24.67.81,1.36,2.98,2.02,4.49,1.6Z"/>
  <path class="cls-1" d="m104.43,78.99c1,1.65,1.61,3.25,1.56,5.19-.06,2.12-1.24,4.11-2.9,5.38-1.66,1.27-3.76,1.86-5.83,1.92-2.33.07-4.72-.52-6.6-1.92-3.01-2.22-4.36-6.09-5.13-9.8-.46-2.22-.6-4.94,1.16-6.33.59-.47,1.32-.71,2.05-.88,5.84-1.4,12.42,1.29,15.7,6.43Z"/>
  <path class="cls-1" d="m107.49,89.25c.63.47.84,1.39,1.01,2.08.17.69.08,1.5-.42,2-.38.38-.93.53-1.45.65-.43.1-.87.21-1.3.14-.39-.06-.75-.26-1.05-.52-1.01-.9-1.18-2.61-.38-3.7.8-1.09,2.47-1.39,3.59-.65Z"/>
  <path class="cls-1" d="m86.54,33.84c.75-2.51.68-5.28-.28-7.71-.96-2.43-2.84-4.5-5.18-5.62-.88-.42-1.84-.7-2.81-.66-1.99.08-3.74,1.55-4.66,3.33-.93,1.79-1.17,3.84-1.29,5.86-.09,1.55-.09,3.15.5,4.58,1.1,2.68,4.2,4.17,7.06,3.89,2.86-.28,5.64-.93,6.66-3.67Z"/>
  <path class="cls-1" d="m63.49,66.45c2.7-2.42,3.15-3.6,4.06-6.6.65-2.15,1.1-4.52.27-6.61-.74-1.87-2.43-3.23-4.27-3.97-1.84-.74-3.85-.94-5.82-1.09-1.87-.14-3.82-.21-5.54.57-2.64,1.2-4.07,4.14-4.89,6.96-.43,1.47-.76,3.01-.62,4.54.18,1.89,1.07,3.65,2.24,5.11,1.78,2.22,4.33,3.88,7.12,4.21,2.8.33,5.31-1.15,7.45-3.12Z"/>
  <path class="cls-1" d="m63.16,47.91c1.19.86,2.66.95,4.06.89,2.44-.09,5.15-.31,6.79-2.15,1.67-1.88,1.58-4.75,1.12-7.24-.55-3.02-1.79-6.32-4.57-7.52-1.98-.86-4.28-.42-6.25.47-1.77.8-3.45,2-4.35,3.75-.98,1.92-.89,4.28-.17,6.32.72,2.04,2,3.82,3.36,5.49Z"/>
  <path class="cls-1" d="m54.58,45.77c-.84-1.04-1-2.13-.87-3.45.03-.34.12-.68.31-.96.31-.44.86-.65,1.4-.66.54,0,1.06.16,1.56.36.82.33,1.62.77,2.24,1.41.63.63,1.07,1.48,1.08,2.37.03,1.37-1.08,2.66-2.44,2.82-1.35.17-2.39-.62-3.3-1.9Z"/>
  <path class="cls-1" d="m76.84,76.72c4.1-1.65,6.05-8.65,4.48-12.72-1.58-4.08-7.76-5.42-11.86-3.77-4.1,1.65-6.21,10.29-4.63,14.36,1.58,4.08,7.91,3.79,12.01,2.13Z"/>
  <path class="cls-1" d="m68.43,53.35c.38,1.41.99,2.75,1.79,3.97.55.84,1.26,1.66,2.23,1.89.83.2,1.71-.08,2.46-.48.3-.16.59-.34.8-.6.24-.3.35-.69.39-1.08.23-1.85-.79-3.64-2.05-5-.35-.37-.72-.73-1.18-.94-.76-.35-1.67-.23-2.42.13-.75.37-1.79,1.09-2.01,2.1Z"/>
  <path class="cls-1" d="m89.3,24.41c1.68-.17,3.27-1.6,4.28-3.11.6-.89,1.1-1.88,1.34-2.96.4-1.87-.07-3.9-1.12-5.41-1.05-1.51-2.64-2.5-4.32-2.85-1.72-.36-3.65-.03-4.91,1.33-.63.68-1.06,1.56-1.42,2.45-.75,1.83-1.3,3.92-.81,5.86.4,1.57,1.46,2.87,2.74,3.64,1.28.78,2.77,1.07,4.23,1.06Z"/>
  <path class="cls-1" d="m98.67,21.89c.84-.06,1.57-.37,2.23-.86.57-.43,1.15-.86,1.58-1.44.43-.58.69-1.32.54-2.03-.2-.91-1.01-1.53-1.77-2.04-.48-.32-.89-.19-1.46-.29-1.01-.18-2.09.7-2.81,1.45-.99,1.05-1.6,1.85-1.2,3.25.41,1.4,1.49,2.06,2.89,1.97Z"/>
  <path class="cls-1" d="m98.26,10.31c.63.47.84,1.39,1.01,2.08.17.69.08,1.5-.42,2-.38.38-.93.53-1.45.65-.43.1-.87.21-1.3.14-.39-.06-.75-.26-1.05-.52-1.01-.9-1.18-2.61-.38-3.7.81-1.09,2.47-1.39,3.59-.65Z"/>
  <path class="cls-1" d="m99.85,101.8c.75-.08,1.26-.2,1.84-.62.59-.44,1.18-.87,1.78-1.31.9-.66,1.22-1.28,1.4-2.38.2-1.21-.01-2.5-.97-3.29-1.63-1.34-3.7-2.15-5.81-2.28-.54-.03-1.1-.02-1.6.2-.41.18-.75.49-1.05.82-1.16,1.29-1.83,3.06-1.61,4.77.22,1.71,1.42,3.32,3.09,3.86.93.31,1.94.28,2.93.24Z"/>
  <path class="cls-1" d="m63.39,32.89c4.07-3.51,5.2-11.49,2.52-14.72-2.68-3.23-10.5-3.33-14.57.18-4.07,3.51-5.49,11.14-2.81,14.37,2.68,3.23,10.79,3.67,14.86.17Z"/>
  <path class="cls-1" d="m31.12,14.65c.54,3.62,1.27,4.64,3.26,7.04,1.42,1.72,3.14,3.38,5.31,3.8,1.95.37,3.98-.35,5.58-1.53,1.61-1.18,2.85-2.8,4.04-4.42,1.12-1.53,2.24-3.17,2.51-5.06.43-2.91-1.22-5.72-3.11-7.96-.98-1.16-2.07-2.27-3.41-2.98-1.65-.87-3.59-1.05-5.43-.83-2.79.34-5.53,1.63-7.31,3.85-1.78,2.22-1.92,5.18-1.44,8.08Z"/>
  <path class="cls-1" d="m60.81,69.51c-2.89.32-5.57,2.42-8.06,4.16-.85.59-1.71,1.28-2.07,2.25-.28.77-.22,1.61-.16,2.43.06.73.12,1.47.17,2.2.16,2.02.34,4.1,1.26,5.9.92,1.8,2.78,3.26,4.76,3.03,1.49-.17,2.74-1.23,3.75-2.36.86-.96,1.62-2.01,2.26-3.13,1.42-2.45,2.32-5.34,1.88-8.15-.11-.7-.3-1.39-.5-2.07-.26-.89-.54-1.79-1.03-2.58-.49-.79-1.43-1.72-2.27-1.68Z"/>
  <path class="cls-1" d="m83.54,84.06c.88-.72,1.33-2.03,1.56-3.14.23-1.11.16-2.32-.39-3.25-.41-.69-1.05-1.17-1.71-1.55-.74-.42-1.55-.74-2.4-.78-.85-.04-1.74.21-2.4.83-.64.59-1.01,1.46-1.23,2.33-.15.63-.23,1.3-.08,1.92.19.81.75,1.43,1.3,1.99.73.72,1.52,1.39,2.44,1.76.92.37,2.01.4,2.9-.12Z"/>
  <path class="cls-1" d="m80.06,84.84c-4.38-4.06-13.05-5.32-15.61-2.44-2.56,2.88-3.62,11.42.76,15.47,4.38,4.06,14.59,2.99,17.15.11,2.56-2.88,2.07-9.09-2.3-13.14Z"/>
  <path class="cls-1" d="m88.82,101.22c.64-.11,1.08-.26,1.57-.79.51-.55,1.02-1.1,1.52-1.65.78-.84,1.05-1.62,1.21-3,.18-1.52,0-3.14-.81-4.12-1.38-1.67-3.14-2.67-4.95-2.82-.46-.04-.94-.02-1.36.26-.35.23-.64.62-.9,1.04-1,1.63-1.59,3.85-1.41,6,.18,2.15,1.19,4.16,2.61,4.82.8.37,1.66.32,2.5.27Z"/>
  <path class="cls-1" d="m77.14,100.4c2.52-.71,5.3-.59,7.71.42,2.42,1,4.46,2.9,5.53,5.25.4.88.67,1.84.61,2.8-.12,1.98-1.62,3.69-3.42,4.58-1.8.89-3.87,1.1-5.89,1.18-1.55.06-3.16.04-4.58-.58-2.66-1.14-4.1-4.26-3.77-7.09.33-2.84,1.02-5.6,3.8-6.56Z"/>
  <path class="cls-1" d="m97.12,108.92c.23-1.44.23-2.92,0-4.37-.15-1-.46-2.05-1.24-2.67-.67-.54-1.58-.65-2.44-.61-.33.02-.67.06-.97.21-.34.17-.6.48-.8.81-.97,1.58-.78,3.65-.19,5.41.16.49.35.97.68,1.36.55.64,1.42.92,2.26.91.83,0,2.07-.22,2.69-1.05Z"/>
  <path class="cls-1" d="m60.03,104.5c2.29-.35,4.33-2.08,5.1-4.32.17-.49.27-1.03.09-1.52-.17-.44-.56-.76-.94-1.04-1.04-.75-2.27-1.38-3.53-1.23-.98.12-1.85.7-2.58,1.37-1.14,1.03-2.06,2.32-2.68,3.74-.1.23-.19.46-.18.71,0,.24.11.47.24.68.81,1.36,2.98,2.02,4.49,1.6Z"/>
  <path class="cls-1" d="m70.53,113.83c1.31-.81,2.15-2.4,2.31-3.89.17-1.48-.23-2.98-.87-4.34-.31-.67-.7-1.32-1.25-1.84-.9-.84-2.18-1.25-3.44-1.28-2.9-.08-5.74,1.86-6.56,4.5-.22.7-.31,1.43-.36,2.16-.08,1.01-.08,2.07.4,2.98.6,1.14,1.87,1.83,3.13,2.29,2.2.8,4.96.97,6.65-.58Z"/>
  <path class="cls-1" d="m70.58,23.82c1.95-.07,3.75-1.47,4.65-3.24.9-1.77.79-4.02-.28-5.69-1.07-1.67-3.05-2.68-5-2.54-.4.03-.8.1-1.16.28-.64.33-1.06.98-1.34,1.65-.86,2.1-.49,4.51.15,6.69.22.74.47,1.48.96,2.06.49.58,1.27.97,2,.78Z"/>
  <path class="cls-1" d="m68,11.41c-.55,1.18-1.36,2.3-2.47,3.13-1.11.83-2.54,1.36-3.92,1.29-1.09-.05-2.08-.46-3.04-.86-1.17-.48-2.33-.97-3.47-1.5-.73-.34-1.45-.7-2-1.24-.86-.84-1.21-2.05-1.1-3.25.11-1.19.65-2.36,1.4-3.4.21-.3.44-.59.73-.83.32-.26.69-.45,1.06-.64,1.05-.54,2.11-1.08,3.19-1.58.75-.35,1.52-.78,2.34-.83,2.16-.14,4.51.82,6.17,2.01,2.27,1.63,2.42,4.99,1.1,7.69Z"/>
  <path class="cls-1" d="m51.28,111.35c-1.88-.04-3.17-.86-4.43-2.22-.32-.35-.6-.76-.7-1.22-.16-.74.13-1.54.63-2.13.49-.6,1.17-1.01,1.84-1.37,1.13-.6,2.34-1.07,3.59-1.17,1.26-.1,2.56.19,3.51.99,1.46,1.23,1.77,3.63.67,5.26-1.1,1.63-2.9,2.06-5.1,1.86Z"/>
  <path class="cls-1" d="m74.61,14.03c.94.71,2.08.81,3.16.8,1.88-.02,3.98-.14,5.21-1.57,1.25-1.46,1.13-3.75.72-5.75-.49-2.42-1.52-5.07-3.69-6.09-1.55-.72-3.32-.42-4.82.24-1.35.6-2.63,1.52-3.29,2.9-.72,1.51-.6,3.39,0,5.03.6,1.64,1.63,3.08,2.71,4.44Z"/>
  <path class="cls-1" d="m27.95,24.4c.84-.06,1.57-.37,2.23-.86.57-.43,1.15-.86,1.58-1.44.43-.58.69-1.32.54-2.03-.2-.91-1.01-1.53-1.77-2.04-.48-.32-.89-.19-1.46-.29-1.01-.18-2.09.7-2.81,1.45-.99,1.05-1.6,1.85-1.2,3.25.41,1.4,1.49,2.06,2.89,1.97Z"/>
</svg>