<?xml version="1.0" encoding="UTF-8"?>
<svg id="Camada_1" data-name="Camada 1" xmlns="http://www.w3.org/2000/svg" viewBox="0 0 155 144.01">
  <defs>
    <style>
      .cls-1, .cls-2 {
        fill: #e599b3;
      }

      .cls-2 {
        fill-rule: evenodd;
      }
    </style>
  </defs>
  <path class="cls-2" d="m88.61,28.04c.94.71,2.08.81,3.16.8,1.88-.02,3.98-.14,5.21-1.57,1.25-1.46,1.13-3.75.72-5.75-.49-2.42-1.52-5.07-3.69-6.09-1.55-.72-3.32-.42-4.82.24-1.35.6-2.63,1.52-3.29,2.9-.72,1.51-.6,3.39,0,5.03.6,1.64,1.63,3.08,2.71,4.44Zm-6.6-2.63c-.55,1.18-1.36,2.3-2.47,3.13-1.11.83-2.54,1.36-3.92,1.29-1.09-.05-2.08-.46-3.04-.86l-.09-.04c-1.14-.47-2.27-.94-3.38-1.46-.73-.34-1.45-.7-2-1.24-.86-.84-1.21-2.05-1.1-3.25.11-1.19.65-2.36,1.4-3.4.21-.3.44-.59.73-.83.32-.26.69-.45,1.06-.64h0c1.05-.54,2.11-1.08,3.19-1.58.12-.06.25-.12.37-.17h0c.64-.3,1.29-.61,1.97-.66,2.16-.14,4.51.82,6.17,2.01,2.27,1.63,2.42,4.99,1.1,7.69Zm-36.88,3.25c.54,3.62,1.27,4.64,3.26,7.04,1.42,1.72,3.14,3.38,5.31,3.8,1.95.37,3.98-.35,5.58-1.53,1.61-1.18,2.85-2.8,4.04-4.42,1.12-1.53,2.24-3.17,2.51-5.06.43-2.91-1.22-5.73-3.11-7.96-.98-1.16-2.07-2.27-3.41-2.98-1.65-.87-3.59-1.05-5.43-.83-2.79.34-5.53,1.63-7.31,3.85-1.78,2.22-1.92,5.18-1.44,8.08Zm68.13-2.36c-.17-.68-.39-1.53-.99-1.99-1.12-.74-2.79-.44-3.59.65-.8,1.09-.63,2.81.38,3.7.3.26.66.46,1.05.52.43.07.88-.04,1.3-.14.52-.13,1.07-.27,1.45-.65.5-.5.6-1.31.42-2l-.03-.1Zm-5.67,9c-1.02,1.51-2.6,2.94-4.28,3.11-1.46.01-2.94-.28-4.23-1.06-1.28-.78-2.35-2.07-2.74-3.64-.49-1.94.06-4.02.81-5.86.37-.89.79-1.77,1.42-2.45,1.26-1.36,3.2-1.69,4.91-1.33,1.68.36,3.27,1.34,4.32,2.85,1.05,1.51,1.52,3.55,1.12,5.41-.23,1.08-.74,2.07-1.34,2.96Zm-7.32,4.83c.96,2.43,1.03,5.2.28,7.71-1.02,2.75-3.8,3.39-6.66,3.67-2.24.22-4.63-.65-6.09-2.32.66,1.3,1.07,2.79,1.34,4.22.46,2.49.55,5.36-1.12,7.24-1.64,1.84-4.35,2.06-6.79,2.15-1.39.06-2.87-.03-4.06-.89-1.35-1.67-2.64-3.45-3.36-5.49-.72-2.04-.81-4.4.17-6.32.4-.78.95-1.45,1.59-2.02-4.31,2.14-10.71,1.43-13.04-1.36-.58-.7-.97-1.61-1.18-2.64.04.25.06.49.07.74,0,.13.01.27-.03.4-.05.14-.16.25-.27.35-.99.86-2.43,1.08-3.72.77-.03,0-.05-.01-.07-.02h-.05c-.13-.04-.19-.05-.22-.15-.53-.56-.73-1.49-.71-2.25.02-.66.35-1.31.88-1.71.55-.42,1.26-.54,1.94-.65.22-.04.45-.07.68-.03.41.08.71.42.92.79.24.41.4.86.5,1.33-.56-3.68,1-8.66,4.06-11.31,4.07-3.51,11.89-3.41,14.57-.18,2.63,3.18,1.59,10.93-2.31,14.53.24-.13.48-.24.72-.35,1.97-.88,4.27-1.32,6.25-.47.92.4,1.67,1.03,2.29,1.8v-.03s-.03-.04-.03-.04c-.59-1.43-.58-3.03-.5-4.58.11-2.01.36-4.07,1.29-5.86.93-1.79,2.67-3.25,4.66-3.33.97-.04,1.93.25,2.81.66,2.35,1.11,4.22,3.18,5.18,5.62Zm25.22,4.75c0-4.67-6.97-8.98-12.41-8.98-.24,0-.47,0-.71,0-2.54-.02-4.82-.03-6.93,1.88-2.14,1.94-4.19,6.1-4.19,8.35,0,4.67,4.85,12.07,10.3,12.07s13.95-8.65,13.95-13.32Zm-75.36,17.68c0-6.76-7.86-10.06-17.56-10.06s-17.56,13.36-17.56,20.12,6.84,11.63,16.54,11.63,18.57-14.93,18.57-21.69Zm89.88,8.04c0-8.1-10.49-13.41-20.19-13.41s-14.93,6.14-14.93,20.68c0,4.4,2.32,7.38,5.99,9.19-2.61-.93-5.45-1.15-8.14-.51-.73.17-1.46.41-2.05.88-1.76,1.39-1.62,4.11-1.16,6.33.76,3.71,2.12,7.58,5.13,9.8,1.89,1.39,4.27,1.99,6.6,1.92,2.07-.06,4.17-.65,5.83-1.92,1.66-1.27,2.83-3.27,2.9-5.38.06-1.94-.56-3.54-1.56-5.19-1.44-2.26-3.51-4.04-5.88-5.22,2.82,1.02,6.22,1.5,9.89,1.5,9.7,0,17.56-10.57,17.56-18.67Zm-113.61,22.31c.16,1.93.95,3.45,2.12,4.98,3.83,4.73,10.66,6.64,16.32,4.57.7-.26,1.4-.58,1.93-1.11,1.59-1.58,1.15-4.27.45-6.42-1.17-3.6-2.95-7.28-6.18-9.14-2.03-1.17-4.47-1.48-6.78-1.14-2.05.3-4.07,1.13-5.58,2.59-1.51,1.45-2.46,3.57-2.28,5.68Zm15.43-7.79c.82,1.66,2.28,2.79,3.81,3.54,2.28.85,4.06.71,5.99-.38,1.1-.62,2.08-1.61,2.53-2.91.4-1.16.35-2.45.17-3.68-.21-1.39-.73-2.92-1.89-3.39-.43-.17-.89-.17-1.34-.17h-3.92c-1.81,0-3.84.11-5.06,1.65-1.12,1.42-1.1,3.69-.28,5.35Zm16.58-8.27c1.19-.73,1.98-2.1,2.24-3.45,0,.29,0,.57.03.86.18,1.89,1.07,3.65,2.24,5.11,1.78,2.22,4.33,3.88,7.12,4.21,2.8.33,5.31-1.15,7.45-3.12,2.7-2.42,3.15-3.6,4.06-6.6.65-2.15,1.1-4.52.27-6.61-.74-1.87-2.43-3.23-4.27-3.97-1.84-.74-3.85-.94-5.82-1.09-1.87-.14-3.82-.21-5.54.57-2.64,1.2-4.07,4.14-4.9,6.96-.23.79-.43,1.59-.55,2.41-.03-1.2-.39-2.4-.91-3.5-.31-.67-.7-1.33-1.25-1.84-.9-.84-2.18-1.25-3.44-1.28-2.9-.08-5.74,1.86-6.56,4.5-.22.7-.31,1.43-.36,2.16-.08,1.01-.08,2.07.4,2.98.6,1.14,1.87,1.83,3.13,2.29,2.2.8,4.96.97,6.65-.58Zm-2.25,27.69c-1.39.06-2.87-.03-4.06-.89-1.35-1.67-2.64-3.45-3.36-5.49-.72-2.04-.81-4.4.17-6.32.89-1.75,2.58-2.96,4.35-3.75,1.97-.88,4.27-1.32,6.25-.47,2.77,1.2,4.01,4.5,4.57,7.52.46,2.49.55,5.36-1.12,7.24-1.64,1.84-4.35,2.06-6.79,2.15Zm51.02-42.16c0-5.43-5.24-11.47-9.39-11.47s-9.27,6.03-9.27,11.47,4.79,11.47,8.94,11.47,9.72-6.03,9.72-11.47Zm-2.32,16.38c-.19,1.23-.32,2.09-1.4,2.78-.57.48-.99.57-1.57.68-.14.03-.29.06-.45.09-.57.13-1.63.06-2.21-.03-.77-.13-1.42-.64-1.98-1.18-.37-.36-.72-.74-.92-1.22-.22-.53-.21-1.13-.13-1.69.26-1.88,1.46-3.69,3.21-4.33,1.75-.64,3.99.16,4.71,1.91.05.12.1.25.15.37.36.85.72,1.7.58,2.62ZM31.17,52.13c2.29-.35,4.33-2.08,5.1-4.32.17-.49.27-1.03.09-1.52-.17-.44-.56-.76-.94-1.04-1.04-.75-2.27-1.38-3.53-1.23-.98.12-1.85.7-2.58,1.37-1.14,1.03-2.06,2.32-2.68,3.74-.1.23-.19.46-.18.71,0,.24.11.47.24.68.81,1.36,2.98,2.02,4.49,1.6Zm15.17-14.01c5.1,0,9.23,3.05,9.23,6.82s-6.71,8.41-11.81,8.41-6.66-4.64-6.66-8.41,4.13-6.82,9.23-6.82Zm1.81,63.24c.73-.17,1.45.27,2.04.74,1.4,1.15,2.03,2.67,1.83,4.49-.14,1.22-.33,2.47-1.33,3.15-.99.68-2.2,1-3.39,1.11-.81.07-1.7.03-2.35-.46-.51-.38-.81-.98-1-1.58-.48-1.51-.36-3.22.38-4.62.73-1.4,2.31-2.51,3.83-2.82Zm18.98-49.85c1.58,4.08-.38,11.07-4.48,12.72-4.1,1.65-10.43,1.94-12.01-2.13-1.58-4.07.53-12.71,4.63-14.36,4.1-1.65,10.28-.3,11.86,3.77Zm-4.15,32.21c-.23,1.11-.68,2.42-1.56,3.14-.89.53-1.98.49-2.9.12-.92-.37-1.72-1.04-2.44-1.76-.56-.55-1.11-1.18-1.3-1.99-.15-.62-.07-1.29.08-1.92.22-.88.59-1.74,1.23-2.33.66-.61,1.55-.87,2.4-.83.85.04,1.66.36,2.4.78.67.38,1.3.86,1.71,1.55.55.93.62,2.14.39,3.25Zm-3.97,41.49c.76-2.56.69-5.39-.28-7.88-.98-2.49-2.87-4.6-5.25-5.74-.89-.43-1.86-.72-2.84-.68-2.02.08-3.78,1.58-4.72,3.4-.94,1.82-1.19,3.93-1.3,5.98-.09,1.58-.09,3.22.5,4.68,1.12,2.74,4.25,4.26,7.15,3.97,2.9-.28,5.71-.94,6.74-3.75Zm4.06-8.03c.13-.04.28-.08.48-.13,2.49-1,5.1-2.08,6.78-4.21.57-.73,1.02-1.59,1.16-2.51.09-.64.04-1.29-.1-1.93-.43-2.02-1.74-3.9-3.62-4.69-2.08-.88-4.46-.34-6.58.43-1.23.44-2.48,1-3.27,2.04-.8,1.06-.99,2.45-1.16,3.77-.11.84-.21,1.7-.01,2.52.14.56.41,1.07.71,1.55.47.76,1.01,1.48,1.61,2.14.35.39.73.76,1.21.97.47.21.99.24,1.5.23.68,0,.86-.06,1.3-.18Zm61.36-19.29c2.29-.35,4.33-2.08,5.1-4.32.17-.49.27-1.03.09-1.52-.17-.44-.56-.76-.94-1.04-1.04-.75-2.27-1.38-3.53-1.23-.98.12-1.85.7-2.58,1.37-1.14,1.03-2.06,2.32-2.68,3.74-.1.23-.19.46-.18.71,0,.24.11.47.24.67.81,1.36,2.98,2.02,4.49,1.6Zm-2.93,5.35c.6.45.82,1.31.99,1.99l.03.1c.17.69.08,1.5-.42,2-.38.38-.93.53-1.45.65-.43.1-.87.21-1.3.14-.39-.06-.75-.26-1.05-.52-1.01-.9-1.18-2.61-.38-3.7.8-1.09,2.47-1.39,3.59-.65Zm-52.92-43.48c-.84-1.04-1-2.13-.87-3.45.03-.34.12-.68.31-.96.31-.44.86-.65,1.4-.66.54,0,1.06.16,1.56.36.82.33,1.62.77,2.24,1.41.63.63,1.07,1.48,1.08,2.37.03,1.37-1.08,2.66-2.44,2.82-1.35.17-2.39-.62-3.3-1.9Zm26.74,18.22c1.58,4.08-.38,11.07-4.48,12.72-4.09,1.65-10.43,1.95-12.01-2.13-1.58-4.07.53-12.71,4.63-14.36,4.1-1.65,10.28-.3,11.86,3.77Zm-12.89-10.65c.38,1.41.99,2.75,1.79,3.97.55.84,1.26,1.66,2.23,1.89.83.2,1.71-.08,2.46-.48.3-.16.59-.34.8-.6.24-.3.35-.69.39-1.08.23-1.85-.79-3.64-2.05-5-.35-.37-.72-.73-1.18-.94-.76-.35-1.67-.23-2.42.14-.75.37-1.79,1.09-2.01,2.1Zm30.24-31.46c.84-.06,1.57-.37,2.22-.86.57-.43,1.15-.86,1.58-1.44.43-.58.69-1.32.54-2.03-.2-.91-1.01-1.53-1.77-2.04-.32-.21-.62-.23-.94-.24-.16,0-.33-.01-.51-.05-1.01-.18-2.09.7-2.81,1.45-.99,1.05-1.6,1.85-1.2,3.25.41,1.4,1.49,2.06,2.89,1.97Zm1.18,79.91c.75-.08,1.26-.2,1.84-.62h.01s0-.01,0-.01h0c.59-.43,1.17-.86,1.76-1.3.9-.66,1.22-1.28,1.4-2.38.2-1.21-.01-2.5-.97-3.29-1.63-1.34-3.7-2.15-5.81-2.28-.54-.03-1.1-.02-1.6.2-.41.18-.75.49-1.05.82-1.16,1.29-1.83,3.05-1.61,4.77.22,1.71,1.42,3.32,3.09,3.86.93.31,1.94.28,2.93.24Zm-46.3-28.7c2.26-1.6,4.68-3.31,7.26-3.6.84-.04,1.78.9,2.27,1.68.49.79.77,1.69,1.03,2.58.2.68.39,1.37.5,2.07.44,2.81-.46,5.7-1.88,8.15-.65,1.12-1.41,2.17-2.26,3.13-1.01,1.14-2.26,2.2-3.75,2.36-1.98.22-3.84-1.24-4.76-3.03-.92-1.8-1.1-3.88-1.26-5.9l-.17-2.2c-.07-.82-.12-1.66.16-2.43.36-.98,1.22-1.66,2.07-2.25.26-.18.53-.37.8-.56Zm29.99,10.96c.88-.72,1.33-2.03,1.56-3.14.23-1.11.16-2.32-.39-3.25-.41-.69-1.05-1.17-1.71-1.55-.74-.42-1.55-.74-2.4-.78-.85-.04-1.74.21-2.4.83-.64.59-1.01,1.46-1.23,2.33-.15.63-.23,1.3-.08,1.92.19.81.75,1.43,1.3,1.99.73.72,1.52,1.39,2.44,1.76.92.37,2.01.4,2.9-.12Zm-19.09-1.66c2.56-2.88,11.23-1.61,15.61,2.44,2.59,2.4,3.82,5.55,3.86,8.32.24-1.11.66-2.15,1.2-3.03.26-.42.55-.81.9-1.04.42-.28.9-.3,1.36-.26,1.81.15,3.57,1.15,4.95,2.82.81.98.98,2.6.81,4.12-.16,1.38-.44,2.16-1.22,3l-1.52,1.65c-.49.54-.93.68-1.57.79-.84.05-1.71.1-2.5-.27-1.42-.67-2.43-2.68-2.61-4.82-.02-.25-.03-.5-.03-.76-.25,1.01-.69,1.91-1.31,2.61-2.56,2.88-12.78,3.94-17.15-.11-4.38-4.06-3.32-12.6-.76-15.47Zm20.4,18.43c-2.42-1-5.19-1.12-7.71-.42-2.77.97-3.47,3.72-3.8,6.56-.33,2.84,1.1,5.95,3.77,7.09,1.42.61,3.03.63,4.58.58,2.02-.07,4.09-.28,5.89-1.18,1.8-.89,3.31-2.6,3.42-4.58.06-.96-.21-1.92-.61-2.8-1.07-2.36-3.11-4.25-5.53-5.25Zm12.27,8.1c.23-1.44.23-2.92,0-4.37-.15-1-.46-2.05-1.24-2.67-.67-.54-1.58-.65-2.44-.61-.33.02-.67.06-.97.21-.34.17-.6.48-.8.81-.97,1.58-.78,3.65-.19,5.41.16.49.35.97.68,1.36.55.64,1.42.92,2.25.91.83,0,2.07-.22,2.69-1.05Zm-31.99-8.73c-.76,2.24-2.8,3.96-5.1,4.32-1.51.41-3.68-.24-4.49-1.6-.12-.21-.23-.43-.24-.68,0-.25.08-.49.18-.71.62-1.42,1.54-2.7,2.68-3.74.74-.67,1.6-1.25,2.58-1.37,1.26-.15,2.49.48,3.53,1.23.38.28.77.59.94,1.04.18.48.07,1.03-.09,1.52Zm5.4,13.64c1.31-.81,2.15-2.41,2.31-3.89.17-1.48-.23-2.98-.87-4.34-.31-.67-.7-1.32-1.25-1.84-.9-.84-2.18-1.25-3.44-1.28-2.9-.08-5.74,1.86-6.56,4.5-.22.7-.31,1.43-.36,2.16-.08,1.01-.08,2.07.4,2.98.6,1.14,1.87,1.83,3.13,2.29,2.2.8,4.96.97,6.65-.58Zm4.7-93.24c-.9,1.77-2.71,3.17-4.65,3.24-.73.19-1.51-.2-2-.78-.49-.58-.75-1.33-.96-2.06-.64-2.18-1.02-4.59-.15-6.69.28-.67.7-1.32,1.34-1.65.36-.18.76-.26,1.16-.28,1.95-.13,3.93.88,5,2.54,1.07,1.66,1.18,3.92.28,5.69Zm-28.39,88.55c1.26,1.36,2.55,2.18,4.43,2.22,2.2.19,4-.23,5.1-1.86,1.1-1.63.8-4.03-.67-5.26-.95-.8-2.26-1.09-3.51-.99-1.26.1-2.47.57-3.59,1.17-.68.36-1.35.78-1.84,1.37-.49.6-.79,1.39-.63,2.13.1.47.38.88.7,1.22Zm-16.67-85.59c-.66.49-1.38.8-2.23.86-1.4.09-2.48-.57-2.89-1.97-.41-1.4.2-2.2,1.2-3.25.72-.75,1.79-1.63,2.81-1.45.19.03.35.04.51.05.33.01.62.03.94.24.76.51,1.58,1.13,1.77,2.04.15.71-.11,1.45-.54,2.03-.43.58-1.01,1.01-1.58,1.44Z"/>
  <path class="cls-1" d="m91.76,28.84l.15,15s.01,0,.02,0l-.18-15Zm-3.16-.8l-11.75,9.32c.78.98,1.68,1.87,2.68,2.62l9.07-11.95Zm8.37-.77l11.38,9.77h0s-11.39-9.77-11.39-9.77Zm.72-5.75l-14.7,2.97h0s14.7-2.97,14.7-2.97Zm-3.69-6.09l6.38-13.58h-.01s-6.37,13.58-6.37,13.58Zm-4.82.24l6.06,13.72h0s-6.06-13.72-6.06-13.72Zm-3.29,2.9l13.53,6.48h0s-13.53-6.48-13.53-6.48Zm0,5.03l-14.1,5.13s0,.01,0,.02l14.09-5.15Zm-6.36,4.95l9.02,11.99h0l-9.02-11.99Zm2.47-3.13l-13.47-6.59c-.04.09-.08.17-.12.26l13.6,6.34Zm-6.39,4.43l-.72,14.98h0s.72-14.98.72-14.98Zm-3.04-.86l5.76-13.85h0s-5.75,13.85-5.75,13.85Zm-.09-.04l5.75-13.85h0s-5.75,13.85-5.75,13.85Zm-3.38-1.46l6.35-13.59h0s-6.34,13.59-6.34,13.59Zm-2-1.24l10.49-10.72s-.02-.02-.03-.03l-10.46,10.75Zm-1.1-3.25l-14.94-1.39h0s14.94,1.39,14.94,1.39Zm1.4-3.4l12.18,8.75s.02-.02.02-.03l-12.21-8.72Zm.73-.83l-9.54-11.57s-.05.05-.08.07l9.62,11.51Zm1.06-.64l-6.85-13.34h0s6.86,13.34,6.86,13.34Zm0,0l-6.84-13.35s0,0-.01,0l6.85,13.34Zm3.19-1.58l6.26,13.63s0,0,.01,0l-6.27-13.62Zm.37-.17l6.46,13.54c.15-.07.3-.14.44-.22l-6.91-13.32Zm0,0l-6.46-13.54c-.15.07-.3.14-.44.22l6.91,13.32Zm1.97-.66l-.99-14.97h-.01s1,14.97,1,14.97Zm6.17,2.01l8.75-12.18h0s-8.74,12.18-8.74,12.18Zm-32.52,17.98l11.55-9.57h0s-11.55,9.57-11.55,9.57Zm-3.26-7.04l14.83-2.23c-.01-.07-.02-.15-.03-.22l-14.8,2.45Zm8.57,10.84l-2.82,14.73h0s2.82-14.73,2.82-14.73Zm5.58-1.53l-8.9-12.07h0l8.9,12.07Zm4.04-4.42l-12.11-8.85h0s12.12,8.85,12.12,8.85Zm2.51-5.06l-14.84-2.18h0s14.84,2.18,14.84,2.18Zm-3.11-7.96l11.46-9.67h0s-11.46,9.67-11.46,9.67Zm-3.41-2.98l6.97-13.28s-.01,0-.02,0l-6.95,13.29Zm-5.43-.83l-1.78-14.89h-.01s1.79,14.89,1.79,14.89Zm-7.31,3.85l11.7,9.39h0s-11.7-9.39-11.7-9.39Zm65.7,3.73l9.05-11.96c-.25-.19-.51-.37-.77-.55l-8.27,12.51Zm.99,1.99l-14.54,3.7h0s14.53-3.7,14.53-3.7Zm-4.58-1.34l-12.05-8.93s-.02.02-.03.03l12.08,8.89Zm.38,3.7l-9.96,11.21h0s9.95-11.21,9.95-11.21Zm1.05.52l-2.29,14.82s.02,0,.03,0l2.26-14.83Zm1.3-.14l-3.56-14.57s-.02,0-.03,0l3.59,14.56Zm1.45-.65l10.56,10.66s.03-.03.04-.04l-10.6-10.62Zm.42-2l14.55-3.66s0-.04-.01-.05l-14.53,3.71Zm-9.97,12.02l.14,15c.47,0,.93-.03,1.4-.08l-1.54-14.92Zm4.28-3.11l-12.44-8.38s0,0,0,.01l12.45,8.36Zm-8.51,2.06l-7.78,12.83s0,0,.01,0l7.77-12.83Zm-2.74-3.64l14.54-3.68h0s-14.54,3.68-14.54,3.68Zm.81-5.86l-13.87-5.72s0,.01,0,.02l13.88,5.7Zm1.42-2.45l-10.98-10.22s0,0-.01.01l10.99,10.21Zm4.91-1.33l-3.11,14.67h0s3.11-14.67,3.11-14.67Zm4.32,2.85l-12.32,8.56s0,.01.01.02l12.31-8.57Zm1.12,5.41l-14.66-3.17s0,.02,0,.03l14.67,3.14Zm-8.38,15.5l14.06,5.22c.11-.3.21-.6.3-.9l-14.36-4.32Zm-.28-7.71l13.95-5.52h0s-13.95,5.52-13.95,5.52Zm-6.38,11.38l-1.47-14.93h0l1.47,14.93Zm-6.09-2.32l11.3-9.86c-4.97-5.7-13.41-6.8-19.68-2.58-6.27,4.23-8.42,12.46-5,19.21l13.38-6.77Zm1.34,4.22l14.76-2.7h0s-14.75,2.7-14.75,2.7Zm-1.12,7.24l11.21,9.97h0s-11.21-9.97-11.21-9.97Zm-6.79,2.15l-.56-14.99s-.02,0-.03,0l.59,14.99Zm-4.06-.89l-11.66,9.43c.83,1.02,1.78,1.93,2.85,2.7l8.82-12.14Zm-3.36-5.49l-14.15,4.98h0s14.15-4.98,14.15-4.98Zm.17-6.32l13.35,6.83h0s-13.36-6.83-13.36-6.83Zm1.59-2.02l9.97,11.21c5.62-4.99,6.67-13.38,2.46-19.6-4.21-6.23-12.37-8.38-19.11-5.04l6.67,13.43Zm-13.04-1.36l-11.55,9.57s0,.01.01.02l11.54-9.59Zm-1.18-2.64l14.7-3c-1.62-7.95-9.28-13.17-17.27-11.78-8,1.39-13.43,8.9-12.27,16.93l14.85-2.15Zm.07.74l-14.98.86s0,.04,0,.06l14.97-.92Zm-.03.4l14.14,5s.02-.04.02-.06l-14.16-4.94Zm-.27.35l9.83,11.33c.07-.06.13-.12.2-.17l-10.02-11.16Zm-3.72.77l3.47-14.59s-.03,0-.05-.01l-3.42,14.61Zm-.07-.02l3.02-14.69s-.05,0-.07-.01l-2.95,14.71Zm-.05,0l2.95-14.71c-.16-.03-.32-.06-.49-.09l-2.47,14.8Zm0,0l-2.91,14.71c.15.03.3.06.45.08l2.47-14.8Zm-.22-.14l14.2-4.84c-.7-2.04-1.83-3.91-3.31-5.48l-10.89,10.32Zm-.71-2.25l14.99.44h0s-14.99-.44-14.99-.44Zm.88-1.71l9.01,11.99s.01,0,.02-.01l-9.03-11.98Zm1.94-.65l-2.37-14.81s-.02,0-.03,0l2.4,14.81Zm.68-.03l2.99-14.7s-.06-.01-.09-.02l-2.9,14.72Zm.92.79l-12.92,7.61h0s12.92-7.61,12.92-7.61Zm.5,1.33l-14.67,3.14c1.7,7.93,9.39,13.08,17.37,11.62,7.98-1.46,13.35-9,12.12-17.02l-14.83,2.27Zm4.06-11.31l9.8,11.36h0l-9.8-11.36Zm14.57-.18l11.55-9.57h0s-11.55,9.57-11.55,9.57Zm-2.31,14.53l-10.18-11.02c-5.53,5.11-6.42,13.52-2.08,19.67,4.34,6.15,12.57,8.13,19.24,4.62l-6.98-13.27Zm.72-.35l-6.14-13.69s-.01,0-.02,0l6.15,13.68Zm6.25-.47l5.97-13.76h0s-5.97,13.76-5.97,13.76Zm2.29,1.8l-11.75,9.32c4.66,5.88,12.96,7.41,19.41,3.58,6.45-3.83,9.08-11.85,6.15-18.76l-13.81,5.86Zm-.01-.03l-13.85,5.76s.03.07.04.1l13.81-5.86Zm-.02-.04l-13.87,5.71s.02.04.02.06l13.85-5.76Zm-.5-4.58l-14.98-.84h0s14.98.84,14.98.84Zm1.29-5.86l13.31,6.92h0s-13.31-6.92-13.31-6.92Zm4.66-3.33l-.6-14.99h0s.6,14.99.6,14.99Zm2.81.66l6.43-13.55h0s-6.42,13.55-6.42,13.55Zm17.28,1.39l-.1,15h0l.1-15Zm-6.93,1.88l-10.07-11.12h0s10.07,11.12,10.07,11.12Zm5.44,49.28l-5.03,14.13c7.49,2.67,15.76-.97,18.85-8.29,3.09-7.32-.07-15.79-7.2-19.3l-6.62,13.46Zm-8.14-.51l3.49,14.59h0s-3.49-14.59-3.49-14.59Zm-2.05.88l9.3,11.77s.01,0,.02-.01l-9.31-11.76Zm-1.16,6.33l14.69-3.03h0s-14.69,3.03-14.69,3.03Zm5.13,9.8l8.91-12.07h0s-8.91,12.07-8.91,12.07Zm6.6,1.92l-.44-14.99s-.01,0-.02,0l.46,14.99Zm5.83-1.92l9.12,11.91s0,0,.01-.01l-9.13-11.9Zm2.9-5.38l14.99.45h0s-14.99-.45-14.99-.45Zm-1.56-5.19l12.83-7.77c-.06-.1-.12-.19-.18-.29l-12.65,8.06Zm-5.88-5.22l5.13-14.1c-7.48-2.72-15.79.88-18.92,8.19-3.13,7.32,0,15.81,7.13,19.34l6.66-13.44Zm-84.03,10.11l-11.88,9.16c.07.09.15.19.22.28l11.66-9.44Zm-2.12-4.98l14.95-1.22s0-.01,0-.02l-14.95,1.23Zm18.44,9.55l-5.15-14.09h-.01s5.16,14.09,5.16,14.09Zm1.93-1.11l-10.58-10.64s-.01.01-.02.02l10.6,10.62Zm.45-6.42l14.26-4.65h0s-14.26,4.65-14.26,4.65Zm-6.18-9.14l7.47-13.01h0s-7.46,13.01-7.46,13.01Zm-6.78-1.14l-2.18-14.84h0s2.19,14.84,2.19,14.84Zm-5.58,2.59l-10.41-10.8h0l10.41,10.8Zm16.95,1.43l-6.57,13.48c.44.22.9.41,1.36.58l5.21-14.07Zm-3.81-3.54l-13.47,6.59s0,.01,0,.02l13.46-6.61Zm9.8,3.16l-7.35-13.08s-.02.01-.03.02l7.37,13.06Zm2.53-2.91l14.17,4.92s0-.01,0-.02l-14.18-4.9Zm.17-3.68l-14.83,2.24s0,.02,0,.03l14.83-2.27Zm-1.89-3.39l5.62-13.91s-.04-.02-.06-.02l-5.56,13.93Zm-10.32,1.47l-11.78-9.29h0s11.78,9.29,11.78,9.29Zm18.54-6.38l15,.19c.1-7.76-5.74-14.32-13.46-15.12-7.72-.79-14.78,4.44-16.26,12.06l14.72,2.86Zm-2.24,3.45l-7.89-12.76c-.79.49-1.54,1.05-2.22,1.68l10.11,11.08Zm2.28-2.6l14.93-1.4h0s-14.93,1.4-14.93,1.4Zm2.24,5.11l-11.7,9.39h0s11.69-9.39,11.69-9.39Zm7.12,4.21l-1.78,14.89s.01,0,.02,0l1.76-14.9Zm7.45-3.12l-10.02-11.16c-.05.05-.11.1-.16.15l10.18,11.01Zm4.06-6.6l-14.36-4.35h0s14.36,4.35,14.36,4.35Zm.27-6.61l13.95-5.51s0,0,0-.01l-13.94,5.53Zm-4.27-3.97l5.61-13.91h-.01s-5.6,13.91-5.6,13.91Zm-5.82-1.09l1.08-14.96h0s-1.08,14.96-1.08,14.96Zm-5.54.57l6.23,13.65h.01s-6.24-13.65-6.24-13.65Zm-4.9,6.96l-14.39-4.22h0s14.4,4.22,14.4,4.22Zm-.55,2.41l-15,.35c.18,7.81,6.32,14.17,14.12,14.62,7.79.46,14.64-5.14,15.73-12.87l-14.85-2.11Zm-.91-3.5l-13.57,6.38s0,.02.01.03l13.56-6.41Zm-1.25-1.84l-10.27,10.93s.03.02.04.04l10.23-10.97Zm-3.44-1.28l-.43,14.99h0l.43-14.99Zm-6.56,4.5l14.31,4.5s0-.01,0-.02l-14.31-4.48Zm-.36,2.16l14.96,1.14h0s-14.96-1.14-14.96-1.14Zm.4,2.98l13.26-7.01h0s-13.25,7.01-13.25,7.01Zm3.13,2.29l5.11-14.1s-.02,0-.03-.01l-5.08,14.11Zm.34,26.22l-11.66,9.43c.83,1.02,1.78,1.93,2.85,2.7l8.82-12.14Zm4.06.89l-.56-14.99s-.02,0-.03,0l.59,14.99Zm-7.42-6.38l-14.15,4.98h0l14.15-4.98Zm.17-6.32l13.35,6.83h0s-13.36-6.83-13.36-6.83Zm4.35-3.75l-6.14-13.69s-.01,0-.02,0l6.15,13.68Zm6.25-.47l5.97-13.76h0s-5.97,13.76-5.97,13.76Zm4.57,7.52l14.76-2.7h0s-14.75,2.7-14.75,2.7Zm-1.12,7.24l11.21,9.97h0s-11.21-9.97-11.21-9.97Zm40.51-20.84l-8.13-12.61c-.56.36-1.1.76-1.61,1.19l9.74,11.41Zm1.4-2.78l-14.83-2.27h0s14.83,2.27,14.83,2.27Zm-2.97,3.46l2.9,14.72h0s-2.9-14.72-2.9-14.72Zm-.45.09l-3.36-14.62h-.01s3.37,14.62,3.37,14.62Zm-2.21-.03l-2.5,14.79s.02,0,.03,0l2.46-14.8Zm-1.98-1.18l-10.43,10.78s.02.02.02.02l10.41-10.8Zm-.92-1.22l13.9-5.64s0-.01,0-.02l-13.89,5.66Zm-.13-1.69l14.85,2.1s0-.02,0-.02l-14.86-2.07Zm3.21-4.33l5.13,14.1h0s-5.14-14.1-5.14-14.1Zm4.71,1.91l-13.88,5.68s0,.01,0,.02l13.88-5.7Zm.15.37l13.81-5.85h0s-13.81,5.85-13.81,5.85Zm-68-28.34l14.2,4.84h0s-14.2-4.84-14.2-4.84Zm-5.1,4.32l-2.28-14.83c-.57.09-1.13.21-1.69.36l3.97,14.47Zm5.19-5.83l14.03-5.3s0-.01,0-.02l-14.02,5.32Zm-.94-1.04l8.79-12.16h0s-8.78,12.16-8.78,12.16Zm-3.53-1.23l-1.82-14.89s-.02,0-.02,0l1.84,14.89Zm-2.58,1.37l-10.08-11.1h0s10.09,11.1,10.09,11.1Zm-2.68,3.74l13.73,6.04s0-.02.01-.02l-13.74-6.02Zm-.18.71l-14.99.5h0s14.99-.5,14.99-.5Zm.24.68l12.91-7.64s-.03-.06-.05-.08l-12.86,7.73Zm23.5,51.58l9.49-11.61s-.01-.01-.02-.02l-9.47,11.63Zm-2.04-.74l3.05,14.69c.14-.03.28-.06.42-.09l-3.47-14.59Zm3.87,5.23l14.9,1.69s0-.01,0-.02l-14.91-1.67Zm-4.72,4.25l1.31,14.94s.02,0,.03,0l-1.34-14.94Zm-2.35-.46l9-12s-.02-.01-.03-.02l-8.98,12.02Zm-1-1.58l-14.29,4.55h0s14.29-4.55,14.29-4.55Zm.38-4.62l-13.28-6.97h0s13.28,6.97,13.28,6.97Zm18.34-39.95l-5.6-13.91h0s5.61,13.91,5.61,13.91Zm4.48-12.72l-13.99,5.41h0l13.99-5.41Zm-16.48,10.59l-13.99,5.42h0l13.99-5.42Zm4.63-14.36l-5.6-13.91h0l5.6,13.91Zm6.15,39.12l7.62,12.92c.65-.38,1.27-.82,1.86-1.3l-9.48-11.62Zm1.56-3.14l-14.68-3.07h0l14.68,3.07Zm-4.46,3.26l5.6-13.92s-.02,0-.04-.01l-5.56,13.93Zm-2.44-1.76l10.58-10.64h0s-10.57,10.64-10.57,10.64Zm-1.3-1.99l14.59-3.49s0-.01,0-.02l-14.58,3.51Zm.08-1.92l-14.57-3.58h0s14.57,3.58,14.57,3.58Zm1.23-2.33l10.21,10.99s0,0,.01-.01l-10.22-10.98Zm2.4-.83l-.73,14.98h0l.73-14.98Zm2.4.78l-7.44,13.02s.03.01.04.02l7.4-13.05Zm1.71,1.55l12.91-7.64s0,0,0-.01l-12.9,7.65Zm-3.87,36.86l13.96-5.49h0l-13.96,5.49Zm.28,7.88l14.08,5.18c.11-.3.21-.6.3-.9l-14.38-4.28Zm-5.53-13.61l6.48-13.53s-.01,0-.02,0l-6.46,13.54Zm-2.84-.68l-.59-14.99s-.02,0-.03,0l.61,14.99Zm-4.72,3.4l-13.33-6.87h0s13.34,6.87,13.34,6.87Zm-1.3,5.98l-14.98-.82s0,0,0,.01l14.98.81Zm.5,4.68l13.89-5.66h0s-13.89,5.66-13.89,5.66Zm7.15,3.97l-1.45-14.93s-.02,0-.03,0l1.48,14.93Zm11.28-11.91l3.69,14.54c.64-.16,1.26-.37,1.87-.61l-5.56-13.93Zm-.48.13l4,14.46h0l-4-14.46Zm7.25-4.34l-11.81-9.25h0s11.81,9.25,11.81,9.25Zm1.16-2.51l-14.84-2.18h0s14.84,2.18,14.84,2.18Zm-.1-1.93l-14.67,3.12s0,.01,0,.02l14.67-3.15Zm-3.62-4.69l5.83-13.82h0s-5.83,13.82-5.83,13.82Zm-6.58.43l5.08,14.11h0s-5.08-14.11-5.08-14.11Zm-3.27,2.04l-11.99-9.02h0s11.99,9.02,11.99,9.02Zm-1.16,3.77l14.88,1.91s0-.01,0-.02l-14.88-1.89Zm-.01,2.52l-14.57,3.58s0,.02,0,.03l14.56-3.61Zm.71,1.55l-12.78,7.86s0,.01.01.02l12.76-7.88Zm1.61,2.14l11.1-10.09h0s-11.09,10.09-11.09,10.09Zm1.21.97l-6.05,13.73h0s6.04-13.73,6.04-13.73Zm1.5.23l.16,15s.02,0,.03,0l-.19-15Zm67.76-23.78l14.2,4.84h0s-14.2-4.84-14.2-4.84Zm-5.1,4.32l-2.28-14.83c-.57.09-1.13.21-1.69.36l3.97,14.47Zm5.19-5.83l14.03-5.3s0-.01,0-.02l-14.02,5.32Zm-.94-1.04l8.79-12.16h0s-8.78,12.16-8.78,12.16Zm-3.53-1.23l-1.82-14.89s-.02,0-.03,0l1.84,14.89Zm-2.58,1.37l-10.08-11.1h0s10.08,11.1,10.08,11.1Zm-2.68,3.74l13.73,6.04s0-.02.01-.02l-13.74-6.02Zm-.18.71l-14.99.5h0s14.99-.5,14.99-.5Zm.24.67l12.89-7.66s-.03-.04-.04-.07l-12.86,7.73Zm2.54,8.94l-14.54,3.7h0s14.53-3.7,14.53-3.7Zm-.99-1.99l9.05-11.97c-.25-.19-.51-.37-.77-.54l-8.28,12.51Zm1.01,2.08l14.55-3.66s0-.04-.01-.05l-14.53,3.71Zm-.42,2l10.56,10.66s.03-.03.04-.04l-10.59-10.62Zm-1.45.65l-3.56-14.57s-.02,0-.03,0l3.59,14.57Zm-1.3.14l-2.29,14.82s.02,0,.03,0l2.26-14.83Zm-1.05-.52l-9.96,11.21h.01s9.95-11.21,9.95-11.21Zm-.38-3.7l-12.08-8.89h0l12.08,8.89Zm-50.19-47.58l14.93,1.49s0-.02,0-.03l-14.93-1.46Zm.87,3.45l12.28-8.62c-.19-.27-.39-.54-.6-.8l-11.68,9.41Zm-.55-4.41l12.22,8.7h0s-12.23-8.7-12.23-8.7Zm1.4-.66l.23,15h0l-.23-15Zm1.56.36l5.63-13.9s-.02,0-.03-.01l-5.6,13.92Zm2.24,1.41l-10.71,10.5s.03.03.05.05l10.66-10.55Zm1.08,2.37l-15,.28s0,.02,0,.02l15-.3Zm-2.44,2.82l-1.82-14.89h0s1.82,14.89,1.82,14.89Zm18.96,29.04l-5.6-13.91h-.01s5.62,13.91,5.62,13.91Zm4.48-12.72l13.99-5.41h0s-13.99,5.41-13.99,5.41Zm-16.48,10.59l13.99-5.41h0s-13.99,5.41-13.99,5.41Zm5.38-17.27l12.54-8.23h0s-12.54,8.23-12.54,8.23Zm-1.79-3.97l-14.65-3.22c-.52,2.37-.46,4.83.18,7.17l14.47-3.94Zm4.01,5.86l-3.5,14.59s.01,0,.02,0l3.48-14.59Zm2.46-.48l-7.04-13.24h0s7.04,13.24,7.04,13.24Zm.8-.6l-11.81-9.25h0s11.81,9.25,11.81,9.25Zm.39-1.08l-14.88-1.86s0,.04,0,.05l14.89,1.81Zm-2.05-5l11.01-10.18s-.01-.01-.02-.02l-11,10.2Zm-1.18-.94l-6.22,13.65s.04.02.05.02l6.17-13.67Zm-2.42.14l-6.56-13.49s-.01,0-.02,0l6.58,13.48Zm30.45-30.21l-8.98-12.02h0s8.98,12.02,8.98,12.02Zm-2.22.86l.94,14.97c.06,0,.12,0,.18-.01l-1.12-14.96Zm3.81-2.3l-12.01-8.98s-.03.04-.05.06l12.06,8.92Zm.54-2.03l14.67-3.15h0s-14.67,3.15-14.67,3.15Zm-1.77-2.04l8.32-12.48h0s-8.31,12.48-8.31,12.48Zm-.94-.24l.68-14.98h0l-.68,14.98Zm-.51-.05l-2.57,14.78s.04,0,.05,0l2.52-14.79Zm-2.81,1.45l-10.87-10.34h0s10.88,10.34,10.88,10.34Zm-1.2,3.25l14.41-4.18h0s-14.4,4.18-14.4,4.18Zm5.9,81.26l-8.89-12.08s-.01.01-.02.02l8.91,12.07Zm-1.84.62l.58,14.99c.35-.01.71-.04,1.06-.08l-1.64-14.91Zm1.85-.63l-8.87-12.09s-.01,0-.02.01l8.89,12.08Zm0,0l-8.82-12.13s-.03.02-.05.04l8.87,12.09Zm0,0l8.82,12.13s.05-.04.07-.05l-8.9-12.08Zm1.76-1.29l8.87,12.1s.01,0,.02-.01l-8.89-12.08Zm1.4-2.38l-14.81-2.39h0s14.81,2.39,14.81,2.39Zm-.97-3.29l9.53-11.58s0,0-.01-.01l-9.52,11.6Zm-5.81-2.28l.94-14.97s-.01,0-.02,0l-.91,14.97Zm-1.6.2l-6.05-13.73s-.01,0-.02,0l6.06,13.72Zm-1.05.82l11.15,10.03s.02-.02.03-.03l-11.18-10Zm-1.61,4.77l14.87-1.94s0-.02,0-.02l-14.87,1.97Zm3.09,3.86l4.71-14.24s-.05-.02-.08-.03l-4.63,14.27Zm-36.11-32.06l-.64-14.99c-.33.01-.66.04-.99.08l1.63,14.91Zm-7.26,3.6l-8.67-12.24h0l8.67,12.24Zm9.53-1.91l12.77-7.87s0-.01-.01-.02l-12.76,7.89Zm1.03,2.58l-14.4,4.19h0s14.4-4.19,14.4-4.19Zm.5,2.07l14.82-2.3s0-.02,0-.03l-14.82,2.33Zm-1.88,8.15l-12.97-7.54s0,.01,0,.02l12.98,7.53Zm-2.26,3.13l11.2,9.97h0s-11.2-9.97-11.2-9.97Zm-3.75,2.36l-1.68-14.91h0s1.68,14.91,1.68,14.91Zm-6.01-8.94l-14.95,1.18h0s14.95-1.18,14.95-1.18Zm-.17-2.2l14.95-1.18v-.03s-14.95,1.21-14.95,1.21Zm.16-2.43l-14.07-5.2s0,.02,0,.03l14.08,5.18Zm2.07-2.25l-8.59-12.3h0s8.59,12.3,8.59,12.3Zm30.79,10.39l7.62,12.92c.65-.38,1.27-.82,1.86-1.3l-9.48-11.62Zm1.17-6.38l12.91-7.64s0,0,0-.01l-12.9,7.65Zm-1.71-1.55l-7.44,13.02s.03.01.04.02l7.4-13.05Zm-2.4-.78l-.73,14.98h0l.73-14.98Zm-2.4.83l10.21,10.99s.01,0,.01-.01l-10.22-10.98Zm-1.23,2.33l-14.57-3.58h0s14.57,3.58,14.57,3.58Zm-.08,1.92l14.59-3.49s0-.01,0-.01l-14.58,3.51Zm1.3,1.99l10.57-10.64h0s-10.57,10.64-10.57,10.64Zm2.44,1.76l5.6-13.92s-.02,0-.04-.01l-5.56,13.93Zm-.58.66l-10.2,11h0l10.2-11Zm-15.61-2.44l-11.2-9.98h0l11.2,9.98Zm19.47,10.77l-15,.22c.11,7.61,5.91,13.94,13.49,14.7,7.58.77,14.53-4.27,16.16-11.71l-14.65-3.22Zm1.2-3.03l-12.79-7.84h0s12.79,7.84,12.79,7.84Zm.9-1.04l8.15,12.59s.07-.04.1-.07l-8.25-12.53Zm1.36-.26l1.26-14.95h0s-1.25,14.95-1.25,14.95Zm4.95,2.82l11.56-9.56s0-.01-.01-.02l-11.54,9.58Zm.81,4.12l14.9,1.73h0s-14.9-1.73-14.9-1.73Zm-1.22,3l-11.02-10.18h0s11.03,10.18,11.03,10.18Zm-1.52,1.65l11.01,10.18s.01-.01.01-.02l-11.03-10.17Zm-1.57.79l.93,14.97c.54-.03,1.08-.1,1.61-.19l-2.54-14.78Zm-2.5-.27l-6.38,13.58s.03.01.04.02l6.34-13.6Zm-2.61-4.82l14.95-1.25s0-.01,0-.02l-14.95,1.27Zm-.03-.76l15-.05c-.02-7.58-5.69-13.95-13.21-14.85-7.52-.9-14.54,3.95-16.35,11.3l14.56,3.59Zm-1.31,2.61l11.2,9.98h0s-11.21-9.98-11.21-9.98Zm-17.15-.11l-10.2,11h0l10.2-11Zm11.93,2.53l-4.04-14.45c-.3.08-.61.18-.9.28l4.94,14.16Zm7.71.42l5.75-13.86h0l-5.75,13.86Zm-11.51,6.15l14.9,1.75s0-.02,0-.03l-14.9-1.72Zm3.77,7.09l5.93-13.78h0s-5.92,13.78-5.92,13.78Zm4.58.58l-.55-14.99h0s.56,14.99.56,14.99Zm5.89-1.18l-6.66-13.44h0l6.66,13.44Zm3.42-4.58l14.97.88s0-.01,0-.02l-14.98-.86Zm-.61-2.8l13.66-6.2h0s-13.65,6.2-13.65,6.2Zm6.74-1.52l14.82-2.3h0s-14.82,2.3-14.82,2.3Zm0,4.37l12.01,8.99c1.46-1.95,2.43-4.23,2.81-6.64l-14.81-2.35Zm-1.23-7.04l9.37-11.71s-.01,0-.02-.01l-9.35,11.73Zm-2.44-.61l-.68-14.99s-.05,0-.07,0l.75,14.98Zm-.97.21l-6.8-13.37s-.02.01-.03.02l6.83,13.36Zm-.8.81l12.78,7.85s.02-.03.03-.05l-12.81-7.81Zm-.19,5.41l-14.25,4.69h0s14.24-4.69,14.24-4.69Zm.68,1.36l-11.42,9.73s.02.02.02.03l11.4-9.75Zm2.25.91l-.15-15s-.03,0-.05,0l.2,15Zm-34.39-5.47l-2.28-14.83c-.57.09-1.13.21-1.69.36l3.97,14.47Zm5.1-4.32l14.2,4.84h0s-14.2-4.84-14.2-4.84Zm-9.58,2.71l12.89-7.66s-.03-.04-.04-.07l-12.86,7.73Zm-.24-.68l-14.99.5h0s14.99-.5,14.99-.5Zm.18-.71l13.73,6.04s0-.02.01-.03l-13.74-6.02Zm2.68-3.74l-10.08-11.1h0l10.09,11.1Zm2.58-1.37l-1.82-14.89s-.02,0-.02,0l1.84,14.89Zm3.53,1.23l8.79-12.16h0s-8.78,12.16-8.78,12.16Zm.94,1.04l14.03-5.3s0-.01,0-.02l-14.02,5.32Zm7.62,11.27l-14.91-1.67s0,.02,0,.03l14.91,1.64Zm-2.31,3.89l-7.89-12.76c-.8.49-1.54,1.06-2.23,1.69l10.12,11.07Zm1.44-8.23l-13.57,6.38s0,.02.01.03l13.56-6.41Zm-1.25-1.84l-10.27,10.93s.03.02.04.04l10.23-10.97Zm-3.44-1.28l-.43,14.99h0l.43-14.99Zm-6.56,4.5l14.31,4.5s0-.01,0-.02l-14.31-4.48Zm-.36,2.16l14.96,1.14h0s-14.96-1.14-14.96-1.14Zm.4,2.98l13.26-7.01h0s-13.25,7.01-13.25,7.01Zm3.13,2.29l5.11-14.1s-.02,0-.03-.01l-5.08,14.11Zm6.7-90.58l-.51-14.99c-1.08.04-2.16.19-3.21.46l3.72,14.53Zm4.65-3.24l-13.36-6.81h0l13.36,6.81Zm-6.66,2.45l-11.48,9.65s.02.02.03.03l11.46-9.68Zm-.96-2.06l14.4-4.21h0s-14.39,4.21-14.39,4.21Zm-.15-6.69l-13.88-5.7h0s13.88,5.7,13.88,5.7Zm1.34-1.65l6.86,13.34s.03-.02.04-.02l-6.9-13.32Zm1.16-.28l-1.02-14.97s-.01,0-.02,0l1.04,14.96Zm5,2.54l-12.63,8.09h0s12.62-8.09,12.62-8.09Zm-23.67,96.46l1.31-14.94c-.33-.03-.67-.05-1-.05l-.31,15Zm-4.43-2.22l10.99-10.21h0s-10.98,10.21-10.98,10.21Zm9.54.36l-12.43-8.39s0,0,0,.01l12.44,8.38Zm-.67-5.26l9.66-11.48h0s-9.66,11.48-9.66,11.48Zm-3.51-.99l-1.21-14.95h0l1.21,14.95Zm-3.59,1.17l7,13.27h.01s-7.01-13.27-7.01-13.27Zm-1.84,1.37l11.54,9.58h0l-11.54-9.58Zm-.63,2.13l-14.65,3.23s0,.03.01.05l14.64-3.28Zm-18.19-83.51l.97,14.97c.05,0,.1,0,.15-.01l-1.13-14.96Zm2.23-.86l-8.98-12.02h0s8.98,12.02,8.98,12.02Zm-3.91-4.36l-10.87-10.34h0s10.88,10.34,10.88,10.34Zm2.81-1.45l-2.57,14.78s.03,0,.05,0l2.52-14.79Zm.51.05l-.68,14.98h0l.68-14.98Zm.94.24l8.32-12.48h-.01s-8.31,12.48-8.31,12.48Zm1.77,2.04l14.67-3.15h0s-14.66,3.15-14.66,3.15Zm-.54,2.03l-12.06-8.92h0l12.06,8.92Zm45.85-22.27c-.11,0,.58-.02,1.59.19,1.12.23,2.79.79,4.48,2.07l-18.14,23.89c5.18,3.93,10.78,3.87,12.38,3.85l-.31-30Zm-6.02,3.66c2.15-2.5,4.64-3.3,5.65-3.53.82-.19,1.28-.14.35-.13l.35,30c.96-.01,3.4-.03,6.05-.64,2.83-.65,6.99-2.23,10.37-6.16l-22.77-19.53Zm-2.59,6.99c.07.35-.07-.08,0-1.01.07-.95.45-3.48,2.59-5.98l22.78,19.52c3.39-3.96,4.33-8.37,4.55-11.32.22-2.93-.18-5.51-.52-7.15l-29.41,5.94Zm4.64,4.51c-2.74-1.29-3.98-3.25-4.35-3.94-.36-.68-.37-.97-.29-.57l29.41-5.93c-.41-2.03-1.17-4.86-2.71-7.72-1.55-2.88-4.39-6.68-9.3-8.98l-12.75,27.15Zm7.62.38c-.41.18-1.23.49-2.43.59-1.27.1-3.15-.02-5.18-.97L100.38,1.84c-7.14-3.35-13.85-1.4-17.25.11l12.13,27.44Zm4.18-4.35c-1.49,3.12-3.82,4.19-4.18,4.35L83.13,1.95c-3.07,1.36-7.95,4.28-10.76,10.15l27.07,12.94Zm.56-6.57c.2.55.39,1.32.41,2.31.02.99-.14,2.53-.97,4.27l-27.06-12.96c-3.03,6.33-2.02,12.66-.57,16.64l28.19-10.26Zm.36.25c-.19-.24-.33-.43-.44-.57-.11-.14-.16-.23-.18-.26-.05-.08.09.12.25.56l-28.18,10.3c1.47,4.02,3.78,7.02,5.04,8.62l23.5-18.64Zm-11.81,21.81c3.46-2.6,5.68-5.85,7.05-8.78l-27.19-12.67c.27-.58.87-1.59,2.11-2.52l18.03,23.98Zm-13.66,4.29c5.48.26,10.27-1.74,13.66-4.29l-18.03-23.98c.68-.51,1.45-.93,2.33-1.23.87-.3,2.05-.54,3.48-.47l-1.43,29.97Zm-8.08-1.99c.65.27,3.98,1.79,8.07,1.99l1.44-29.97c1.1.05,1.88.27,2.2.37.16.05.24.08.19.07-.06-.02-.14-.06-.39-.16l-11.52,27.7Zm-.08-.03l.09.04,11.5-27.71-.09-.04-11.5,27.71Zm-3.98-1.73c1.46.68,2.9,1.28,3.98,1.73l11.5-27.71c-1.19-.49-2.02-.84-2.78-1.2l-12.7,27.18Zm-6.14-4.1c2.61,2.55,5.57,3.84,6.15,4.11l12.69-27.19c-.31-.14-.13-.07.18.11.33.19,1.1.67,1.96,1.52l-20.97,21.45Zm-5.55-15.35c-.45,4.83.89,10.82,5.58,15.38l20.91-21.51c2.97,2.88,3.6,6.44,3.37,8.89l-29.87-2.77Zm4.16-10.77c-1.72,2.4-3.72,6.08-4.16,10.77l29.87,2.77c-.11,1.2-.41,2.13-.67,2.73-.26.6-.52,1.01-.68,1.23l-24.36-17.5Zm3.29-3.58c-1.73,1.45-2.83,2.93-3.32,3.62l24.41,17.44c-.06.09-.7,1-1.85,1.96L58.51,7.26Zm3.83-2.48c-.1.05-1.97.94-3.75,2.41l19.08,23.15c-.67.55-1.23.89-1.48,1.04-.22.13-.39.21-.14.08l-13.71-26.68Zm0,0h0s13.7,26.69,13.7,26.69h0s-13.7-26.69-13.7-26.69Zm3.78-1.86c-1.41.65-2.74,1.33-3.77,1.85l13.67,26.7c1.09-.56,1.87-.95,2.62-1.3l-12.52-27.26Zm.17-.08c-.07.03-.1.05-.14.07-.03.02-.04.02-.04.02l12.55,27.25c.23-.11.45-.21.56-.26l-12.93-27.07Zm-.44.22h0s13.81,26.63,13.81,26.63h0l-13.81-26.63Zm7.88-2.31c-4.06.27-7.35,2.05-7.44,2.09l12.93,27.07c.43-.2.13-.05-.29.11-.5.18-1.63.56-3.19.66l-2-29.93Zm15.92,4.79c-3.42-2.45-9.15-5.24-15.9-4.79l1.98,29.93c-1.4.09-2.32-.18-2.66-.3-.37-.13-.64-.28-.9-.47l17.48-24.38Zm5.83,26.47c2.87-5.87,5.02-18.68-5.82-26.47l-17.5,24.37c-2.99-2.15-4.04-5.14-4.26-7.06-.2-1.78.19-3.12.63-4.03l26.95,13.19Zm-35.55-5.88c-.11-.14-.21-.26-.3-.36-.09-.11-.16-.19-.22-.27-.12-.15-.17-.22-.18-.23,0,0,.05.07.13.19.08.13.18.31.29.52.11.21.19.42.26.61.07.19.11.32.13.39.02.07.01.06,0-.03-.02-.1-.05-.26-.09-.53l-29.67,4.45c.38,2.52,1,5.41,2.48,8.41,1.38,2.8,3.17,4.91,4.07,5.99l23.09-19.15Zm-3.41-1.36c1.88.36,3.04,1.17,3.45,1.48.36.28.37.37-.03-.12l-23.1,19.14c1.63,1.97,6.28,7.47,14.04,8.96l5.65-29.46Zm-6.14,1.13c.42-.31,1.06-.69,1.98-.96.95-.28,2.4-.5,4.15-.17l-5.63,29.47c7.33,1.4,13.54-1.42,17.3-4.19l-17.8-24.15Zm.82-1.18c-.54.74-.82,1.1-1.02,1.32-.18.2-.11.09.2-.14l17.8,24.15c3.65-2.69,6.08-6.04,7.25-7.65l-24.24-17.68Zm-.21,1.61c.19-1.31.61-2.13.71-2.31.05-.1.06-.1-.03.03-.09.14-.23.33-.47.66l24.23,17.7c.96-1.32,4.36-5.72,5.24-11.74l-29.69-4.34Zm.27,3.88c.41.48.35.52.17.11-.21-.47-.74-1.93-.43-4.01l29.68,4.36c1.42-9.7-4.08-16.97-6.49-19.81l-22.93,19.35Zm1.08.63c-.72-.38-1.14-.74-1.27-.86-.12-.11-.07-.08.2.24l22.91-19.37c-1.31-1.55-3.92-4.49-7.9-6.57l-13.94,26.57Zm3.32.78c-.15.02-.5.05-1.03-.03-.54-.07-1.35-.27-2.27-.75l13.91-26.58c-5.12-2.68-10.33-2.89-14.16-2.43l3.56,29.79Zm2.61-1.66c-.57.72-1.17,1.12-1.59,1.34-.41.21-.74.29-1.01.32l-3.58-29.79c-5.93.71-12.55,3.53-17.22,9.36l23.4,18.77Zm1.66-3.75c-.08-.51,0-.35-.08.27-.1.73-.47,2.1-1.58,3.48l-23.4-18.77c-5.81,7.25-5.25,15.59-4.54,19.91l29.6-4.9Zm43.3,10.07c-2.62-1.98-3.73-4.31-4.11-5.19-.37-.87-.52-1.59-.39-1.08l29.07-7.41c-.04-.16-.39-1.66-1.06-3.23-.68-1.6-2.2-4.58-5.42-7.01l-18.09,23.93Zm17.51-2.39c-2.14,2.89-5.09,4.35-7.71,4.82-2.62.47-5.94.15-9.02-1.89l16.54-25.02c-7.86-5.2-18.43-3.18-23.92,4.23l24.11,17.86Zm-1.71-16.44c2.71,2.41,3.83,5.42,4.09,7.9.26,2.48-.24,5.63-2.35,8.51l-24.16-17.79c-5.36,7.28-4.35,17.73,2.5,23.81l19.93-22.43Zm-6.62-3.09c3.09.48,5.29,1.91,6.61,3.08l-19.91,22.44c1.92,1.7,4.84,3.53,8.71,4.13l4.58-29.65Zm-4.58.12c-.24.06.23-.07.87-.16.7-.1,2.02-.22,3.68.03l-4.52,29.66c3.82.58,7.09-.39,7.15-.4l-7.17-29.13Zm-5.52,3.26c1.67-1.66,3.37-2.47,4.31-2.85.85-.34,1.53-.48,1.24-.41l7.12,29.14c.24-.06,1.44-.34,2.79-.88,1.44-.58,3.6-1.65,5.66-3.69l-21.11-21.31Zm-3.57,12.32c-.39-1.54-.53-3.35-.16-5.32.37-2,1.37-4.64,3.69-6.96l21.19,21.24c5.54-5.53,5.31-12.55,4.37-16.27l-29.09,7.32Zm-.01-.04l.02.1,29.07-7.42-.03-.1-29.07,7.42Zm6.12,23.33c8.37-.86,13.32-6.88,15.19-9.67l-24.9-16.73c.23-.34.63-.86,1.38-1.44.68-.53,2.45-1.71,5.25-2l3.08,29.84Zm-13.53-3.14c4.26,2.58,8.68,3.25,12.13,3.22l-.28-30c.54,0,1.99.09,3.68,1.11l-15.53,25.67Zm-9.52-12.8c1.47,5.8,5.24,10.2,9.51,12.79l15.56-25.65c1.71,1.04,3.35,2.84,4.02,5.5l-29.08,7.36Zm1.48-15.24c-1.07,2.6-3.19,8.47-1.48,15.24l29.08-7.37c.4,1.57.27,2.77.18,3.25-.08.46-.17.6-.04.28l-27.75-11.4Zm4.31-6.96c-2.57,2.77-3.83,5.79-4.3,6.94l27.73,11.44c.09-.21.03-.06-.14.25-.18.32-.59,1-1.32,1.78l-21.98-20.42Zm19.01-5.8c-5.26-1.11-13.16-.49-19,5.78l21.96,20.44c-3.32,3.56-7.34,3.51-9.17,3.12l6.21-29.35Zm13.53,8.97c-3.35-4.83-8.34-7.87-13.53-8.97l-6.21,29.35c-1.84-.39-3.63-1.45-4.89-3.26l24.64-17.12Zm3.46,17.14c1.34-6.19-.19-12.45-3.47-17.16l-24.62,17.15c-.66-.95-1.06-1.93-1.26-2.88-.2-.95-.26-2.13.02-3.45l29.32,6.34Zm-3.56,8.17c1.24-1.84,2.79-4.62,3.56-8.2l-29.33-6.28c.3-1.41.84-2.21.89-2.27l24.89,16.75Zm-5.12,8.48c1.67-5.56,1.57-11.81-.7-17.55l-27.89,11.05c-.19-.47-.25-.88-.26-1.19-.01-.31.03-.63.12-.94l28.73,8.64Zm-19.56,14.28c2.29-.23,14.73-1.17,19.25-13.38l-28.13-10.43c.48-1.3,1.28-2.58,2.36-3.67,1.05-1.05,2.1-1.66,2.82-1.99,1.19-.54,1.85-.48.75-.37l2.94,29.86Zm-18.85-7.38c4.91,5.63,12.2,8.04,18.85,7.38l-2.94-29.86c1.26-.12,2.41.06,3.41.44,1,.38,2.2,1.08,3.27,2.31l-22.6,19.73Zm27.39-8.35c-.41-2.25-1.17-5.26-2.71-8.29l-26.77,13.54c-.07-.13-.11-.23-.13-.28-.02-.05-.02-.06-.01-.03,0,.03.02.08.04.16.02.08.04.18.06.31l29.51-5.41Zm-4.67,19.91c6.81-7.66,5.15-17.25,4.67-19.9l-29.51,5.39c.1.56,0,.35.07-.37.08-.79.47-2.94,2.35-5.05l22.42,19.93Zm-17.44,7.18c1.25-.05,3.92-.15,6.76-.85,3-.75,7.2-2.41,10.68-6.32l-22.41-19.94c1.84-2.07,3.86-2.7,4.48-2.85.32-.08.46-.08.31-.07-.15.02-.41.03-.93.05l1.12,29.98Zm-13.43-3.75c5.6,4.07,11.66,3.82,13.47,3.74l-1.18-29.98c-.28.01.24-.04,1.1.11.96.17,2.58.63,4.25,1.84l-17.63,24.27Zm-8.69-12.64c1.62,4.59,4.3,8.03,5.84,9.94l23.32-18.87c-.53-.66-.79-1.02-.94-1.25-.13-.21-.05-.12.07.22l-28.3,9.96Zm.97-18.13c-3.4,6.64-2.6,13.49-.97,18.13l28.3-9.95c.16.44.3,1.07.3,1.91,0,.85-.19,2.15-.92,3.59l-26.71-13.67Zm4.98-6.39c-1.8,1.6-3.6,3.7-4.98,6.4l26.71,13.66c-.59,1.15-1.29,1.91-1.79,2.36l-19.94-22.42Zm-14.61,19.43c4.73,5.69,11.47,7.41,15.72,7.86,4.73.5,10.37-.09,15.53-2.65l-13.35-26.87c.51-.25.82-.3.86-.31.06,0,.08,0,.13,0,.03,0,.37.04.96.29.53.23,1.88.9,3.22,2.51l-23.07,19.17Zm-4.34-9.23c.57,2.79,1.79,6.16,4.33,9.21l23.1-19.14c1.37,1.65,1.82,3.2,1.97,3.93l-29.39,6Zm29.75-3.12c-.03-.59-.09-1.28-.2-2.03l-29.69,4.3c-.04-.26-.05-.46-.06-.55l29.95-1.72Zm-.84,6.19c.64-1.83.81-3.43.85-4.44.04-.95-.01-1.73-.02-1.81l-29.94,1.84s-.01-.16-.02-.38c0-.22-.01-.58,0-1.03.04-.88.19-2.34.78-4.05l28.33,9.87Zm-4.41,6.57c.25-.22,2.97-2.5,4.39-6.51l-28.28-10c.7-1.99,1.7-3.42,2.41-4.29.68-.84,1.3-1.39,1.44-1.52l20.05,22.32Zm-17.21,4.2c4.83,1.15,11.56.69,17.01-4.03l-19.65-22.67c3.47-3.01,7.32-3.02,9.58-2.49l-6.94,29.19Zm.37.08c-.07-.01-.18-.04-.32-.07l6.84-29.21c-.19-.04-.35-.08-.47-.1l-6.05,29.38Zm.02,0h.05s5.9-29.4,5.9-29.4h-.05s-5.9,29.4-5.9,29.4Zm.48.09h0l4.93-29.59h0l-4.93,29.59Zm-11.95-10.09c.87,2.54,2.89,6.14,7.1,8.43,1.55.84,2.9,1.22,3.47,1.37.32.08.58.14.71.17.07.01.13.03.16.03.03,0,.06.01.07.01l5.82-29.43c-.17-.03.28.05.77.18.53.14,1.83.5,3.35,1.32,1.71.93,3.36,2.26,4.71,4.05,1.26,1.65,1.9,3.21,2.23,4.18l-28.39,9.69Zm-1.5-7.53c-.08,2.63.36,8.31,4.82,13.01l21.77-20.64c1.88,1.99,2.66,4.02,2.98,5.17.35,1.22.45,2.34.42,3.33l-29.99-.87Zm6.86-13.26c-4.25,3.19-6.71,8.13-6.86,13.26l29.99.87c-.11,3.81-1.91,7.45-5.11,9.85l-18.02-23.99Zm8.55-3.46c-.09.01-4.58.48-8.56,3.48l18.05,23.96c-1.62,1.22-3.13,1.75-3.9,1.98-.68.2-1.2.26-.79.2l-4.8-29.61Zm5.98.06c-1.81-.36-3.33-.33-4.29-.26-.88.06-1.64.19-1.66.2l4.74,29.62c.2-.03-.33.06-.99.11-.73.05-2.02.08-3.61-.23l5.8-29.43Zm10.95,7.89c-.84-1.43-4.04-6.48-10.86-7.87l-5.99,29.4c-3.11-.63-5.3-2.16-6.6-3.34-1.26-1.16-2.01-2.29-2.41-2.96l25.85-15.23Zm2.24,5.8c-.35-1.64-1-3.69-2.25-5.82l-25.84,15.25c-.77-1.3-1.1-2.46-1.25-3.16l29.34-6.27Zm-20.41-19.53c-3.99,3.44-6.42,7.82-7.77,11.73-1.35,3.9-2.03,8.54-1.32,13.2l29.66-4.53c.09.57.06.91.05.99,0,.06-.01.09-.02.1,0,.01,0,.02,0,.02,0,0,0,.02-.02.06-.02.03-.05.09-.1.18-.1.16-.36.52-.86.96l-19.6-22.71Zm35.92,1.6c-5.49-6.62-13.59-7.88-18.36-7.86-5.33.02-12.11,1.56-17.55,6.26l19.6,22.71c-.78.67-1.4.9-1.59.96-.2.07-.3.07-.35.07-.03,0-.39,0-1.06-.22-.59-.2-2.22-.89-3.78-2.76l23.09-19.15Zm-3.68,35.13c5.13-4.74,7.49-11.1,8.26-16.21.69-4.57.72-12.52-4.58-18.91l-23.1,19.14c-1.5-1.82-1.85-3.45-1.94-3.93-.05-.32-.06-.53-.06-.63,0-.05,0-.09,0-.11s0-.03,0-.03c0,0,0,0,0,0,0,0,0,0,0,0,0,0,0-.03.04-.1.04-.09.3-.62,1.02-1.28l20.35,22.04Zm-15.61-25.05c-.51.23-1.03.48-1.55.76l13.97,26.55c-.05.03-.09.04-.11.05l-12.31-27.36Zm18.36-.55c-7.61-3.3-14.74-1.08-18.35.54l12.28,27.37c-.09.04-.57.25-1.44.35-.91.1-2.54.08-4.42-.73l11.93-27.53Zm8.07,6.25c-1.87-2.36-4.51-4.7-8.07-6.24l-11.94,27.52c-1.71-.74-2.85-1.82-3.5-2.64l23.51-18.64Zm-25.57,15.15v.03s27.63-11.72,27.63-11.72v-.03s-27.63,11.72-27.63,11.72Zm-.06-.14l.02.04,27.7-11.53-.02-.04-27.7,11.53Zm-1.63-11.17c-.09,1.63-.39,6.27,1.6,11.11l27.75-11.41c.46,1.12.56,1.98.58,2.27.02.25,0,.26.03-.32l-29.95-1.66Zm2.95-11.95c-2.5,4.81-2.82,9.64-2.95,11.93l29.95,1.68c.02-.35.04-.59.06-.77.02-.18.03-.24.03-.23,0,.01-.03.14-.1.35-.07.21-.18.51-.37.88l-26.62-13.83Zm17.37-11.41c-9.04.36-14.84,6.54-17.37,11.41l26.62,13.83c-.49.94-1.24,1.92-2.38,2.78-1.17.87-3.09,1.86-5.67,1.96l-1.2-29.98Zm9.83,2.1c-2.13-1.01-5.58-2.27-9.82-2.1l1.19,29.98c-2.31.09-3.84-.59-4.21-.77l12.85-27.11Zm12.71,13.65c-2.28-5.76-6.73-10.81-12.7-13.65l-12.86,27.11c-.68-.32-1.17-.72-1.52-1.1-.34-.37-.62-.81-.82-1.31l27.89-11.05Zm-1.14,16.3c-.54,0-.71-.09-.54-.03.06.02.12.05.19.08.03.02.06.03.08.04.02.01.03.02.03.02,0,0-.02-.01-.05-.04-.03-.02-.08-.07-.15-.13-.13-.12-.36-.37-.64-.77-.53-.76-1.52-2.55-1.52-5.2h30c0-9.74-6.74-15.91-10.69-18.61-4.5-3.08-10.5-5.36-16.73-5.36v30Zm-.8,0c.23,0,.51,0,.8,0v-30c-.18,0-.37,0-.61,0l-.19,30Zm3.24-2c-.5.45-1.14.9-1.89,1.27-.75.36-1.41.55-1.89.65-.44.09-.68.09-.57.09.17,0,.4,0,1.11,0l.19-30c-2.03-.01-10.14-.53-17.09,5.77l20.14,22.23Zm.74-2.77c0,.82-.09,1.42-.15,1.75-.06.35-.13.57-.16.67-.05.18-.06.16.02,0,.07-.15.15-.26.17-.29.05-.07-.13.2-.61.64l-20.15-22.23c-2.91,2.64-4.96,5.9-6.25,8.47-1.13,2.26-2.87,6.37-2.87,10.99h30Zm-4.7-2.93c2.1,0,3.51.71,4.07,1.07.55.35.68.57.58.44-.03-.04-.08-.1-.12-.17-.04-.07-.06-.12-.06-.11,0,0,.01.03.03.08.02.05.04.14.07.26.05.22.13.69.13,1.37h-30c0,6.65,3.02,12.82,6.27,17,3.13,4.02,9.58,10.07,19.03,10.07v-30Zm-1.05,1.68c0-.84.09-1.52.19-2.01.1-.49.22-.87.3-1.11.16-.46.29-.65.24-.56-.04.06-.16.25-.38.52-.21.26-.48.56-.78.85-.3.3-.6.56-.88.77-.28.22-.47.34-.56.38-.1.06.04-.04.42-.16.36-.12,1.23-.36,2.49-.36v30c5.01,0,9.2-1.86,11.86-3.37,2.9-1.64,5.49-3.71,7.65-5.82,2.15-2.1,4.23-4.61,5.88-7.35,1.43-2.37,3.56-6.6,3.56-11.78h-30Zm-77.92,22.63c1.6,0,2.92.14,3.93.34.49.1.87.2,1.14.29.27.09.38.15.38.15,0,0-.18-.1-.45-.32-.28-.23-.67-.61-1.06-1.17-.89-1.27-1.36-2.81-1.36-4.22h30c0-10.51-6.6-17.4-13.17-20.84-6.1-3.21-13.17-4.22-19.39-4.22v30Zm-2.56,5.12c0,.55-.07.76-.03.57.04-.15.13-.48.32-.96.39-.98,1.02-2.12,1.8-3.14.8-1.05,1.46-1.6,1.78-1.81.28-.18-.2.21-1.31.21v-30c-11.77,0-20.05,7.77-24.36,13.45C3.85,56.68,0,64.84,0,72.63h30Zm1.54-3.37c-2.5,0-3.41-.65-3.26-.54.12.09.57.44,1,1.21.46.81.71,1.77.71,2.7H0c0,9.02,4.75,16.2,10.98,20.61,6,4.24,13.36,6.03,20.56,6.03v-30Zm3.57-6.69c0-.7.1-.98.04-.74-.05.2-.17.6-.42,1.19-.5,1.2-1.3,2.62-2.28,3.93-1.01,1.34-1.89,2.14-2.41,2.5-.53.37.01-.19,1.49-.19v30c12.21,0,20.75-8.74,24.93-14.31,2.45-3.27,4.48-6.84,5.95-10.35,1.36-3.25,2.7-7.54,2.7-12.03h-30Zm84.69,9.63c1.09,0,2.27.15,3.39.45,1.14.3,1.99.69,2.53,1.02.56.34.47.43.16-.03-.39-.56-.88-1.65-.88-3.03h30c0-11.27-7.36-18.71-13.64-22.55-6.43-3.92-14.24-5.86-21.55-5.86v30Zm.07,5.68c0-2.79.26-4.65.54-5.8.28-1.13.5-1.28.28-.99-.3.4-.81.82-1.35,1.05-.44.19-.41.05.46.05v-30c-8.28,0-17.05,2.83-23.09,10.88-5.38,7.16-6.84,16.23-6.84,24.81h30Zm-2.39-4.28s.67.32,1.39,1.38c.79,1.16.99,2.32.99,2.9h-30c0,11.08,6.5,18.77,14.37,22.65l13.24-26.92Zm-11.26,27.54c-.2.05-.34.05-.39.04-.05,0-.04,0,0,0l10.07-28.26c-5.09-1.81-10.9-2.35-16.67-.96l6.99,29.18Zm3.77-1.95c-1.1.87-2.1,1.35-2.74,1.61-.61.25-1.04.34-1.04.35l-6.97-29.18c-1.25.3-4.63,1.14-7.87,3.71l18.62,23.52Zm4.22-8.46c-.09-.43.09.1-.04,1.23-.14,1.22-.85,4.6-4.2,7.24l-18.59-23.55c-5.11,4.03-6.63,9.46-7.02,12.95-.38,3.39.1,6.4.47,8.19l29.38-6.06Zm-.66.76c1.02.75,1.32,1.47,1.24,1.3-.03-.07-.12-.27-.23-.64-.11-.37-.23-.83-.35-1.42l-29.38,6.06c.88,4.25,3.11,13.09,10.91,18.84l17.81-24.14Zm-2.76-1.01c.37-.01,1.46.04,2.77,1.01l-17.82,24.14c5.08,3.75,10.94,5,15.97,4.84l-.92-29.99Zm-2.82,1.16c1.38-1.05,2.53-1.15,2.85-1.16l.88,29.99c4.47-.13,9.81-1.41,14.51-5l-18.23-23.82Zm-2.98,6.08c.09-3.06,1.62-5.04,2.96-6.07l18.26,23.8c4.66-3.58,8.54-9.54,8.76-16.83l-29.99-.9Zm.6,3.03c.11.18-.08-.1-.28-.71-.22-.69-.35-1.5-.32-2.32l29.99.9c.18-5.82-1.84-10.3-3.72-13.41l-25.66,15.54Zm.29.46s.06.03.04.02c-.01-.01-.08-.07-.15-.19l25.3-16.12c-3.02-4.74-7.25-8.3-11.87-10.6l-13.32,26.88Zm16.55-26.95c-2.52,0-4.08-.34-4.76-.59l-10.26,28.19c4.95,1.8,10.21,2.4,15.02,2.4v-30Zm2.56-3.67c0-.32.06-.11-.22.56-.26.63-.69,1.34-1.24,1.97-.55.63-1.04.97-1.31,1.12-.24.13-.15.02.21.02v30c10.44,0,18.65-5.6,23.74-11.45,5-5.75,8.83-13.79,8.83-22.21h-30Zm-84.61,18.12c-.13-.17.1.09.36.68.3.66.52,1.46.59,2.28l-29.9,2.43c.47,5.82,2.98,10.05,5.19,12.92l23.76-18.31Zm-.72-.36c.2-.07.34-.08.38-.09.04,0,.02,0-.02,0-.05-.01-.07-.03-.06-.02.01,0,.09.06.2.19l-23.32,18.87c7.81,9.65,21.38,13.53,33.14,9.22l-10.32-28.17Zm-3.5,2.36c.98-.98,1.92-1.57,2.52-1.9.58-.32.99-.46,1-.46l10.3,28.18c1.22-.45,4.46-1.67,7.38-4.58l-21.19-21.24Zm-3.22,8.84c.14.42-.1-.09-.1-1.23,0-1.23.33-4.64,3.34-7.63l21.15,21.27c4.6-4.57,5.51-10.12,5.51-13.63,0-3.42-.81-6.35-1.38-8.08l-28.52,9.3Zm.61-.78c-1.12-.64-1.5-1.33-1.41-1.18.04.06.14.25.3.6.15.35.32.8.51,1.37l28.52-9.31c-1.34-4.11-4.55-12.66-12.97-17.5l-14.94,26.02Zm2.88.69c-.35.05-1.44.13-2.87-.69l14.92-26.02c-5.49-3.15-11.46-3.7-16.42-2.97l4.36,29.68Zm2.65-1.45c-1.23,1.18-2.34,1.4-2.64,1.45l-4.38-29.68c-4.41.65-9.55,2.53-13.8,6.62l20.81,21.61Zm2.26-6.35c.25,3.05-1.05,5.18-2.26,6.35l-20.81-21.61c-4.24,4.08-7.43,10.44-6.83,17.72l29.9-2.46Zm10.86-16.51c.25.12,1.93.98,3.08,3.33l-26.93,13.22c2.79,5.68,7.39,8.8,10.7,10.41l13.14-26.97Zm-7.95.04c.57-.32,1.81-.87,3.51-.99,1.64-.11,2.78.25,3.09.37l-10.42,28.13c2.59.96,5.75,1.68,9.34,1.43,3.64-.24,6.73-1.41,9.23-2.82l-14.75-26.12Zm-4.26,5.23c.99-2.86,2.91-4.47,4.29-5.24l14.69,26.16c3.58-2.01,7.46-5.6,9.36-11.07l-28.34-9.85Zm-.49,3.51c0,.05-.04-.24-.03-.76.01-.53.1-1.51.52-2.73l28.35,9.81c1.59-4.58,1.14-8.76.82-10.86l-29.65,4.54Zm7.32,8.25c-4.13-1.67-5.95-4.75-6.54-5.94-.62-1.27-.76-2.19-.78-2.34l29.66-4.48c-.23-1.54-.73-3.92-1.96-6.41-1.19-2.43-3.86-6.5-9.15-8.64l-11.24,27.82Zm4.27.92c.31,0-.17.01-.77-.05-.69-.07-1.95-.25-3.44-.85l11.12-27.86c-3.53-1.41-6.89-1.24-6.91-1.24v30Zm-3.92,0h3.92v-30h-3.92v30Zm6.72-4.07c-2.02,2.57-4.54,3.54-5.87,3.87-1.04.26-1.69.19-.86.19v-30c-.8,0-10.54-.62-16.83,7.36l23.56,18.57Zm1.41-10.53c.7,1.43.99,2.9.94,4.35-.05,1.42-.48,3.81-2.34,6.17l-23.57-18.56c-5.66,7.18-4.55,15.97-1.97,21.23l26.95-13.19Zm-9.37-8c.22-1.11.63-2.17,1.25-3.17.63-.99,1.67-2.24,3.34-3.27l15.78,25.51c5.5-3.4,8.2-8.85,9.08-13.35l-29.45-5.73Zm29.69,2.32c.03.28.03.53.03.74l-30-.39c-.01.78.02,1.6.1,2.45l29.87-2.8Zm-.99-2.87c.07.09.26.33.45.76.2.44.45,1.15.54,2.11l-29.87,2.8c.53,5.64,3.07,10.1,5.48,13.1l23.4-18.78Zm-2.8-1.3c.98.12,1.67.43,2.06.67.38.23.6.46.73.62l-23.39,18.79c3.69,4.6,9.55,8.82,17.04,9.71l3.55-29.79Zm-4.51.76c-.36.33-.22.12.42-.18.76-.35,2.22-.8,4.08-.58l-3.52,29.79c9.4,1.11,16.18-4.04,19.39-7l-20.36-22.03Zm-.12.07c-.11.35-.18.6-.24.79-.06.19-.09.27-.1.28,0,.01.02-.07.09-.2.06-.14.16-.32.27-.53.12-.21.24-.4.37-.57.12-.17.22-.28.27-.34.05-.06.06-.06,0,0-.06.06-.18.18-.37.35l20.04,22.32c1.9-1.71,3.97-3.82,5.66-6.72,1.56-2.69,2.33-5.35,2.74-6.69l-28.71-8.69Zm.68,3.25c-.66-1.66-.62-2.98-.59-3.43.03-.4.09-.43-.09.18l28.71,8.69c.76-2.51,2.71-9.27-.13-16.47l-27.9,11.03Zm4.07,4.42c-.49-.2-1.14-.54-1.84-1.17-.71-.64-1.61-1.69-2.22-3.25l27.89-11.06c-2.7-6.8-8.23-10.59-12.61-12.36l-11.22,27.82Zm-1.3-.04c.43.03.76.06,1.04.09.27.03.45.05.57.07.24.04.08.03-.3-.12l11.2-27.83c-4.24-1.71-8.36-1.99-10.34-2.13l-2.17,29.92Zm1.78-.75c-1.29.59-2.29.68-2.54.7-.14,0-.16,0-.02,0,.15,0,.37.02.78.05l2.16-29.92c-1.56-.11-7.21-.69-12.85,1.89l12.47,27.28Zm3.26-2.46c.19-.64.26-.62.02-.23-.27.43-1.25,1.77-3.29,2.7l-12.45-27.29c-9.04,4.12-12.05,12.93-13.06,16.39l28.79,8.44Zm-.09.29c-.02.11-.03.14-.01.09.01-.06.04-.18.1-.38l-28.79-8.43c-.33,1.13-.75,2.7-1,4.52l29.7,4.21Zm-29.32.8c-.08-.18-.49-1.08-.53-2.56l29.99-.7c-.09-3.89-1.21-7.17-2.34-9.56l-27.12,12.82Zm2.08,2.72c-.78-.73-1.29-1.41-1.6-1.89-.3-.46-.46-.8-.49-.86l27.15-12.76c-.64-1.36-2-4-4.59-6.43l-20.47,21.94Zm6.36,2.75c-1.28-.04-3.91-.44-6.4-2.78l20.54-21.86c-4.29-4.03-9.48-5.23-13.29-5.34l-.85,29.99Zm8.18-6.02c-.73,2.32-2.13,3.8-3.33,4.62-1.22.83-2.86,1.45-4.85,1.39l.85-29.99c-9.14-.26-18.33,5.52-21.3,15.01l28.63,8.96Zm.28-1.19c.01-.16.01-.09-.02.1-.03.2-.1.59-.27,1.11l-28.62-9c-.74,2.36-.93,4.46-1.01,5.53l29.91,2.26Zm-1.3-5.18c.91,1.71,1.18,3.23,1.26,4.08.08.79.02,1.3.04,1.1l-29.91-2.29c-.09,1.24-.55,6.14,2.11,11.15l26.51-14.05Zm-5.04-4.8c.06.02.68.24,1.52.81.86.58,2.37,1.82,3.52,4l-26.52,14.02c3.36,6.35,9.3,8.67,11.31,9.39l10.17-28.22Zm-8.55,2.46c2.48-2.27,5.13-2.69,6.33-2.74,1.19-.05,1.92.18,2.25.29l-10.23,28.2c2.53.92,5.74,1.63,9.28,1.47,3.56-.15,8.42-1.26,12.6-5.08l-20.23-22.15Zm-5.01,50.01c5.6,4.07,11.66,3.82,13.47,3.74l-1.18-29.98c-.28.01.24-.04,1.1.11.96.17,2.58.63,4.25,1.84l-17.63,24.27Zm-8.69-12.65c1.62,4.6,4.31,8.05,5.85,9.95l23.32-18.87c-.53-.66-.8-1.03-.94-1.25-.13-.21-.04-.11.07.22l-28.3,9.95Zm.97-18.13c-3.4,6.64-2.6,13.49-.97,18.13l28.3-9.95c.16.44.3,1.07.3,1.91,0,.85-.19,2.15-.92,3.59l-26.71-13.67Zm11.54-10.6c-3.35,1.51-8.48,4.6-11.55,10.6l26.71,13.66c-.66,1.29-1.47,2.1-1.98,2.52-.49.41-.84.56-.88.58l-12.31-27.36Zm18.36-.55c-7.61-3.3-14.74-1.08-18.35.54l12.28,27.37c-.09.04-.57.25-1.44.35-.91.1-2.54.08-4.42-.74l11.93-27.53Zm13.36,18.58c-.43-2.36-1.26-5.6-2.99-8.83-1.77-3.29-4.95-7.4-10.36-9.74l-11.94,27.52c-2.64-1.15-3.81-3-4.13-3.59-.28-.53-.21-.61-.09.06l29.51-5.41Zm-4.67,19.91c6.81-7.66,5.15-17.25,4.67-19.9l-29.51,5.39c.1.56,0,.35.07-.37.08-.79.47-2.94,2.35-5.05l22.42,19.93Zm-17.44,7.18c1.25-.05,3.92-.15,6.76-.85,3-.75,7.2-2.41,10.67-6.32l-22.41-19.94c1.84-2.07,3.86-2.7,4.48-2.85.32-.08.46-.08.31-.07-.15.02-.41.03-.93.05l1.12,29.98Zm41.07-53.61c-2.51,0-4.09-.86-4.55-1.14-.3-.18-.49-.33-.57-.41-.09-.08-.13-.13-.14-.13,0,0,0-.01-.01-.02,0,0-.03-.04-.06-.13-.05-.12-.28-.7-.28-1.7h30c0-7.19-3.24-13.34-6.63-17.39-2.99-3.58-9.15-9.08-17.76-9.08v30Zm5.73-3.53c0,.96-.21,1.5-.26,1.61-.05.13-.08.15-.08.15-.01.01-.06.07-.16.16-.1.09-.29.25-.61.44-.5.31-2.1,1.18-4.63,1.18v-30c-8.66,0-14.81,5.56-17.77,9.16-3.36,4.09-6.5,10.21-6.5,17.3h30Zm-6.06-3.53c2.57,0,4.24.9,4.85,1.28.67.42.92.75.93.76.03.04.05.07.09.16.03.08.2.52.2,1.33h-30c0,6.8,2.82,12.84,6.11,17.03,2.89,3.68,8.99,9.44,17.83,9.44v-30Zm-5.28,3.53c0-1.16.28-1.84.34-1.98.07-.17.1-.17.06-.12-.06.07.07-.11.54-.39.36-.21,1.87-1.04,4.34-1.04v30c8.45,0,14.65-5.32,17.71-8.82,3.44-3.94,7.01-10.17,7.01-17.64h-30Zm19.41,31.77c3.01-1.94,5.33-4.66,6.73-7.97,1.06-2.5,1.35-5,1.37-5.15l-29.65-4.54c-.06.39-.04.24,0,.02.06-.28.23-1.04.63-1.98.43-1.02,1.07-2.14,1.98-3.22.91-1.07,1.86-1.84,2.67-2.36l16.26,25.21Zm-6.8,2.79c1.12-.22,4.77-.88,8.41-3.99l-19.47-22.82c.91-.77,2.12-1.55,3.59-2.12,1.16-.44,2.19-.61,1.69-.51l5.79,29.44Zm0,0c-.06.01-.1.02-.1.02,0,0,0,0,.02,0,0,0,.02,0,.03,0,.01,0,.03,0,.05,0l-5.79-29.44c-.12.02-.49.1-.91.19l6.71,29.24Zm-8.02.14c1.02.17,2.1.27,3.1.3.73.02,2.71.07,4.94-.44l-6.73-29.23c.99-.23,1.74-.28,2.02-.29.35-.02.59-.02.72-.01.19,0,.45.02.89.09l-4.92,29.59Zm-9.93-5.18c.89.86,4.35,4.24,9.89,5.17l4.99-29.58c2.14.36,3.68,1.18,4.56,1.74.84.54,1.33,1.02,1.38,1.07l-20.82,21.6Zm-4.41-6.38c1.46,3.61,3.86,5.85,4.39,6.36l20.86-21.56s.09.09.22.23c.13.14.33.36.57.66.47.59,1.18,1.61,1.76,3.03l-27.8,11.27Zm-1.08-9.43c-.23,1.65-.58,5.34,1.09,9.45l27.79-11.31c.65,1.59.85,2.99.91,3.98.06.97-.03,1.71-.08,2.08l-29.71-4.19Zm12.93-16.33c-8.17,2.97-12.1,10.35-12.94,16.35l29.71,4.14c-.2,1.41-.72,2.79-1.63,4.05-.92,1.27-2.49,2.77-4.89,3.65l-10.26-28.19Zm23.72,10.33c-4.23-10.33-15.59-13.29-23.73-10.33l10.28,28.19c-2.84,1.04-5.62.81-7.85-.06-2.27-.89-5.01-2.88-6.47-6.44l27.77-11.36Zm.09.2c-.06-.14-.08-.18-.09-.22l-27.75,11.39c.09.21.17.41.22.52l27.63-11.7Zm1.6,10.74c.89-5.83-1.58-10.69-1.6-10.74l-27.63,11.7c.26.6.01.09-.18-.63-.24-.89-.59-2.65-.25-4.88l29.65,4.55ZM22.07,42.98c.55-1.61,1.48-2.86,2.53-3.74,1.05-.89,2.49-1.65,4.29-1.93l4.56,29.65c7.94-1.22,14.49-6.89,17.02-14.31l-28.4-9.67Zm.26,8.62c-.93-2.46-.95-4.63-.81-5.99.13-1.32.43-2.27.55-2.62l28.41,9.65c.39-1.15,2.05-6.02-.08-11.64l-28.06,10.61Zm4.31,5.82s-.18-.13-.41-.31c-.22-.18-.58-.48-.98-.9-.8-.82-2.05-2.32-2.91-4.58l28.05-10.65c-1.92-5.05-5.85-7.64-6.17-7.87l-17.58,24.31Zm7.08,1.51c-2.46.3-4.38-.23-5.43-.65-1-.39-1.58-.81-1.63-.85l17.56-24.32c-1.67-1.21-6.94-4.83-14.13-3.96l3.63,29.78Zm5.68-2.41c-.16.14-.66.59-1.5,1.06-.86.48-2.27,1.12-4.16,1.35l-3.68-29.77c-5.58.69-9.29,3.76-10.83,5.15l20.17,22.21Zm.98-1.35c-.22.49-.53.95-.98,1.35l-20.17-22.21c-2.72,2.47-4.88,5.49-6.33,8.82l27.48,12.03Zm1.07-5.81c.06,1.87-.26,3.37-.53,4.29-.25.87-.53,1.5-.55,1.54l-27.46-12.08c-.11.26-1.58,3.28-1.44,7.25l29.98-1Zm-1.9-6.55c.27.45,1.77,2.91,1.9,6.54l-29.98,1.02c.14,4.12,1.85,7.03,2.37,7.89l25.71-15.46Zm-12.33-5.13c2.67-.73,4.85-.36,6.28.12,1.36.46,4.13,1.75,6.11,5.09l-25.81,15.29c2.78,4.7,7.04,7,10.07,8.03,3.1,1.05,7.12,1.54,11.29.4l-7.93-28.93Zm43.37,7.27c0-7.76-4.3-13.56-8.79-16.89-4.5-3.33-10.01-4.93-15.44-4.93v30c-.33,0-1.22-.08-2.38-.94-1.16-.85-3.39-3.25-3.39-7.25h30Zm-26.81,23.41c6.52,0,12.44-2.7,16.46-5.53,2.15-1.52,4.43-3.53,6.31-6.09,1.77-2.41,4.04-6.48,4.04-11.78h-30c0-3.42,1.43-5.5,1.78-5.98.46-.63.75-.78.58-.67-.12.08-.27.16-.35.19-.13.05.27-.13,1.17-.13v30Zm-21.66-23.41c0,3.55.67,8.76,3.72,13.61,3.58,5.69,9.89,9.8,17.93,9.8v-30c1.08,0,2.64.27,4.26,1.2,1.58.9,2.6,2.08,3.2,3.02.56.89.75,1.58.82,1.86.07.3.07.46.07.51h-30Zm24.23-21.82c-5.42,0-10.93,1.6-15.44,4.93-4.5,3.32-8.8,9.12-8.8,16.89h30c0,4-2.23,6.39-3.39,7.25-1.16.86-2.05.94-2.38.94v-30Zm13.31,67.35c-.53-.43-6.53-5.72-14.98-3.7l6.95,29.18c-3.7.88-6.72,0-8.32-.68-1.5-.64-2.42-1.4-2.59-1.54l18.94-23.26Zm7.27,17.79c.78-6.93-1.93-13.44-7.25-17.78l-18.98,23.23c-1-.82-2.12-2.11-2.87-3.93-.75-1.83-.86-3.56-.71-4.86l29.81,3.35Zm-7.76,13.85c3.92-2.68,5.8-6.27,6.69-8.84.79-2.29,1.01-4.42,1.07-4.99l-29.81-3.39c-.07.64-.03-.25.39-1.44.51-1.47,1.79-4.1,4.72-6.1l16.95,24.75Zm-10.52,3.67c2.74-.25,6.71-1.06,10.52-3.67l-16.95-24.75c1.83-1.25,3.38-1.43,3.74-1.46l2.69,29.88Zm-12.7-3.4c5.41,4.06,11.28,3.53,12.67,3.4l-2.63-29.88c.2-.02,1.11-.09,2.36.1,1.31.2,3.45.77,5.6,2.39l-18.01,23.99Zm-6.29-9.02c.57,1.78,2.13,5.91,6.32,9.04l17.95-24.03c1.66,1.24,2.68,2.62,3.28,3.62.59.98.89,1.81,1.03,2.26l-28.58,9.11Zm1.38-16.14c-2.69,5.12-3.02,11-1.39,16.14l28.59-9.1c.67,2.12.58,4.57-.64,6.9l-26.56-13.94Zm14.06-10.54c-5.52,1.15-11.06,4.82-14.06,10.54l26.56,13.94c-.88,1.68-2,2.73-2.84,3.35-.86.62-2.02,1.23-3.55,1.54l-6.11-29.37Zm23.16-8.53c7.89-3.18,11.55-10.2,13.02-14.71,1.54-4.73,2.21-11.2-.16-17.33l-27.98,10.82c-.47-1.21-.47-2.03-.46-2.24,0-.27.04-.42.08-.55.04-.11.19-.55.67-1.18.48-.62,1.61-1.82,3.62-2.64l11.21,27.83Zm-31.6-10.63c3.72,9.61,12.61,12.22,17.55,12.72,5.12.51,10.17-.53,14.06-2.1l-11.22-27.82s-.06.02-.2.05c-.15.02-.03-.02.36.02.34.03,1.54.19,3.04,1.08,1.71,1.01,3.44,2.76,4.39,5.21l-27.97,10.84Zm13.01-33.7c-4.74,1.91-7.75,5.31-9.49,7.87-1.81,2.68-3,5.54-3.75,8.1-1.31,4.47-2.24,11.37.22,17.73l27.97-10.84c.31.81.42,1.41.45,1.68.02.15.03.26.03.33,0,.06,0,.1,0,.1,0,0,0-.02,0-.05,0-.04,0-.09.02-.15.02-.12.05-.25.08-.37.09-.31.11-.17-.21.29-.24.35-1.44,2.05-4.14,3.13l-11.21-27.83Zm31.45,12.28c-3.06-7.92-9.88-11.64-14.88-13.06-5.09-1.45-11.1-1.43-16.57.78l11.21,27.83c-1.37.55-2.25.42-2.83.26-.48-.14-3.42-1.14-4.91-4.99l27.98-10.82Zm-10.21,52.38c5.19-4.24,6.44-10.18,6.76-11.68l-29.36-6.15c.02-.11.13-.63.48-1.39.31-.68,1.18-2.41,3.16-4.02l18.97,23.24Zm-17.98,2.42c4.09,1.64,10.25,2.35,16.12-1.12l-15.25-25.84c4.09-2.41,8.08-1.78,10.32-.88l-11.19,27.83Zm-7.42-5.04c1.09,1.08,3.63,3.53,7.46,5.06l11.12-27.86c1.07.43,1.8.92,2.16,1.2.35.27.52.44.41.33l-21.15,21.28Zm-5.32-9.13c1.26,5.25,4.63,8.45,5.32,9.14l21.14-21.29c-.09-.09.35.33.87,1.06.56.79,1.38,2.18,1.84,4.11l-29.18,6.99Zm.1-8.98c-.4,1.62-1.06,5.01-.1,9l29.17-7.02c.35,1.45.37,2.66.31,3.48-.05.81-.18,1.4-.25,1.68l-29.14-7.14Zm5.59-9.75c-3.69,3.43-5.04,7.53-5.59,9.74l29.13,7.16c-.09.37-.29,1.04-.7,1.87-.42.83-1.16,2.03-2.43,3.21l-20.42-21.98Zm13.34-4.82c-4.17-.2-9.24,1.01-13.35,4.83l20.44,21.96c-2.79,2.6-6.08,3.3-8.55,3.17l1.46-29.96Zm9.11,2.74c-1.9-1.09-5.06-2.54-9.11-2.74l-1.46,29.96c-2.36-.12-3.89-.94-4.31-1.18l14.88-26.05Zm7.17,6.92c-2.33-3.92-5.54-6-7.21-6.94l-14.8,26.09c-.34-.19-2.28-1.3-3.79-3.85l25.8-15.31Zm2.17,13.97c.71-3.37.92-8.75-2.16-13.96l-25.82,15.28c-1.04-1.75-1.41-3.39-1.53-4.56-.12-1.17-.02-2.15.14-2.91l29.36,6.15Zm-32.9,36.03c-.17-.44-.23-.81-.24-1.08,0-.27.02-.53.1-.8l28.76,8.55c1.66-5.57,1.58-11.85-.7-17.64l-27.92,10.98Zm2.24,2.3c-.67-.32-1.15-.72-1.48-1.08-.33-.36-.58-.76-.76-1.22l27.92-10.98c-2.27-5.77-6.7-10.89-12.73-13.78l-12.95,27.06Zm4.22.78c-2.31.09-3.84-.6-4.21-.77l12.92-27.07c-2.15-1.02-5.61-2.3-9.89-2.13l1.18,29.98Zm8.02-4.71c-.47.92-1.2,1.88-2.33,2.74-1.15.87-3.08,1.87-5.67,1.97l-1.23-29.97c-9.13.37-14.93,6.66-17.44,11.52l26.67,13.74Zm.34-.06c.02-.36.04-.61.06-.8,0-.09.02-.16.02-.21,0-.05.01-.07.01-.07,0,0,0,.03-.02.08-.01.05-.03.12-.06.22-.06.19-.17.48-.35.83l-26.67-13.73c-2.48,4.83-2.81,9.67-2.94,12.02l29.95,1.65Zm-.58-1.81c.45,1.1.54,1.93.56,2.2.01.14,0,.19,0,.11,0-.08,0-.23.02-.51l-29.96-1.62c-.09,1.63-.39,6.29,1.59,11.15l27.78-11.32Zm-8.22-5.29c1.57-.16,3.03.16,4.3.84,1.31.7,2.96,2.09,3.92,4.45l-27.78,11.32c4.09,10.05,14.35,14.05,22.52,13.24l-2.96-29.85Zm-5.86,6c.47-1.27,1.24-2.53,2.31-3.62,1.03-1.05,2.08-1.66,2.81-2,1.19-.55,1.86-.49.76-.38l2.9,29.86c2.43-.24,14.86-1.23,19.37-13.5l-28.16-10.36Zm14.93-17.52c-.37.09-.66.17-.8.21l8.01,28.91c.07-.02.09-.03.12-.03.02,0,.03,0,.04-.01l-7.37-29.08Zm-1.35,1.09c.76-.97,1.45-1.34,1.37-1.29-.04.02-.18.1-.51.25-.16.07-.35.15-.58.25-.23.1-.49.2-.79.32l11.12,27.86c1.87-.75,8.47-3.08,13.03-8.9l-23.63-18.49Zm-1.87,4.56c.36-2.44,1.4-3.97,1.88-4.57l23.61,18.5c1.62-2.07,3.57-5.31,4.19-9.6l-29.68-4.34Zm.08,3.39c-.12-.57-.32-1.78-.08-3.4l29.68,4.36c.43-2.9.12-5.42-.27-7.25l-29.33,6.29Zm5.22,5.98c-1.84-.78-3.07-1.94-3.81-2.93-.74-.98-1.18-2.03-1.41-3.07l29.34-6.25c-1.22-5.74-5.14-12.3-12.46-15.39l-11.66,27.64Zm4.33.72c.54-.19.4-.09-.16-.03-.63.07-2.22.13-4.16-.69l11.65-27.65c-7.74-3.26-14.99-.76-17.48.14l10.16,28.23Zm3.64-3.05c-1.16,1.54-2.41,2.37-3.05,2.74-.59.34-.95.44-.59.31l-10.15-28.23c-1.3.47-6.48,2.21-10.18,7.14l23.97,18.03Zm1.73-3.35c.04-.32.06-.42.06-.47,0-.03-.02.13-.09.4-.14.52-.56,1.89-1.7,3.41l-23.98-18.02c-3.57,4.74-3.97,10.25-4.05,10.89l29.76,3.79Zm-.32-2.95c.33,1.34.33,2.39.31,2.84-.01.38-.06.62,0,.13l-29.76-3.83c-.05.4-.68,4.04.3,8.01l29.14-7.15Zm-1.08-2.73s.16.26.35.66c.2.42.49,1.11.72,2.03l-29.12,7.22c.7,2.83,1.95,4.93,2.49,5.8l25.55-15.72Zm-.07-.1s.02.02.03.03c0,.01.02.03.03.05l-25.53,15.76c.96,1.56,2.06,3.02,3.28,4.35l22.19-20.19Zm-3.83-2.66c1.39.61,2.38,1.34,2.95,1.83.55.46.88.84.89.84l-22.2,20.18c.55.61,2.71,3.04,6.26,4.6l12.1-27.45Zm-4.71-1.04s.57,0,1.32.09c.78.1,1.99.34,3.38.95l-12.09,27.46c3.56,1.57,6.82,1.51,7.71,1.5l-.32-30Zm-2.55.36c-.35.1.34-.11,1.16-.24.84-.13,1.43-.13,1.36-.13l.37,30c.61,0,1.63-.03,2.84-.22,1.2-.18,2.19-.48,2.28-.5l-8.01-28.91Zm56.27-13.98c.55-1.61,1.48-2.86,2.53-3.74,1.05-.89,2.49-1.65,4.29-1.93l4.56,29.65c7.94-1.22,14.49-6.89,17.02-14.31l-28.4-9.67Zm.26,8.62c-.93-2.46-.95-4.63-.81-5.99.13-1.32.43-2.27.55-2.62l28.4,9.65c.39-1.15,2.05-6.02-.08-11.64l-28.06,10.61Zm4.31,5.82s-.18-.13-.41-.31c-.22-.18-.58-.49-.98-.9-.8-.82-2.05-2.32-2.91-4.58l28.05-10.65c-1.92-5.05-5.85-7.64-6.17-7.87l-17.58,24.31Zm7.08,1.51c-2.46.3-4.38-.23-5.43-.65-1-.39-1.58-.81-1.63-.85l17.56-24.32c-1.67-1.21-6.94-4.83-14.13-3.96l3.63,29.78Zm5.68-2.41c-.16.14-.66.59-1.49,1.06-.86.49-2.27,1.12-4.16,1.35l-3.68-29.77c-5.58.69-9.29,3.76-10.83,5.15l20.17,22.21Zm.98-1.35c-.22.49-.53.95-.98,1.35l-20.17-22.21c-2.72,2.47-4.88,5.49-6.33,8.82l27.48,12.03Zm1.07-5.81c.06,1.87-.26,3.37-.53,4.29-.25.87-.53,1.5-.55,1.54l-27.46-12.08c-.11.26-1.58,3.28-1.44,7.25l29.98-1Zm-1.9-6.55c.27.45,1.77,2.91,1.9,6.54l-29.98,1.02c.14,4.12,1.85,7.03,2.37,7.89l25.71-15.46Zm-12.34-5.13c2.67-.73,4.85-.36,6.28.13,1.36.46,4.12,1.75,6.09,5.07l-25.79,15.33c2.78,4.68,7.03,6.98,10.06,8.01,3.1,1.05,7.12,1.54,11.29.4l-7.93-28.93Zm16.56,18.1c-.04-.16-.39-1.66-1.06-3.23-.68-1.6-2.2-4.58-5.41-7.01l-18.09,23.93c-2.62-1.98-3.73-4.31-4.11-5.19-.37-.87-.52-1.59-.39-1.08l29.07-7.41Zm.02.09l-.02-.1-29.07,7.42.03.1,29.07-7.42Zm-4.36,16.33c5.55-5.53,5.31-12.55,4.37-16.27l-29.09,7.32c-.39-1.53-.53-3.35-.16-5.32.37-2,1.37-4.65,3.69-6.96l21.19,21.24Zm-8.49,4.61c.24-.06,1.44-.34,2.79-.88,1.44-.58,3.6-1.65,5.66-3.69l-21.11-21.31c1.67-1.66,3.37-2.47,4.31-2.85.85-.34,1.52-.48,1.24-.41l7.12,29.14Zm-7.12.4c3.82.58,7.09-.39,7.15-.4l-7.17-29.13c-.24.06.23-.07.87-.16.7-.1,2.02-.22,3.68.03l-4.52,29.66Zm-8.74-4.13c1.92,1.7,4.84,3.53,8.71,4.13l4.58-29.65c3.09.48,5.29,1.91,6.61,3.08l-19.91,22.44Zm-2.51-23.82c-5.36,7.28-4.35,17.73,2.5,23.81l19.93-22.43c2.71,2.41,3.83,5.42,4.09,7.9.25,2.48-.24,5.63-2.35,8.5l-24.16-17.79Zm23.95-4.26c-7.85-5.2-18.45-3.21-23.95,4.26l24.16,17.79c-2.15,2.91-5.1,4.38-7.74,4.86-2.64.47-5.96.14-9.03-1.89l16.56-25.02ZM52.78,54.83c-.37,3.69-.03,9.22,4.11,14.36l23.36-18.83c.98,1.22,1.76,2.76,2.15,4.48.35,1.55.25,2.69.23,2.97l-29.85-2.99Zm3.02-8.16c-2.34,3.29-2.86,6.59-3.02,8.19l29.86,2.92c-.09.93-.44,3.54-2.39,6.28l-24.44-17.39Zm13.39-6.96c-3.75.06-9.53,1.52-13.39,6.97l24.46,17.37c-3.25,4.58-7.92,5.61-10.6,5.66l-.46-30Zm7.39,1.44c-.91-.37-3.74-1.5-7.39-1.44l.46,30c-1.37.02-2.46-.19-3.14-.36-.66-.17-1.09-.34-1.14-.36l11.2-27.83Zm7.36,4.82c-2.64-2.69-5.53-4.08-7.32-4.81l-11.27,27.8c-.15-.06-1.44-.58-2.83-1.99l21.42-21Zm5.37,12.6c-.1-5.61-2.76-9.96-5.42-12.64l-21.33,21.1c-1.4-1.42-3.18-4.06-3.25-7.89l29.99-.56Zm-15.61,17.99c9.07-1.11,15.79-9.03,15.61-18.02l-29.99.6c-.07-3.44,1.26-6.29,2.94-8.23,1.68-1.94,4.32-3.71,7.8-4.13l3.64,29.78Zm-17.39-8.18c2.07,2.95,7.77,9.36,17.4,8.18l-3.65-29.78c2.97-.36,5.77.41,7.9,1.73,1.82,1.12,2.71,2.37,2.9,2.64l-24.56,17.23Zm40.14,36.24c7.89-3.18,11.55-10.2,13.02-14.71,1.54-4.73,2.21-11.2-.16-17.33l-27.98,10.82c-.47-1.21-.47-2.03-.46-2.24,0-.27.04-.42.08-.55.03-.11.19-.55.67-1.18.48-.62,1.61-1.82,3.62-2.64l11.21,27.83Zm-31.6-10.63c3.72,9.62,12.61,12.23,17.55,12.73,5.12.51,10.18-.53,14.06-2.1l-11.23-27.82s-.06.02-.2.05c-.15.02-.03-.02.36.02.34.03,1.54.19,3.05,1.08,1.71,1.01,3.44,2.77,4.39,5.21l-27.98,10.83Zm13.01-33.69c-4.74,1.91-7.75,5.31-9.49,7.87-1.81,2.68-3,5.54-3.75,8.1-1.31,4.47-2.24,11.37.22,17.73l27.97-10.84c.31.81.42,1.41.45,1.68.02.15.03.26.03.33,0,.06,0,.1,0,.1,0,0,0-.02,0-.05,0-.04,0-.09.02-.15.02-.12.05-.25.08-.37.09-.31.11-.17-.21.29-.24.35-1.44,2.05-4.14,3.13l-11.21-27.83Zm31.45,12.27c-3.07-7.91-9.88-11.63-14.87-13.05-5.09-1.45-11.1-1.43-16.57.78l11.21,27.83c-1.37.55-2.25.42-2.83.25-.48-.14-3.42-1.14-4.91-4.98l27.98-10.83Zm-12.55-9.5c.08.12.12.22.15.32l-28.94,7.89c.8,2.92,2.05,5.71,3.72,8.26l25.08-16.47Zm-6.81-4.46c2.7.65,4.49,2,5.41,2.85.89.82,1.34,1.52,1.4,1.61l-25.08,16.46c.81,1.24,4.28,6.57,11.26,8.25l7.01-29.17Zm-8.08.86c.4-.21,1.25-.63,2.48-.91,1.27-.29,3.24-.51,5.58.05l-6.97,29.18c6.16,1.47,11.1-.83,12.99-1.83l-14.08-26.49Zm-3.97,3.4c1-1.27,2.02-2.11,2.71-2.6.66-.47,1.19-.75,1.27-.79l14.08,26.49c.54-.29,3.28-1.68,5.57-4.6l-23.62-18.49Zm-2.69,6.36c.1-.85.51-3.58,2.69-6.36l23.61,18.5c2.65-3.38,3.28-6.89,3.47-8.52l-29.78-3.62Zm1.83,7c-.16-.17-.63-.7-1.07-1.68-.46-1.02-1.06-2.92-.75-5.37l29.77,3.73c1.06-8.43-3.58-14.51-5.92-17.05l-22.02,20.37Zm3.67,2.55c-1.36-.61-2.31-1.33-2.85-1.78-.28-.23-.48-.43-.61-.55-.12-.12-.2-.2-.2-.2l21.99-20.41c-.47-.51-2.58-2.87-6.01-4.41l-12.33,27.35Zm10.3-.05c-1.94.94-5.87,2.07-10.35.02l12.44-27.3c-6.01-2.74-11.75-1.38-15.2.3l13.12,26.98Zm6.08-8.16c-.77,3.52-2.72,5.63-3.65,6.48-.99.92-1.88,1.41-2.41,1.67l-13.16-26.96c-1.28.63-3.07,1.66-4.82,3.29-1.69,1.56-4.27,4.54-5.26,9.08l29.3,6.45Zm8.84-47.55c1.33-.99,3.28-1.91,5.63-2.08l2.25,29.92c4.03-.3,7.43-1.82,10.08-3.8l-17.96-24.03Zm-1.5,1.65c.64-.87,1.24-1.41,1.5-1.64.07-.06.12-.11.16-.13.02-.01.03-.03.04-.03,0,0,.01-.01.01-.01s0,0-.01,0c0,0-.02.02-.04.03-.04.03-.08.06-.16.12l17.96,24.03c.25-.19,2.7-1.88,4.66-4.54l-24.12-17.84Zm-2.07,10.03c-1.04-4.85.88-8.45,2.11-10.1l24.02,17.97c2.09-2.8,4.54-7.9,3.2-14.16l-29.33,6.29Zm4.58,7.29c.21.14-.51-.3-1.35-1.17-.92-.95-2.54-2.97-3.22-6.11l29.33-6.3c-1.63-7.58-7.84-11.19-8.12-11.37l-16.64,24.96Zm6.7,2.26c.37.02-.68,0-1.9-.25-1.53-.32-3.2-.94-4.79-2l16.62-24.98c-4.13-2.75-8.3-2.73-8.58-2.74l-1.35,29.97Zm-2.36-.24c1.22.21,2.26.24,2.36.24l1.35-29.97c-.11,0,.05,0,.26.02.24.02.61.06,1.07.13l-5.04,29.57Zm10.58-3c-.12.13-.74.79-1.89,1.47-.96.57-4.21,2.32-8.75,1.52l5.14-29.56c-5.56-.97-9.85,1.12-11.78,2.28-2.12,1.26-3.63,2.73-4.47,3.61l21.74,20.67Zm2.33-11.27c.29,1.01.54,2.39.45,4.05-.09,1.7-.51,3.22-1.08,4.49-.94,2.11-2.25,3.31-1.69,2.72l-21.76-20.66c-.44.46-2.55,2.59-3.94,5.71-1.79,4.02-1.89,8.24-.78,12.05l28.81-8.37Zm-12.46-8.82c1.86-.12,4.64.21,7.39,2.03,2.86,1.89,4.42,4.54,5.07,6.8l-28.81,8.36c1.06,3.66,3.37,7.34,7.21,9.88,3.74,2.47,7.76,3.08,11.03,2.88l-1.89-29.94Zm-4.95,82.2c1.01-.75,2.22-1.38,3.56-1.8.59-.19,1.08-.29,1.4-.35.16-.03.28-.05.36-.06.08-.01.12-.02.12-.02l3.28,29.82c1.81-.2,5.41-.74,9.11-3.47l-17.83-24.13Zm.03-.02h-.01s17.78,24.17,17.78,24.17h.01s-17.78-24.17-17.78-24.17Zm.02-.01h0s17.75,24.19,17.75,24.19h0s-17.75-24.19-17.75-24.19Zm.05-.04h0s17.65,24.26,17.65,24.26h0s-17.65-24.26-17.65-24.26Zm1.71-1.26c-.6.44-1.2.88-1.79,1.31l17.79,24.15c.59-.43,1.16-.86,1.73-1.28l-17.74-24.19Zm-4.54,7.33c.06-.36.33-1.92,1.38-3.74,1.11-1.92,2.45-3.07,3.15-3.58l17.77,24.17c1.6-1.18,3.56-2.96,5.09-5.64,1.48-2.57,2-4.98,2.23-6.45l-29.62-4.76Zm4.31,10.67c-4.91-4.04-4.53-9.34-4.31-10.69l29.62,4.79c.61-3.77.58-11.65-6.25-17.27l-19.06,23.17Zm2.78,1.11c-1.01-.06-1.95-.42-2.77-1.09l19.03-23.19c-4.08-3.35-9.15-5.33-14.39-5.66l-1.87,29.94Zm5.39-1.05c-1.58.7-2.96.93-3.83,1.01-.84.08-1.44.04-1.53.04l1.83-29.94c-.98-.06-4.6-.3-8.56,1.44l12.09,27.45Zm4.09-2.9c-.24.26-1.6,1.8-4.07,2.89l-12.13-27.44c-3.29,1.46-5.33,3.61-6.16,4.54l22.36,20Zm2.08-7.2c.44,3.37-.87,5.85-2.11,7.23l-22.3-20.06c-3.56,3.96-6.22,9.97-5.33,16.77l29.74-3.93Zm-7.16-8.44c2.33.76,4.01,2.14,5.09,3.52,1.07,1.37,1.82,3.05,2.07,4.94l-29.75,3.88c.88,6.77,5.53,13.66,13.33,16.19l9.26-28.54Zm-2.28-.48c-.25,0-.34.01-.38.01-.03,0,.07,0,.25,0,.35.02,1.29.09,2.49.49l-9.42,28.48c3.93,1.3,7.68,1.01,8.23.98l-1.17-29.98Zm-40.09-32.22c-7.2.79-12.91,5.29-14.3,6.27l17.34,24.48c.59-.42,1-.71,1.38-.96.37-.24.57-.37.67-.42.1-.05,0,.01-.28.11-.29.1-.82.26-1.54.34l-3.27-29.82Zm16.66,8.7c-1.01-1.64-2.44-3.38-4.28-4.88-1.44-1.17-5.49-4.15-11.38-3.89l1.28,29.97c-2.69.11-4.79-.57-6.08-1.14-1.3-.58-2.22-1.24-2.77-1.69-1.04-.85-1.75-1.73-2.28-2.58l25.51-15.79Zm2.68,6.28c-.25-.87-1-3.56-2.67-6.26l-25.53,15.75c-.4-.65-.6-1.15-.66-1.32-.03-.09-.05-.13-.03-.09.01.04.04.13.09.3l28.81-8.38Zm.91,3.93c-.27-1.71-.69-3.18-.91-3.93l-28.81,8.38c.04.14.07.23.09.31.02.08.03.12.04.14.01.04-.01-.05-.04-.24l29.64-4.66Zm-3.73,18.02c2.47-4.24,4.88-10.64,3.74-17.99l-29.65,4.6c-.14-.9-.02-1.52.03-1.74.05-.2.07-.17-.06.05l25.93,15.08Zm-4.03,5.56c1.53-1.72,2.88-3.59,4.03-5.58l-25.95-15.05c-.14.25-.31.48-.49.68l22.41,19.95Zm-13.28,7.3c7.36-.83,11.83-5.67,13.28-7.3l-22.41-19.95c-.07.08.28-.34,1.03-.86.79-.54,2.41-1.45,4.74-1.71l3.35,29.81Zm-19.79-11.11c2.54,4.96,9.31,12.3,19.8,11.11l-3.37-29.81c3.3-.37,5.87.74,7.33,1.73,1.42.96,2.35,2.14,2.95,3.31l-26.71,13.65Zm-2.85-11.55c.12,1.5.35,6.65,2.85,11.55l26.71-13.65c.22.42.34.77.41,1,.07.22.09.34.08.31,0-.03-.03-.16-.06-.43-.01-.13-.03-.29-.05-.48-.02-.2-.03-.4-.05-.65l-29.91,2.37Zm-.17-2.2l.17,2.2,29.91-2.36-.17-2.2-29.91,2.36Zm1.03-8.79c-1.6,4.34-1.06,8.49-1.03,8.82l29.9-2.43c-.04-.46,0-.1,0,.44-.02.61-.12,1.92-.71,3.53l-28.16-10.35Zm7.56-9.37c-.73.51-5.39,3.52-7.55,9.35l28.14,10.41c-.78,2.12-1.95,3.47-2.6,4.12-.6.6-1.06.89-.81.72l-17.18-24.59Zm.72-.51c-.28.2-.5.36-.72.51l17.18,24.6c.31-.22.62-.43.88-.62l-17.34-24.48Zm25.54,16.99c.02-.11.13-.63.48-1.39.31-.68,1.18-2.41,3.16-4.02l18.97,23.25c5.19-4.24,6.44-10.18,6.76-11.68l-29.36-6.15Zm1.39,7.47c-1.04-1.75-1.41-3.39-1.53-4.56-.12-1.17-.02-2.15.14-2.91l29.36,6.15c.71-3.37.92-8.75-2.16-13.96l-25.82,15.28Zm3.8,3.86c-.34-.19-2.28-1.3-3.79-3.85l25.8-15.31c-2.33-3.92-5.54-5.99-7.21-6.94l-14.8,26.09Zm4.27,1.15c-2.36-.12-3.89-.94-4.31-1.18l14.88-26.05c-1.9-1.09-5.06-2.54-9.11-2.74l-1.46,29.96Zm8.55-3.18c-2.79,2.6-6.08,3.3-8.55,3.18l1.46-29.96c-4.17-.2-9.24,1.01-13.35,4.83l20.44,21.96Zm3.12-5.06c-.09.37-.29,1.04-.7,1.87-.42.83-1.16,2.03-2.43,3.21l-20.42-21.98c-3.69,3.43-5.04,7.53-5.59,9.74l29.13,7.16Zm-.07-5.17c.35,1.45.36,2.66.32,3.48-.05.81-.18,1.4-.25,1.68l-29.14-7.14c-.4,1.62-1.06,5.01-.1,9l29.17-7.02Zm-2.71-5.15c-.09-.09.35.33.87,1.06.56.79,1.38,2.18,1.84,4.11l-29.18,6.99c1.26,5.25,4.63,8.45,5.32,9.14l21.14-21.29Zm-2.57-1.52c1.07.43,1.8.92,2.16,1.2.36.27.52.44.41.33l-21.15,21.28c1.09,1.08,3.63,3.53,7.46,5.06l11.12-27.86Zm-10.28.89c4.09-2.41,8.08-1.78,10.32-.88l-11.19,27.83c4.09,1.64,10.25,2.35,16.12-1.12l-15.25-25.84Zm14.34,2.7c-4.91-4.55-11.21-6.85-16.42-7.65-2.73-.42-5.89-.54-9.13.04-3.01.54-7.73,2-11.46,6.19l22.4,19.95c-1.26,1.42-2.59,2.24-3.55,2.69-.95.45-1.7.62-2.1.7-.75.13-1,.04-.69.09.24.04.55.12.8.23.27.12.13.11-.25-.24l20.39-22Zm8.66,19.11c-.1-6.83-3.03-13.89-8.66-19.11l-20.39,22c-.25-.23-.47-.54-.64-.9-.15-.34-.3-.85-.31-1.55l30-.44Zm-26.59-10.65c-1.47,2.39-2.48,5.01-3.06,7.65l29.3,6.43c-.09.41-.27.95-.66,1.59l-25.58-15.67Zm5.54-5.8c-3.38,2.19-5.13,5.13-5.54,5.79l25.58,15.68c-.06.1-.34.56-.83,1.14-.47.57-1.41,1.6-2.91,2.57l-16.3-25.19Zm10.76-2.61c-1.41-.12-6.13-.44-10.87,2.68l16.5,25.05c-3.89,2.56-7.65,2.2-8.14,2.16l2.5-29.9Zm15.24,8.19c-3.41-4.11-8.65-7.64-15.24-8.19l-2.51,29.89c-2.98-.25-4.69-1.77-5.34-2.55l23.09-19.16Zm4.16,15.43c.31-2.65.69-9.57-4.15-15.42l-23.11,19.13c-1.8-2.18-2.3-4.29-2.46-5.19-.17-.99-.12-1.68-.08-1.98l29.8,3.46Zm-5.09,11.45c3.64-3.94,4.71-8.14,5.09-11.45l-29.8-3.46c-.01.12.07-.81.57-2.08.59-1.5,1.42-2.63,2.09-3.37l22.04,20.35Zm-1.52,1.64l1.52-1.65-22.06-20.33-1.52,1.65,22.06,20.33Zm-10.06,5.41c.77-.13,2.6-.47,4.67-1.44,2.26-1.06,4.02-2.49,5.37-3.95l-22.03-20.37c.86-.93,2.15-2.01,3.91-2.84,1.57-.74,2.86-.94,2.99-.97l5.09,29.57Zm-11.39-1.46c4.79,2.24,9.53,1.66,9.77,1.65l-1.86-29.94c-.55.03-.04-.02.64.03.83.06,2.37.26,4.12,1.08l-12.68,27.19Zm-11.22-17.17c.24,2.91,1.05,5.94,2.53,8.74,1.4,2.63,4.04,6.25,8.65,8.41l12.76-27.15c3.18,1.5,4.62,3.77,5.11,4.7.58,1.09.79,2.04.85,2.81l-29.9,2.5Zm-.08-1.96c0,.65.03,1.31.09,1.98l29.89-2.53c.01.17.02.32.02.46l-30,.09Zm24.89,12.53c2.51-2.82,3.94-6.02,4.67-8.99l-29.13-7.19c.23-.94.78-2.35,2.04-3.77l22.41,19.94Zm-38.55.92c6.47,5.99,14.97,6.82,19.97,6.65,2.9-.1,5.93-.57,8.78-1.47,2.44-.78,6.55-2.43,9.8-6.08l-22.4-19.95c1.11-1.25,2.15-1.89,2.62-2.14.51-.29.84-.39.89-.41.08-.02-.21.06-.73.08-.51.02-.79-.05-.74-.04.04.01.27.07.63.26.36.18.94.52,1.57,1.11l-20.39,22Zm-1.76-36.45c-4.6,5.16-5.96,12.13-6.02,17.09-.07,5.31,1.31,13.36,7.78,19.37l20.39-22c1.09,1.01,1.54,2.02,1.7,2.5.15.45.12.63.13.51,0-.11.03-.15-.02,0-.03.09-.11.33-.3.7-.18.34-.56,1.01-1.26,1.8l-22.4-19.95Zm27.92,42.43c-.31.08-.6.12-.9.1-.3-.02-.7-.08-1.16-.28l11.49-27.71c-5.7-2.36-11.93-2.56-17.5-1.01l8.08,28.89Zm7.07-6.16c.12-1.07.17-.39-.41.81-.35.73-.99,1.77-2.06,2.8-1.11,1.06-2.4,1.82-3.7,2.27l-9.88-28.33c-12.29,4.29-13.48,16.66-13.76,19l29.8,3.45Zm-5.21-8.41c2.38,1.02,3.76,2.72,4.44,4.06.66,1.3.96,2.79.77,4.39l-29.79-3.51c-.95,8.09,2.82,18.37,12.74,22.63l11.84-27.57Zm-1.9-.63c-.58.02-.58,0-.33.02.28.03,1.14.14,2.24.61l-11.85,27.56c4.8,2.06,9.44,1.85,11.06,1.79l-1.12-29.98Zm-.21.37c.36-.18.67-.29.88-.35.21-.06.33-.08.34-.09.01,0-.06.01-.23.03-.18.02-.42.03-.77.04l1.1,29.98c2.32-.09,7.14-.32,11.99-2.72l-13.31-26.88Zm-4.9,7.99c.15-2.6,1.19-4.52,2.08-5.67.88-1.12,1.87-1.85,2.81-2.32l13.31,26.88c4.88-2.41,11.21-8.08,11.74-17.15l-29.95-1.75Zm.7,4.27c-.18-.4-.84-1.95-.7-4.25l29.95,1.71c.24-4.24-.95-7.7-1.93-9.86l-27.32,12.4Zm2.38,2.4c-.48-.2-.91-.48-1.28-.83-.37-.35-.78-.86-1.1-1.56l27.31-12.42c-2.75-6.04-7.75-10.54-13.44-12.9l-11.49,27.71Zm3.2-7.83c-.01-.1-.01-.19,0-.28l29.63,4.7c.47-2.98.48-6.03.02-9.01l-29.65,4.59Zm4.21,6.75c-2.11-1.69-3.15-3.61-3.62-4.75-.45-1.09-.58-1.89-.59-2l29.65-4.6c-.23-1.5-1.18-7.67-6.7-12.09l-18.74,23.43Zm7.61,2.66c-.41.02-1.35.03-2.59-.24-1.27-.28-3.14-.92-5-2.4l18.71-23.46c-4.95-3.95-10.38-3.97-12.47-3.87l1.35,29.97Zm5.15-1.41c-1.44.73-2.72,1.06-3.56,1.22-.81.15-1.41.18-1.52.18l-1.49-29.96c-.64.03-3.72.14-7.02,1.81l13.59,26.75Zm5.21-4.76c-.45.74-1.98,3.1-5.18,4.74l-13.65-26.71c-3.88,1.98-5.93,4.96-6.78,6.36l25.62,15.61Zm1.25-7.09c.06.2.27.85.27,1.91,0,1.09-.23,3.08-1.54,5.22l-25.56-15.71c-4.46,7.26-2.72,14.75-1.66,17.96l28.49-9.39Zm-2.15-3.68c.91,1.07,1.44,2.05,1.73,2.66.15.31.25.56.31.72.06.16.1.27.1.28l-28.49,9.41c.25.74,1.17,3.63,3.51,6.38l22.84-19.45Zm-9.36-4.36c2.2-.03,6.18.64,9.34,4.33l-22.79,19.51c4.26,4.97,9.99,6.21,13.85,6.16l-.4-30Zm-9.11,4.96c2.2-2.94,4.91-4.06,6.16-4.46,1.32-.42,2.38-.49,3.01-.5l.3,30c1.46-.01,3.56-.19,5.86-.93,2.23-.72,5.87-2.36,8.69-6.12l-24.01-17.99Zm-22.8,19.4c7.94-1.22,14.49-6.89,17.02-14.31l-28.4-9.67c.55-1.61,1.48-2.86,2.53-3.74,1.05-.89,2.49-1.65,4.29-1.93l4.56,29.65Zm-19.66-8.77c2.78,4.68,7.03,6.98,10.05,8.01,3.1,1.05,7.12,1.54,11.29.4l-7.93-28.93c2.67-.73,4.85-.36,6.28.13,1.36.46,4.12,1.75,6.09,5.07l-25.79,15.33Zm-2.33-7.83c.14,4.12,1.85,7.03,2.37,7.89l25.71-15.46c.27.45,1.77,2.91,1.9,6.54l-29.98,1.03Zm1.44-7.26c-.11.26-1.58,3.28-1.44,7.25l29.98-1c.06,1.87-.26,3.37-.53,4.29-.25.87-.53,1.5-.55,1.54l-27.46-12.08Zm6.32-8.8c-2.72,2.47-4.88,5.49-6.33,8.82l27.48,12.03c-.22.49-.53.95-.98,1.35l-20.17-22.21Zm10.83-5.15c-5.58.69-9.29,3.76-10.83,5.15l20.17,22.21c-.16.14-.66.59-1.5,1.06-.86.48-2.27,1.12-4.16,1.35l-3.68-29.77Zm14.15,3.95c-1.67-1.21-6.94-4.83-14.13-3.96l3.63,29.78c-2.46.3-4.38-.23-5.43-.64-1-.39-1.58-.81-1.63-.85l17.56-24.32Zm6.18,7.87c-1.92-5.05-5.85-7.64-6.17-7.87l-17.58,24.31s-.18-.13-.41-.31c-.22-.18-.58-.49-.98-.9-.8-.82-2.05-2.32-2.91-4.58l28.05-10.65Zm.09,11.66c.39-1.15,2.05-6.02-.08-11.64l-28.06,10.61c-.93-2.46-.95-4.63-.81-5.99.13-1.32.43-2.27.55-2.62l28.41,9.65Zm-21.4,3.29c.15-1.34.56-2.55,1.17-3.62.61-1.07,1.7-2.47,3.54-3.61l15.78,25.51c6.02-3.72,8.77-9.93,9.33-15.01l-29.82-3.28Zm.48,3.71c-.08-.16-.72-1.54-.47-3.73l29.81,3.33c.58-5.16-.85-9.53-2.22-12.42l-27.12,12.82Zm2.08,2.72c-.78-.73-1.29-1.41-1.6-1.89-.3-.46-.46-.8-.49-.86l27.15-12.76c-.64-1.35-2-4-4.59-6.43l-20.47,21.93Zm6.36,2.75c-1.28-.04-3.91-.44-6.4-2.78l20.54-21.86c-4.29-4.03-9.48-5.24-13.29-5.34l-.85,29.99Zm8.18-6.02c-.73,2.32-2.13,3.8-3.33,4.62-1.22.83-2.86,1.45-4.85,1.39l.85-29.99c-9.14-.26-18.33,5.52-21.3,15.01l28.63,8.96Zm.28-1.19c.01-.16.01-.09-.02.1-.03.2-.1.59-.27,1.11l-28.62-9c-.74,2.36-.93,4.46-1.01,5.53l29.91,2.26Zm-1.3-5.18c.91,1.71,1.18,3.23,1.26,4.08.08.8.02,1.3.04,1.11l-29.91-2.29c-.09,1.24-.55,6.14,2.11,11.15l26.51-14.05Zm-5.04-4.8c.06.02.68.24,1.52.81.86.58,2.37,1.82,3.52,4l-26.52,14.03c3.36,6.35,9.3,8.67,11.31,9.39l10.17-28.22Zm-8.56,2.47c2.49-2.28,5.14-2.7,6.35-2.75,1.19-.05,1.92.18,2.24.29l-10.23,28.2c2.52.91,5.74,1.63,9.28,1.48,3.56-.15,8.43-1.26,12.61-5.09l-20.25-22.14Zm10.68-63.95c8.65-.29,14.76-6.01,17.51-11.42l-26.73-13.62c.62-1.22,1.52-2.28,2.68-3.11,1.17-.84,3.04-1.74,5.52-1.83l1.02,29.98Zm-13.97-6.09c2.74,3.25,8.98,7.73,17.18,5.63l-7.44-29.06c3.39-.87,6.39-.26,8.45.6,2.02.85,3.58,2.11,4.72,3.46l-22.91,19.37Zm-3.9-7.53c.23.78,1.17,4.29,3.87,7.5l22.96-19.3c.95,1.13,1.46,2.16,1.7,2.71.23.52.31.86.25.66l-28.79,8.43Zm.36-16.59c-2.9,7.07-1.2,13.74-.36,16.6l28.79-8.45c-.15-.5-.08-.44-.06-.02.03.46.03,1.69-.61,3.24l-27.76-11.38Zm8.36-9.3c-5.27,2.71-7.52,7.24-8.36,9.29l27.75,11.4c-.22.55-.66,1.46-1.45,2.49-.81,1.05-2.16,2.44-4.23,3.5l-13.72-26.68Zm6.98-1.91c-1.31.09-4.05.39-7.02,1.93l13.8,26.64c-2.26,1.17-4.19,1.33-4.71,1.36l-2.07-29.93Zm18.66,9.41c-3.97-6.19-11.14-9.92-18.64-9.41l2.03,29.93c-3.61.25-6.82-1.47-8.65-4.33l25.26-16.19Zm1.01,20.6c3.31-6.5,2.94-14.44-1.02-20.6l-25.24,16.21c-.99-1.54-1.41-3.14-1.48-4.56-.07-1.42.2-3.05,1.02-4.66l26.73,13.62Zm-37.01,68.96c1.32.03,2.85.38,4.29,1.14,1.27.68,1.93,1.4,1.96,1.43l-21.98,20.42c2.96,3.18,7.83,6.86,15.12,7.01l.61-29.99Zm-7.65,4.75c1.42-2.11,3.5-3.55,5.59-4.24,1.76-.58,3-.46,3.06-.45l-2.62,29.88c4.43.39,13.25-.11,18.85-8.42l-24.88-16.76Zm2.12,14.59c-2.55-2.15-3.65-4.88-3.93-7.11-.28-2.24.12-4.97,1.82-7.5l24.86,16.79c5.2-7.7,4.16-18.74-3.44-25.13l-19.32,22.95Zm7.36,2.48c-1.58.13-4.53-.1-7.36-2.48l19.31-22.96c-4.73-3.98-10.29-4.8-14.38-4.46l2.43,29.9Zm2.2-.52c.07-.04-.08.05-.41.16-.34.12-.95.29-1.79.36l-2.43-29.9c-4.11.33-7.37,1.79-9.39,2.86l14.01,26.53Zm2.69-2.31c-.78.93-1.52,1.53-1.99,1.86-.45.32-.75.47-.71.45l-13.99-26.54c-1.11.59-3.95,2.12-6.39,5.06l23.08,19.17Zm2.48-10.68c1.13,5.14-1.03,8.94-2.48,10.68l-23.08-19.17c-2.44,2.94-5.19,8.33-3.73,14.95l29.3-6.46Zm-2.96-5.76c.61.66,2.25,2.57,2.95,5.72l-29.27,6.56c.91,4.08,3.1,6.81,4.36,8.16l21.96-20.44Zm-28.75-59.55c4.03-.3,7.43-1.82,10.08-3.8l-17.96-24.03c1.33-.99,3.28-1.91,5.63-2.08l2.25,29.92Zm-18.42-12.74c1.06,3.64,3.35,7.32,7.2,9.86,3.75,2.48,7.78,3.1,11.07,2.89l-1.94-29.94c1.89-.12,4.68.21,7.44,2.04,2.85,1.89,4.4,4.54,5.05,6.78l-28.81,8.37Zm4.72-17.76c-.44.46-2.55,2.59-3.94,5.71-1.79,4.02-1.89,8.24-.78,12.05l28.81-8.37c.29,1.01.54,2.39.45,4.05-.09,1.7-.51,3.22-1.08,4.49-.94,2.11-2.25,3.31-1.7,2.72l-21.76-20.66Zm16.26-5.9c-5.55-.97-9.85,1.12-11.78,2.28-2.11,1.26-3.63,2.73-4.47,3.61l21.74,20.67c-.12.13-.74.79-1.89,1.47-.96.57-4.21,2.32-8.75,1.52l5.14-29.56Zm-1.38-.16c-.11,0,.05,0,.26.02.24.02.61.06,1.07.13l-5.04,29.57c1.22.21,2.27.24,2.36.24l1.35-29.97Zm8.57,2.74c-4.13-2.75-8.3-2.73-8.57-2.74l-1.35,29.97c.37.02-.68,0-1.89-.25-1.53-.32-3.2-.94-4.79-2l16.62-24.98Zm8.13,11.38c-1.63-7.58-7.84-11.19-8.12-11.37l-16.64,24.96c.21.14-.51-.3-1.35-1.17-.92-.95-2.54-2.97-3.22-6.11l29.33-6.3Zm-3.15,14.1c2-2.71,4.5-7.79,3.15-14.1l-29.33,6.29c-1.05-4.89.92-8.48,2.07-10.03l24.12,17.84Zm-4.66,4.54c.25-.19,2.7-1.88,4.66-4.54l-24.12-17.84c.64-.87,1.24-1.41,1.5-1.64.07-.06.12-.11.16-.13.02-.01.03-.03.04-.03,0,0,.01-.01.01-.01,0,0,0,0-.01,0,0,0-.02.02-.04.03-.04.03-.08.06-.16.12l17.96,24.03Z"/>
</svg>