<?xml version="1.0" encoding="UTF-8"?>
<svg id="Camada_1" data-name="Camada 1" xmlns="http://www.w3.org/2000/svg" viewBox="0 0 155 144.49">
  <defs>
    <style>
      .cls-1, .cls-2 {
        fill: #CC99CC;
      }

      .cls-2 {
        fill-rule: evenodd;
      }
    </style>
  </defs>
  <path class="cls-2" d="m106.12,28.74c0-8.3-10.49-13.74-20.19-13.74s-14.93,6.29-14.93,21.19c0,8.3,7.86,11.67,17.56,11.67s17.56-10.82,17.56-19.12Zm-73.56,22.64c9.7,0,17.56,3.38,17.56,10.3s-8.88,22.22-18.57,22.22-16.54-5-16.54-11.92,7.86-20.61,17.56-20.61Zm87.25,4.81c9.7,0,20.19,5.44,20.19,13.74s-7.87,19.12-17.56,19.12-17.56-3.37-17.56-11.67c0-14.9,5.23-21.19,14.93-21.19ZM26.03,94.57c.21,2.32,1.23,4.13,2.77,5.96,4.99,5.66,13.9,7.96,21.27,5.47.91-.31,1.82-.69,2.52-1.33,2.08-1.9,1.5-5.12.58-7.7-1.53-4.31-3.84-8.72-8.06-10.95-2.65-1.4-5.83-1.77-8.83-1.37-2.68.36-5.3,1.36-7.27,3.1-1.97,1.74-3.2,4.28-2.98,6.81Zm99.45-51.01c0-4.78-6.97-9.19-12.41-9.19-.24,0-.47,0-.71,0-2.54-.02-4.82-.03-6.93,1.93-2.14,1.99-4.19,6.25-4.19,8.55,0,4.78,4.85,12.36,10.3,12.36s13.95-8.86,13.95-13.65Zm-64.53,36.39c-.21,1.94-1.27,4.01-2.94,5.08-2.15,2.01-5.66,1.79-8.47.75-1.61-.59-3.22-1.5-3.99-2.99-.61-1.18-.61-2.57-.51-3.89.07-.95.18-1.91.46-2.82,1.05-3.44,4.66-5.98,8.35-5.87,1.6.05,3.24.57,4.38,1.67.7.67,1.19,1.53,1.59,2.4.82,1.78,1.32,3.73,1.11,5.67Zm-1.63,25.83c1.62,1.17,3.63,1.28,5.52,1.21,3.32-.12,7.01-.42,9.24-2.91,2.27-2.54,2.15-6.42,1.53-9.79-.76-4.09-2.44-8.54-6.22-10.17-2.69-1.16-5.82-.56-8.5.63-2.41,1.08-4.7,2.71-5.91,5.07-1.34,2.6-1.21,5.78-.23,8.54.98,2.76,2.73,5.16,4.57,7.42Zm17.58-50.87c1.59-4.66,11.22-7.83,18.07-5.38,6.85,2.45,12.31,11.43,10.72,16.09-1.59,4.66-11.04,7.32-17.89,4.87-6.85-2.45-12.49-10.93-10.89-15.59Zm-24.43-6.64c2.74-4.04.63-10.39-4.72-14.17-5.35-3.78-11.9-3.58-14.64.47-2.74,4.04-4.48,10.18.86,13.97,5.35,3.78,15.75,3.78,18.49-.27Zm22.75-.49c2.25,6.6-.54,17.91-6.37,20.58-5.84,2.67-14.85,3.14-17.1-3.45-2.25-6.59.75-20.57,6.59-23.24,5.84-2.67,14.64-.49,16.89,6.11Zm-8.46,64.72c-2.24-3.02-5.46-5.33-9.04-6.32-3.58-.99-7.48-.64-10.7,1.09-1.2.65-2.32,1.5-3.08,2.64-1.56,2.35-1.32,5.61-.05,8.21,1.27,2.6,3.42,4.66,5.62,6.52,1.7,1.43,3.52,2.82,5.64,3.38,3.97,1.05,8.23-1.21,10.28-4.73,2.05-3.51,3.61-7.25,1.32-10.79Zm44.58,6.05c2.4-.73,4.12-2.16,5.75-4.09,4.99-6.22,5.66-15.58,1.58-22.33-.51-.84-1.1-1.66-1.9-2.2-2.41-1.63-5.7-.33-8.25,1.16-4.25,2.49-8.46,5.78-9.98,10.47-.95,2.94-.72,6.18.3,9.07.91,2.57,2.48,4.96,4.71,6.52,2.23,1.56,5.16,2.21,7.78,1.41Zm-19.22-22.56c6.37,1.79,13.45-3.75,14.07-9.3.61-5.55-6.49-12.21-12.86-14-6.37-1.79-14.72,5.32-15.33,10.86-.62,5.55,7.76,10.65,14.13,12.44Zm-40.3-59.77c-2.18-2.67-2.97-3.81-3.57-7.84-.53-3.23-.38-6.52,1.57-9,1.95-2.47,4.95-3.91,8.01-4.29,2.02-.25,4.13-.04,5.94.92,1.47.78,2.66,2.02,3.74,3.31,2.06,2.49,3.87,5.62,3.4,8.86-.3,2.1-1.52,3.93-2.75,5.64-1.29,1.8-2.66,3.6-4.42,4.92-1.76,1.32-3.98,2.12-6.11,1.71-2.38-.46-4.26-2.32-5.81-4.23Zm42.23,62.62c-4.38-4.15-13.05-5.45-15.61-2.5-2.56,2.95-3.62,11.7.76,15.85.55.52,1.19.96,1.9,1.32-.83-.23-1.71-.35-2.58-.38-4.39-.11-8.67,2.43-9.92,5.87-.33.92-.47,1.87-.55,2.82-.12,1.32-.12,2.7.61,3.89.91,1.49,2.83,2.4,4.73,2.99,3.33,1.04,7.5,1.27,10.05-.75,1.99-1.06,3.24-3.14,3.49-5.08.25-1.94-.35-3.89-1.32-5.67-.48-.87-1.06-1.73-1.89-2.4-.27-.22-.56-.41-.87-.59,4.9,1.54,11.51.37,13.5-1.92,2.56-2.95,2.07-9.31-2.3-13.46Zm4.79,16.37c-2.42-1.03-5.19-1.15-7.71-.43-2.77.99-3.47,3.82-3.8,6.72-.33,2.91,1.1,6.1,3.77,7.27,1.42.63,3.03.65,4.58.59,2.02-.08,4.09-.29,5.89-1.2,1.8-.91,3.31-2.66,3.42-4.69.06-.99-.21-1.97-.61-2.87-1.07-2.41-3.11-4.35-5.53-5.38Zm-33.16-44.41c2.42-.59,5.08-.49,7.41.35,2.32.84,4.28,2.43,5.31,4.4.38.74.64,1.54.59,2.35-.11,1.66-1.55,3.09-3.28,3.84-1.73.75-3.72.92-5.65.99-1.49.05-3.03.03-4.39-.48-2.56-.96-3.94-3.57-3.62-5.94.32-2.38.98-4.69,3.64-5.5Z"/>
  <path class="cls-1" d="m28.79,100.53l-11.49,9.64c.08.09.16.18.24.28l11.26-9.91Zm-2.77-5.96l14.94-1.32s0-.01,0-.02l-14.94,1.34Zm24.04,11.43l-4.77-14.22h-.01s4.78,14.22,4.78,14.22Zm2.52-1.33l-10.12-11.07s-.01.01-.02.02l10.14,11.06Zm.58-7.7l14.14-5.01h0s-14.13,5.01-14.13,5.01Zm-8.06-10.95l7-13.27h0s-6.99,13.27-6.99,13.27Zm-8.83-1.37l-2.01-14.86h0s2.02,14.86,2.02,14.86Zm-7.27,3.1l-9.94-11.23h0l9.94,11.23Zm83.35-53.4l.1-15h0l-.1,15Zm-6.93,1.93l-10.2-10.99h0s10.21,10.99,10.21,10.99Zm-47.41,48.73l-8.03-12.67c-.79.5-1.53,1.08-2.22,1.72l10.25,10.95Zm2.94-5.08l-14.91-1.62s0,.02,0,.03l14.91,1.6Zm-11.4,5.83l5.23-14.06s-.02,0-.03-.01l-5.2,14.07Zm-3.99-2.99l13.33-6.87h0s-13.33,6.87-13.33,6.87Zm-.51-3.89l14.96,1.12h0s-14.96-1.12-14.96-1.12Zm.46-2.82l14.34,4.4s0-.01,0-.02l-14.35-4.38Zm8.35-5.87l-.44,14.99h0l.44-14.99Zm4.38,1.67l-10.41,10.8s.03.02.04.04l10.37-10.84Zm1.59,2.4l-13.64,6.25s0,.02.01.03l13.62-6.28Zm5,32.7l-.56-14.99s-.02,0-.03,0l.59,14.99Zm-5.52-1.21l-11.63,9.47c.83,1.02,1.79,1.92,2.85,2.69l8.78-12.16Zm14.76-1.7l11.17,10.01h0s-11.18-10.01-11.18-10.01Zm1.53-9.79l14.75-2.71h0s-14.75,2.71-14.75,2.71Zm-6.22-10.17l5.94-13.77h0s-5.93,13.77-5.93,13.77Zm-8.5.63l-6.11-13.7s-.01,0-.02,0l6.12,13.69Zm-5.91,5.07l13.33,6.87h0s-13.34-6.87-13.34-6.87Zm-.23,8.54l-14.14,5h0l14.14-5Zm22.15-43.45l-14.19-4.86h0l14.19,4.86Zm28.79,10.71l14.19,4.86h0s-14.19-4.86-14.19-4.86Zm-17.89,4.87l-5.05,14.12h0l5.05-14.12Zm-40.04-36.39l-8.67,12.24h0s8.67-12.24,8.67-12.24Zm4.72,14.17l12.42,8.41h0l-12.42-8.41Zm-19.36-13.7l-12.42-8.41h0l12.42,8.41Zm.86,13.97l-8.67,12.24h0l8.67-12.24Zm34.87,19.83l-6.24-13.64h0s6.25,13.64,6.25,13.64Zm6.37-20.58l-14.2,4.83h0l14.2-4.83Zm-23.48,17.13l-14.2,4.84h0l14.2-4.84Zm6.59-23.24l-6.24-13.64h0l6.24,13.64Zm-.61,64.5l4.01-14.45h0l-4.01,14.45Zm9.04,6.32l12.58-8.17c-.17-.26-.35-.52-.53-.77l-12.05,8.93Zm-19.73-5.24l-7.1-13.21s-.01,0-.02,0l7.12,13.21Zm-3.08,2.64l-12.49-8.3s0,.01-.01.02l12.51,8.28Zm-.05,8.21l-13.48,6.58h0s13.47-6.58,13.47-6.58Zm5.62,6.52l-9.68,11.46s0,0,.01.01l9.67-11.47Zm5.64,3.38l3.83-14.5h0s-3.83,14.5-3.83,14.5Zm10.28-4.73l-12.95-7.57s0,.02-.01.03l12.97,7.54Zm51.64-8.82l11.48,9.65c.07-.09.15-.17.22-.26l-11.7-9.39Zm-5.75,4.09l4.34,14.36h0l-4.34-14.36Zm7.33-26.42l-12.85,7.75h0s12.84-7.75,12.84-7.75Zm-1.9-2.2l-8.4,12.43s.01,0,.02.01l8.38-12.44Zm-8.25,1.16l7.58,12.94h0s-7.58-12.94-7.58-12.94Zm-9.98,10.47l14.27,4.62h0s-14.27-4.62-14.27-4.62Zm.3,9.07l14.14-5s0-.01,0-.02l-14.14,5.02Zm4.71,6.52l-8.59,12.3s0,0,.01,0l8.57-12.31Zm2.64-30.45l14.91,1.66h0s-14.91-1.66-14.91-1.66Zm-14.07,9.3l4.06-14.44h0s-4.05,14.44-4.05,14.44Zm1.21-23.3l4.06-14.44h0l-4.06,14.44Zm-15.33,10.86l14.91,1.65h0s-14.91-1.65-14.91-1.65Zm-29.74-55.17l14.84-2.19c-.01-.07-.02-.15-.03-.22l-14.81,2.41Zm3.57,7.84l11.63-9.48h0s-11.62,9.48-11.62,9.48Zm-1.99-16.83l11.78,9.29h0s-11.78-9.29-11.78-9.29Zm8.01-4.29L56.03.2h-.01s1.82,14.89,1.82,14.89Zm5.94.92l7.06-13.23s-.01,0-.02,0l-7.04,13.24Zm3.74,3.31l11.54-9.58h0s-11.53,9.58-11.53,9.58Zm3.4,8.86l-14.85-2.14h0s14.85,2.14,14.85,2.14Zm-2.75,5.64l-12.18-8.75h0s12.19,8.75,12.19,8.75Zm-4.42,4.92l-9-12h0s9,12,9,12Zm-6.11,1.71l-2.87,14.72h0s2.86-14.72,2.86-14.72Zm20.8,55.89l11.32,9.84h0l-11.32-9.84Zm15.61,2.5l10.33-10.88h0l-10.33,10.88Zm-14.85,13.35l-10.33,10.88h0l10.33-10.88Zm1.9,1.32l-4.03,14.45c7.42,2.07,15.19-1.81,18-8.98,2.81-7.17-.27-15.3-7.12-18.81l-6.85,13.35Zm-2.58-.38l-.37,15h0l.37-15Zm-9.92,5.87l14.1,5.13s0-.01,0-.02l-14.1-5.11Zm-.55,2.82l14.94,1.32s0,0,0-.01l-14.94-1.31Zm.61,3.89l12.79-7.83s0,0,0-.01l-12.78,7.85Zm4.73,2.99l4.48-14.32s-.02,0-.03,0l-4.46,14.32Zm10.05-.75l-7.07-13.23c-.79.42-1.53.91-2.23,1.46l9.3,11.77Zm3.49-5.08l-14.88-1.92s0,.02,0,.03l14.88,1.89Zm-1.32-5.67l-13.17,7.17s.01.02.02.03l13.16-7.2Zm-1.89-2.4l-9.45,11.65s.03.02.04.03l9.41-11.68Zm-.87-.59l4.49-14.31c-7.33-2.3-15.22,1.31-18.26,8.37-3.05,7.06-.26,15.27,6.44,19.03l7.33-13.08Zm13.5-1.92l11.32,9.84h0s-11.32-9.84-11.32-9.84Zm-5.23,2.48l-4.13-14.42c-.31.09-.62.19-.92.3l5.05,14.12Zm7.71.43l-5.86,13.81h0l5.86-13.81Zm-11.51,6.3l14.9,1.71s0-.02,0-.03l-14.91-1.69Zm3.77,7.27l6.05-13.73h0s-6.04,13.73-6.04,13.73Zm4.58.59l-.57-14.99h0l.57,14.99Zm5.89-1.2l-6.79-13.38h0l6.79,13.38Zm3.42-4.69l14.98.86s0-.01,0-.02l-14.98-.84Zm-.61-2.87l13.71-6.08h0s-13.71,6.08-13.71,6.08Zm-31.28-49.44l-5.1,14.11h0l5.1-14.11Zm-7.41-.35l-3.55-14.57c-.27.07-.54.14-.81.22l4.37,14.35Zm12.71,4.75l13.31-6.92h0s-13.3,6.92-13.3,6.92Zm.59,2.35l14.97,1s0-.01,0-.02l-14.97-.98Zm-8.94,4.82l-.48-14.99h0s.49,14.99.49,14.99Zm-4.39-.48l5.27-14.04h0s-5.26,14.04-5.26,14.04Zm-3.62-5.94l14.87,2.01s0-.02,0-.03l-14.87-1.97Zm23.88-46.29c1.05,0,2.2.15,3.3.45,1.11.3,1.95.7,2.48,1.02.55.34.48.44.2.02-.35-.52-.79-1.51-.79-2.76h30c0-11.19-7.15-18.73-13.51-22.7-6.45-4.03-14.3-6.04-21.68-6.04v30Zm.07,6.19c0-2.9.26-4.86.56-6.11.29-1.23.55-1.46.36-1.2-.26.36-.76.79-1.33,1.05-.47.21-.49.07.34.07V0c-8.42,0-17.2,2.97-23.2,11.13-5.3,7.22-6.73,16.35-6.73,25.05h30Zm2.56-3.33c-1.59,0-2.83-.14-3.72-.33-.91-.19-1.19-.38-1.06-.3.19.11.86.57,1.46,1.58.63,1.05.75,2,.75,2.39h-30c0,9.94,5.2,17.53,12.5,21.86,6.42,3.8,13.85,4.81,20.05,4.81v-30Zm2.56-4.12c0-.22.03.09-.27.83-.29.7-.74,1.47-1.31,2.13-.57.67-1.07,1.02-1.32,1.16-.22.12-.09,0,.34,0v30c10.59,0,18.82-5.81,23.85-11.74,4.98-5.86,8.71-13.97,8.71-22.38h-30Zm-26,32.94c0-10.4-6.39-17.38-13.03-20.96-6.14-3.3-13.26-4.35-19.52-4.35v30c1.58,0,2.88.14,3.86.34.48.1.85.2,1.1.29.26.09.36.14.35.14-.01,0-.19-.1-.46-.33-.27-.23-.65-.61-1.02-1.15-.85-1.23-1.27-2.69-1.27-3.97h30Zm-33.57,37.22c12.37,0,20.92-9.04,25.03-14.66,2.43-3.33,4.44-6.96,5.89-10.5,1.35-3.3,2.65-7.6,2.65-12.07h-30c0-.65.09-.87.02-.59-.06.24-.19.68-.44,1.31-.52,1.27-1.33,2.76-2.33,4.13-1.03,1.4-1.93,2.23-2.45,2.6-.54.38.05-.23,1.63-.23v30ZM0,71.98c0,8.94,4.59,16.19,10.84,20.71,6.02,4.35,13.43,6.21,20.7,6.21v-30c-2.43,0-3.29-.64-3.12-.52.12.09.54.43.94,1.15.42.76.64,1.63.64,2.45H0Zm32.56-35.61c-11.93,0-20.22,8.05-24.47,13.77C3.76,55.99,0,64.22,0,71.98h30c0,.49-.06.66-.01.43.04-.2.15-.56.35-1.07.41-1.05,1.06-2.25,1.86-3.32.82-1.1,1.5-1.68,1.81-1.89.28-.19-.25.25-1.45.25v-30Zm122.44,33.54c0-11.19-7.15-18.73-13.51-22.7-6.45-4.03-14.3-6.04-21.68-6.04v30c1.05,0,2.2.15,3.3.45,1.11.3,1.95.7,2.48,1.03.55.34.48.44.2.02-.35-.52-.79-1.51-.79-2.76h30Zm-32.56,34.12c10.59,0,18.82-5.82,23.85-11.74,4.98-5.86,8.71-13.97,8.71-22.38h-30c0-.22.03.09-.27.83-.29.7-.74,1.47-1.31,2.13-.57.67-1.07,1.02-1.32,1.16-.22.12-.09,0,.34,0v30Zm-32.56-26.67c0,9.94,5.2,17.53,12.5,21.86,6.42,3.8,13.85,4.81,20.05,4.81v-30c-1.59,0-2.83-.14-3.72-.33-.91-.19-1.19-.38-1.06-.3.19.11.86.57,1.46,1.58.63,1.05.75,2,.75,2.39h-30Zm29.93-36.19c-8.42,0-17.2,2.97-23.2,11.13-5.3,7.22-6.73,16.35-6.73,25.05h30c0-2.9.26-4.86.56-6.11.3-1.23.55-1.46.36-1.2-.26.36-.76.79-1.33,1.05-.47.21-.49.07.34.07v-30Zm-79.52,49.71c-.28-.34-.13-.22.1.26.28.57.51,1.31.58,2.1l-29.88,2.65c.58,6.53,3.61,11.17,6.22,14.28l22.99-19.28Zm5,.9c-1.88.63-4.4-.22-5.23-1.17l-22.51,19.83c9.14,10.38,24.45,14.11,37.31,9.78l-9.57-28.43Zm-2.83,1.83c.94-.86,1.79-1.34,2.25-1.57.45-.22.72-.31.6-.26l9.55,28.44c1.35-.45,4.77-1.64,7.88-4.49l-20.27-22.11Zm-3.42,8.37c.21.61-.03.19-.03-.92,0-1.35.44-4.71,3.47-7.48l20.24,22.15c5.1-4.66,6.29-10.58,6.29-14.66,0-3.84-.99-7.15-1.69-9.12l-28.27,10.03Zm-.92-2.7c-.58-.31-.67-.59-.39-.18.32.48.78,1.36,1.32,2.88l28.27-10.04c-1.8-5.07-5.73-14.2-15.2-19.2l-14,26.53Zm.18.23c.1-.01.19-.02.27-.02s.12,0,.12,0c0,0-.04,0-.13-.03-.09-.03-.24-.08-.43-.18l13.99-26.54c-5.96-3.14-12.42-3.69-17.83-2.96l4.02,29.73Zm.66-.53c-.43.38-.76.53-.84.56-.08.03-.02,0,.19-.03l-4.03-29.73c-4.79.65-10.45,2.53-15.2,6.73l19.88,22.46Zm2.02-5.76c.15,1.62-.2,2.93-.6,3.8-.39.86-.9,1.5-1.42,1.96l-19.88-22.46c-4.75,4.2-8.71,11.15-7.97,19.38l29.88-2.68Zm72.1-43.86c-.59,0-.79-.1-.64-.05.04.01.11.04.17.07.03.02.06.03.08.04.02.01.03.02.03.02,0,0-.02-.01-.04-.04-.03-.02-.08-.07-.14-.13-.12-.12-.35-.36-.61-.74-.5-.74-1.42-2.45-1.42-4.98h30c0-9.63-6.53-15.85-10.55-18.67-4.5-3.15-10.55-5.53-16.87-5.53v30Zm-.8,0c.23,0,.51,0,.8,0v-30c-.18,0-.37,0-.61,0l-.19,30Zm3.37-2.07c-.49.45-1.13.92-1.9,1.3-.76.38-1.45.58-1.94.68-.46.1-.72.1-.62.09.15,0,.38,0,1.09,0l.19-30c-2.07-.01-10.26-.53-17.23,5.94l20.41,21.99Zm.6-2.44c0,.79-.08,1.36-.14,1.67-.06.32-.11.53-.14.61-.04.14-.04.09.05-.09.09-.18.17-.31.2-.36.06-.09-.1.18-.58.62l-20.42-21.98c-2.88,2.68-4.91,5.99-6.18,8.58-1.12,2.3-2.81,6.41-2.81,10.97h30Zm-4.7-2.64c2.19,0,3.64.76,4.21,1.13.55.36.67.58.54.41-.11-.14-.2-.32-.23-.41-.07-.18.18.34.18,1.51h-30c0,6.6,2.93,12.8,6.16,17.05,3.06,4.03,9.52,10.31,19.13,10.31v-30Zm-1.05,1.35c0-.8.09-1.45.18-1.92.09-.47.2-.82.28-1.04.15-.42.26-.58.19-.48-.05.09-.18.28-.4.57-.22.28-.49.59-.8.9-.31.31-.61.58-.89.79-.28.22-.47.34-.55.39-.1.06.06-.05.46-.18.38-.13,1.28-.38,2.59-.38v30c5.1,0,9.34-1.94,12-3.48,2.9-1.68,5.5-3.81,7.64-5.96,2.14-2.15,4.21-4.69,5.83-7.47,1.42-2.42,3.48-6.63,3.48-11.74h-30Zm-44.43,54.13c6.37-4.04,9.24-10.75,9.82-16.14l-29.83-3.2c.11-1.06.42-2,.9-2.85.47-.84,1.38-2.09,3.04-3.14l16.07,25.33Zm-21.73,2.14c2.85,1.06,6.45,1.87,10.37,1.7,3.97-.18,9.18-1.44,13.58-5.56l-20.51-21.9c2.24-2.1,4.63-2.47,5.6-2.51.93-.04,1.37.14,1.42.16l-10.46,28.12Zm-12.09-10.17c3.46,6.71,9.69,9.29,12.12,10.19l10.4-28.14c-.09-.03.37.12,1.06.6.72.5,2.06,1.62,3.09,3.61l-26.66,13.75Zm-2.14-11.88c-.11,1.53-.55,6.67,2.15,11.89l26.65-13.77c.8,1.55,1.02,2.88,1.08,3.54.06.61.01.93.04.57l-29.92-2.23Zm1.08-6.1c-.78,2.54-.99,4.83-1.08,6.12l29.92,2.21c.02-.28.03-.33.02-.27-.01.07-.06.34-.18.73l-28.68-8.79Zm23.13-16.47c-10.2-.3-20.04,6.34-23.14,16.48l28.69,8.76c-.57,1.85-1.64,3-2.54,3.63-.9.63-2.21,1.17-3.89,1.12l.88-29.99Zm14.35,5.87c-4.52-4.36-10.11-5.74-14.35-5.87l-.88,29.99c-.65-.02-1.44-.13-2.34-.46-.91-.33-2.09-.95-3.25-2.06l20.82-21.6Zm4.82,6.95c-.71-1.54-2.14-4.39-4.86-6.99l-20.74,21.67c-.69-.66-1.12-1.27-1.36-1.64-.23-.36-.33-.59-.31-.54l27.27-12.5Zm2.39,13.54c.6-5.52-.88-10.28-2.4-13.57l-27.25,12.56c.03.07-.04-.07-.11-.4-.07-.34-.16-.98-.07-1.84l29.82,3.25Zm-11.61,10.42c-.54.02-.28-.03.32.08.7.12,2.07.49,3.53,1.54l-17.56,24.33c6.02,4.35,12.59,4.12,14.89,4.03l-1.18-29.98Zm-1.34,2.07c1.55-1.73,3.18-2.17,3.35-2.21.1-.02,0,0-.37.04-.38.04-.87.07-1.61.09l1.11,29.98c1.69-.06,4.82-.19,8.08-1,3.41-.85,8-2.67,11.78-6.9l-22.35-20.01Zm-2.05,2.93c.08.44.12.76.13.96.02.21,0,.19.02,0,.04-.36.3-2.1,1.89-3.89l22.36,20c7.46-8.33,5.75-18.97,5.1-22.5l-29.51,5.43Zm2.6.89c-2.13-.92-2.95-2.36-3.02-2.48-.04-.08.02.01.12.33.1.31.21.73.3,1.27l29.5-5.45c-.53-2.9-1.52-6.7-3.53-10.42-2.04-3.78-5.6-8.26-11.5-10.81l-11.88,27.55Zm3.55.56c.27-.12.18-.03-.29.02-.51.05-1.74.08-3.25-.57l11.87-27.55c-8.29-3.57-16.22-1.22-20.54.71l12.21,27.4Zm1.32-1.76c-.51.99-1.09,1.53-1.33,1.73-.22.18-.25.16.03.03l-12.24-27.39c-3.97,1.77-9.72,5.28-13.13,11.9l26.68,13.73Zm.57-3.33c.03.09.11.34.11.81,0,.48-.11,1.41-.68,2.53l-26.67-13.74c-3.78,7.33-2.94,15.04-1.04,20.41l28.28-10.01Zm2.06,2.95c-.78-.95-1.28-1.62-1.63-2.17-.34-.52-.43-.77-.43-.78l-28.28,10.01c1.89,5.33,5.05,9.4,7.08,11.89l23.26-18.94Zm29.07-60.9c-7.14-2.55-14.67-1.98-20.48-.19-3.02.93-6.19,2.37-9.04,4.48-2.74,2.03-6.09,5.37-7.79,10.35l28.38,9.71c-.47,1.36-1.11,2.33-1.6,2.94-.49.6-.92.95-1.13,1.11-.39.29-.42.21.02.08.4-.12.87-.2,1.29-.21.43,0,.5.07.24-.03l10.1-28.25Zm19.86,35.07c1.68-4.9,1.12-9.54.3-12.73-.87-3.37-2.36-6.48-4.08-9.14-3.27-5.07-8.72-10.58-16.08-13.21l-10.1,28.25c-.38-.14-.34-.2,0,.1.33.28.68.69.97,1.13.31.47.31.64.23.34-.04-.17-.14-.62-.15-1.31-.01-.69.07-1.8.53-3.15l28.38,9.71Zm-37.14,14.14c6.81,2.44,14.1,2.18,19.95.57,4.85-1.34,13.91-5.15,17.18-14.71l-28.38-9.71c.93-2.71,2.56-3.99,2.99-4.29.5-.36.65-.32.24-.21-.35.1-.82.17-1.29.16-.48,0-.67-.08-.59-.05l-10.1,28.25Zm-20.03-34.57c-1.7,4.96-1.1,9.64-.2,12.91.94,3.4,2.53,6.48,4.31,9.06,3.42,4.98,8.89,10.08,15.93,12.6l10.1-28.25c.21.08.07.06-.31-.25-.37-.3-.72-.7-.99-1.08-.29-.42-.24-.49-.12-.07.07.24.18.75.2,1.52.02.77-.07,1.92-.53,3.28l-28.38-9.71Zm-23.62-3.71c.29.21.07.21-.17-.52-.23-.69-.73-3.21,1.14-5.97l24.84,16.82c4.61-6.8,4.42-14.51,2.48-20.33-1.95-5.85-5.91-10.92-10.96-14.49l-17.33,24.49Zm6.45-3.36c-1.92,2.83-4.6,3.38-5.6,3.41-.96.03-1.15-.26-.85-.05l17.33-24.49c-5.04-3.57-11.18-5.65-17.44-5.45-6.3.2-13.63,2.88-18.28,9.75l24.84,16.82Zm-2.89-6.69c.61.43,1.51,1.31,2.15,2.7.62,1.34.73,2.55.7,3.32-.02.37-.06.64-.1.79-.04.16-.07.23-.07.24,0,0,.01-.03.05-.11.04-.07.09-.16.15-.24l-24.84-16.82c-2.3,3.4-4.89,8.62-5.17,14.84-.31,7.16,2.59,14.69,9.78,19.78l17.33-24.49Zm-2.59,3.57c.9-1.33,1.89-2.17,2.61-2.66.71-.48,1.27-.71,1.52-.8.46-.16.44-.07-.12-.07-.5,0-1.05-.07-1.49-.18-.48-.13-.39-.19.07.13l-17.33,24.49c5.96,4.22,13.27,5.61,19.03,5.56,3.05-.03,6.48-.46,9.83-1.64,3.19-1.13,7.6-3.41,10.72-8.01l-24.84-16.82Zm35.04,42.14c8.89-4.07,12.82-12.82,14.39-18.32,1.73-6.02,2.31-13.76-.06-20.74l-28.4,9.67c-.08-.23-.07-.29-.06-.16.02.12.04.35.03.68-.01.69-.13,1.51-.35,2.27-.23.79-.45,1.14-.43,1.11.02-.04.18-.27.54-.59.36-.33.96-.8,1.86-1.2l12.48,27.28Zm-37.54-12.25c3.61,10.58,12.85,14.48,19.7,15.26,6.5.74,12.96-.78,17.85-3.02l-12.5-27.27c-.33.15-.81.31-1.32.41-.53.1-.75.06-.63.08.1.01,1.03.13,2.26.95,1.41.95,2.51,2.39,3.03,3.91l-28.39,9.69Zm14.55-41.72c-5.34,2.44-8.6,6.69-10.45,9.79-1.98,3.32-3.3,6.93-4.16,10.26-1.57,6.08-2.38,14.5.07,21.68l28.39-9.69c.13.38.12.51.1.28-.02-.2-.05-.57-.04-1.1.03-1.09.2-2.41.53-3.68.34-1.32.72-2.12.88-2.38.07-.11-.04.1-.4.47-.36.37-1.14,1.07-2.43,1.66l-12.48-27.28Zm37.33,14.91c-3.01-8.85-10.16-13.86-16.69-15.97-6.4-2.06-13.96-1.99-20.63,1.06l12.48,27.28c-.51.23-.81.25-.85.25-.05,0-.1,0-.21-.03-.11-.04-1.73-.66-2.5-2.91l28.4-9.67Zm-35.7,77.68c.11.03.59.26,1,.81l24.1-17.87c-4.08-5.5-10.04-9.89-17.07-11.84l-8.02,28.91Zm.41-.16c-.25.13-.4.15-.42.15-.01,0-.01,0,0,0,0,0,.01,0,0,0l8.02-28.91c-7.03-1.95-14.95-1.36-21.81,2.33l14.2,26.43Zm2.32-2.27c-1.08,1.62-2.24,2.23-2.3,2.27l-14.23-26.41c-2.46,1.33-5.86,3.64-8.46,7.54l24.99,16.6Zm.93-6.68c.25.51.47,1.2.49,2.14.02.96-.19,2.68-1.41,4.51l-25.02-16.56c-5.45,8.24-3.74,17.5-1.02,23.07l26.96-13.17Zm1.82,1.65c-.89-.75-1.4-1.24-1.72-1.59-.3-.33-.25-.34-.11-.06l-26.95,13.18c2.73,5.58,6.98,9.33,9.42,11.39l19.36-22.92Zm-.21.34c.44.12.77.25.98.35.2.1.31.16.29.15-.02-.01-.11-.07-.3-.22-.19-.15-.44-.34-.77-.63l-19.34,22.94c1.71,1.44,5.79,4.91,11.48,6.41l7.66-29Zm-6.52,2.24c.51-.87,1.2-1.49,2.05-1.9.9-.43,2.5-.85,4.47-.33l-7.67,29c11.8,3.12,22.37-3.59,27.08-11.69l-25.93-15.08Zm1.7,4.92c-.55-.84-.99-1.92-1.18-3.11-.18-1.15-.08-2.05.02-2.56.09-.47.2-.65.11-.45-.09.2-.27.56-.63,1.18l25.9,15.13c1.88-3.21,8.61-14.71.95-26.52l-25.17,16.33Zm51.43-15.86c-.33.39-.32.31-.02.09.16-.12.38-.26.64-.39.27-.14.53-.24.77-.31l8.68,28.72c6.18-1.87,10.19-5.58,12.89-8.8l-22.96-19.3Zm.22-4.93c.77,1.28.68,3.8-.44,5.19l23.4,18.78c8.87-11.05,10.1-27.25,2.73-39.47l-25.68,15.5Zm2.56,2.49c-1.08-.73-1.76-1.47-2.12-1.9-.34-.42-.5-.69-.44-.59l25.69-15.49c-.77-1.28-2.74-4.45-6.37-6.9l-16.76,24.88Zm7.72,1.66c.68-.4.54-.2-.29-.02-.93.2-4.12.6-7.45-1.65l16.8-24.86c-5.74-3.88-11.78-3.65-15.6-2.83-3.71.79-6.76,2.38-8.63,3.48l15.17,25.89Zm-3.29,2.14c-.19.6-.41.61.14.09.58-.56,1.57-1.31,3.15-2.23l-15.16-25.89c-4.78,2.8-13.34,8.5-16.67,18.8l28.54,9.23Zm.17-.57c-.05-.14-.04-.2-.04-.15,0,.06,0,.32-.12.72l-28.54-9.24c-2.15,6.64-1.48,13.31.44,18.71l28.27-10.04Zm-.84-.77c.48.34.73.65.82.77.09.12.07.13.03.01l-28.29,10c1.69,4.78,4.89,10.06,10.27,13.82l17.17-24.6Zm-5.14-.65c1.26-.38,2.36-.35,3.14-.2.77.15,1.42.44,1.99.83l-17.15,24.62c5.37,3.74,13,5.79,20.69,3.46l-8.68-28.72Zm-15.72-19.16c.16-1.44.65-2.3.87-2.63.23-.35.43-.51.54-.58.02-.02,1.27-.89,3.49-.26l-8.13,28.88c8.59,2.42,16.56-.33,21.87-4.06,5.13-3.6,10.26-9.86,11.17-18.02l-29.82-3.32Zm-2.02,2.1s.08.02.27.11c.18.08.41.2.67.36.54.34,1.03.74,1.39,1.11.38.4.36.49.19.14-.16-.33-.73-1.7-.5-3.8l29.82,3.3c1.04-9.4-4.29-16.71-7.94-20.49-4.09-4.23-9.7-7.9-15.77-9.61l-8.13,28.88Zm3.64-1.93c-.11.96-.34,1.62-.48,1.97-.15.35-.27.53-.28.55,0,.01.14-.18.43-.4.3-.23.36-.19.03-.09-.33.1-1.58.39-3.33-.1l8.13-28.88c-9.66-2.72-18.23,1.58-22.96,5.17-4.66,3.53-10.41,10-11.35,18.49l29.82,3.29Zm3.27-3.65c-.68-.19-1.55-.51-2.45-.95-.91-.45-1.62-.9-2.06-1.24-.51-.4-.29-.35.13.33.48.77,1.42,2.75,1.11,5.53l-29.82-3.31c-1.22,11,6.41,18.22,10.13,21.12,4.56,3.55,10.06,6.07,14.85,7.42l8.11-28.88ZM33.42,30.57c.4,2.71,1.04,5.71,2.54,8.8,1.41,2.9,3.25,5.11,4.24,6.33l23.25-18.96c-.26-.31-.44-.54-.58-.72-.14-.18-.21-.27-.24-.31-.02-.03,0,.01.07.11.06.11.15.25.24.43.09.18.16.35.22.51.05.15.08.25.09.28,0,.02,0-.02-.03-.16-.03-.14-.07-.36-.11-.68l-29.68,4.38Zm4.64-20.48c-5.9,7.48-5.35,16.08-4.6,20.69l29.61-4.82c-.11-.69-.03-.72-.09-.29-.07.53-.37,1.74-1.36,2.99l-23.55-18.58ZM56.02.21c-6.26.77-13.15,3.78-17.96,9.89l23.56,18.58c-.47.6-.95.92-1.26,1.09-.3.16-.53.21-.69.23L56.02.21Zm14.81,2.57C65.53-.05,60.08-.29,56.03.2l3.62,29.78c-.08,0-.36.04-.83-.03-.48-.07-1.22-.24-2.08-.7l14.09-26.49Zm8.23,6.97c-1.39-1.67-4.1-4.76-8.21-6.96l-14.12,26.47c-.66-.35-1.03-.68-1.1-.75-.04-.04-.03-.03.04.04.07.07.17.19.32.37l23.07-19.18Zm6.71,20.59c1.43-9.92-4.11-17.45-6.71-20.58l-23.09,19.16c.5.6.54.79.44.55-.13-.3-.6-1.56-.34-3.41l29.69,4.29Zm-5.41,12.24c1.08-1.51,4.53-6.07,5.42-12.26l-29.7-4.27c.17-1.17.53-1.87.58-1.95.03-.05,0,0-.11.18-.12.18-.28.42-.55.79l24.37,17.5Zm-7.6,8.17c3.8-2.85,6.33-6.39,7.61-8.17l-24.38-17.49c-.59.83-.94,1.28-1.21,1.59-.25.29-.25.24-.02.07l18,24Zm-17.97,4.43c7.61,1.48,14.07-1.5,17.97-4.43l-18-24c.34-.25.9-.6,1.76-.86.88-.27,2.28-.49,3.99-.16l-5.72,29.45Zm-14.58-9.48c1.74,2.13,6.55,7.91,14.57,9.48l5.74-29.45c1.82.35,2.91,1.14,3.22,1.38.27.21.2.22-.27-.37l-23.26,18.95Zm49.57,60.48c-2.42,2.79-5.11,3.37-5.71,3.47-.8.15-1.09.05-.81.09.22.03.5.12.73.22.26.12.11.1-.26-.25l20.65-21.76c-4.9-4.65-11.22-7.03-16.49-7.86-2.75-.43-5.96-.56-9.25.04-3.08.57-7.81,2.09-11.51,6.35l22.64,19.69Zm-.23-4.87c1.06,1,1.47,1.98,1.6,2.38.13.38.09.49.09.3,0-.18.04-.29.01-.2-.02.06-.09.28-.26.63-.16.32-.52.98-1.21,1.76l-22.64-19.69c-4.52,5.2-5.84,12.18-5.9,17.14-.06,5.29,1.26,13.37,7.65,19.44l20.65-21.76Zm-1.58-1.14c.37.19.95.54,1.58,1.14l-20.65,21.76c1.73,1.64,3.59,2.87,5.38,3.79l13.7-26.69Zm-2.82-1.1c-2.14-.6-4.26-.87-6.24-.92l-.74,29.99c-.24,0-.61-.04-1.09-.17l8.07-28.9Zm-6.24-.92c-9.17-.23-20.43,4.82-24.39,15.75l28.2,10.22c-.83,2.28-2.21,3.25-2.68,3.53-.55.33-1.15.5-1.87.48l.74-29.99Zm-24.38,15.74c-1.01,2.78-1.28,5.29-1.4,6.65l29.89,2.62c.02-.24.03-.21,0-.06-.03.17-.11.55-.3,1.06l-28.19-10.26Zm-1.4,6.63c-.15,1.67-.7,7.41,2.77,13.06l25.57-15.69c1.04,1.7,1.39,3.28,1.5,4.23.1.84.03,1.35.05,1.05l-29.88-2.64Zm2.76,13.04c4.02,6.57,10.84,8.78,13.07,9.48l8.91-28.65c-.34-.11-.13-.08.39.22.48.28,1.96,1.23,3.22,3.28l-25.58,15.67Zm13.04,9.47c2.95.92,6.55,1.59,10.36,1.45,3.71-.14,8.88-1.11,13.48-4.74l-18.6-23.54c2.05-1.62,3.85-1.69,4.01-1.7.26,0,.1.02-.28-.1l-8.97,28.63Zm21.6-1.83c6.62-3.54,10.49-10.06,11.3-16.41l-29.76-3.79c.18-1.45.68-2.62,1.29-3.53.63-.94,1.6-1.96,3.04-2.73l14.13,26.46Zm11.3-16.38c.81-6.22-1.2-11.44-3.04-14.79l-26.32,14.4s-.03-.06-.08-.18c-.05-.12-.12-.32-.19-.59-.14-.55-.28-1.49-.13-2.69l29.75,3.85Zm-3.02-14.77c-.91-1.67-2.62-4.47-5.65-6.91l-18.82,23.36c-.69-.56-1.17-1.1-1.46-1.49-.15-.19-.25-.35-.31-.45-.03-.05-.06-.09-.07-.12-.02-.03-.02-.04-.02-.04l26.35-14.34Zm-5.61-6.88c-.99-.8-1.99-1.47-2.99-2.02l-14.67,26.17c-.37-.21-.8-.49-1.25-.85l18.9-23.3Zm-8.14-.7c.86-.99,1.68-1.6,2.18-1.92.52-.34.91-.52,1.1-.59.35-.15.4-.12.1-.07-.26.04-.58.06-.87.04-.31-.02-.37-.06-.2,0l-8.98,28.62c5.07,1.59,10.32,1.65,14.61.99,2.22-.34,4.6-.93,6.9-1.9,2.11-.88,5.21-2.5,7.8-5.48l-22.64-19.68Zm-1.31,7.26c-.38-.36-.67-.87-.77-1.6-.05-.38-.09-1.03.12-1.92.2-.87.7-2.28,1.96-3.73l22.65,19.67c4.97-5.72,5.73-12.89,4.98-18.21-.8-5.69-3.53-11.46-8.28-15.97l-20.65,21.76Zm11.53,19.49c-.34.1-.67.13-1.01.12-.34-.02-.78-.1-1.26-.3l11.73-27.61c-5.76-2.45-12.07-2.65-17.71-1.04l8.26,28.84Zm6.98-6.01c.13-1.12.18-.51-.35.62-.33.7-.94,1.73-1.99,2.76-1.1,1.07-2.39,1.86-3.72,2.34l-10.1-28.25c-12.29,4.39-13.4,16.91-13.65,19.16l29.81,3.37Zm-5.1-8.15c2.42,1.06,3.75,2.8,4.38,4.06.62,1.24.88,2.63.71,4.11l-29.8-3.43c-.91,7.92,2.66,18.32,12.63,22.71l12.08-27.46Zm-2.04-.67c-.58.02-.55,0-.29.02.31.03,1.2.15,2.33.65l-12.1,27.45c4.86,2.14,9.57,1.91,11.2,1.85l-1.15-29.98Zm-.32.41c.74-.37,1.25-.47,1.29-.47.02,0-.04,0-.21.02-.17.02-.41.03-.75.04l1.13,29.98c2.33-.09,7.22-.34,12.11-2.82l-13.57-26.76Zm-4.77,7.83c.14-2.49,1.11-4.35,1.98-5.49.85-1.11,1.83-1.85,2.79-2.34l13.57,26.76c4.97-2.52,11.1-8.27,11.61-17.22l-29.95-1.71Zm.65,4.06c-.16-.37-.77-1.84-.65-4.04l29.95,1.67c.23-4.18-.91-7.61-1.88-9.79l-27.43,12.16Zm2.32,2.35c-.51-.22-.94-.51-1.29-.85-.36-.35-.73-.83-1.02-1.48l27.42-12.17c-2.69-6.05-7.63-10.66-13.38-13.1l-11.73,27.61Zm-14.79-71.97c-5.28-1.91-10.97-2.06-16.06-.82l7.11,29.15c-.19.05-.34.06-.48.05-.14,0-.4-.04-.77-.17l10.21-28.21Zm13.51,11.57c-3.05-5.85-8.27-9.68-13.51-11.57l-10.21,28.21c-.39-.14-.83-.37-1.3-.75-.46-.38-1.07-1.02-1.59-2.02l26.6-13.87Zm2.25,10.26c.3-4.57-1.18-8.19-2.25-10.26l-26.61,13.85c-.3-.59-1.27-2.6-1.07-5.56l29.94,1.96Zm-12.3,16.63c4.16-1.8,11.65-6.88,12.3-16.6l-29.93-2.01c.22-3.3,1.71-5.57,2.77-6.75,1.05-1.17,2.13-1.82,2.97-2.18l11.9,27.54Zm-11.12,2.21c2.16-.07,6.6-.26,11.12-2.21l-11.9-27.54c.33-.14.59-.22.74-.26.16-.04.23-.05.2-.05-.03,0-.13.02-.33.03-.2.02-.46.03-.8.04l.96,29.98Zm-10.15-1.43c4.41,1.66,8.63,1.48,10.15,1.43l-.98-29.98c-.27,0-.42.01-.52,0-.09,0-.07,0,.02,0,.17.01.88.09,1.86.45l-10.54,28.09Zm-13.21-21.99c-1.22,9.05,3.86,18.49,13.22,21.99l10.53-28.09c4.24,1.59,6.56,5.81,5.99,10.11l-29.73-4.01Zm14.14-17.84c-5.33,1.62-9.18,5.12-11.46,9.26-1.94,3.52-2.47,6.99-2.68,8.62l29.74,3.95c.1-.75.07.38-.8,1.94-.51.92-1.3,2-2.48,2.98-1.19.99-2.46,1.61-3.58,1.95l-8.74-28.7Z"/>
</svg>