<?xml version="1.0" encoding="UTF-8"?>
<svg id="Camada_1" data-name="Camada 1" xmlns="http://www.w3.org/2000/svg" viewBox="0 0 147.12 143.65">
  <defs>
    <style>
      .cls-1, .cls-2 {
        fill: #CC99CC;
      }

      .cls-2 {
        fill-rule: evenodd;
      }
    </style>
  </defs>
  <path class="cls-2" d="m78.05,15c9.7,0,20.19,5.35,20.19,13.51s-7.87,18.8-17.56,18.8-17.56-3.32-17.56-11.47c0-14.65,5.23-20.83,14.93-20.83Zm33.88,40.48c9.7,0,20.19,5.35,20.19,13.51s-7.86,18.8-17.56,18.8-17.56-3.32-17.56-11.47c0-14.65,5.23-20.83,14.93-20.83Zm-65.73,41.89c.03,3.24-.45,6.01-2.25,8.54-1.95,2.77-5.46,4.22-9.06,4.2-3.59-.02-7.24-1.39-10.38-3.45-3.53-2.31-6.57-5.57-8.15-9.39-2.53-6.08-1.14-12.65.98-18.4,1.27-3.44,3.45-7.23,7.3-7.27,1.29-.02,2.59.42,3.82.94,9.95,4.17,17.39,14.57,17.75,24.83Zm58.98-63.33c5.45,0,12.42,4.34,12.42,9.04s-8.5,13.42-13.95,13.42-10.3-7.45-10.3-12.15c0-2.26,2.05-6.45,4.19-8.41,2.11-1.93,4.39-1.91,6.93-1.9h0c.23,0,.47,0,.71,0ZM19.52,59.55c4.65,12.17,22.41,20.93,32.39,17.18,9.98-3.75,17.15-21.91,12.5-34.07-4.65-12.17-21.33-21.34-31.31-17.58-9.98,3.75-18.23,22.31-13.58,34.48Zm35.32,39.73c5.2-1.47,10.93-1.04,15.95.99,5.46,2.63,6.24,8.41,6.25,14.27.01,5.86-3.67,11.85-9.41,13.54-3.07.9-6.37.56-9.54.08-4.12-.64-8.32-1.56-11.82-3.8-3.49-2.24-6.17-6.08-5.95-10.14.11-1.98.89-3.86,1.92-5.56,2.76-4.54,7.4-7.91,12.6-9.38Zm54.37,13.49c-1.63,1.9-3.34,3.31-5.75,4.02-2.63.78-5.55.14-7.78-1.39-2.23-1.53-3.8-3.88-4.71-6.41-1.03-2.84-1.26-6.02-.3-8.92,1.52-4.61,5.72-7.84,9.98-10.29,2.54-1.47,5.83-2.74,8.25-1.14.81.54,1.4,1.34,1.9,2.16,4.07,6.63,3.41,15.83-1.58,21.95Zm-17.73-63.02c6.25,3.91,8.75,15.73,2.91,22.51-5.83,6.78-16.77,14.15-23.03,10.24-6.26-3.9-9.88-18.17-4.04-24.95,5.83-6.78,17.9-11.71,24.15-7.8Zm-10.68,33.52c-6.38.94-13.03,7.38-12.11,11.49.92,4.1,7.82,10.78,14.2,9.84,6.38-.94,11.94-10.26,11.02-14.36-.92-4.1-6.74-7.9-13.12-6.96Zm9.37,28.21c-2.73-1.17-5.86-1.3-8.71-.48-3.13,1.12-3.92,4.33-4.29,7.62-.38,3.3,1.25,6.92,4.25,8.24,1.61.71,3.42.74,5.17.67,2.28-.09,4.61-.33,6.65-1.37,2.04-1.04,3.73-3.02,3.86-5.32.06-1.12-.24-2.24-.69-3.26-1.21-2.74-3.51-4.94-6.25-6.1Zm-38.7-14.59c1.47,1.04,3.3,1.14,5.02,1.08,3.02-.11,6.37-.37,8.4-2.6,2.07-2.27,1.95-5.73,1.39-8.74-.69-3.65-2.22-7.63-5.65-9.09-2.45-1.03-5.29-.5-7.72.56-2.19.96-4.27,2.42-5.38,4.53-1.22,2.32-1.1,5.16-.21,7.63.89,2.47,2.48,4.61,4.15,6.63Z"/>
  <path class="cls-1" d="m43.96,105.92l-12.24-8.67s0,0-.01.01l12.25,8.66Zm2.25-8.54l15-.16c0-.12,0-.24,0-.37l-14.99.53Zm-11.3,12.74l-.08,15h0l.08-15Zm-10.38-3.45l-8.22,12.55h0s8.21-12.55,8.21-12.55Zm-8.15-9.39l-13.85,5.76h0s13.85-5.76,13.85-5.76Zm.98-18.4l-14.07-5.2h0s14.07,5.2,14.07,5.2Zm7.3-7.27l.16,15s.02,0,.03,0l-.18-15Zm3.82.94l-5.81,13.83h0s5.8-13.83,5.8-13.83Zm69.09-36.61l-10.11-11.08h0s10.11,11.08,10.11,11.08Zm6.93-1.9l.14-15s-.03,0-.04,0l-.1,15Zm0,0l-.14,15s.03,0,.04,0l.1-15Zm-52.57,42.69l5.28,14.04h0l-5.28-14.04Zm-32.39-17.18l-14.01,5.35h0l14.01-5.35Zm44.89-16.9l14.01-5.35h0l-14.01,5.35Zm-31.31-17.58l-5.28-14.04,5.28,14.04Zm37.68,75.2l6.5-13.52c-.28-.14-.57-.26-.86-.38l-5.64,13.9Zm6.25,14.27h-15s0,.02,0,.03l15-.03Zm-9.41,13.54l-4.24-14.39h0s4.25,14.39,4.25,14.39Zm-9.54.08l-2.28,14.82s0,0,.01,0l2.27-14.83Zm-11.82-3.8l-8.11,12.62h0s8.1-12.62,8.1-12.62Zm-5.95-10.14l-14.98-.87s0,.02,0,.03l14.98.84Zm1.92-5.56l-12.82-7.79s0,.01,0,.01l12.83,7.78Zm61.23,8.13l4.27,14.38h0s-4.27-14.38-4.27-14.38Zm5.75-4.02l11.4,9.75c.07-.09.15-.17.22-.26l-11.62-9.49Zm-13.53,2.63l-8.49,12.37s0,0,.01,0l8.47-12.38Zm-4.71-6.41l14.12-5.07s0-.01,0-.02l-14.11,5.1Zm-.3-8.92l14.25,4.69h0s-14.25-4.69-14.25-4.69Zm9.98-10.29l7.48,13h0s-7.49-13-7.49-13Zm8.25-1.14l-8.3,12.49s.01,0,.02.01l8.28-12.51Zm1.9,2.16l-12.79,7.84h0s12.78-7.84,12.78-7.84Zm-16.4-18.56l-11.37-9.78h0s11.38,9.78,11.38,9.78Zm-2.91-22.51l7.95-12.72h0s-7.94,12.72-7.94,12.72Zm-20.11,32.75l7.94-12.72h0s-7.94,12.72-7.94,12.72Zm-4.04-24.95l-11.37-9.78h0l11.37,9.78Zm1.37,37.2l14.64-3.27h0l-14.64,3.27Zm12.11-11.49l2.18,14.84h0l-2.18-14.84Zm2.09,21.33l2.18,14.84h0l-2.18-14.84Zm11.02-14.36l14.64-3.27h0s-14.64,3.27-14.64,3.27Zm-12.46,20.76l-4.15-14.42c-.31.09-.62.19-.92.3l5.07,14.12Zm8.71.48l-5.89,13.8h0l5.89-13.8Zm-13,7.14l14.9,1.71s0-.02,0-.03l-14.91-1.68Zm4.25,8.24l6.07-13.72h0s-6.06,13.72-6.06,13.72Zm5.17.67l-.57-14.99h0s.57,14.99.57,14.99Zm6.65-1.37l6.81,13.36h0l-6.81-13.36Zm3.86-5.32l14.98.85s0-.01,0-.02l-14.98-.83Zm-.69-3.26l13.72-6.06h0s-13.72,6.06-13.72,6.06Zm-39.93-19.61l-.55-14.99s-.02,0-.03,0l.58,14.99Zm-5.02-1.08l-11.55,9.57c.84,1.01,1.8,1.91,2.87,2.66l8.68-12.24Zm13.42-1.52l11.09,10.1h0s-11.09-10.1-11.09-10.1Zm1.39-8.74l14.74-2.76h0s-14.74,2.76-14.74,2.76Zm-5.65-9.09l5.85-13.81h0s-5.85,13.81-5.85,13.81Zm-7.72.56l-6.02-13.74s-.01,0-.02,0l6.03,13.73Zm-5.38,4.53l13.28,6.97h0s-13.29-6.97-13.29-6.97Zm-.21,7.63l14.11-5.08h0l-14.11,5.08ZM113.24,28.51c0-11.24-7.29-18.71-13.6-22.59-6.43-3.95-14.26-5.91-21.59-5.91v30c1.08,0,2.25.15,3.36.45,1.13.3,1.98.69,2.51,1.02.56.34.47.43.17-.01-.38-.55-.85-1.61-.85-2.96h30Zm-32.56,33.8c10.49,0,18.7-5.67,23.77-11.53,5-5.78,8.79-13.84,8.79-22.26h-30c0-.29.05-.06-.24.63-.27.65-.71,1.38-1.26,2.02-.56.64-1.04.99-1.31,1.13-.23.12-.13.01.25.01v30Zm-32.56-26.47c0,9.99,5.33,17.53,12.6,21.76,6.39,3.72,13.78,4.71,19.96,4.71v-30c-1.6,0-2.86-.14-3.77-.33-.93-.19-1.22-.38-1.1-.31.17.1.87.57,1.5,1.6.67,1.09.81,2.1.81,2.57h-30ZM78.05,0c-8.32,0-17.09,2.87-23.12,10.95-5.36,7.18-6.81,16.26-6.81,24.88h30c0-2.82.26-4.71.54-5.89.28-1.16.52-1.33.31-1.05-.29.38-.79.81-1.35,1.05-.45.19-.43.06.43.06V0Zm69.07,68.99c0-11.24-7.29-18.71-13.6-22.59-6.44-3.95-14.26-5.91-21.59-5.91v30c1.08,0,2.25.15,3.36.45,1.13.3,1.98.69,2.51,1.02.56.34.47.43.17-.01-.38-.55-.85-1.61-.85-2.96h30Zm-32.56,33.8c10.49,0,18.7-5.66,23.77-11.53,5-5.78,8.79-13.84,8.79-22.26h-30c0-.29.05-.06-.24.63-.27.65-.71,1.38-1.26,2.02-.56.64-1.04.99-1.31,1.13-.23.12-.13.01.25.01v30Zm-32.56-26.47c0,9.99,5.33,17.53,12.6,21.76,6.39,3.72,13.78,4.71,19.96,4.71v-30c-1.6,0-2.86-.14-3.77-.33-.93-.19-1.22-.39-1.1-.31.17.1.87.57,1.5,1.6.66,1.09.81,2.1.81,2.57h-30Zm29.93-35.83c-8.32,0-17.09,2.87-23.12,10.95-5.36,7.18-6.81,16.26-6.81,24.88h30c0-2.82.26-4.71.54-5.89.28-1.16.52-1.33.31-1.05-.29.38-.79.81-1.35,1.05-.44.19-.43.06.43.06v-30Zm-55.73,74.11c4.34-6.13,5.06-12.5,5.01-17.38l-30,.32c0,.42,0,.68-.02.83-.01.14-.02.14,0,.03.03-.11.08-.3.19-.53.1-.23.23-.44.35-.61l24.48,17.34Zm-21.38,10.53c7.25.04,15.96-2.86,21.39-10.54l-24.5-17.31c.77-1.09,1.65-1.64,2.19-1.88.52-.23.89-.27,1.09-.26l-.16,30Zm-18.51-5.9c4.84,3.16,11.27,5.86,18.51,5.9l.16-30c.08,0-.1.01-.56-.14-.45-.16-1.04-.43-1.69-.86l-16.43,25.1Zm-13.79-16.17c2.98,7.16,8.32,12.59,13.78,16.17l16.44-25.1c-1.59-1.04-2.33-2.14-2.53-2.61l-27.69,11.54Zm.75-29.36c-2.45,6.64-5.55,17.83-.75,29.35l27.7-11.53c-.12-.28-.29-.88-.17-2.14.13-1.35.56-3.08,1.37-5.3l-28.15-10.38Zm21.21-17.07c-7.48.08-12.76,4-15.84,7.59-2.87,3.34-4.48,7.06-5.37,9.47l28.14,10.4c.38-1.02.5-.92,0-.34-.32.37-1.02,1.09-2.21,1.73-1.27.69-2.8,1.12-4.41,1.14l-.31-30Zm9.78,2.1c-1.61-.68-5.29-2.16-9.81-2.1l.36,30c-1.08.01-1.84-.16-2.13-.24-.28-.07-.34-.12-.04,0l11.61-27.66Zm26.93,38.13c-.58-16.48-11.94-31.85-26.94-38.14l-11.59,27.67c4.91,2.06,8.41,7.49,8.55,11.52l29.98-1.05Zm71.4-53.77c0-9.7-6.68-15.89-10.65-18.63-4.5-3.1-10.52-5.41-16.77-5.41v30c-.55,0-.73-.09-.57-.04.05.02.12.04.19.08.03.02.06.03.08.04.02.01.03.02.03.02,0,0-.02-.01-.05-.04-.03-.02-.08-.07-.15-.13-.12-.12-.36-.36-.63-.76-.52-.75-1.49-2.52-1.49-5.14h30Zm-28.95,28.42c5.04,0,9.24-1.89,11.9-3.4,2.9-1.65,5.49-3.74,7.64-5.86,2.15-2.12,4.23-4.63,5.87-7.39,1.42-2.39,3.53-6.61,3.53-11.77h-30c0-.83.09-1.5.19-1.98.1-.49.21-.85.29-1.09.16-.45.28-.63.22-.54-.04.07-.16.26-.38.53-.22.27-.48.57-.78.87s-.61.56-.88.77c-.28.22-.47.34-.56.39-.1.06.05-.04.43-.17.36-.12,1.24-.37,2.52-.37v30Zm-25.3-27.15c0,6.63,2.99,12.81,6.24,17.01,3.11,4.03,9.56,10.14,19.06,10.14v-30c2.12,0,3.55.73,4.11,1.09.55.35.68.58.57.43-.03-.04-.08-.11-.12-.19-.02-.04-.04-.07-.05-.09-.01-.03-.02-.04-.02-.04,0,0,.01.02.02.07.01.05.04.13.06.24.05.21.13.67.13,1.34h-30Zm9.08-19.48c-2.9,2.65-4.95,5.93-6.23,8.5-1.13,2.27-2.86,6.38-2.86,10.98h30c0,.81-.09,1.41-.14,1.73-.06.34-.12.56-.15.65-.05.17-.06.14.03-.03.08-.16.15-.27.18-.31.05-.08-.12.2-.6.64l-20.23-22.16Zm17.14-5.82c-2.04-.01-10.18-.53-17.13,5.82l20.22,22.16c-.5.45-1.13.91-1.89,1.28-.75.37-1.42.56-1.9.66-.44.09-.69.09-.58.09.16,0,.4,0,1.1,0l.19-30Zm.04,0h0l-.28,30h0l.28-30Zm.57,0c-.18,0-.37,0-.61,0l-.19,30c.23,0,.51,0,.8,0v-30Zm-58.56,43.64c.59-.22.37.04-1.05-.18-1.32-.2-3.08-.75-4.97-1.73-4.15-2.15-6.46-4.99-7.07-6.59l-28.03,10.7c4.04,10.57,12.93,18.19,21.32,22.53,8.02,4.15,19.68,7.36,30.37,3.33l-10.57-28.08Zm3.77-14.68c.64,1.68.8,5.33-.79,9.55-.73,1.93-1.64,3.44-2.44,4.41-.85,1.03-1.15.95-.54.72l10.57,28.08c10.76-4.05,17.31-14.2,20.49-22.63,3.33-8.83,4.75-20.34.75-30.83l-28.03,10.7Zm-12.01-8.89c-.64.24-.56,0,.63.2,1.12.19,2.69.71,4.44,1.69,3.78,2.11,6.19,5.03,6.95,7.01l28.03-10.7c-3.89-10.19-12.15-17.93-20.37-22.51-7.82-4.36-19.35-7.85-30.24-3.76l10.57,28.08Zm-4.85,15.09c-.5-1.3-.69-4.82,1.16-9.33.84-2.03,1.87-3.68,2.81-4.78,1.02-1.19,1.43-1.19.87-.98l-10.57-28.08c-10.57,3.98-17.4,14-20.86,22.41-3.6,8.75-5.6,20.59-1.45,31.45l28.03-10.7Zm42.89,32.18c-7.91-3.21-17.04-3.96-25.65-1.53l8.14,28.88c1.8-.51,4.11-.41,6.24.46l11.28-27.8Zm15.61,28.17c0-5.44-.2-20.79-14.74-27.79l-13.01,27.03c-.51-.25-1.15-.7-1.71-1.36-.52-.62-.73-1.14-.77-1.27-.03-.1.04.09.12.74.07.64.11,1.49.11,2.65h30Zm-20.17,27.93c13.3-3.92,20.19-16.75,20.17-27.96l-30,.06c0-.1.01-.12,0-.08-.01.04-.02.06-.01.03,0-.01.38-.54,1.35-.83l8.48,28.78Zm-16.05.52c3.22.49,9.49,1.42,16.06-.52l-8.49-28.77c.35-.1.38-.04-.18-.05-.6-.01-1.44-.1-2.85-.31l-4.54,29.65Zm-17.65-6.01c6.32,4.06,13.22,5.33,17.64,6.01l4.57-29.65c-3.83-.59-5.33-1.17-6-1.6l-16.21,25.24Zm-12.82-23.61c-.63,11.21,6.47,19.52,12.81,23.6l16.23-25.23s.03.02.06.05c.03.03.11.12.22.3.21.34.72,1.37.63,2.96l-29.95-1.68Zm4.07-12.5c-1.76,2.9-3.77,7.18-4.07,12.47l29.95,1.73c-.04.7-.19,1.17-.26,1.36-.07.19-.09.18.03-.01l-25.65-15.55Zm21.36-16.04c-8.59,2.42-16.48,8.01-21.35,16.03l25.64,15.58c.65-1.07,2.03-2.22,3.85-2.73l-8.14-28.88Zm56.97,46.33c6.14-1.82,10.15-5.46,12.88-8.65l-22.8-19.5c-.32.38-.31.29,0,.07.16-.12.37-.25.64-.38.26-.13.52-.23.75-.3l8.54,28.76Zm-20.53-3.39c5.37,3.68,12.92,5.65,20.53,3.39l-8.54-28.76c1.22-.36,2.28-.33,3.02-.19.74.14,1.37.42,1.94.8l-16.95,24.75Zm-10.35-13.71c1.72,4.78,4.95,10,10.34,13.7l16.97-24.74c.48.33.74.65.85.79.1.14.1.18.07.1l-28.23,10.15Zm-.43-18.68c-2.19,6.65-1.5,13.32.44,18.7l28.22-10.19c-.03-.1-.02-.11-.02,0,0,.11,0,.42-.15.88l-28.49-9.38Zm16.74-18.6c-4.74,2.73-13.37,8.35-16.74,18.6l28.5,9.38c-.22.67-.47.72.07.21.57-.54,1.56-1.28,3.14-2.19l-14.96-26Zm24.03-.63c-5.71-3.79-11.68-3.56-15.45-2.77-3.68.77-6.71,2.33-8.58,3.4l14.97,26c.68-.39.55-.2-.24-.04-.88.18-4,.58-7.3-1.61l16.6-24.99Zm6.39,6.82c-.79-1.28-2.78-4.42-6.41-6.83l-16.57,25.01c-1.08-.71-1.77-1.45-2.14-1.89-.35-.42-.52-.7-.46-.61l25.57-15.69Zm-2.75,39.28c8.95-10.97,10.22-27.11,2.75-39.29l-25.57,15.7c.67,1.09.62,3.35-.42,4.62l23.24,18.97Zm-15.07-40.21c6.48-7.53,7.7-16.98,6.52-24.45-1.14-7.22-5.02-15.66-12.86-20.56l-15.9,25.44c-.47-.29-.76-.57-.92-.74-.16-.17-.21-.26-.2-.25,0,.01.05.1.11.25.05.15.1.33.13.53.03.2.04.38.04.53,0,.15-.02.24-.03.27,0,.03,0-.02.06-.13.06-.12.15-.28.3-.45l22.74,19.57Zm-42.34,13.18c10.34,6.46,21.36,2.16,26.52-.52,6.2-3.21,11.86-8.05,15.83-12.67l-22.75-19.55c-1.86,2.16-4.58,4.4-6.88,5.59-1.13.58-1.52.58-1.19.54.43-.05,2.27-.15,4.36,1.16l-15.89,25.45Zm-7.47-47.46c-7.18,8.35-7.25,19.13-5.86,26.21,1.35,6.92,5.22,16.18,13.34,21.24l15.87-25.46c.66.41,1,.78,1.09.88.1.11.05.09-.07-.14-.27-.47-.6-1.29-.79-2.29-.2-1.01-.17-1.73-.11-2.05.05-.33.03.28-.72,1.16l-22.74-19.57Zm43.47-10.74c-8.95-5.58-19.11-3.65-25.15-1.53-6.7,2.35-13.49,6.66-18.32,12.28l22.74,19.57c.42-.49,1.17-1.18,2.26-1.9,1.07-.71,2.22-1.27,3.26-1.64,1.09-.38,1.71-.43,1.8-.43.11,0-.98.04-2.48-.89l15.88-25.45Zm-16.09,54.46c.79,3.53-.32,5.98-.59,6.55-.36.72-.6.87-.36.64.19-.18.47-.39.75-.54.3-.16.27-.08-.14-.02l-4.36-29.68c-6.94,1.02-12.93,4.68-16.98,8.55-2.11,2.01-4.24,4.6-5.78,7.71-1.47,2.95-3.06,7.76-1.81,13.34l29.28-6.55Zm-2.62-1.73c1.34-.2,2.23.07,2.45.15.21.08.11.07-.18-.16-.13-.1-.25-.21-.35-.31-.05-.05-.09-.1-.12-.13-.01-.02-.03-.03-.03-.04,0,0-.01-.01-.01-.01,0,0,0,0,.01.02,0,.01.02.03.04.06.03.06.09.16.17.31.13.25.42.88.63,1.84l-29.28,6.55c1.52,6.77,6.4,12.18,10.45,15.35,4.28,3.35,11.68,7.36,20.57,6.06l-4.36-29.68Zm-1.43,3.75c-.35-1.57-.27-2.75-.21-3.27.07-.57.17-.89.19-.93.02-.05-.09.25-.4.69-.31.44-.54.63-.51.6.03-.03.22-.17.58-.33.37-.17.97-.39,1.78-.51l4.36,29.68c9.15-1.34,15.28-7.84,18.36-12.23,1.76-2.51,3.27-5.37,4.27-8.36.88-2.62,1.94-7.02.85-11.89l-29.28,6.55Zm3.7,4.6c-.32.05-.63,0-.98-.21-.19-.11-.6-.38-1.08-.95-.47-.55-1.23-1.68-1.63-3.44l29.27-6.56c-1.67-7.43-6.98-12.43-11.74-15.13-5.09-2.89-11.5-4.38-18.2-3.39l4.36,29.68Zm2.63,27.3c-.18.05-.35.07-.53.06-.18,0-.45-.05-.79-.2l11.77-27.59c-6.08-2.59-12.77-2.82-18.74-1.1l8.29,28.83Zm6.47-5.11c.06-.54.11-.78.12-.83.01-.06-.06.3-.33.89-.29.62-.85,1.57-1.84,2.55-1.03,1.01-2.26,1.76-3.5,2.21l-10.13-28.24c-12.65,4.54-13.83,17.45-14.13,20.07l29.81,3.36Zm-4.59-7.15c2.25.99,3.45,2.59,3.98,3.68.52,1.06.75,2.23.6,3.51l-29.81-3.41c-.95,8.27,2.77,19.11,13.09,23.67l12.13-27.44Zm-1.47-.6c-.31.01-.5.01-.61.01-.11,0-.09,0,.03,0,.22.02,1.01.12,2.06.58l-12.14,27.43c5.05,2.24,9.98,2.01,11.82,1.94l-1.15-29.98Zm.42.26c.62-.32,1.02-.38.93-.36-.04,0-.16.03-.39.05-.23.02-.54.04-.94.06l1.14,29.98c2.6-.1,7.76-.38,12.89-2.99l-13.62-26.73Zm-4.3,7.19c.13-2.34,1.04-4.06,1.82-5.09.76-1,1.63-1.66,2.48-2.1l13.62,26.73c5.22-2.66,11.51-8.65,12.03-17.84l-29.95-1.7Zm.56,3.65c-.11-.25-.68-1.57-.56-3.63l29.95,1.67c.24-4.3-.93-7.86-1.95-10.15l-27.45,12.11Zm1.59,1.64c-.36-.15-.64-.35-.87-.57-.24-.23-.5-.57-.71-1.05l27.44-12.13c-2.82-6.37-8.01-11.25-14.08-13.84l-11.77,27.59Zm-28.37-42.29c-.46.02-.14-.03.52.08.75.13,2.18.51,3.71,1.59l-17.35,24.47c5.85,4.15,12.17,3.91,14.27,3.83l-1.16-29.98Zm-2.11,2.29c1.67-1.83,3.43-2.31,3.71-2.38.16-.04.13-.02-.18.01-.31.03-.73.05-1.39.08l1.09,29.98c1.54-.06,4.48-.17,7.57-.92,3.22-.78,7.67-2.5,11.37-6.56l-22.17-20.21Zm-2.27,4.12c.15.81.06.83.12.33.06-.59.4-2.53,2.15-4.45l22.18,20.2c7.37-8.09,5.64-18.39,5.04-21.6l-29.49,5.52Zm3.24,1.97c-2.27-.96-3.25-2.52-3.44-2.87-.1-.18-.09-.21-.02,0,.06.19.14.5.22.91l29.48-5.54c-.76-4.07-3.44-15.42-14.54-20.13l-11.7,27.62Zm4.14.49c.15-.07-.05.05-.61.11-.6.06-1.92.08-3.52-.6l11.69-27.63c-7.96-3.37-15.53-1.14-19.59.64l12.03,27.48Zm1.9-2.25c-.59,1.13-1.28,1.77-1.61,2.04-.32.26-.45.29-.27.21l-12.06-27.47c-3.71,1.63-9.29,4.93-12.63,11.31l26.58,13.92Zm.61-4.41c.09.25.21.69.2,1.35,0,.68-.15,1.8-.82,3.07l-26.57-13.93c-3.73,7.11-2.88,14.56-1.04,19.68l28.22-10.17Zm1.59,2.14c-.69-.83-1.1-1.38-1.37-1.79-.26-.39-.27-.49-.22-.34l-28.22,10.17c1.82,5.06,4.86,8.88,6.72,11.11l23.1-19.14Z"/>
</svg>