<?xml version="1.0" encoding="UTF-8"?>
<svg id="Camada_1" data-name="Camada 1" xmlns="http://www.w3.org/2000/svg" viewBox="0 0 124.52 116">
  <defs>
    <style>
      .cls-1, .cls-2 {
        fill: #fff;
      }

      .cls-2, .cls-3 {
        stroke: #339;
        stroke-linecap: round;
        stroke-linejoin: round;
        stroke-width: 2px;
      }

      .cls-3 {
        fill: none;
      }
    </style>
  </defs>
  <path class="cls-1" d="m74.79,86.02c-7.32,9.18-6.33,22.03-.7,26.69,5.63,4.66,19,2.12,26.32-6.92,7.32-9.18,5.63-25.84,0-30.36-5.63-4.52-18.3,1.55-25.61,10.73v-.14Zm-9.01-7.49c1.97,1.41,4.36,1.55,6.61,1.41,3.94,0,8.3-.56,10.98-3.39,2.67-2.97,2.53-7.63,1.83-11.58-.84-4.8-2.96-10.03-7.46-12-3.24-1.41-6.9-.71-10.13.71-2.81,1.27-5.63,3.25-7.04,5.93-1.55,3.11-1.41,6.78-.28,10.03s3.24,6.07,5.49,8.76m-35.75-16.1c-.56-4.66-2.81-9.04-6.05-12.29-3.38-3.25-7.88-5.37-12.53-5.51-1.69,0-3.52.14-5.07.99-3.24,1.55-5.07,5.23-5.35,8.76-.28,3.53.84,7.2,2.11,10.45.99,2.54,2.11,5.23,4.08,7.2,3.8,3.67,9.85,3.81,14.36,1.27,4.5-2.54,8.58-5.65,8.44-10.87ZM102.8,16.96c0-7.34-6.62-15.96-15.2-15.96s-18.72,8.47-18.72,15.96,6.33,15.96,15.06,15.96,19-8.47,19-15.96h-.14Zm-32.23,13.7c0-15.82-14.5-28.53-26.46-28.53s-26.32,13.98-26.32,29.8,19.28,31.92,31.24,31.92,21.53-17.23,21.53-33.05v-.14Zm40.81,46.32c8.73-.28,12.53-10.87,12.1-23.73-.56-12.85-18.15-22.6-26.88-22.17-8.73.28-14.64,9.6-14.21,22.46.56,12.85,20.27,23.73,28.99,23.44Zm-47.85,32.62c9.71-7.06,6.9-24.57-1.55-36.44-8.44-12-20.55-13.13-38-.56-9.71,6.92-6.76,19.49,1.69,31.49,8.44,12,28.15,12.57,37.86,5.51Z"/>
  <path class="cls-3" d="m65.78,78.54c1.97,1.41,4.36,1.55,6.61,1.41,3.94,0,8.3-.56,10.98-3.39,2.67-2.97,2.53-7.63,1.83-11.58-.84-4.8-2.96-10.03-7.46-12-3.24-1.41-6.9-.71-10.13.71-2.81,1.27-5.63,3.25-7.04,5.93-1.55,3.11-1.41,6.78-.28,10.03s3.24,6.07,5.49,8.76m9.01,7.63c-7.32,9.18-6.33,22.03-.7,26.69,5.63,4.66,19,2.12,26.32-6.92,7.32-9.18,5.63-25.84,0-30.36-5.63-4.52-18.3,1.55-25.61,10.73v-.14Zm-44.75-23.73c-.56-4.66-2.81-9.04-6.05-12.29-3.38-3.25-7.88-5.37-12.53-5.51-1.69,0-3.52.14-5.07.99-3.24,1.55-5.07,5.23-5.35,8.76-.28,3.53.84,7.2,2.11,10.45.99,2.54,2.11,5.23,4.08,7.2,3.8,3.67,9.85,3.81,14.36,1.27,4.5-2.54,8.58-5.65,8.44-10.87ZM102.8,16.96c0-7.34-6.62-15.96-15.2-15.96s-18.72,8.47-18.72,15.96,6.33,15.96,15.06,15.96,19-8.47,19-15.96h-.14Zm-32.23,13.7c0-15.82-14.5-28.53-26.46-28.53s-26.32,13.98-26.32,29.8,19.28,31.92,31.24,31.92,21.53-17.23,21.53-33.05v-.14Zm40.81,46.32c8.73-.28,12.53-10.87,12.1-23.73-.56-12.85-18.15-22.6-26.88-22.17-8.73.28-14.64,9.6-14.21,22.46.56,12.85,20.27,23.73,28.99,23.44Zm-47.85,32.62c9.71-7.06,6.9-24.57-1.55-36.44-8.44-12-20.55-13.13-38-.56-9.71,6.92-6.76,19.49,1.69,31.49,8.44,12,28.15,12.57,37.86,5.51Z"/>
  <path class="cls-2" d="m84.27,38.98c.33-2.12-.35-3.98-1.45-4.92-1.1-.94-2.65-1.15-4.27-.97-.8.09-1.64.27-2.49.74-1.39.77-2.71,2.26-3.71,3.89-2.3,3.77-2.86,8.43-1.31,10.79.41.63.95,1.1,1.51,1.53.78.59,1.66,1.11,2.78.92,1.41-.24,2.96-1.56,4.3-2.99,2.35-2.5,4.61-6.03,4.63-9Z"/>
</svg>