<?xml version="1.0" encoding="UTF-8"?>
<svg id="Camada_1" data-name="Camada 1" xmlns="http://www.w3.org/2000/svg" viewBox="0 0 123.88 115.67">
  <defs>
    <style>
      .cls-1 {
        fill: #fff;
        stroke: #339;
        stroke-linecap: round;
        stroke-linejoin: round;
        stroke-width: 2px;
      }
    </style>
  </defs>
  <path class="cls-1" d="m6.92,45.87c-6.05,2.8-7.74,11.1-3.77,18.54,3.97,7.44,12.09,11.2,18.14,8.4,6.05-2.8,12.3-8.52,8.33-15.96-3.97-7.44-16.66-13.78-22.7-10.98Z"/>
  <path class="cls-1" d="m81.38,30.74c8.92,1.15,17.34-4.48,18.8-12.59,1.46-8.11-4.59-15.61-13.52-16.76-8.93-1.15-20.37-.1-21.83,8.01-1.46,8.11,7.63,20.19,16.55,21.34Z"/>
  <path class="cls-1" d="m68.35,32.92c-1.06,14.81-15.9,30.27-26.39,28.17-10.49-2.1-28.64-18.06-27.58-32.88C15.45,13.4,37.73.44,48.22,2.54c10.49,2.11,21.2,15.57,20.13,30.38Z"/>
  <path class="cls-1" d="m98.59,108.23c-3.07,1.96-6.1,3.25-9.86,3.41-4.11.18-8.12-1.58-10.79-4.27-2.67-2.7-4.08-6.25-4.46-9.83-.43-4.02.42-8.24,2.89-11.7,3.93-5.52,11.25-8.4,18.35-10.23,4.25-1.1,9.5-1.72,12.41,1.13.97.95,1.53,2.19,1.96,3.42,3.44,9.93-.95,21.69-10.5,28.07Z"/>
  <path class="cls-1" d="m112.91,68.2c4.3-3,7.5-6.22,9.16-10.81,1.82-5.02.46-10.72-2.91-15.15-3.37-4.42-8.58-7.64-14.23-9.59-6.34-2.2-13.46-2.88-19.97-1.26-10.37,2.58-17.72,10.48-23.32,18.51-3.35,4.81-6.3,11.07-2.76,15.86,1.18,1.6,2.97,2.8,4.8,3.84,14.76,8.38,35.39,7.79,49.23-1.4Z"/>
  <path class="cls-1" d="m19.49,79.02c1.29-4.15,4.88-6.97,8.54-9.31,6.39-4.11,13.73-8.4,21.59-6.95,8.02,1.49,13.53,8.44,17.37,15.15,4.65,8.15,8.1,18.15,3.45,25.92-3.31,5.53-10.06,8.57-16.83,9.97-6.1,1.25-12.8,1.38-18.58-1.18-6.35-2.8-10.83-8.55-13.09-14.65-2.26-6.11-4.49-12.4-2.45-18.95Z"/>
</svg>