<?xml version="1.0" encoding="UTF-8"?>
<svg id="Camada_1" data-name="Camada 1" xmlns="http://www.w3.org/2000/svg" viewBox="0 0 136.84 128.67">
  <defs>
    <style>
      .cls-1, .cls-2 {
        fill: #6cc;
      }

      .cls-2 {
        fill-rule: evenodd;
      }
    </style>
  </defs>
  <path class="cls-2" d="m106.63,24.65c-1.46,8.11-9.88,13.74-18.8,12.59-8.92-1.15-18.01-13.24-16.55-21.34,1.46-8.11,12.9-9.16,21.83-8.01,8.93,1.15,14.98,8.66,13.52,16.76ZM9.6,70.91c-3.97-7.44-2.28-15.74,3.77-18.54,6.05-2.8,18.73,3.54,22.7,10.98,3.97,7.44-2.27,13.16-8.33,15.96-6.05,2.8-14.17-.96-18.14-8.4Zm65.21-31.49c-1.06,14.81-15.9,30.27-26.4,28.17-10.49-2.1-28.64-18.06-27.58-32.88,1.06-14.81,23.35-27.77,33.84-25.67,10.49,2.11,21.2,15.57,20.13,30.38Zm20.38,78.72c3.76-.17,6.78-1.46,9.86-3.41,9.55-6.38,13.94-18.14,10.5-28.07-.43-1.23-.98-2.47-1.96-3.42-2.91-2.85-8.17-2.23-12.41-1.13-7.1,1.84-14.42,4.72-18.35,10.23-2.46,3.46-3.32,7.68-2.89,11.7.38,3.58,1.79,7.13,4.46,9.83,2.67,2.7,6.69,4.46,10.79,4.27Zm24.18-43.44c4.3-3,7.5-6.22,9.16-10.81,1.82-5.02.46-10.72-2.91-15.15-3.37-4.42-8.58-7.64-14.23-9.59-6.34-2.2-13.46-2.88-19.97-1.26-10.37,2.58-17.72,10.48-23.32,18.51-3.35,4.81-6.3,11.07-2.76,15.86,1.18,1.6,2.97,2.8,4.8,3.84,14.76,8.38,35.39,7.79,49.23-1.4Zm-84.89,1.51c-3.66,2.34-7.25,5.16-8.54,9.31-2.04,6.55.19,12.84,2.45,18.95,2.26,6.11,6.74,11.85,13.09,14.65,5.78,2.56,12.48,2.43,18.58,1.18,6.77-1.4,13.51-4.44,16.83-9.97,4.65-7.77,1.2-17.77-3.45-25.92-3.84-6.71-9.35-13.66-17.37-15.15-7.87-1.46-15.21,2.84-21.59,6.95Z"/>
  <path class="cls-1" d="m87.83,37.24l-.96,7.44h0l.96-7.44Zm18.8-12.59l7.38,1.33h0l-7.38-1.33Zm-35.35-8.75l7.38,1.33h0l-7.38-1.33ZM13.37,52.37l3.15,6.81h0l-3.15-6.81Zm-3.77,18.54l-6.62,3.53h0l6.62-3.53Zm26.47-7.56l-6.62,3.53h0l6.62-3.53Zm-8.33,15.96l3.15,6.81h0l-3.15-6.81Zm47.06-39.89l-7.48-.54h0l7.48.54Zm-53.97-4.71l7.48.54h0l-7.48-.54ZM54.67,9.04l1.48-7.35h0s-1.47,7.35-1.47,7.35Zm50.37,105.69l4.03,6.32s.09-.06.14-.09l-4.17-6.24Zm-9.86,3.41l.33,7.49h0l-.33-7.49Zm20.36-31.48l-7.09,2.46h0s7.09-2.46,7.09-2.46Zm-1.96-3.42l-5.25,5.36h0s5.24-5.36,5.24-5.36Zm-12.41-1.13l1.88,7.26h0s-1.88-7.26-1.88-7.26Zm-18.35,10.23l6.11,4.35h0s-6.11-4.35-6.11-4.35Zm-2.89,11.7l7.46-.78h0s-7.46.78-7.46.78Zm4.46,9.83l-5.33,5.28h0s5.33-5.28,5.33-5.28Zm44.13-49.97l7.05,2.55h0s-7.05-2.55-7.05-2.55Zm-9.16,10.81l4.15,6.25s.09-.06.14-.09l-4.29-6.15Zm6.25-25.96l5.97-4.54h0s-5.97,4.54-5.97,4.54Zm-14.23-9.59l-2.46,7.09h0s2.45-7.09,2.45-7.09Zm-19.97-1.26l1.81,7.28h0s-1.82-7.28-1.82-7.28Zm-23.32,18.51l6.15,4.29h0s-6.16-4.29-6.16-4.29Zm-2.76,15.86l6.04-4.44h0s-6.04,4.44-6.04,4.44Zm4.8,3.84l3.7-6.52h0s-3.7,6.52-3.7,6.52Zm-44.2,9.42l-7.16-2.23h0l7.16,2.23Zm8.54-9.31l4.04,6.32s0,0,.01,0l-4.06-6.31Zm-6.09,28.26l7.03-2.61h0l-7.03,2.61Zm13.09,14.65l3.03-6.86h0s-3.03,6.86-3.03,6.86Zm18.58,1.18l1.51,7.35h0s-1.52-7.35-1.52-7.35Zm16.83-9.97l6.43,3.85h0s-6.44-3.85-6.44-3.85Zm-3.45-25.92l6.51-3.72h0s-6.51,3.72-6.51,3.72Zm-17.37-15.15l1.37-7.37h0s-1.37,7.37-1.37,7.37Zm30.8-24.59c12.3,1.59,24.87-6.1,27.14-18.7l-14.76-2.66c-.65,3.61-4.91,7.2-10.46,6.48l-1.92,14.88Zm-22.97-30.11c-1.26,7.02,2,14.2,5.81,19.17,3.87,5.05,9.97,10.01,17.16,10.94l1.92-14.88c-1.74-.22-4.64-1.88-7.18-5.19-2.6-3.39-3.15-6.3-2.95-7.39l-14.76-2.66ZM94.08.45c-4.98-.64-11.17-.76-16.65.73-5.48,1.49-12.06,5.24-13.53,13.38l14.76,2.66c.04-.22.08-.3.28-.48.32-.27,1.04-.71,2.42-1.09,2.84-.77,6.84-.84,10.79-.33l1.92-14.88Zm19.94,25.53c2.34-12.97-7.44-23.92-19.94-25.53l-1.92,14.88c5.36.69,7.68,4.76,7.1,8l14.76,2.66ZM10.22,45.56c-11.49,5.32-12.34,19.3-7.23,28.88l13.23-7.06c-1.25-2.35-1.44-4.51-1.14-5.98.29-1.41.93-1.98,1.44-2.22l-6.3-13.61Zm32.47,14.25c-2.97-5.57-8.6-9.94-13.89-12.53-2.74-1.34-5.76-2.39-8.77-2.84-2.92-.44-6.48-.42-9.81,1.12l6.3,13.61c-.3.14-.01-.1,1.27.1,1.19.18,2.73.66,4.41,1.48,3.56,1.74,6.25,4.25,7.25,6.12l13.23-7.06Zm-11.79,26.3c3.7-1.71,8.12-4.58,11-8.87,3.21-4.78,4.22-11.03.8-17.44l-13.23,7.06c.4.74.37,1.09.36,1.15,0,.1-.05.37-.38.86-.77,1.14-2.49,2.53-4.85,3.62l6.3,13.61Zm-27.91-11.68c5.09,9.54,16.96,16.74,27.91,11.68l-6.3-13.61c-1.15.53-5.53.22-8.38-5.13l-13.23,7.06Zm43.95.5c4.7.94,9.29-.18,13.12-2.03,3.87-1.86,7.47-4.67,10.53-7.92,6.04-6.39,11.01-15.52,11.69-25.04l-14.96-1.08c-.38,5.29-3.37,11.3-7.63,15.81-2.08,2.21-4.24,3.79-6.13,4.7-1.93.93-3.14.95-3.68.84l-2.95,14.71ZM13.35,34.17c-.75,10.48,5.17,20.15,11.46,26.87,6.3,6.73,14.77,12.43,22.13,13.9l2.95-14.71c-3.14-.63-8.99-3.96-14.12-9.44-5.15-5.5-7.76-11.21-7.45-15.54l-14.96-1.08ZM56.15,1.68c-4.38-.88-9.14-.09-13.33,1.26-4.34,1.39-8.79,3.62-12.85,6.41-7.72,5.32-15.84,14.03-16.61,24.82l14.96,1.08c.29-4.02,3.85-9.2,10.16-13.54,2.96-2.04,6.11-3.58,8.93-4.49,2.97-.95,4.93-1,5.8-.83l2.95-14.71Zm26.14,38.27c.67-9.36-2.37-18.11-7.08-24.81-4.63-6.58-11.43-11.93-19.06-13.46l-2.95,14.71c2.86.57,6.66,3.01,9.74,7.39,3,4.27,4.78,9.65,4.39,15.1l14.96,1.08Zm18.73,68.44c-2.38,1.52-4.13,2.15-6.16,2.25l.67,14.98c5.49-.24,9.79-2.18,13.56-4.58l-8.06-12.65Zm7.45-19.29c2.19,6.3-.51,14.65-7.58,19.38l8.33,12.47c12.02-8.03,18.12-23.22,13.42-36.76l-14.17,4.92Zm-.12-.52c-.16-.16-.21-.26-.17-.19.02.04.06.11.11.23.05.12.11.27.18.48l14.17-4.91c-.54-1.56-1.56-4.14-3.8-6.33l-10.49,10.73Zm-5.29.76c1.82-.47,3.42-.71,4.61-.68,1.24.04,1.1.33.67-.09l10.5-10.71c-3.34-3.27-7.56-4.1-10.74-4.19-3.22-.09-6.38.52-8.81,1.15l3.77,14.52Zm-14.12,7.32c2.24-3.15,7.15-5.52,14.12-7.32l-3.76-14.52c-7.22,1.87-16.97,5.26-22.58,13.15l12.22,8.7Zm-1.54,6.55c-.26-2.48.29-4.79,1.54-6.55l-12.22-8.7c-3.68,5.17-4.83,11.27-4.24,16.85l14.91-1.6Zm2.33,5.35c-1.26-1.27-2.1-3.13-2.33-5.34l-14.92,1.57c.52,4.96,2.51,10.2,6.58,14.32l10.66-10.55Zm5.13,2.06c-1.84.08-3.84-.76-5.14-2.06l-10.65,10.56c4.05,4.09,10.08,6.77,16.45,6.49l-.67-14.98Zm26.62-49.31c-.92,2.54-2.72,4.64-6.4,7.21l8.58,12.3c4.93-3.43,9.52-7.76,11.92-14.41l-14.11-5.1Zm-1.83-8.06c2.19,2.89,2.59,5.95,1.83,8.06l14.11,5.1c2.87-7.93.55-16.26-3.99-22.24l-11.94,9.08Zm-10.71-7.04c4.71,1.63,8.49,4.14,10.71,7.05l11.93-9.09c-4.52-5.94-11.17-9.86-17.75-12.14l-4.89,14.18Zm-15.71-1.07c4.83-1.21,10.45-.75,15.7,1.07l4.91-14.17c-7.44-2.58-16.06-3.49-24.24-1.45l3.63,14.55Zm-18.98,15.52c5.3-7.62,11.32-13.61,18.98-15.52l-3.63-14.55c-13.08,3.26-21.77,13.05-27.66,21.5l12.31,8.57Zm-2.88,7.12s-.32-.26.03-1.59c.39-1.5,1.38-3.41,2.85-5.52l-12.31-8.57c-1.88,2.69-4.03,6.32-5.07,10.35-1.08,4.19-1.09,9.49,2.42,14.25l12.07-8.9Zm2.46,1.77c-1.67-.95-2.27-1.51-2.46-1.76l-12.08,8.89c2.17,2.95,5.15,4.79,7.14,5.93l7.4-13.05Zm41.38-1.13c-11.42,7.59-29.01,8.15-41.38,1.13l-7.4,13.05c17.15,9.73,40.82,9.12,57.08-1.68l-8.3-12.49Zm-82.12,19.3c.42-1.36,1.84-2.93,5.42-5.23l-8.09-12.63c-3.74,2.39-9.49,6.46-11.66,13.39l14.32,4.47Zm2.32,14.11c-2.39-6.46-3.49-10.36-2.32-14.11l-14.32-4.47c-2.91,9.35.45,18.03,2.58,23.79l14.06-5.21Zm9.09,10.4c-4.08-1.8-7.36-5.73-9.09-10.4l-14.06,5.21c2.79,7.54,8.48,15.1,17.09,18.91l6.06-13.72Zm14.04.69c-5.31,1.09-10.24.99-14.03-.69l-6.07,13.72c7.77,3.43,16.23,3.08,23.12,1.67l-3.02-14.69Zm11.9-6.48c-1.68,2.81-5.83,5.22-11.91,6.48l3.03,14.69c7.46-1.54,16.8-5.21,21.74-13.46l-12.87-7.71Zm-3.53-18.35c2.11,3.7,3.71,7.43,4.36,10.8.64,3.31.26,5.72-.83,7.55l12.87,7.7c3.55-5.94,3.78-12.41,2.69-18.08-1.08-5.61-3.52-10.96-6.06-15.4l-13.03,7.43Zm-12.22-11.49c4.49.83,8.53,5.03,12.22,11.5l13.02-7.44c-3.98-6.96-10.96-16.66-22.51-18.8l-2.74,14.75Zm-16.17,5.88c6.72-4.32,11.62-6.72,16.17-5.88l2.73-14.75c-11.19-2.07-20.97,4.12-27.02,8.01l8.11,12.62Z"/>
</svg>