<?xml version="1.0" encoding="UTF-8"?>
<svg id="Camada_1" data-name="Camada 1" xmlns="http://www.w3.org/2000/svg" viewBox="0 0 119.12 115.65">
  <defs>
    <style>
      .cls-1 {
        fill: #fff;
        stroke: #6cc;
        stroke-linecap: round;
        stroke-linejoin: round;
        stroke-width: 2px;
      }
    </style>
  </defs>
  <path class="cls-1" d="m118.12,54.99c0-8.16-10.49-13.51-20.19-13.51s-14.93,6.18-14.93,20.83c0,8.16,7.86,11.47,17.56,11.47s17.56-10.64,17.56-18.8Z"/>
  <path class="cls-1" d="m84.24,14.51c0-8.16-10.49-13.51-20.19-13.51s-14.93,6.18-14.93,20.83c0,8.16,7.86,11.47,17.56,11.47s17.56-10.64,17.56-18.8Z"/>
  <path class="cls-1" d="m32.2,83.37c.03,3.24-.45,6.01-2.25,8.55-1.95,2.77-5.46,4.22-9.06,4.2-3.59-.02-7.24-1.39-10.38-3.45-3.53-2.31-6.57-5.57-8.15-9.39-2.53-6.08-1.14-12.65.98-18.4,1.27-3.44,3.45-7.23,7.3-7.27,1.29-.02,2.59.42,3.82.94,9.95,4.17,17.39,14.57,17.75,24.83Z"/>
  <path class="cls-1" d="m103.6,29.08c0-4.7-6.97-9.04-12.42-9.04-2.82,0-5.33-.21-7.64,1.89-2.14,1.96-4.19,6.14-4.19,8.41,0,4.7,4.85,12.15,10.3,12.15s13.95-8.71,13.95-13.42Z"/>
  <path class="cls-1" d="m5.52,45.55c4.65,12.17,22.41,20.93,32.39,17.18,9.98-3.75,17.15-21.91,12.5-34.07-4.65-12.17-21.33-21.34-31.31-17.58C9.13,14.82.88,33.38,5.52,45.55Z"/>
  <path class="cls-1" d="m56.79,86.27c-5.02-2.04-10.74-2.46-15.95-.99-5.2,1.47-9.84,4.84-12.6,9.38-1.03,1.7-1.81,3.58-1.92,5.56-.23,4.06,2.46,7.9,5.95,10.14,3.5,2.25,7.69,3.17,11.82,3.8,3.17.49,6.47.83,9.54-.08,5.74-1.69,9.42-7.69,9.41-13.54,0-5.86-.78-11.64-6.25-14.27Z"/>
  <path class="cls-1" d="m95.21,98.77c-1.63,1.9-3.34,3.31-5.75,4.02-2.63.78-5.55.14-7.78-1.39-2.23-1.53-3.8-3.88-4.71-6.41-1.03-2.84-1.26-6.02-.3-8.92,1.52-4.61,5.72-7.84,9.98-10.29,2.54-1.47,5.83-2.74,8.25-1.14.81.54,1.4,1.34,1.9,2.16,4.07,6.63,3.41,15.83-1.58,21.95Z"/>
  <path class="cls-1" d="m80.39,58.26c5.83-6.78,3.34-18.6-2.91-22.51-6.26-3.9-18.32,1.02-24.15,7.8s-2.21,21.05,4.04,24.95c6.26,3.91,17.2-3.46,23.03-10.24Z"/>
  <path class="cls-1" d="m66.8,69.26c-6.38.94-13.03,7.38-12.11,11.49.92,4.1,7.82,10.78,14.2,9.84,6.38-.94,11.94-10.26,11.02-14.36-.92-4.1-6.74-7.9-13.12-6.96Z"/>
  <path class="cls-1" d="m67.46,96.99c2.85-.82,5.98-.68,8.71.48,2.73,1.17,5.04,3.37,6.25,6.1.45,1.03.75,2.14.69,3.26-.13,2.3-1.83,4.29-3.86,5.32-2.04,1.04-4.37,1.28-6.65,1.37-1.75.07-3.56.04-5.17-.67-3.01-1.33-4.63-4.95-4.25-8.24.37-3.3,1.16-6.5,4.29-7.63Z"/>
  <path class="cls-1" d="m37.47,82.88c1.47,1.04,3.3,1.14,5.02,1.08,3.02-.11,6.37-.37,8.4-2.6,2.07-2.27,1.95-5.73,1.39-8.74-.69-3.65-2.22-7.63-5.65-9.09-2.45-1.03-5.29-.5-7.72.56-2.19.96-4.27,2.42-5.38,4.53-1.22,2.32-1.1,5.16-.21,7.63.89,2.47,2.48,4.61,4.15,6.63Z"/>
  <path class="cls-1" d="m37.47,82.88c1.47,1.04,3.3,1.14,5.02,1.08,3.02-.11,6.37-.37,8.4-2.6,2.07-2.27,1.95-5.73,1.39-8.74-.69-3.65-2.22-7.63-5.65-9.09-2.45-1.03-5.29-.5-7.72.56-2.19.96-4.27,2.42-5.38,4.53-1.22,2.32-1.1,5.16-.21,7.63.89,2.47,2.48,4.61,4.15,6.63Z"/>
</svg>