<?xml version="1.0" encoding="UTF-8"?>
<svg id="Camada_1" data-name="Camada 1" xmlns="http://www.w3.org/2000/svg" viewBox="0 0 132.12 128.65">
  <defs>
    <style>
      .cls-1, .cls-2 {
        fill: #339;
      }

      .cls-2 {
        fill-rule: evenodd;
      }
    </style>
  </defs>
  <path class="cls-2" d="m70.55,7.5c9.7,0,20.19,5.35,20.19,13.51s-7.87,18.8-17.56,18.8-17.56-3.32-17.56-11.47c0-14.65,5.23-20.83,14.93-20.83Zm33.88,40.48c9.7,0,20.19,5.35,20.19,13.51s-7.87,18.8-17.56,18.8-17.56-3.32-17.56-11.47c0-14.65,5.23-20.83,14.93-20.83Zm-65.73,41.89c.03,3.24-.45,6.01-2.25,8.55-1.95,2.77-5.46,4.22-9.06,4.2-3.59-.02-7.24-1.39-10.38-3.45-3.53-2.31-6.57-5.57-8.15-9.39-2.53-6.08-1.14-12.65.98-18.4,1.27-3.44,3.45-7.23,7.3-7.27,1.29-.02,2.59.42,3.82.94,9.95,4.17,17.39,14.57,17.75,24.83Zm58.98-63.33c5.45,0,12.42,4.34,12.42,9.04s-8.5,13.42-13.95,13.42-10.3-7.45-10.3-12.15c0-2.26,2.05-6.45,4.19-8.41,2.11-1.93,4.39-1.91,6.93-1.9h0c.23,0,.47,0,.71,0ZM12.02,52.05c4.65,12.17,22.41,20.93,32.39,17.18,9.98-3.75,17.15-21.91,12.5-34.07-4.65-12.17-21.33-21.34-31.31-17.58-9.98,3.75-18.23,22.31-13.58,34.48Zm35.32,39.73c5.2-1.47,10.93-1.04,15.95.99,5.46,2.63,6.24,8.41,6.25,14.27.01,5.86-3.67,11.85-9.41,13.54-3.07.9-6.37.56-9.54.08-4.12-.64-8.32-1.56-11.82-3.8-3.49-2.24-6.17-6.08-5.95-10.14.11-1.98.89-3.86,1.92-5.56,2.76-4.54,7.4-7.91,12.6-9.38Zm54.37,13.49c-1.63,1.9-3.34,3.31-5.75,4.02-2.63.78-5.55.14-7.78-1.39-2.23-1.53-3.8-3.87-4.71-6.4-1.03-2.84-1.26-6.02-.3-8.91,1.52-4.61,5.72-7.84,9.98-10.29,2.54-1.47,5.83-2.74,8.25-1.14.81.54,1.4,1.34,1.9,2.16,4.07,6.63,3.41,15.83-1.58,21.95Zm-17.73-63.02c6.25,3.91,8.75,15.73,2.91,22.51-5.83,6.78-16.77,14.15-23.03,10.24-6.26-3.9-9.88-18.17-4.04-24.95,5.83-6.78,17.9-11.71,24.15-7.8Zm-10.68,33.52c-6.38.94-13.03,7.38-12.11,11.49.92,4.1,7.82,10.78,14.2,9.84,6.38-.94,11.94-10.26,11.02-14.36-.92-4.1-6.74-7.9-13.12-6.96Zm9.37,28.21c-2.73-1.16-5.86-1.3-8.71-.48-3.13,1.12-3.92,4.33-4.29,7.62-.38,3.3,1.25,6.92,4.25,8.24,1.61.71,3.42.74,5.17.67,2.28-.09,4.61-.33,6.65-1.37,2.04-1.04,3.73-3.02,3.86-5.32.06-1.12-.24-2.24-.69-3.26-1.21-2.74-3.51-4.94-6.25-6.11Zm-38.7-14.59c1.47,1.04,3.3,1.14,5.02,1.08,3.02-.11,6.37-.37,8.4-2.6,2.07-2.27,1.95-5.73,1.39-8.74-.69-3.65-2.22-7.63-5.65-9.09-2.45-1.03-5.29-.5-7.72.56-2.19.96-4.27,2.42-5.38,4.53-1.22,2.32-1.1,5.16-.21,7.63.89,2.47,2.48,4.61,4.15,6.63Z"/>
  <path class="cls-1" d="m36.46,98.42l-6.12-4.34h0s6.13,4.34,6.13,4.34Zm2.25-8.55l7.5-.08c0-.06,0-.12,0-.18l-7.5.26Zm-11.3,12.74l-.04,7.5h0l.04-7.5Zm-10.38-3.45l-4.11,6.27h0s4.11-6.27,4.11-6.27Zm-8.15-9.39l-6.92,2.88h0s6.92-2.88,6.92-2.88Zm.98-18.4l-7.04-2.6h0s7.04,2.6,7.04,2.6Zm7.3-7.27l.08,7.5h.01s-.09-7.5-.09-7.5Zm3.82.94l-2.9,6.92h0s2.9-6.92,2.9-6.92ZM90.05,28.43l-5.05-5.54h0s5.06,5.54,5.06,5.54Zm6.93-1.9l.07-7.5s-.01,0-.02,0l-.05,7.5Zm0,0l-.07,7.5s.01,0,.02,0l.05-7.5Zm-52.57,42.69l2.64,7.02h0l-2.64-7.02ZM12.02,52.05l-7.01,2.68h0l7.01-2.68Zm44.89-16.9l7.01-2.68h0l-7.01,2.68Zm-31.31-17.58l-2.64-7.02,2.64,7.02Zm37.68,75.2l3.25-6.76c-.14-.07-.29-.13-.43-.19l-2.82,6.95Zm6.25,14.27h-7.5s0,.01,0,.01h7.5Zm-9.41,13.54l-2.12-7.19h0s2.12,7.19,2.12,7.19Zm-9.54.08l-1.14,7.41h0s1.13-7.41,1.13-7.41Zm-11.82-3.8l-4.06,6.31h0s4.05-6.31,4.05-6.31Zm-5.95-10.14l-7.49-.43h0s7.49.43,7.49.43Zm1.92-5.56l-6.41-3.9h0s6.41,3.9,6.41,3.9Zm61.23,8.13l2.14,7.19h0l-2.14-7.19Zm5.75-4.02l5.7,4.87s.07-.09.11-.13l-5.81-4.74Zm-13.53,2.63l-4.24,6.18h0s4.24-6.18,4.24-6.18Zm-4.71-6.4l7.06-2.54h0s-7.05,2.54-7.05,2.54Zm-.3-8.91l7.12,2.35h0s-7.12-2.35-7.12-2.35Zm9.98-10.29l3.74,6.5h0s-3.74-6.5-3.74-6.5Zm8.25-1.14l-4.15,6.25h0s4.14-6.25,4.14-6.25Zm1.9,2.16l-6.39,3.92h0s6.39-3.92,6.39-3.92Zm-16.4-18.56l-5.69-4.89h0s5.69,4.89,5.69,4.89Zm-2.91-22.51l3.97-6.36h0s-3.97,6.36-3.97,6.36Zm-20.11,32.75l3.97-6.36h0s-3.97,6.36-3.97,6.36Zm-4.04-24.95l-5.69-4.89h0l5.69,4.89Zm1.37,37.2l7.32-1.64h0l-7.32,1.64Zm12.11-11.49l1.09,7.42h0l-1.09-7.42Zm2.09,21.33l1.09,7.42h0l-1.09-7.42Zm11.02-14.36l7.32-1.64h0s-7.32,1.64-7.32,1.64Zm-12.46,20.76l-2.07-7.21c-.16.04-.31.09-.46.15l2.53,7.06Zm8.71.48l-2.94,6.9h0l2.94-6.9Zm-13,7.14l7.45.85h0s-7.45-.85-7.45-.85Zm4.25,8.24l3.04-6.86h0s-3.03,6.86-3.03,6.86Zm5.17.67l-.28-7.49h0l.29,7.49Zm6.65-1.37l3.4,6.68h0l-3.4-6.68Zm3.86-5.32l7.49.43h0s-7.49-.43-7.49-.43Zm-.69-3.26l6.86-3.03h0s-6.86,3.03-6.86,3.03Zm-39.93-19.61l-.27-7.5s-.01,0-.02,0l.29,7.49Zm-5.02-1.08l-5.77,4.79c.42.51.9.95,1.44,1.33l4.34-6.12Zm13.42-1.52l5.54,5.05h0s-5.55-5.05-5.55-5.05Zm1.39-8.74l7.37-1.38h0s-7.37,1.38-7.37,1.38Zm-5.65-9.09l2.93-6.91h0s-2.92,6.91-2.92,6.91Zm-7.72.56l-3.01-6.87h0s3.02,6.87,3.02,6.87Zm-5.38,4.53l6.64,3.48h0s-6.64-3.48-6.64-3.48Zm-.21,7.63l7.06-2.54h0l-7.06,2.54Zm58.42-61.75c0-7.66-4.96-13.08-10.03-16.2-5.14-3.16-11.57-4.8-17.66-4.8v15c3.61,0,7.27,1.03,9.81,2.58,2.6,1.6,2.88,2.93,2.88,3.42h15Zm-25.06,26.3c7.67,0,13.97-4.16,18.09-8.94,4.09-4.73,6.97-11.11,6.97-17.36h-15c0,1.91-1.05,4.93-3.32,7.55-2.23,2.58-4.71,3.74-6.74,3.74v15Zm-25.06-18.97c0,7.04,3.65,12.24,8.87,15.28,4.78,2.78,10.68,3.69,16.19,3.69v-15c-4.18,0-7.07-.75-8.64-1.66-.71-.41-1-.77-1.13-.98-.11-.18-.28-.55-.28-1.33h-15ZM70.55,0c-6.58,0-12.84,2.21-17.11,7.94-3.94,5.28-5.32,12.42-5.32,20.39h15c0-6.68,1.24-9.95,2.34-11.42.77-1.03,1.98-1.91,5.09-1.91V0Zm61.57,61.49c0-7.66-4.96-13.08-10.03-16.2-5.13-3.16-11.57-4.8-17.66-4.8v15c3.61,0,7.27,1.03,9.81,2.58,2.6,1.6,2.88,2.93,2.88,3.42h15Zm-25.06,26.3c7.67,0,13.97-4.16,18.09-8.94,4.09-4.73,6.97-11.11,6.97-17.36h-15c0,1.91-1.05,4.93-3.32,7.55-2.23,2.58-4.71,3.74-6.74,3.74v15Zm-25.06-18.97c0,7.04,3.65,12.24,8.87,15.28,4.78,2.78,10.68,3.69,16.19,3.69v-15c-4.18,0-7.07-.75-8.64-1.66-.71-.41-1-.77-1.13-.98-.11-.18-.28-.55-.28-1.33h-15Zm22.43-28.33c-6.58,0-12.84,2.21-17.11,7.94-3.94,5.28-5.32,12.42-5.32,20.39h15c0-6.68,1.24-9.95,2.34-11.42.77-1.03,1.98-1.91,5.09-1.91v-15Zm-61.85,62.27c3.07-4.33,3.67-8.9,3.63-12.96l-15,.16c.03,2.42-.35,3.39-.87,4.13l12.24,8.67Zm-15.22,7.36c5.42.03,11.53-2.14,15.22-7.37l-12.25-8.66c-.22.31-1.12,1.04-2.89,1.03l-.08,15Zm-14.45-4.68c3.99,2.61,9.03,4.65,14.45,4.68l.08-15c-1.77,0-4.01-.72-6.32-2.23l-8.21,12.55Zm-10.97-12.78c2.29,5.49,6.47,9.83,10.97,12.78l8.22-12.55c-2.56-1.68-4.45-3.86-5.34-6l-13.85,5.77Zm.86-23.88c-2.29,6.2-4.53,15.08-.87,23.88l13.85-5.76c-1.4-3.36-.86-7.62,1.09-12.92l-14.07-5.19Zm14.26-12.17c-4.7.05-8.1,2.49-10.23,4.98-2.03,2.36-3.26,5.12-4.03,7.19l14.07,5.2c.23-.64.48-1.2.73-1.68.26-.48.47-.78.61-.95.14-.16.12-.09-.09.02-.25.14-.59.23-.91.24l-.16-15Zm6.8,1.52c-1.42-.6-3.91-1.56-6.81-1.52l.18,15c-.22,0-.28-.03-.1.01.18.05.47.15.93.34l5.81-13.83Zm22.34,31.48c-.47-13.37-9.87-26.25-22.34-31.48l-5.8,13.83c7.43,3.11,12.9,11.03,13.15,18.17l14.99-.53Zm71.4-54.03c0-6.03-4.21-10.25-7.41-12.46-3.46-2.39-8.02-4.08-12.51-4.08v15c.4,0,1.04.09,1.84.36.78.26,1.53.64,2.16,1.07.64.44.97.82,1.08.98.11.16-.16-.15-.16-.87h15Zm-21.45,20.92c3.2,0,6.08-1.22,8.19-2.42,2.23-1.27,4.32-2.93,6.09-4.69,1.78-1.75,3.43-3.77,4.69-5.89,1.15-1.93,2.47-4.76,2.47-7.92h-15c0-.82.26-.79-.35.24-.5.84-1.31,1.88-2.34,2.89-1.03,1.02-2.09,1.82-2.99,2.33-1.01.58-1.24.45-.76.45v15Zm-17.8-19.65c0,4.49,2.1,9.1,4.67,12.43,2.5,3.24,7.02,7.23,13.12,7.23v-15c.38,0,.43.13.1-.08-.33-.21-.83-.64-1.36-1.32-.52-.67-.95-1.44-1.23-2.14-.3-.75-.31-1.14-.31-1.11h-15Zm6.64-13.95c-1.99,1.81-3.53,4.22-4.56,6.29-.95,1.92-2.07,4.78-2.07,7.65h15c0,.45-.08.55.03.19.09-.29.25-.7.48-1.18.23-.47.5-.92.76-1.29.13-.18.24-.33.33-.43.05-.05.08-.09.11-.12.03-.03.04-.04.04-.04l-10.11-11.08Zm12.03-3.86c-2.29-.01-7.5-.28-12.03,3.86l10.11,11.08s-.03.03-.14.08c-.1.05-.15.06-.11.05.07-.01.24-.04.59-.06.38-.02.81-.02,1.48-.01l.1-15Zm.02,0h0l-.14,15h0l.14-15Zm.64,0c-.21,0-.42,0-.66,0l-.1,15c.23,0,.49,0,.75,0v-15Zm-55.92,43.16c-2.14.8-6.71.53-12.1-2.26-5.21-2.69-9.17-6.73-10.63-10.57l-14.01,5.35c3.18,8.33,10.43,14.75,17.75,18.54,7.14,3.7,16.44,5.93,24.28,2.98l-5.28-14.04Zm8.14-24.38c1.48,3.88,1.24,9.49-.78,14.87-2.1,5.57-5.26,8.72-7.36,9.51l5.28,14.04c7.87-2.96,13.29-10.78,16.11-18.26,2.89-7.68,3.92-17.23.76-25.51l-14.01,5.35Zm-21.66-13.24c2.04-.77,6.27-.48,11.36,2.35,4.89,2.73,8.76,6.86,10.3,10.88l14.01-5.35c-3.11-8.14-9.9-14.67-17.01-18.64-6.91-3.85-16.01-6.28-23.95-3.29l5.28,14.04Zm-9.22,24.78c-1.41-3.69-1.06-9.29,1.24-14.86,2.36-5.74,5.78-9.09,7.98-9.92l-5.28-14.04c-7.78,2.93-13.47,10.73-16.57,18.25-3.17,7.69-4.61,17.45-1.38,25.92l14.01-5.35Zm47.08,36.45c-6.46-2.62-13.89-3.21-20.8-1.26l4.07,14.44c3.5-.99,7.52-.73,11.09.72l5.64-13.9Zm10.93,21.22c0-5.65-.49-16.22-10.49-21.03l-6.5,13.52c.64.31,1.01.68,1.35,1.64.44,1.26.65,3.12.65,5.87h15Zm-14.79,20.74c9.52-2.81,14.81-12.22,14.79-20.75l-15,.03c0,3.18-2.07,5.76-4.03,6.34l4.24,14.39Zm-12.8.3c3.2.49,7.98,1.12,12.8-.3l-4.25-14.39c-1.32.39-3.13.34-6.28-.14l-2.27,14.83Zm-14.73-4.9c4.91,3.15,10.46,4.25,14.73,4.9l2.28-14.83c-3.98-.61-6.82-1.36-8.91-2.7l-8.1,12.62Zm-9.38-16.88c-.43,7.64,4.46,13.71,9.38,16.87l8.11-12.62c-.88-.57-1.6-1.31-2.04-2.02-.43-.7-.48-1.17-.47-1.39l-14.98-.84Zm3-9.03c-1.39,2.3-2.79,5.38-3,9.02l14.97.87c.02-.32.18-1.01.85-2.11l-12.83-7.78Zm16.98-12.71c-6.9,1.94-13.16,6.43-16.98,12.7l12.82,7.79c1.7-2.8,4.72-5.07,8.23-6.06l-4.07-14.44Zm52.8,31.92c4.27-1.27,7.14-3.79,9.31-6.34l-11.4-9.75c-1.07,1.26-1.65,1.55-2.18,1.71l4.27,14.38Zm-14.16-2.39c3.8,2.6,9.04,3.91,14.16,2.39l-4.27-14.38s-.21.05-.51,0c-.3-.06-.63-.19-.9-.38l-8.47,12.38Zm-7.53-10.06c1.31,3.65,3.72,7.44,7.53,10.05l8.49-12.37c-.65-.44-1.39-1.35-1.9-2.76l-14.12,5.07Zm-.37-13.8c-1.57,4.77-1.11,9.7.37,13.81l14.11-5.1c-.57-1.57-.57-3.01-.23-4.02l-14.25-4.69Zm13.36-14.45c-4.5,2.59-10.92,7.02-13.36,14.45l14.25,4.69c.59-1.79,2.59-3.83,6.59-6.14l-7.48-13Zm16.14-.89c-3.46-2.3-7.16-2.22-9.76-1.67-2.56.54-4.81,1.66-6.38,2.56l7.49,13c.45-.26.86-.47,1.23-.62.37-.16.62-.23.74-.25.12-.03,0,.02-.31-.02-.35-.04-.83-.18-1.3-.49l8.3-12.49Zm4.15,4.49c-.65-1.05-1.94-3.02-4.15-4.5l-8.28,12.51c-.34-.22-.51-.42-.54-.46-.02-.02,0,0,.03.04.04.05.09.13.16.25l12.79-7.84Zm-2.17,30.62c6.97-8.54,7.94-21.22,2.17-30.62l-12.78,7.85c2.37,3.86,2.01,9.59-1,13.29l11.62,9.49Zm-14.94-40.36c4.7-5.46,5.73-12.51,4.8-18.39-.91-5.76-3.94-11.94-9.42-15.37l-7.95,12.72c.77.48,2.11,2.16,2.56,4.98.43,2.7-.22,4.95-1.35,6.27l11.37,9.78Zm-32.68,11.71c6.73,4.21,14.39,1.62,19.1-.81,5.22-2.71,10.15-6.89,13.59-10.9l-11.38-9.78c-2.39,2.78-5.84,5.66-9.11,7.36-3.79,1.96-4.73,1.11-4.25,1.41l-7.94,12.72Zm-5.75-36.2c-5.05,5.87-5.36,13.89-4.19,19.88,1.15,5.91,4.32,12.81,9.95,16.32l7.94-12.73c-.63-.4-2.4-2.57-3.16-6.47-.74-3.81.05-6.31.84-7.22l-11.37-9.78Zm33.81-9.27c-6.04-3.77-13.41-2.68-18.69-.82-5.61,1.97-11.25,5.59-15.12,10.09l11.37,9.78c1.96-2.28,5.28-4.51,8.72-5.72,3.77-1.33,5.56-.74,5.78-.61l7.94-12.73Zm-19.44,49.73c.28,1.25-.15,1.89,0,1.58.12-.24.47-.78,1.17-1.45,1.49-1.43,3.38-2.36,4.7-2.56l-2.18-14.84c-5.06.74-9.69,3.5-12.88,6.55-1.64,1.57-3.18,3.47-4.24,5.62-1.03,2.08-1.95,5.06-1.21,8.37l14.64-3.27Zm5.79,4.06c-.34.05-1.62-.09-3.44-1.52-.8-.63-1.47-1.33-1.93-1.95-.52-.7-.5-.93-.43-.59l-14.64,3.27c.99,4.41,4.41,8.46,7.75,11.08,3.46,2.71,8.82,5.43,14.86,4.54l-2.18-14.84Zm4.79-5.31c-.2-.89.07-1.07-.23-.18-.24.71-.7,1.65-1.37,2.61-.67.96-1.42,1.74-2.11,2.27-.33.25-.61.41-.81.51-.2.09-.29.1-.28.1l2.18,14.84c6.17-.9,10.73-5.43,13.3-9.11,1.4-2,2.56-4.22,3.3-6.44.69-2.04,1.31-4.92.65-7.87l-14.64,3.27Zm-4.71-1.18c1.43-.21,2.81.12,3.81.69.49.28.8.56.94.74.15.18.04.12-.04-.24l14.64-3.28c-1.06-4.74-4.56-8.23-8.12-10.25-3.73-2.12-8.46-3.22-13.4-2.49l2.18,14.84Zm1.64,27.51c1.29-.37,2.64-.28,3.7.17l5.89-13.8c-4.41-1.88-9.32-2.06-13.73-.79l4.15,14.42Zm1.09,1.26c.08-.68.16-1.21.25-1.63.09-.42.17-.61.2-.66.01-.03-.06.14-.3.38-.26.25-.55.42-.78.5l-5.07-14.12c-7.89,2.83-8.87,10.89-9.21,13.85l14.91,1.68Zm-.17.54c.18.08.28.17.32.21.03.04.01.02-.03-.06-.04-.09-.09-.21-.11-.35-.03-.14-.02-.26-.02-.33l-14.9-1.71c-.66,5.79,2.01,13.01,8.67,15.96l6.06-13.72Zm1.85.04c-.78.03-1.26.02-1.61-.01-.33-.03-.36-.08-.24-.02l-6.07,13.72c3.33,1.47,6.7,1.37,8.49,1.31l-.58-14.99Zm3.53-.56c-.49.25-1.41.47-3.53.56l.57,14.99c2.44-.09,6.19-.35,9.77-2.18l-6.81-13.36Zm-.22.93c.03-.59.26-.92.3-.98.03-.03.03-.03,0,0-.03.02-.06.04-.09.06l6.81,13.36c3.63-1.85,7.62-5.84,7.95-11.58l-14.98-.85Zm-.07.19c.04.08.06.14.07.18.01.04.02.06.01.05,0-.02-.04-.16-.02-.41l14.98.83c.15-2.71-.59-5.05-1.32-6.7l-13.72,6.06Zm-2.33-2.23c1.06.45,1.92,1.32,2.33,2.24l13.72-6.06c-2.01-4.55-5.76-8.09-10.16-9.97l-5.89,13.8Zm-31.03-27.9c-.31.01-.55.01-.73,0-.18,0-.28-.02-.31-.03-.03,0,.03,0,.16.05.13.05.3.13.49.27l-8.68,12.24c3.66,2.59,7.73,2.53,9.65,2.45l-.58-14.99Zm3.15-.16c.33-.36.53-.29-.06-.14-.66.16-1.58.24-3.07.3l.55,14.99c1.52-.06,3.79-.16,6.07-.71,2.35-.57,5.24-1.74,7.6-4.33l-11.09-10.1Zm-.44-2.31c.22,1.16.26,1.98.2,2.49-.05.47-.12.21.23-.18l11.09,10.1c4.72-5.18,3.8-12.06,3.22-15.17l-14.74,2.76Zm-1.21-3.56c-.28-.12-.15-.22.21.43.38.68.74,1.75,1,3.14l14.74-2.77c-.73-3.86-2.83-11.53-10.1-14.61l-5.85,13.81Zm-1.79.53c.68-.3,1.24-.44,1.62-.48.36-.04.36.03.17-.05l5.85-13.81c-5.2-2.2-10.41-.82-13.66.6l6.02,13.74Zm-1.74,1.14s.04-.09.33-.33c.31-.25.77-.53,1.41-.81l-6.03-13.73c-2.95,1.3-6.78,3.67-9,7.92l13.29,6.96Zm.2,1.61c-.18-.49-.24-.93-.24-1.26,0-.32.07-.4.04-.35l-13.28-6.97c-2.47,4.72-1.99,9.86-.63,13.65l14.11-5.08Zm2.87,4.38c-1.58-1.91-2.45-3.22-2.87-4.38l-14.11,5.08c1.36,3.76,3.67,6.74,5.43,8.87l11.55-9.57Z"/>
</svg>