<?xml version="1.0" encoding="UTF-8"?>
<svg id="Camada_1" data-name="Camada 1" xmlns="http://www.w3.org/2000/svg" viewBox="0 0 140 129">
  <defs>
    <style>
      .cls-1, .cls-2 {
        fill: #c36;
      }

      .cls-2 {
        fill-rule: evenodd;
      }
    </style>
  </defs>
  <path class="cls-2" d="m81.11,20.54c.94.71,2.08.81,3.16.8,1.88-.02,3.98-.14,5.21-1.57,1.25-1.46,1.13-3.75.72-5.75-.49-2.42-1.52-5.07-3.69-6.09-1.55-.72-3.32-.42-4.82.24-1.35.6-2.63,1.52-3.29,2.9-.72,1.51-.6,3.39,0,5.03.6,1.64,1.63,3.08,2.71,4.44Zm-6.6-2.63c-.55,1.18-1.36,2.3-2.47,3.13-1.11.83-2.54,1.36-3.92,1.29-1.09-.05-2.08-.46-3.04-.86l-.09-.04c-1.14-.47-2.27-.94-3.38-1.46-.73-.34-1.45-.7-2-1.24-.86-.84-1.21-2.05-1.1-3.25.11-1.19.65-2.36,1.4-3.4.21-.3.44-.59.73-.83.32-.26.69-.45,1.06-.64h0c1.05-.54,2.11-1.08,3.19-1.58.12-.06.25-.12.37-.17h0c.64-.3,1.29-.61,1.97-.66,2.16-.14,4.51.82,6.17,2.01,2.27,1.63,2.42,4.99,1.1,7.69Zm-36.88,3.25c.54,3.62,1.27,4.64,3.26,7.04,1.42,1.72,3.14,3.38,5.31,3.8,1.95.37,3.98-.35,5.58-1.53,1.61-1.18,2.85-2.8,4.04-4.42,1.12-1.53,2.24-3.17,2.51-5.06.43-2.91-1.22-5.73-3.11-7.96-.98-1.16-2.07-2.27-3.41-2.98-1.65-.87-3.59-1.05-5.43-.83-2.79.34-5.53,1.63-7.31,3.85-1.78,2.22-1.92,5.18-1.44,8.08Zm68.13-2.36c-.17-.68-.39-1.53-.99-1.99-1.12-.74-2.79-.44-3.59.65-.8,1.09-.63,2.81.38,3.7.3.26.66.46,1.05.52.43.07.88-.04,1.3-.14.52-.13,1.07-.27,1.45-.65.5-.5.6-1.31.42-2l-.03-.1Zm-5.67,9c-1.02,1.51-2.6,2.94-4.28,3.11-1.46.01-2.94-.28-4.23-1.06-1.28-.78-2.35-2.07-2.74-3.64-.49-1.94.06-4.02.81-5.86.37-.89.79-1.77,1.42-2.45,1.26-1.36,3.2-1.69,4.91-1.33,1.68.36,3.27,1.34,4.32,2.85,1.05,1.51,1.52,3.55,1.12,5.41-.23,1.08-.74,2.07-1.34,2.96Zm-7.32,4.83c.96,2.43,1.04,5.2.28,7.71-1.02,2.75-3.8,3.39-6.66,3.67-2.24.22-4.63-.65-6.09-2.32.66,1.3,1.07,2.79,1.34,4.22.46,2.49.55,5.36-1.12,7.24-1.64,1.84-4.35,2.06-6.79,2.15-1.39.06-2.87-.03-4.06-.89-1.35-1.67-2.64-3.45-3.36-5.49-.72-2.04-.81-4.4.17-6.32.4-.78.95-1.45,1.59-2.02-4.31,2.14-10.71,1.43-13.04-1.36-.58-.7-.97-1.61-1.18-2.64.04.25.06.49.07.74,0,.13.01.27-.03.4-.05.14-.16.25-.27.35-.99.86-2.43,1.08-3.72.77-.03,0-.05-.01-.07-.02h-.05c-.13-.04-.19-.05-.22-.15-.53-.56-.73-1.49-.71-2.25.02-.66.35-1.31.88-1.71.55-.42,1.26-.54,1.94-.65.22-.04.45-.07.68-.03.41.08.71.42.92.79.24.41.4.86.5,1.33-.56-3.68,1-8.66,4.06-11.31,4.07-3.51,11.89-3.41,14.57-.18,2.63,3.18,1.59,10.93-2.31,14.53.24-.13.48-.24.72-.35,1.97-.88,4.27-1.32,6.25-.47.92.4,1.67,1.03,2.29,1.8v-.03s-.03-.04-.03-.04c-.59-1.43-.58-3.03-.5-4.58.11-2.01.36-4.07,1.29-5.86.93-1.79,2.67-3.25,4.66-3.33.97-.04,1.93.25,2.81.66,2.35,1.11,4.22,3.18,5.18,5.62Zm25.22,4.75c0-4.67-6.97-8.98-12.41-8.98-.24,0-.47,0-.71,0-2.54-.02-4.82-.03-6.93,1.88-2.14,1.94-4.19,6.1-4.19,8.35,0,4.67,4.85,12.07,10.3,12.07s13.95-8.65,13.95-13.32Zm-75.36,17.68c0-6.76-7.86-10.06-17.56-10.06s-17.56,13.36-17.56,20.12,6.84,11.63,16.54,11.63,18.57-14.93,18.57-21.69Zm89.88,8.04c0-8.1-10.49-13.41-20.19-13.41s-14.93,6.14-14.93,20.68c0,4.4,2.32,7.38,5.99,9.19-2.61-.93-5.45-1.15-8.14-.51-.73.17-1.46.41-2.05.88-1.76,1.39-1.62,4.11-1.16,6.33.76,3.71,2.12,7.58,5.13,9.8,1.89,1.39,4.27,1.99,6.6,1.92,2.07-.06,4.17-.65,5.83-1.92,1.66-1.27,2.83-3.27,2.9-5.38.06-1.94-.56-3.54-1.56-5.19-1.44-2.26-3.51-4.04-5.88-5.22,2.82,1.02,6.22,1.5,9.89,1.5,9.7,0,17.56-10.57,17.56-18.67Zm-113.61,22.31c.16,1.93.95,3.45,2.12,4.98,3.83,4.73,10.66,6.64,16.32,4.57.7-.26,1.4-.58,1.93-1.11,1.59-1.58,1.15-4.27.45-6.42-1.17-3.6-2.95-7.28-6.18-9.14-2.03-1.17-4.47-1.48-6.78-1.14-2.05.3-4.07,1.13-5.58,2.59-1.51,1.45-2.46,3.57-2.28,5.68Zm15.43-7.79c.82,1.66,2.28,2.79,3.81,3.54,2.28.85,4.06.71,5.99-.38,1.1-.62,2.08-1.61,2.53-2.91.4-1.16.35-2.45.17-3.68-.21-1.39-.73-2.92-1.89-3.39-.43-.17-.89-.17-1.34-.17h-3.92c-1.81,0-3.84.11-5.06,1.65-1.12,1.42-1.1,3.69-.28,5.35Zm16.58-8.27c1.19-.73,1.98-2.1,2.24-3.45,0,.29,0,.57.03.86.18,1.89,1.07,3.65,2.24,5.11,1.78,2.22,4.33,3.88,7.12,4.21,2.8.33,5.31-1.15,7.45-3.12,2.7-2.42,3.15-3.6,4.06-6.6.65-2.15,1.1-4.52.27-6.61-.74-1.87-2.43-3.23-4.27-3.97-1.84-.74-3.85-.94-5.82-1.09-1.87-.14-3.82-.21-5.54.57-2.64,1.2-4.07,4.14-4.89,6.96-.23.79-.43,1.59-.55,2.41-.03-1.2-.39-2.4-.91-3.5-.31-.67-.7-1.33-1.25-1.84-.9-.84-2.18-1.25-3.44-1.28-2.9-.08-5.74,1.86-6.56,4.5-.22.7-.31,1.43-.36,2.16-.08,1.01-.08,2.07.4,2.98.6,1.14,1.87,1.83,3.13,2.29,2.2.8,4.96.97,6.65-.58Zm-2.25,27.69c-1.39.06-2.87-.03-4.06-.89-1.35-1.67-2.64-3.45-3.36-5.49-.72-2.04-.81-4.4.17-6.32.89-1.75,2.58-2.96,4.35-3.75,1.97-.88,4.27-1.32,6.25-.47,2.77,1.2,4.01,4.5,4.57,7.52.46,2.49.55,5.36-1.12,7.24-1.64,1.84-4.35,2.06-6.79,2.15Zm51.02-42.16c0-5.43-5.24-11.47-9.39-11.47s-9.27,6.03-9.27,11.47,4.79,11.47,8.94,11.47,9.72-6.03,9.72-11.47Zm-2.32,16.38c-.19,1.23-.32,2.09-1.4,2.78-.57.48-.99.57-1.57.68-.14.03-.29.06-.45.09-.57.13-1.63.06-2.21-.03-.77-.13-1.42-.64-1.98-1.18-.37-.36-.72-.74-.92-1.22-.22-.53-.21-1.13-.13-1.69.26-1.88,1.46-3.69,3.21-4.33,1.75-.64,3.99.16,4.71,1.91.05.12.1.25.16.37.36.85.72,1.7.58,2.62ZM23.67,44.63c2.29-.35,4.33-2.08,5.1-4.32.17-.49.27-1.03.09-1.52-.17-.44-.56-.76-.94-1.04-1.04-.75-2.27-1.38-3.53-1.23-.98.12-1.85.7-2.58,1.37-1.14,1.03-2.06,2.32-2.68,3.74-.1.23-.19.46-.18.71,0,.24.11.47.24.68.81,1.36,2.98,2.02,4.49,1.6Zm15.17-14.01c5.1,0,9.23,3.05,9.23,6.82s-6.71,8.41-11.81,8.41-6.66-4.64-6.66-8.41,4.13-6.82,9.23-6.82Zm1.81,63.24c.73-.17,1.45.27,2.04.74,1.4,1.15,2.03,2.67,1.83,4.49-.14,1.21-.33,2.47-1.33,3.15-.99.68-2.2,1-3.39,1.11-.81.07-1.7.03-2.35-.46-.51-.38-.81-.98-1-1.58-.48-1.51-.36-3.22.38-4.62.73-1.4,2.31-2.51,3.83-2.82Zm18.98-49.85c1.58,4.08-.38,11.07-4.48,12.72-4.1,1.65-10.43,1.94-12.01-2.13-1.58-4.07.53-12.71,4.63-14.36,4.1-1.65,10.28-.3,11.86,3.77Zm-4.15,32.21c-.23,1.11-.68,2.42-1.56,3.14-.89.53-1.98.49-2.9.12-.92-.37-1.72-1.04-2.44-1.76-.56-.55-1.11-1.18-1.3-1.99-.15-.62-.07-1.29.08-1.92.22-.88.59-1.74,1.23-2.33.66-.61,1.55-.87,2.4-.83.85.04,1.66.36,2.4.78.67.38,1.3.86,1.71,1.55.55.93.62,2.14.39,3.25Zm-3.97,41.49c.76-2.56.69-5.39-.28-7.88-.98-2.49-2.87-4.6-5.25-5.74-.89-.43-1.86-.72-2.84-.68-2.02.08-3.78,1.58-4.72,3.4-.94,1.82-1.19,3.93-1.3,5.98-.09,1.58-.09,3.22.5,4.68,1.12,2.74,4.25,4.26,7.15,3.97,2.9-.28,5.71-.94,6.74-3.75Zm4.06-8.03c.13-.04.28-.08.48-.13,2.49-1,5.1-2.08,6.78-4.21.57-.73,1.02-1.59,1.16-2.51.09-.64.04-1.29-.1-1.93-.43-2.02-1.74-3.9-3.62-4.69-2.08-.88-4.46-.34-6.58.43-1.23.44-2.48.99-3.27,2.04-.8,1.06-.99,2.45-1.16,3.77-.11.84-.21,1.7-.01,2.52.14.56.41,1.07.71,1.55.47.76,1.01,1.48,1.61,2.14.35.39.73.76,1.21.97.47.21.99.24,1.5.23.68,0,.86-.06,1.3-.18Zm61.36-19.29c2.29-.35,4.33-2.08,5.1-4.32.17-.49.27-1.03.09-1.52-.17-.44-.56-.76-.94-1.04-1.04-.75-2.27-1.38-3.53-1.23-.98.12-1.85.7-2.58,1.37-1.14,1.03-2.06,2.32-2.68,3.74-.1.23-.19.46-.18.71,0,.24.11.47.24.67.81,1.36,2.98,2.02,4.49,1.6Zm-2.93,5.35c.6.45.82,1.31.99,1.99l.03.1c.17.69.08,1.5-.42,2-.38.38-.93.53-1.45.65-.43.1-.87.21-1.3.14-.39-.06-.75-.26-1.05-.52-1.01-.9-1.18-2.61-.38-3.7.8-1.09,2.47-1.39,3.59-.65Zm-52.92-43.48c-.84-1.04-1-2.13-.87-3.45.03-.34.12-.68.31-.96.31-.44.86-.65,1.4-.66.54,0,1.06.16,1.56.36.82.33,1.62.77,2.24,1.41.63.63,1.07,1.48,1.08,2.37.03,1.37-1.08,2.66-2.44,2.82-1.35.17-2.39-.62-3.3-1.9Zm26.74,18.22c1.58,4.08-.38,11.07-4.48,12.72-4.09,1.65-10.43,1.95-12.01-2.13-1.58-4.07.53-12.71,4.63-14.36,4.1-1.65,10.28-.3,11.86,3.77Zm-12.89-10.65c.38,1.41.99,2.75,1.79,3.97.55.84,1.26,1.66,2.23,1.89.83.2,1.71-.08,2.46-.48.3-.16.59-.34.8-.6.24-.3.35-.69.39-1.08.23-1.85-.79-3.64-2.05-5-.35-.37-.72-.73-1.18-.94-.76-.35-1.67-.23-2.42.13-.75.37-1.79,1.09-2.01,2.1Zm30.24-31.46c.84-.06,1.57-.37,2.22-.86.57-.43,1.15-.86,1.58-1.44.43-.58.69-1.32.54-2.03-.2-.91-1.01-1.53-1.77-2.04-.32-.21-.62-.23-.94-.24-.16,0-.33-.01-.51-.05-1.01-.18-2.09.7-2.81,1.45-.99,1.05-1.6,1.85-1.2,3.25.41,1.4,1.49,2.06,2.89,1.97Zm1.18,79.91c.75-.08,1.26-.2,1.84-.62h.01s0-.01,0-.01h0c.59-.43,1.17-.86,1.76-1.3.9-.66,1.22-1.28,1.4-2.38.2-1.21-.01-2.5-.97-3.29-1.63-1.34-3.7-2.15-5.81-2.28-.54-.03-1.1-.02-1.6.2-.41.18-.75.49-1.05.82-1.16,1.29-1.83,3.06-1.61,4.77.22,1.71,1.42,3.32,3.09,3.86.93.31,1.94.28,2.93.24Zm-46.3-28.7c2.26-1.6,4.68-3.31,7.26-3.6.84-.04,1.78.9,2.27,1.68.49.79.77,1.69,1.03,2.58.2.68.39,1.37.5,2.07.44,2.81-.46,5.7-1.88,8.15-.65,1.12-1.41,2.17-2.26,3.13-1.01,1.14-2.26,2.2-3.75,2.36-1.98.22-3.84-1.23-4.76-3.03-.92-1.8-1.1-3.88-1.26-5.9l-.17-2.2c-.07-.82-.12-1.66.16-2.43.36-.98,1.22-1.66,2.07-2.25.26-.18.53-.37.8-.56Zm29.99,10.96c.88-.72,1.33-2.03,1.56-3.14.23-1.11.16-2.32-.39-3.25-.41-.69-1.05-1.17-1.71-1.55-.74-.42-1.55-.74-2.4-.78-.85-.04-1.74.21-2.4.83-.64.59-1.01,1.46-1.23,2.33-.15.63-.23,1.3-.08,1.92.19.81.75,1.43,1.3,1.99.73.72,1.52,1.39,2.44,1.76.92.37,2.01.4,2.9-.12Zm-19.09-1.66c2.56-2.88,11.23-1.61,15.61,2.44,2.59,2.4,3.82,5.55,3.86,8.32.24-1.11.66-2.15,1.2-3.03.26-.42.55-.81.9-1.04.42-.28.9-.3,1.36-.26,1.81.15,3.56,1.15,4.95,2.82.81.98.98,2.6.81,4.12-.16,1.38-.44,2.16-1.21,3l-1.52,1.65c-.49.54-.93.68-1.57.79-.84.05-1.71.1-2.5-.27-1.42-.67-2.43-2.68-2.61-4.82-.02-.25-.03-.5-.03-.76-.25,1.01-.69,1.91-1.31,2.61-2.56,2.88-12.78,3.94-17.15-.11-4.38-4.06-3.32-12.6-.76-15.47Zm20.4,18.43c-2.42-1-5.19-1.12-7.71-.42-2.77.97-3.47,3.72-3.8,6.56-.33,2.84,1.1,5.95,3.77,7.09,1.42.61,3.03.63,4.58.58,2.02-.07,4.09-.28,5.89-1.18,1.8-.89,3.3-2.6,3.42-4.58.06-.96-.21-1.92-.61-2.8-1.07-2.36-3.11-4.25-5.53-5.25Zm12.27,8.1c.23-1.44.23-2.92,0-4.37-.15-1-.46-2.05-1.24-2.67-.67-.54-1.58-.65-2.44-.61-.33.02-.67.06-.97.21-.34.17-.6.48-.8.81-.97,1.58-.78,3.65-.19,5.41.16.49.35.97.68,1.36.55.64,1.42.92,2.26.91.83,0,2.07-.22,2.69-1.05Zm-31.99-8.73c-.76,2.24-2.8,3.96-5.1,4.32-1.51.41-3.68-.24-4.49-1.6-.12-.21-.23-.43-.24-.68,0-.25.08-.49.18-.71.62-1.42,1.54-2.7,2.68-3.74.74-.67,1.6-1.25,2.58-1.37,1.26-.15,2.49.48,3.53,1.23.38.28.77.59.94,1.04.18.48.07,1.03-.09,1.52Zm5.4,13.64c1.31-.81,2.15-2.4,2.31-3.89.17-1.48-.23-2.98-.87-4.34-.31-.67-.7-1.32-1.25-1.84-.9-.84-2.18-1.25-3.44-1.28-2.9-.08-5.74,1.86-6.56,4.5-.22.7-.31,1.43-.36,2.16-.08,1.01-.08,2.07.4,2.98.6,1.14,1.87,1.83,3.13,2.29,2.2.8,4.96.97,6.65-.58Zm4.7-93.24c-.9,1.77-2.71,3.17-4.65,3.24-.73.19-1.51-.2-2-.78-.49-.58-.75-1.33-.96-2.06-.64-2.18-1.02-4.59-.15-6.69.28-.67.7-1.32,1.34-1.65.36-.18.76-.26,1.16-.28,1.95-.13,3.93.88,5,2.54,1.07,1.66,1.18,3.92.28,5.69Zm-28.39,88.55c1.26,1.36,2.55,2.18,4.43,2.22,2.2.19,4-.23,5.1-1.86,1.1-1.63.8-4.03-.67-5.26-.95-.8-2.26-1.09-3.51-.99-1.26.1-2.47.57-3.59,1.17-.68.36-1.35.78-1.84,1.37-.49.6-.79,1.39-.63,2.13.1.47.38.88.7,1.22ZM36.67,30.04c-.66.49-1.38.8-2.23.86-1.4.09-2.48-.57-2.89-1.97-.41-1.4.2-2.2,1.2-3.25.72-.75,1.79-1.63,2.81-1.45.19.03.35.04.51.05.33.01.62.03.94.24.76.51,1.58,1.13,1.77,2.04.15.71-.11,1.45-.54,2.03-.43.58-1.01,1.01-1.58,1.44Z"/>
  <path class="cls-1" d="m84.26,21.34l.08,7.5h.01s-.09-7.5-.09-7.5Zm-3.16-.8l-5.88,4.66c.39.49.84.93,1.34,1.31l4.54-5.97Zm8.37-.77l5.69,4.88h0s-5.7-4.88-5.7-4.88Zm.72-5.75l-7.35,1.48h0s7.35-1.48,7.35-1.48Zm-3.69-6.09l3.19-6.79h0s-3.18,6.79-3.18,6.79Zm-4.82.24l3.03,6.86h0s-3.03-6.86-3.03-6.86Zm-3.29,2.9l6.76,3.24h0s-6.77-3.24-6.77-3.24Zm0,5.03l-7.05,2.56h0s7.04-2.56,7.04-2.56Zm-6.36,4.95l4.51,5.99h0l-4.51-5.99Zm2.47-3.13l-6.74-3.3s-.04.09-.06.13l6.8,3.17Zm-6.39,4.43l-.36,7.49h0s.36-7.49.36-7.49Zm-3.04-.86l2.88-6.93h0s-2.88,6.93-2.88,6.93Zm-.09-.04l2.88-6.93h0s-2.88,6.93-2.88,6.93Zm-3.38-1.46l3.18-6.79h0s-3.17,6.79-3.17,6.79Zm-2-1.24l5.24-5.36s-.01,0-.01-.01l-5.23,5.38Zm-1.1-3.25l-7.47-.69h0s7.47.69,7.47.69Zm1.4-3.4l6.09,4.38s0-.01.01-.02l-6.1-4.36Zm.73-.83l-4.77-5.79s-.03.02-.04.03l4.81,5.75Zm1.06-.64l-3.42-6.67h0s3.43,6.67,3.43,6.67Zm0,0l-3.42-6.68h0s3.42,6.68,3.42,6.68Zm3.19-1.58l3.13,6.82h0s-3.14-6.82-3.14-6.82Zm.37-.17l3.23,6.77c.07-.04.15-.07.22-.11l-3.45-6.66Zm0,0l-3.23-6.77c-.07.04-.15.07-.22.11l3.45,6.66Zm1.97-.66l-.5-7.48h0s.5,7.48.5,7.48Zm6.17,2.01l4.37-6.09h0s-4.37,6.09-4.37,6.09Zm-32.52,17.98l5.77-4.79h0s-5.77,4.79-5.77,4.79Zm-3.26-7.04l7.42-1.11s-.01-.07-.02-.11l-7.4,1.22Zm8.57,10.84l-1.41,7.37h0s1.41-7.37,1.41-7.37Zm5.58-1.53l-4.45-6.04h0l4.45,6.04Zm4.04-4.42l-6.06-4.42h0s6.06,4.42,6.06,4.42Zm2.51-5.06l-7.42-1.09h0s7.42,1.09,7.42,1.09Zm-3.11-7.96l5.73-4.84h0s-5.73,4.84-5.73,4.84Zm-3.41-2.98l3.48-6.64h0s-3.48,6.64-3.48,6.64Zm-5.43-.83l-.89-7.45h0s.9,7.45.9,7.45Zm-7.31,3.85l5.85,4.69h0s-5.85-4.69-5.85-4.69Zm65.7,3.73l4.52-5.98c-.13-.1-.26-.19-.39-.27l-4.14,6.26Zm.99,1.99l-7.27,1.85h0s7.27-1.85,7.27-1.85Zm-4.58-1.34l-6.03-4.46s0,.01-.01.02l6.04,4.45Zm.38,3.7l-4.98,5.61h0s4.98-5.61,4.98-5.61Zm1.05.52l-1.15,7.41s.01,0,.01,0l1.13-7.41Zm1.3-.14l-1.78-7.29s0,0-.01,0l1.79,7.28Zm1.45-.65l5.28,5.33s.01-.01.02-.02l-5.3-5.31Zm.42-2l7.27-1.83s0-.02,0-.03l-7.27,1.86Zm-9.97,12.02l.07,7.5c.23,0,.47-.02.7-.04l-.77-7.46Zm4.28-3.11l-6.22-4.19h0s6.23,4.19,6.23,4.19Zm-8.51,2.06l-3.89,6.41h0s3.88-6.41,3.88-6.41Zm-2.74-3.64l7.27-1.84h0s-7.27,1.84-7.27,1.84Zm.81-5.86l-6.93-2.86h0s6.94,2.86,6.94,2.86Zm1.42-2.45l-5.49-5.11h0s5.49,5.11,5.49,5.11Zm4.91-1.33l-1.55,7.34h0s1.55-7.34,1.55-7.34Zm4.32,2.85l-6.16,4.28h0s6.15-4.28,6.15-4.28Zm1.12,5.41l-7.33-1.58h0s7.33,1.58,7.33,1.58Zm-8.38,15.5l7.03,2.61c.06-.15.11-.3.15-.45l-7.18-2.16Zm-.28-7.71l6.97-2.76h0l-6.97,2.76Zm-6.38,11.38l-.73-7.46h0l.73,7.46Zm-6.09-2.32l5.65-4.93c-2.49-2.85-6.71-3.4-9.84-1.29-3.14,2.11-4.21,6.23-2.5,9.61l6.69-3.39Zm1.34,4.22l7.38-1.35h0s-7.38,1.35-7.38,1.35Zm-1.12,7.24l5.6,4.99h0s-5.61-4.99-5.61-4.99Zm-6.79,2.15l-.28-7.49s-.01,0-.02,0l.3,7.49Zm-4.06-.89l-5.83,4.72c.41.51.89.97,1.42,1.35l4.41-6.07Zm-3.36-5.49l-7.08,2.49h0s7.07-2.49,7.07-2.49Zm.17-6.32l6.68,3.42h0s-6.68-3.42-6.68-3.42Zm1.59-2.02l4.98,5.6c2.81-2.5,3.33-6.69,1.23-9.8-2.1-3.11-6.19-4.19-9.55-2.52l3.34,6.72Zm-13.04-1.36l-5.77,4.79h0s5.77-4.79,5.77-4.79Zm-1.18-2.64l7.35-1.5c-.81-3.98-4.64-6.59-8.64-5.89-4,.7-6.72,4.45-6.13,8.46l7.42-1.08Zm.07.74l-7.49.43s0,.02,0,.03l7.49-.46Zm-.03.4l7.07,2.5s0-.02.01-.03l-7.08-2.47Zm-.27.35l4.91,5.67s.07-.06.1-.09l-5.01-5.58Zm-3.72.77l1.73-7.3s-.02,0-.03,0l-1.71,7.3Zm-.07-.02l1.51-7.35s-.02,0-.04,0l-1.48,7.35Zm-.05,0l1.48-7.35c-.08-.02-.16-.03-.24-.04l-1.23,7.4Zm0,0l-1.46,7.36c.07.01.15.03.22.04l1.23-7.4Zm-.22-.14l7.1-2.42c-.35-1.02-.91-1.96-1.66-2.74l-5.44,5.16Zm-.71-2.25l7.5.22h0s-7.5-.22-7.5-.22Zm.88-1.71l4.5,6h0s-4.51-6-4.51-6Zm1.94-.65l-1.19-7.41s-.01,0-.02,0l1.2,7.4Zm.68-.03l1.5-7.35s-.03,0-.05,0l-1.45,7.36Zm.92.79l-6.46,3.81h0s6.46-3.81,6.46-3.81Zm.5,1.33l-7.33,1.57c.85,3.97,4.7,6.54,8.69,5.81,3.99-.73,6.68-4.5,6.06-8.51l-7.41,1.13Zm4.06-11.31l4.9,5.68h0l-4.9-5.68Zm14.57-.18l5.77-4.79h0s-5.77,4.79-5.77,4.79Zm-2.31,14.53l-5.09-5.51c-2.77,2.55-3.21,6.76-1.04,9.84,2.17,3.07,6.29,4.06,9.62,2.31l-3.49-6.64Zm.72-.35l-3.07-6.84h0s3.08,6.84,3.08,6.84Zm6.25-.47l2.99-6.88h0s-2.98,6.88-2.98,6.88Zm2.29,1.8l-5.88,4.66c2.33,2.94,6.48,3.7,9.71,1.79,3.23-1.92,4.54-5.92,3.07-9.38l-6.9,2.93Zm-.01-.03l-6.92,2.88s.01.03.02.05l6.9-2.93Zm-.02-.04l-6.94,2.85s0,.02.01.03l6.92-2.88Zm-.5-4.58l-7.49-.42h0s7.49.42,7.49.42Zm1.29-5.86l6.66,3.46h0l-6.66-3.46Zm4.66-3.33l-.3-7.49h0l.3,7.49Zm2.81.66l3.21-6.78h0s-3.21,6.78-3.21,6.78Zm17.28,1.39l-.05,7.5h0l.05-7.5Zm-6.93,1.88l-5.04-5.56h0s5.04,5.56,5.04,5.56Zm5.44,49.28l-2.52,7.07c3.74,1.33,7.88-.49,9.42-4.15,1.55-3.66-.03-7.89-3.6-9.65l-3.31,6.73Zm-8.14-.51l1.74,7.29h0s-1.75-7.29-1.75-7.29Zm-2.05.88l4.65,5.89h0s-4.66-5.89-4.66-5.89Zm-1.16,6.33l7.35-1.51h0s-7.35,1.51-7.35,1.51Zm5.13,9.8l4.45-6.03h0s-4.45,6.03-4.45,6.03Zm6.6,1.92l-.22-7.5h-.01s.23,7.5.23,7.5Zm5.83-1.92l4.56,5.96h0s-4.57-5.96-4.57-5.96Zm2.9-5.38l7.5.22h0s-7.5-.22-7.5-.22Zm-1.56-5.19l6.42-3.89s-.06-.1-.09-.15l-6.32,4.03Zm-5.88-5.22l2.56-7.05c-3.74-1.36-7.89.44-9.46,4.1-1.57,3.66,0,7.9,3.57,9.67l3.33-6.72Zm-84.03,10.11l-5.94,4.58s.07.09.11.14l5.83-4.72Zm-2.12-4.98l7.48-.61h0s-7.47.61-7.47.61Zm18.44,9.55l-2.57-7.04h0s2.58,7.04,2.58,7.04Zm1.93-1.11l-5.29-5.32h0s5.3,5.32,5.3,5.32Zm.45-6.42l7.13-2.32h0s-7.13,2.32-7.13,2.32Zm-6.18-9.14l3.73-6.5h0s-3.73,6.5-3.73,6.5Zm-6.78-1.14l-1.09-7.42h0s1.09,7.42,1.09,7.42Zm-5.58,2.59l-5.2-5.4h0l5.2,5.4Zm16.95,1.43l-3.29,6.74c.22.11.45.21.68.29l2.61-7.03Zm-3.81-3.54l-6.74,3.3h0s6.73-3.3,6.73-3.3Zm9.8,3.16l-3.67-6.54s0,0-.01,0l3.69,6.53Zm2.53-2.91l7.08,2.46h0s-7.09-2.46-7.09-2.46Zm.17-3.68l-7.42,1.12s0,0,0,.01l7.41-1.14Zm-1.89-3.39l2.81-6.95s-.02,0-.03-.01l-2.78,6.97Zm-10.32,1.47l-5.89-4.64h0s5.89,4.64,5.89,4.64Zm18.54-6.38l7.5.1c.05-3.88-2.87-7.16-6.73-7.56-3.86-.4-7.39,2.22-8.13,6.03l7.36,1.43Zm-2.24,3.45l-3.94-6.38c-.4.24-.77.53-1.11.84l5.06,5.54Zm2.28-2.6l7.47-.7h0s-7.47.7-7.47.7Zm2.24,5.11l-5.85,4.69h0s5.85-4.69,5.85-4.69Zm7.12,4.21l-.89,7.45h0s.88-7.45.88-7.45Zm7.45-3.12l-5.01-5.58s-.05.05-.08.07l5.09,5.51Zm4.06-6.6l-7.18-2.17h0s7.18,2.17,7.18,2.17Zm.27-6.61l6.97-2.76h0s-6.97,2.76-6.97,2.76Zm-4.27-3.97l2.81-6.96h0s-2.8,6.96-2.8,6.96Zm-5.82-1.09l.54-7.48h0s-.54,7.48-.54,7.48Zm-5.54.57l3.11,6.82h0s-3.12-6.82-3.12-6.82Zm-4.89,6.96l-7.2-2.11h0s7.2,2.11,7.2,2.11Zm-.55,2.41l-7.5.18c.09,3.9,3.16,7.08,7.06,7.31,3.9.23,7.32-2.57,7.87-6.43l-7.43-1.05Zm-.91-3.5l-6.79,3.19s0,0,0,.01l6.78-3.2Zm-1.25-1.84l-5.14,5.47s.01.01.02.02l5.12-5.48Zm-3.44-1.28l-.21,7.5h0l.21-7.5Zm-6.56,4.5l7.15,2.25h0s-7.16-2.25-7.16-2.25Zm-.36,2.16l7.48.57h0s-7.48-.57-7.48-.57Zm.4,2.98l6.63-3.51h0s-6.63,3.51-6.63,3.51Zm3.13,2.29l2.56-7.05s0,0-.01,0l-2.54,7.06Zm.34,26.22l-5.83,4.72c.41.51.89.97,1.42,1.35l4.41-6.07Zm4.06.89l-.28-7.49s-.01,0-.02,0l.3,7.49Zm-7.42-6.38l-7.08,2.49h0l7.08-2.49Zm.17-6.32l6.68,3.42h0s-6.68-3.42-6.68-3.42Zm4.35-3.75l-3.07-6.84h0s3.08,6.84,3.08,6.84Zm6.25-.47l2.99-6.88h0s-2.98,6.88-2.98,6.88Zm4.57,7.52l7.38-1.35h0s-7.38,1.35-7.38,1.35Zm-1.12,7.24l5.6,4.99h0s-5.61-4.99-5.61-4.99Zm40.51-20.84l-4.06-6.3c-.28.18-.55.38-.8.6l4.87,5.71Zm1.4-2.78l-7.41-1.14h0s7.41,1.14,7.41,1.14Zm-2.97,3.46l1.45,7.36h0l-1.45-7.36Zm-.45.09l-1.68-7.31h0s1.68,7.31,1.68,7.31Zm-2.21-.03l-1.25,7.4s.01,0,.02,0l1.23-7.4Zm-1.98-1.18l-5.22,5.39s0,0,.01.01l5.2-5.4Zm-.92-1.22l6.95-2.82h0s-6.95,2.82-6.95,2.82Zm-.13-1.69l7.43,1.05h0s-7.43-1.05-7.43-1.05Zm3.21-4.33l2.57,7.05h0s-2.57-7.05-2.57-7.05Zm4.71,1.91l-6.94,2.84h0s6.94-2.84,6.94-2.84Zm.16.37l6.91-2.92h0s-6.91,2.92-6.91,2.92ZM28.77,40.31l7.1,2.42h0s-7.1-2.42-7.1-2.42Zm-5.1,4.32l-1.14-7.41c-.28.04-.57.1-.84.18l1.98,7.23Zm5.19-5.83l7.02-2.65h0s-7.01,2.65-7.01,2.65Zm-.94-1.04l4.39-6.08h0s-4.39,6.08-4.39,6.08Zm-3.53-1.23l-.91-7.44h-.01s.92,7.44.92,7.44Zm-2.58,1.37l-5.04-5.55h0s5.04,5.55,5.04,5.55Zm-2.68,3.74l6.86,3.02h0s-6.87-3.02-6.87-3.02Zm-.18.71l-7.5.25h0s7.5-.25,7.5-.25Zm.24.68l6.45-3.82s-.02-.03-.03-.04l-6.43,3.86Zm23.5,51.58l4.75-5.81h0s-4.74,5.81-4.74,5.81Zm-2.04-.74l1.53,7.34c.07-.01.14-.03.21-.05l-1.74-7.3Zm3.87,5.23l7.45.85h0s-7.45-.85-7.45-.85Zm-4.72,4.25l.66,7.47s0,0,.01,0l-.67-7.47Zm-2.35-.46l4.5-6s0,0-.01-.01l-4.49,6.01Zm-1-1.58l-7.15,2.27h0s7.15-2.27,7.15-2.27Zm.38-4.62l-6.64-3.48h0l6.64,3.48Zm18.34-39.95l-2.8-6.96h0s2.81,6.96,2.81,6.96Zm4.48-12.72l-7,2.7h0l7-2.7Zm-16.48,10.59l-6.99,2.71h0s6.99-2.71,6.99-2.71Zm4.63-14.36l-2.8-6.96h0l2.8,6.96Zm6.15,39.12l3.81,6.46c.33-.19.64-.41.93-.65l-4.74-5.81Zm1.56-3.14l-7.34-1.54h0l7.34,1.54Zm-4.46,3.26l2.8-6.96s-.01,0-.02,0l-2.78,6.97Zm-2.44-1.76l5.29-5.32h0s-5.28,5.32-5.28,5.32Zm-1.3-1.99l7.29-1.75h0s-7.29,1.75-7.29,1.75Zm.08-1.92l-7.28-1.79h0s7.28,1.79,7.28,1.79Zm1.23-2.33l5.1,5.5h0s-5.11-5.5-5.11-5.5Zm2.4-.83l-.37,7.49h0l.37-7.49Zm2.4.78l-3.72,6.51s.01,0,.02.01l3.7-6.52Zm1.71,1.55l6.45-3.82h0s-6.45,3.82-6.45,3.82Zm-3.87,36.86l6.98-2.75h0l-6.98,2.75Zm.28,7.88l7.04,2.59c.05-.15.1-.3.15-.45l-7.19-2.14Zm-5.53-13.61l3.24-6.77h0s-3.23,6.77-3.23,6.77Zm-2.84-.68l-.29-7.49h-.01s.31,7.49.31,7.49Zm-4.72,3.4l-6.67-3.44h0s6.67,3.44,6.67,3.44Zm-1.3,5.98l-7.49-.41h0s7.49.41,7.49.41Zm.5,4.68l6.95-2.83h0s-6.95,2.83-6.95,2.83Zm7.15,3.97l-.72-7.46s0,0-.01,0l.74,7.46Zm11.28-11.9l1.84,7.27c.32-.08.63-.18.94-.3l-2.78-6.97Zm-.48.13l2,7.23h0l-2-7.23Zm7.25-4.34l-5.9-4.63h0s5.91,4.63,5.91,4.63Zm1.16-2.51l-7.42-1.09h0s7.42,1.09,7.42,1.09Zm-.1-1.93l-7.34,1.56h0s7.33-1.56,7.33-1.56Zm-3.62-4.69l2.91-6.91h0s-2.91,6.91-2.91,6.91Zm-6.58.43l2.54,7.06h0s-2.54-7.06-2.54-7.06Zm-3.27,2.04l-5.99-4.51h0s6,4.51,6,4.51Zm-1.16,3.77l7.44.96h0s-7.44-.96-7.44-.96Zm-.01,2.52l-7.28,1.79s0,.01,0,.02l7.28-1.81Zm.71,1.55l-6.39,3.93h0s6.38-3.93,6.38-3.93Zm1.61,2.14l5.55-5.04h0s-5.55,5.04-5.55,5.04Zm1.21.97l-3.03,6.86h0s3.02-6.86,3.02-6.86Zm1.5.23l.08,7.5h.01l-.09-7.5Zm67.76-23.78l7.1,2.42h0s-7.1-2.42-7.1-2.42Zm-5.1,4.32l-1.14-7.41c-.29.04-.57.1-.84.18l1.98,7.23Zm5.19-5.83l7.02-2.65h0s-7.01,2.65-7.01,2.65Zm-.94-1.04l4.39-6.08h0s-4.39,6.08-4.39,6.08Zm-3.53-1.23l-.91-7.44h-.01s.92,7.44.92,7.44Zm-2.58,1.37l-5.04-5.55h0s5.04,5.55,5.04,5.55Zm-2.68,3.74l6.86,3.02h0s-6.87-3.02-6.87-3.02Zm-.18.71l-7.5.25h0s7.5-.25,7.5-.25Zm.24.67l6.45-3.83s-.01-.02-.02-.03l-6.43,3.86Zm2.54,8.94l-7.27,1.85h0s7.27-1.85,7.27-1.85Zm-.99-1.99l4.52-5.98c-.12-.09-.25-.18-.38-.27l-4.14,6.25Zm1.01,2.08l7.27-1.83s0-.02,0-.03l-7.27,1.86Zm-.42,2l5.28,5.33s.01-.01.02-.02l-5.3-5.31Zm-1.45.65l-1.78-7.29s0,0-.01,0l1.79,7.28Zm-1.3.14l-1.15,7.41s0,0,.01,0l1.13-7.41Zm-1.05-.52l-4.98,5.61h0s4.98-5.61,4.98-5.61Zm-.38-3.7l-6.04-4.45h0s6.04,4.45,6.04,4.45Zm-50.19-47.58l7.46.75s0-.01,0-.02l-7.46-.73Zm.87,3.45l6.14-4.31c-.1-.14-.2-.27-.3-.4l-5.84,4.71Zm-.55-4.41l6.11,4.35h0s-6.11-4.35-6.11-4.35Zm1.4-.66l.12,7.5h0l-.12-7.5Zm1.56.36l2.82-6.95s-.01,0-.02,0l-2.8,6.96Zm2.24,1.41l-5.36,5.25s.02.02.02.02l5.33-5.27Zm1.08,2.37l-7.5.14h0s7.5-.14,7.5-.14Zm-2.44,2.82l-.91-7.44h0s.91,7.44.91,7.44Zm18.96,29.04l-2.8-6.96h0s2.81,6.96,2.81,6.96Zm4.48-12.72l7-2.7h0s-6.99,2.7-6.99,2.7Zm-16.48,10.59l6.99-2.71h0s-6.99,2.71-6.99,2.71Zm5.38-17.27l6.27-4.11h0s-6.27,4.11-6.27,4.11Zm-1.79-3.97l-7.32-1.61c-.26,1.18-.23,2.41.09,3.58l7.24-1.97Zm4.01,5.86l-1.75,7.29h.01s1.74-7.29,1.74-7.29Zm2.46-.48l-3.52-6.62h0s3.52,6.62,3.52,6.62Zm.8-.6l-5.9-4.63h0s5.91,4.63,5.91,4.63Zm.39-1.08l-7.44-.93s0,.02,0,.03l7.44.91Zm-2.05-5l5.51-5.09h0s-5.5,5.09-5.5,5.09Zm-1.18-.94l-3.11,6.83s.02,0,.03.01l3.08-6.84Zm-2.42.13l-3.28-6.75h0s3.29,6.75,3.29,6.75Zm30.45-30.21l-4.49-6.01h0s4.49,6.01,4.49,6.01Zm-2.22.86l.47,7.49s.06,0,.09,0l-.56-7.48Zm3.81-2.3l-6.01-4.49s-.02.02-.02.03l6.03,4.46Zm.54-2.03l7.33-1.57h0s-7.33,1.57-7.33,1.57Zm-1.77-2.04l4.16-6.24h0s-4.15,6.24-4.15,6.24Zm-.94-.24l.34-7.49h0l-.34,7.49Zm-.51-.05l-1.29,7.39s.02,0,.03,0l1.26-7.39Zm-2.81,1.45l-5.44-5.17h0s5.44,5.17,5.44,5.17Zm-1.2,3.25l7.2-2.09h0s-7.2,2.09-7.2,2.09Zm5.9,81.26l-4.44-6.04h-.01s4.46,6.04,4.46,6.04Zm-1.84.62l.29,7.49c.18,0,.35-.02.53-.04l-.82-7.46Zm1.85-.63l-4.44-6.05h0s4.45,6.05,4.45,6.05Zm0,0l-4.41-6.07s-.02.01-.03.02l4.44,6.05Zm0,0l4.41,6.07s.03-.02.04-.03l-4.45-6.04Zm1.76-1.29l4.44,6.05h0s-4.44-6.05-4.44-6.05Zm1.4-2.38l-7.4-1.2h0s7.4,1.2,7.4,1.2Zm-.97-3.29l4.76-5.79h0s-4.76,5.79-4.76,5.79Zm-5.81-2.28l.47-7.49h-.01s-.46,7.49-.46,7.49Zm-1.6.2l-3.02-6.86h0s3.03,6.86,3.03,6.86Zm-1.05.82l5.58,5.02s0-.01.01-.02l-5.59-5Zm-1.61,4.77l7.44-.97h0s-7.43.97-7.43.97Zm3.09,3.86l2.36-7.12s-.03,0-.04-.01l-2.31,7.13Zm-36.11-32.06l-.32-7.49c-.17,0-.33.02-.5.04l.82,7.46Zm-7.26,3.6l-4.33-6.12h0l4.33,6.12Zm9.53-1.91l6.38-3.94h0s-6.38,3.94-6.38,3.94Zm1.03,2.58l-7.2,2.09h0s7.2-2.09,7.2-2.09Zm.5,2.07l7.41-1.15s0-.01,0-.02l-7.41,1.16Zm-1.88,8.15l-6.48-3.77h0s6.49,3.77,6.49,3.77Zm-2.26,3.13l5.6,4.99h0s-5.6-4.99-5.6-4.99Zm-3.75,2.36l-.84-7.45h0s.84,7.45.84,7.45Zm-6.01-8.94l-7.48.59h0s7.48-.59,7.48-.59Zm-.17-2.2l7.48-.59s0-.01,0-.02l-7.48.61Zm.16-2.43l-7.03-2.6h0s7.04,2.6,7.04,2.6Zm2.07-2.25l-4.29-6.15h0s4.3,6.15,4.3,6.15Zm30.79,10.39l3.81,6.46c.33-.19.64-.41.93-.65l-4.74-5.81Zm1.17-6.38l6.45-3.82h0s-6.45,3.82-6.45,3.82Zm-1.71-1.55l-3.72,6.51s.01,0,.02.01l3.7-6.52Zm-2.4-.78l-.37,7.49h0l.37-7.49Zm-2.4.83l5.1,5.5h0s-5.11-5.5-5.11-5.5Zm-1.23,2.33l-7.28-1.79h0s7.28,1.79,7.28,1.79Zm-.08,1.92l7.29-1.75h0s-7.29,1.75-7.29,1.75Zm1.3,1.99l5.29-5.32h0s-5.28,5.32-5.28,5.32Zm2.44,1.76l2.8-6.96s-.01,0-.02,0l-2.78,6.97Zm-.58.66l-5.1,5.5h0l5.1-5.5Zm-15.61-2.44l-5.6-4.99h0s5.6,4.99,5.6,4.99Zm19.47,10.77l-7.5.11c.06,3.81,2.96,6.97,6.75,7.35,3.79.38,7.26-2.13,8.08-5.85l-7.33-1.61Zm1.2-3.03l-6.39-3.92h0s6.39,3.92,6.39,3.92Zm.9-1.04l4.07,6.3s.03-.02.05-.03l-4.13-6.26Zm1.36-.26l.63-7.47h0s-.63,7.47-.63,7.47Zm4.95,2.82l5.78-4.78h0s-5.77,4.78-5.77,4.78Zm.81,4.12l7.45.86h0s-7.45-.86-7.45-.86Zm-1.21,3l-5.51-5.09h0s5.51,5.09,5.51,5.09Zm-1.52,1.65l5.51,5.09h0s-5.51-5.09-5.51-5.09Zm-1.57.79l.47,7.49c.27-.02.54-.05.81-.09l-1.27-7.39Zm-2.5-.27l-3.19,6.79s.01,0,.02.01l3.17-6.8Zm-2.61-4.82l7.47-.62h0s-7.47.62-7.47.62Zm-.03-.76l7.5-.02c-.01-3.79-2.85-6.97-6.61-7.42-3.76-.45-7.27,1.97-8.18,5.65l7.28,1.8Zm-1.31,2.61l5.6,4.99h0s-5.6-4.99-5.6-4.99Zm-17.15-.11l-5.1,5.5h0l5.1-5.5Zm11.93,2.53l-2.02-7.22c-.15.04-.3.09-.45.14l2.47,7.08Zm7.71.42l2.87-6.93h0l-2.87,6.93Zm-11.51,6.15l7.45.88s0,0,0-.01l-7.45-.86Zm3.77,7.09l2.96-6.89h0s-2.96,6.89-2.96,6.89Zm4.58.58l-.28-7.5h0l.28,7.5Zm5.89-1.18l-3.33-6.72h0l3.33,6.72Zm3.42-4.58l7.49.44h0s-7.49-.44-7.49-.44Zm-.61-2.8l6.83-3.1h0s-6.83,3.1-6.83,3.1Zm6.74-1.52l7.41-1.15h0s-7.41,1.15-7.41,1.15Zm0,4.37l6,4.5c.73-.98,1.21-2.12,1.4-3.32l-7.41-1.18Zm-1.23-7.04l4.68-5.86h0s-4.68,5.86-4.68,5.86Zm-2.44-.61l-.34-7.49s-.02,0-.04,0l.37,7.49Zm-.97.21l-3.4-6.69s-.01,0-.02,0l3.41,6.68Zm-.8.81l6.39,3.93s0-.01.01-.02l-6.4-3.9Zm-.19,5.41l-7.12,2.35h0s7.12-2.35,7.12-2.35Zm.68,1.36l-5.71,4.86s0,0,.01.01l5.7-4.88Zm2.26.91l-.07-7.5h-.03l.1,7.5Zm-34.39-5.47l-1.14-7.41c-.28.04-.57.1-.84.18l1.98,7.23Zm5.1-4.32l7.1,2.42h0s-7.1-2.42-7.1-2.42Zm-9.58,2.71l6.45-3.83s-.01-.02-.02-.03l-6.43,3.86Zm-.24-.68l-7.5.25h0s7.5-.25,7.5-.25Zm.18-.71l6.86,3.02h0s-6.87-3.02-6.87-3.02Zm2.68-3.74l-5.04-5.55h0s5.04,5.55,5.04,5.55Zm2.58-1.37l-.91-7.45h-.01s.92,7.45.92,7.45Zm3.53,1.23l4.39-6.08h0s-4.39,6.08-4.39,6.08Zm.94,1.04l7.02-2.65h0s-7.01,2.65-7.01,2.65Zm7.62,11.27l-7.45-.83h0s7.46.83,7.46.83Zm-2.31,3.89l-3.94-6.38c-.4.25-.77.53-1.12.84l5.06,5.53Zm1.44-8.23l-6.79,3.19s0,0,0,.01l6.78-3.21Zm-1.25-1.84l-5.14,5.47s.01.01.02.02l5.12-5.48Zm-3.44-1.28l-.21,7.5h0l.21-7.5Zm-6.56,4.5l7.15,2.25h0s-7.16-2.25-7.16-2.25Zm-.36,2.16l7.48.57h0s-7.48-.57-7.48-.57Zm.4,2.98l6.63-3.51h0s-6.63,3.51-6.63,3.51Zm3.13,2.29l2.56-7.05s0,0-.01,0l-2.54,7.06Zm6.7-90.58l-.25-7.5c-.54.02-1.08.1-1.61.23l1.86,7.27Zm4.65-3.24l-6.68-3.41h0l6.68,3.41Zm-6.66,2.45l-5.74,4.83s0,.01.01.02l5.73-4.84Zm-.96-2.06l7.2-2.11h0s-7.2,2.11-7.2,2.11Zm-.15-6.69l-6.94-2.85h0s6.94,2.85,6.94,2.85Zm1.34-1.65l3.43,6.67s.01,0,.02-.01l-3.45-6.66Zm1.16-.28l-.51-7.48h-.01s.52,7.48.52,7.48Zm5,2.54l-6.31,4.05h0s6.31-4.05,6.31-4.05Zm-23.67,96.46l.66-7.47c-.17-.01-.33-.02-.5-.03l-.15,7.5Zm-4.43-2.22l5.49-5.11h0s-5.49,5.11-5.49,5.11Zm9.54.36l-6.22-4.2h0s6.22,4.2,6.22,4.2Zm-.67-5.26l4.83-5.74h0s-4.83,5.74-4.83,5.74Zm-3.51-.99l-.61-7.47h0l.61,7.47Zm-3.59,1.17l3.5,6.63h0s-3.5-6.63-3.5-6.63Zm-1.84,1.37l5.77,4.79h0l-5.77-4.79Zm-.63,2.13l-7.32,1.62s0,.02,0,.02l7.32-1.64ZM34.45,30.9l.49,7.48s.05,0,.08,0l-.56-7.48Zm2.23-.86l-4.49-6.01h0s4.49,6.01,4.49,6.01Zm-3.91-4.36l-5.44-5.17h0s5.44,5.17,5.44,5.17Zm2.81-1.45l-1.29,7.39s.02,0,.03,0l1.26-7.39Zm.51.05l-.34,7.49h0l.34-7.49Zm.94.24l4.16-6.24h0s-4.15,6.24-4.15,6.24Zm1.77,2.04l7.33-1.57h0s-7.33,1.57-7.33,1.57Zm-.54,2.03l-6.03-4.46h0l6.03,4.46Zm45.93-14.77c-.33,0-.26-.02-.02.03.29.06.87.24,1.48.7l-9.07,11.95c3.06,2.32,6.43,2.34,7.77,2.33l-.15-15Zm-.41,1.04c.36-.42.76-.71,1.09-.88.31-.17.53-.22.55-.22.02,0-.06.01-.29.03-.24.02-.53.03-.96.03l.18,15c.95-.01,2.67-.04,4.45-.45,1.87-.43,4.37-1.41,6.36-3.74l-11.38-9.77Zm-.94.62c.06.31.1.56.12.75.02.2.01.29.01.28,0,0,.01-.19.12-.48.11-.31.32-.74.68-1.17l11.39,9.76c2.01-2.35,2.62-5.02,2.77-7,.15-1.97-.12-3.79-.39-5.11l-14.7,2.97Zm.48-.79c-.83-.39-1.05-.91-.94-.71.04.08.12.25.21.53.09.27.17.6.25.97l14.7-2.97c-.33-1.62-.9-3.67-1.96-5.65-1.07-1.98-2.89-4.34-5.89-5.75l-6.38,13.58Zm1.4.31c.17-.08.17-.04-.02-.03-.22.02-.75.01-1.37-.28l6.37-13.58c-4.34-2.04-8.58-.91-11.04.17l6.07,13.72Zm.45-.73c-.21.44-.47.69-.57.77-.09.07-.07.04.12-.05l-6.06-13.72c-2.21.98-5.29,2.9-7.02,6.52l13.53,6.47Zm.28-.77c-.05-.13-.04-.19-.04-.13,0,.06,0,.41-.24.9l-13.53-6.48c-1.88,3.92-1.31,8.02-.29,10.84l14.1-5.13Zm1.54,2.35c-.99-1.25-1.38-1.91-1.54-2.36l-14.09,5.15c1.03,2.83,2.71,5.05,3.88,6.53l11.75-9.32Zm-10.44,11.16c2.28-1.72,3.8-3.9,4.76-5.96l-13.6-6.34c-.07.14-.13.23-.17.28-.04.05-.05.05-.01.02l9.02,11.99Zm-8.79,2.79c3.43.16,6.54-1.1,8.79-2.79l-9.02-11.99c.06-.05.13-.09.23-.12.1-.03.34-.1.71-.08l-.72,14.98Zm-5.56-1.42c.8.33,2.96,1.3,5.56,1.42l.72-14.98c.28.01.41.07.32.04-.05-.01-.13-.04-.27-.1-.15-.06-.32-.13-.56-.23l-5.76,13.85Zm-.09-.04l.09.04,5.75-13.85-.09-.04-5.75,13.85Zm-3.68-1.59c1.28.6,2.57,1.13,3.68,1.59l5.75-13.85c-1.16-.48-2.15-.89-3.08-1.33l-6.35,13.59Zm-4.07-2.67c1.58,1.54,3.42,2.37,4.08,2.67l6.34-13.59c-.16-.07-.26-.12-.34-.16-.08-.04-.11-.06-.1-.05,0,0,.06.03.14.1.09.06.22.17.37.32l-10.49,10.72Zm-3.33-9.3c-.28,3.01.56,6.61,3.34,9.31l10.46-10.75c1.05,1.02,1.19,2.2,1.14,2.82l-14.94-1.38Zm2.78-7.09c-1.23,1.72-2.51,4.14-2.78,7.09l14.94,1.39c-.03.3-.1.47-.1.49,0,.01,0,0,.02-.04.02-.04.06-.09.11-.16l-12.18-8.75Zm2.01-2.21c-1.01.84-1.68,1.73-2.03,2.22l12.2,8.72s0,.01-.09.11c-.09.1-.24.27-.47.46l-9.62-11.51Zm2.45-1.56c-.23.12-1.36.66-2.4,1.53l9.54,11.57c-.25.21-.45.32-.48.34-.02.01-.02.01.01,0,.04-.02.09-.05.19-.1l-6.86-13.34Zm0,0h0s6.85,13.35,6.85,13.35h0s-6.85-13.35-6.85-13.35Zm3.49-1.72c-1.25.57-2.44,1.18-3.48,1.72l6.84,13.35c1.07-.55,1.99-1.02,2.9-1.44l-6.26-13.63Zm.27-.13c-.13.06-.21.1-.28.13l6.27,13.62c.18-.08.35-.16.47-.22l-6.46-13.54Zm-.22.11h0s6.91,13.32,6.91,13.32h0s-6.91-13.32-6.91-13.32Zm4.93-1.49c-2.38.16-4.34,1.2-4.7,1.38l6.47,13.54c.17-.08.25-.12.33-.15.06-.03.06-.02.01,0-.08.03-.49.17-1.09.22l-1-14.97Zm11.04,3.4c-2.54-1.82-6.58-3.69-11.04-3.4l.99,14.97c-.16.01-.06-.03.31.1.35.12.71.32,1,.52l8.74-12.19Zm3.47,17.08c2.09-4.28,3.1-12.37-3.46-17.08l-8.75,12.18c-.42-.3-.73-.68-.93-1.05-.19-.35-.24-.63-.25-.76-.02-.2.03-.11-.08.11l13.47,6.59Zm-34.59,2.21c-1.04-1.26-1.17-1.49-1.22-1.6,0-.01-.18-.31-.39-1.77l-14.83,2.23c.33,2.16.79,4.19,1.78,6.19.94,1.9,2.18,3.38,3.12,4.52l11.55-9.58Zm.95,1.22c.4.08.49.22.25.03-.26-.2-.65-.58-1.2-1.25l-11.55,9.57c1.53,1.84,4.71,5.43,9.67,6.38l2.82-14.73Zm-.28-.2c-.09.07-.17.12-.24.15-.07.03-.1.05-.1.04,0,0,.06-.02.16-.02.11,0,.26,0,.45.03l-2.82,14.73c4.64.89,8.76-.88,11.44-2.86l-8.9-12.07Zm2.43-2.8c-1.18,1.62-1.84,2.37-2.43,2.8l8.9,12.07c2.63-1.94,4.47-4.42,5.65-6.03l-12.12-8.84Zm1.15-1.73c.03-.18.06-.15-.11.18-.19.36-.49.81-1.03,1.54l12.11,8.85c1.04-1.43,3.3-4.45,3.88-8.4l-14.84-2.17Zm-1.42-2.04c.68.8,1.09,1.45,1.29,1.92.19.44.08.42.13.11l14.84,2.18c.93-6.31-2.65-11.35-4.8-13.89l-11.46,9.67Zm-1.17-1.17s.07.03.28.23c.22.2.5.5.88.95l11.46-9.68c-1.15-1.36-3-3.38-5.66-4.77l-6.97,13.28Zm-1.06-.02c.39-.05.68-.04.88-.01.19.03.23.06.19.04l6.95-13.29c-3.39-1.77-6.96-1.97-9.8-1.63l1.78,14.89Zm-2.35,1.1c.33-.41,1.13-.95,2.36-1.1l-1.79-14.89c-4.36.52-9.04,2.58-12.27,6.61l11.7,9.38Zm.11,2.16c-.16-.98-.16-1.63-.1-2.01.05-.32.1-.29,0-.15l-11.7-9.39c-3.8,4.74-3.59,10.38-2.99,14l14.8-2.45Zm55.22,2.86c-1.16-.88-1.61-1.88-1.73-2.14-.11-.26-.14-.43-.03,0l14.54-3.7c-.06-.25-.29-1.19-.7-2.16-.42-.98-1.28-2.63-3.03-3.96l-9.05,11.96Zm6.96-.87c-.87,1.18-2.03,1.73-3.02,1.91-.98.18-2.3.07-3.55-.76l8.27-12.51c-4.49-2.97-10.61-1.81-13.75,2.44l12.05,8.93Zm-.66-6.37c1.1.98,1.52,2.16,1.61,3.06.09.9-.07,2.12-.93,3.29l-12.08-8.89c-3.08,4.19-2.49,10.27,1.44,13.76l9.96-11.21Zm-2.78-1.28c1.35.21,2.27.82,2.78,1.28l-9.95,11.22c1.11.98,2.75,1.99,4.88,2.32l2.29-14.82Zm-1.64-.01c-.22.06-.1.02.11-.01.24-.03.79-.09,1.51.02l-2.26,14.83c2.12.32,3.98-.21,4.22-.27l-3.59-14.56Zm-2.04,1.3c.74-.73,1.47-1.08,1.82-1.21.3-.12.51-.16.23-.09l3.56,14.57c.24-.06,2.87-.55,4.95-2.61l-10.56-10.66Zm-1.57,5.16c-.15-.59-.21-1.31-.06-2.12.15-.82.58-1.98,1.61-3.02l10.6,10.62c3.02-3.02,2.95-6.93,2.4-9.14l-14.55,3.66Zm-.02-.07l.02.1,14.53-3.71-.03-.1-14.53,3.71Zm-1.91,17.72c5.02-.52,8.29-4.24,9.74-6.39l-12.45-8.36c-.06.09-.12.17-.18.23-.06.07-.09.09-.07.07.01-.01.12-.09.34-.19.22-.1.59-.23,1.09-.28l1.54,14.92Zm-8.88-2.1c2.77,1.68,5.72,2.16,8.18,2.14l-.14-15c-.21,0-.34-.02-.39-.03-.04,0,.01,0,.11.06l-7.77,12.83Zm-6.13-8.22c.93,3.68,3.35,6.53,6.13,8.22l7.78-12.83c.14.09.25.19.35.31.1.13.22.33.29.62l-14.54,3.68Zm1.14-10.55c-.91,2.22-2.25,6.19-1.14,10.55l14.54-3.68c.08.3.02.4.06.14.05-.26.16-.69.42-1.31l-13.88-5.7Zm2.87-4.71c-1.6,1.73-2.44,3.68-2.86,4.7l13.87,5.72c.06-.16.12-.27.16-.37.04-.09.07-.14.08-.16.01-.02,0,0-.04.06-.04.05-.11.15-.21.26l-10.99-10.21Zm11.96-3.56c-3.49-.74-8.4-.26-11.96,3.56l10.98,10.22c-.49.53-1.05.77-1.43.87-.35.08-.58.06-.7.03l3.11-14.67Zm8.93,5.91c-2.2-3.17-5.49-5.18-8.93-5.91l-3.11,14.67c-.06-.01-.1-.03-.13-.05-.04-.03-.1-.07-.15-.15l12.32-8.56Zm2.29,11.28c.87-4.03-.13-8.18-2.29-11.29l-12.31,8.57c-.04-.06-.06-.09-.06-.11,0-.02-.01-.03-.01-.04,0-.01-.02-.11.02-.31l14.66,3.17Zm-2.44,5.57c.92-1.37,1.95-3.25,2.45-5.58l-14.67-3.14c.02-.09.04-.11,0-.04-.03.07-.1.2-.23.39l12.44,8.38Zm-6.08,10.51c1.21-4.03,1.13-8.54-.49-12.63l-13.95,5.52c.31.78.37,1.81.07,2.79l14.36,4.32Zm-13.11,8.98c2.57-.25,10.18-1.05,12.96-8.53l-14.06-5.22c.11-.31.33-.67.65-.99.3-.3.56-.43.63-.46.05-.02-.03.02-.34.09-.31.06-.72.12-1.29.18l1.47,14.93Zm-12.47-4.85c3.19,3.65,8.03,5.29,12.47,4.85l-1.47-14.93s.06,0,.06,0c0,0-.01,0-.02,0,0,0,.02,0,.06.03.04.03.12.08.21.19l-11.3,9.86Zm14.36-2.06c-.34-1.84-.93-4.09-2.02-6.26l-13.38,6.77c.22.44.46,1.17.65,2.19l14.75-2.71Zm-2.9,13.58c4.24-4.77,3.37-11,2.9-13.57l-14.76,2.7c.08.42.13.79.15,1.11.02.32.01.52,0,.63-.02.24-.03-.24.5-.83l11.21,9.97Zm-12.12,4.66c1.24-.05,3.21-.13,5.23-.64,2.09-.52,4.74-1.61,6.89-4.02l-11.21-9.97c.51-.57.98-.63.69-.56-.14.03-.38.08-.76.12-.39.04-.83.06-1.4.08l.56,14.99Zm-8.75-2.32c3.4,2.47,7.16,2.38,8.76,2.32l-.59-14.99c-.23,0-.37,0-.47,0-.09,0-.1,0-.04,0,.13.02.61.13,1.15.53l-8.82,12.14Zm-6.02-9.07c1.17,3.32,3.15,5.92,4.6,7.71l11.66-9.43c-1.26-1.56-1.85-2.5-2.11-3.26l-14.15,4.98Zm.57-12.23c-2.19,4.28-1.74,8.88-.57,12.22l14.15-4.98c-.05-.14-.08-.27-.1-.39-.02-.12-.03-.21-.03-.26,0-.12.02,0-.1.24l-13.35-6.83Zm3.29-4.21c-1.22,1.09-2.4,2.47-3.29,4.21l13.36,6.83c-.09.19-.17.23-.1.17l-9.97-11.21Zm-13.82,9.04c2.94,3.54,7.41,4.84,10.75,5.2,3.58.38,7.74-.1,11.4-1.91l-6.67-13.43c-.66.33-1.85.57-3.13.43-.59-.06-1-.19-1.2-.27-.23-.1.03-.05.4.41l-11.54,9.59Zm-2.76-5.93c.39,1.91,1.2,4.05,2.75,5.93l11.55-9.57c.2.24.31.45.36.56.05.11.05.15.04.09l-14.7,3Zm14.91-1.19c-.02-.42-.07-.89-.14-1.39l-14.84,2.15s0,.02,0,.09l14.98-.86Zm-.44,3.3c.33-.95.42-1.78.44-2.32.02-.51,0-.93-.01-1.01l-14.97.92c0,.06-.02-.23,0-.6.02-.41.09-1.1.38-1.93l14.16,4.94Zm-2.34,3.46c.18-.16,1.59-1.36,2.33-3.43l-14.14-5c.34-.96.82-1.64,1.15-2.05.32-.39.6-.64.64-.68l10.02,11.16Zm-10.46,2.49c3.06.73,7.14.39,10.36-2.4l-9.83-11.33c.64-.55,1.29-.79,1.75-.88.45-.09.84-.06,1.18.02l-3.47,14.59Zm.15.03s-.07-.01-.12-.03l3.42-14.61c-.11-.03-.2-.05-.27-.06l-3.02,14.69Zm-.01,0h.05s2.95-14.7,2.95-14.7h-.05s-2.95,14.7-2.95,14.7Zm.24.04h0s2.47-14.8,2.47-14.8h0l-2.47,14.8Zm-6.09-5.12c.44,1.3,1.46,3.11,3.59,4.26.78.43,1.47.62,1.77.7.17.04.3.07.37.09.07.01.13.03.14.03l2.91-14.71c-.1-.02.11.02.34.08.25.07.89.24,1.64.65.84.46,1.66,1.12,2.33,2,.62.82.94,1.59,1.1,2.06l-14.2,4.84Zm-1.11-4.89c-.05,1.7.27,5,2.76,7.63l10.89-10.32c.81.85,1.1,1.68,1.21,2.06.12.41.15.76.14,1.07l-14.99-.44Zm3.87-7.48c-2.39,1.79-3.78,4.58-3.87,7.48l14.99.44c-.05,1.57-.78,3.07-2.12,4.07l-9.01-11.99Zm5.24-2.06c-.38.06-2.99.36-5.25,2.06l9.03,11.98c-.67.51-1.27.71-1.49.77-.11.03-.17.04-.15.04.03,0,.1-.02.26-.05l-2.4-14.81Zm3.33.02c-1.75-.35-3.31-.02-3.31-.02l2.37,14.81c.15-.02-.05.01-.32.03-.31.02-.9.04-1.64-.11l2.9-14.72Zm5.94,4.34c-.53-.89-2.28-3.59-5.89-4.33l-2.99,14.7c-1.45-.3-2.46-1.01-3.03-1.53-.55-.51-.87-.99-1.01-1.23l12.92-7.61Zm1.37,3.57c-.23-1.05-.63-2.31-1.37-3.57l-12.92,7.62c-.26-.45-.35-.8-.38-.92l14.67-3.14Zm-8.17-15.42c-2.76,2.38-4.55,5.52-5.58,8.5-1.02,2.97-1.49,6.37-1,9.62l14.83-2.27c-.07-.43-.03-1.36.35-2.46.38-1.1.9-1.77,1.2-2.04l-9.8-11.36Zm25.24.71c-3.41-4.12-8.78-5.16-12.56-5.15-4.06.01-8.94,1.21-12.68,4.44l9.8,11.36c.12-.1.43-.31,1.01-.5.57-.18,1.25-.29,1.92-.29.69,0,1.18.1,1.44.19.29.1-.03.07-.47-.47l11.55-9.58Zm-3,24.83c3.54-3.27,5.34-7.87,5.93-11.82.55-3.68.37-9.02-2.93-13.01l-11.55,9.57c-.42-.51-.38-.79-.32-.41.06.32.08.89-.03,1.62-.11.72-.32,1.42-.6,2-.28.6-.55.91-.68,1.03l10.18,11.02Zm-7.44-12.7c-.38.17-.76.35-1.14.55l6.98,13.27c.09-.05.2-.1.31-.15l-6.15-13.68Zm12.3-.51c-4.79-2.08-9.51-.75-12.3.5l6.14,13.69c.21-.09.4-.16.55-.21.16-.05.25-.06.29-.06.08,0-.2.04-.65-.16l5.97-13.76Zm5.18,4.02c-1.24-1.57-2.94-3.05-5.18-4.02l-5.97,13.76c-.18-.08-.33-.18-.44-.26-.11-.09-.16-.15-.16-.15l11.75-9.32Zm-12.79,7.56v.03s13.82-5.86,13.82-5.86v-.03s-13.82,5.86-13.82,5.86Zm-.04-.09l.02.04,13.85-5.76-.02-.04-13.85,5.76Zm-1.06-7.88c-.09,1.59-.24,4.71,1.05,7.85l13.87-5.71c.08.2.06.26.04.01-.02-.26-.02-.65.02-1.33l-14.98-.83Zm2.12-8.9c-1.71,3.3-2,6.74-2.12,8.89l14.98.84c.11-1.87.31-2.55.45-2.82l-13.31-6.92Zm11.02-7.37c-5.52.22-9.29,4.04-11.02,7.37l13.31,6.92s-.05.11-.22.24c-.18.14-.68.43-1.47.47l-.6-14.99Zm6.32,1.38c-1.5-.71-3.71-1.48-6.31-1.38l.6,14.99c-.35.01-.6-.03-.7-.06-.1-.02-.1-.04,0,0l6.42-13.56Zm8.94,9.63c-1.62-4.1-4.78-7.66-8.94-9.63l-6.43,13.55c.53.25,1.12.83,1.42,1.6l13.95-5.52Zm5.83,6.04c.41,0,1.06.09,1.85.36.78.26,1.54.64,2.16,1.07.64.44.97.81,1.08.97.1.15-.17-.17-.17-.91h15c0-6.04-4.24-10.24-7.43-12.43-3.46-2.37-8.01-4.05-12.49-4.05v15Zm-.75,0c.23,0,.49,0,.75,0v-15c-.21,0-.42,0-.66,0l-.09,15Zm-1.85-.06s-.03.03-.14.08c-.1.05-.15.05-.1.04.07-.01.24-.04.6-.06.38-.02.81-.02,1.48-.01l.09-15c-2.29-.01-7.48-.28-12.01,3.83l10.07,11.12Zm-1.73,2.79c0,.46-.08.57.03.22.09-.28.24-.69.48-1.16.23-.47.5-.91.75-1.27.13-.18.24-.32.33-.43.04-.05.08-.09.11-.12.03-.03.04-.04.04-.04l-10.08-11.11c-1.99,1.8-3.54,4.2-4.57,6.26-.96,1.91-2.08,4.77-2.08,7.64h15Zm2.8,4.57c.37,0,.41.13.08-.08-.33-.21-.83-.63-1.35-1.31-.52-.67-.94-1.42-1.22-2.11-.3-.74-.31-1.11-.31-1.07h-15c0,4.49,2.12,9.09,4.69,12.39,2.51,3.23,7.02,7.18,13.11,7.18v-15Zm6.45-5.82c0-.84.27-.83-.34.19-.5.83-1.31,1.86-2.34,2.86-1.03,1.01-2.09,1.81-2.99,2.32-1.01.57-1.25.45-.78.45v15c3.19,0,6.06-1.2,8.17-2.4,2.23-1.26,4.32-2.91,6.09-4.65,1.78-1.74,3.43-3.75,4.7-5.86,1.15-1.92,2.49-4.74,2.49-7.92h-15Zm-85.42,15.13c4.16,0,7.21.73,8.93,1.63.81.42,1.07.76,1.12.82.02.03.01.02,0,0,0-.03,0,0,0,.1h15c0-6.94-4.28-11.65-9.16-14.2-4.64-2.44-10.37-3.35-15.9-3.35v15Zm-10.06,12.62c0-1.18,1.02-4.64,3.62-8.06,2.61-3.44,5.06-4.56,6.44-4.56v-15c-8.31,0-14.64,5.56-18.39,10.49-3.76,4.95-6.67,11.55-6.67,17.13h15Zm9.04,4.13c-3.67,0-6.2-.93-7.58-1.91-1.27-.89-1.46-1.66-1.46-2.22H0c0,6.2,3.23,11.25,7.81,14.48,4.46,3.15,10.21,4.66,16.23,4.66v-15Zm11.07-14.19c0,.29-.16,1.44-.96,3.35-.74,1.77-1.85,3.74-3.19,5.54-3.06,4.08-5.75,5.31-6.92,5.31v15c8.53,0,15.12-6.24,18.93-11.31,2.08-2.78,3.8-5.82,5.03-8.74,1.17-2.8,2.12-6.05,2.12-9.14h-15Zm77.19,2.13c3.62,0,7.29,1.02,9.83,2.57,2.61,1.59,2.86,2.9,2.86,3.34h15c0-7.66-4.99-13.06-10.05-16.15-5.13-3.13-11.56-4.77-17.64-4.77v15Zm-7.43,13.18c0-6.62,1.24-9.84,2.32-11.29.76-1.01,1.97-1.89,5.11-1.89v-15c-6.56,0-12.81,2.18-17.1,7.88-3.95,5.26-5.33,12.38-5.33,20.3h15Zm1.8,2.46c-.94-.46-1.33-.89-1.49-1.12-.12-.18-.31-.53-.31-1.33h-15c0,7.74,4.41,13.08,10.18,15.92l6.62-13.46Zm-9.7,13.52c1.15-.28,2.51-.21,3.88.28l5.03-14.13c-3.85-1.37-8.17-1.75-12.4-.74l3.49,14.59Zm.86-.53c-.4.32-.74.47-.88.53-.13.05-.16.05.02,0l-3.49-14.59c-.99.24-3.04.78-4.96,2.29l9.31,11.76Zm1.53-1.07c-.07-.34-.11-.63-.13-.85-.02-.23,0-.31-.01-.27,0,.04-.04.33-.24.75-.21.46-.59.99-1.16,1.45l-9.3-11.77c-2.99,2.36-3.96,5.59-4.22,7.9-.25,2.26.06,4.38.36,5.83l14.69-3.03Zm2.23,5.28c-.61-.45-1.53-1.84-2.23-5.28l-14.69,3.03c.82,3.98,2.61,10.33,8.02,14.32l8.91-12.07Zm1.92.46c-.98.03-1.63-.24-1.92-.46l-8.91,12.07c3.49,2.57,7.61,3.49,11.29,3.38l-.46-14.99Zm1.5-.38c-.14.11-.61.36-1.49.38l.44,14.99c3.27-.1,6.99-1.03,10.17-3.47l-9.12-11.91Zm-.04.35c0-.26.08-.39.08-.39,0,0,0,0-.01.02-.01.02-.03.03-.03.03l9.13,11.9c3.16-2.43,5.69-6.41,5.83-11.11l-14.99-.45Zm-.47-1.08c.3.5.41.77.45.89.03.08.03.12.03.19l14.99.45c.12-3.88-1.2-6.92-2.64-9.3l-12.83,7.77Zm-2.8-2.38c1.24.62,2.24,1.51,2.89,2.53l12.65-8.06c-2.23-3.5-5.38-6.17-8.88-7.91l-6.66,13.44Zm13.22-12.72c-3.1,0-5.58-.41-7.33-1.04l-5.13,14.1c3.88,1.41,8.21,1.95,12.46,1.95v-15Zm10.06-11.17c0,1.86-1.04,4.84-3.3,7.45-2.23,2.56-4.71,3.72-6.76,3.72v15c7.65,0,13.94-4.12,18.08-8.87,4.09-4.7,6.99-11.05,6.99-17.29h-15Zm-98.05,22.7c-.36-.47-.49-.72-.54-.83-.03-.07-.04-.11-.05-.18l-14.95,1.22c.32,3.88,1.96,6.75,3.66,8.95l11.88-9.16Zm7.8,2.11c-2.61.95-6.07.02-7.91-2.25l-11.66,9.44c5.82,7.19,16.02,10.08,24.73,6.89l-5.16-14.09Zm-.79.62c.36-.36.67-.55.81-.62.12-.07.16-.07-.02,0l5.15,14.09c.96-.35,2.93-1.12,4.66-2.85l-10.6-10.62Zm-1.39,1.21c.11.33.18.61.23.83.05.23.04.31.04.27,0-.04,0-.33.15-.76.16-.47.47-1.04.98-1.55l10.58,10.64c2.7-2.68,3.29-5.99,3.3-8.32,0-2.28-.55-4.35-1.01-5.75l-14.26,4.65Zm-2.79-4.96c.64.37,1.7,1.63,2.79,4.96l14.26-4.65c-1.26-3.85-3.75-9.97-9.58-13.32l-7.47,13.01Zm-1.95-.22c.98-.14,1.65.05,1.95.23l7.46-13.01c-3.76-2.16-7.96-2.59-11.6-2.05l2.18,14.84Zm-1.47.57c.14-.14.59-.44,1.47-.57l-2.19-14.84c-3.23.48-6.81,1.83-9.69,4.61l10.41,10.8Zm-.01-.33c.02.26-.03.4-.03.4,0,0,0,0,.01-.02.01-.02.03-.03.03-.04l-10.41-10.8c-2.87,2.77-4.94,7.01-4.55,11.7l14.95-1.23Zm15.05-10.38c-.29-.14-.43-.25-.48-.3-.04-.03.04.03.12.19l-13.46,6.61c1.8,3.67,4.83,5.79,7.26,6.98l6.57-13.48Zm-.98-.17c-.11.06-.13.06-.05.03.04-.01.09-.03.16-.04.07-.01.14-.02.21-.03.15-.01.25,0,.27,0,.01,0-.08-.01-.29-.09l-5.21,14.07c1.87.69,3.96,1.14,6.23.99,2.31-.15,4.31-.89,6.05-1.87l-7.37-13.06Zm-.86,1.16c.27-.78.74-1.09.88-1.17l7.35,13.08c2.34-1.31,4.77-3.6,5.95-6.99l-14.17-4.92Zm-.16-.08c.02.16.04.29.05.38,0,.1,0,.15,0,.17,0,.02,0-.02.01-.09.01-.08.04-.2.1-.37l14.18,4.9c.99-2.87.75-5.61.49-7.27l-14.83,2.27Zm2.71,2.43c-1.77-.72-2.48-2.01-2.62-2.3-.16-.33-.14-.42-.09-.15l14.83-2.24c-.17-1.12-.51-2.67-1.28-4.23-.75-1.52-2.29-3.81-5.23-5l-5.62,13.91Zm1.46.37c.27,0,.14,0-.05-.01-.23-.02-.75-.09-1.39-.35l5.56-13.93c-1.98-.79-3.89-.71-4.12-.71v15Zm-3.92,0h3.92v-15h-3.92v15Zm.83-1.21c-.32.41-.7.72-1.07.93-.35.2-.62.28-.71.3-.09.02-.07,0,.12,0,.19-.01.44-.02.83-.02v-15c-1.3,0-7.19-.25-10.94,4.5l11.78,9.29Zm.56-2.59c.15.3.19.54.18.79,0,.24-.09.97-.74,1.8l-11.78-9.28c-3.39,4.3-2.82,9.83-1.13,13.29l13.47-6.59Zm4.73-9.86c.04-.22.12-.41.24-.6.12-.2.4-.56.94-.89l7.89,12.76c3.34-2.07,5.09-5.48,5.66-8.4l-14.72-2.86Zm14.86,1.59s0-.02,0-.06l-15-.19c0,.53.01,1.08.07,1.66l14.93-1.4Zm.63,1.12c-.26-.32-.42-.6-.52-.82-.1-.21-.1-.31-.1-.3l-14.93,1.4c.35,3.77,2.07,6.88,3.86,9.11l11.7-9.39Zm2.16,1.46c-.45-.05-1.33-.43-2.16-1.46l-11.69,9.39c2.74,3.41,6.94,6.35,12.08,6.96l1.78-14.89Zm1.47-1.18c-.71.66-1.23.98-1.53,1.12-.24.11-.18.03.05.06l-1.76,14.9c6.1.72,10.75-2.59,13.42-5.06l-10.18-11.01Zm1.97-3.26c-.48,1.58-.6,1.82-.67,1.93,0,0-.15.3-1.22,1.26l10.02,11.16c1.62-1.46,3.05-2.96,4.18-4.9,1.06-1.83,1.62-3.68,2.05-5.1l-14.36-4.35Zm.48-1.68c-.12-.31-.06-.41-.08-.07-.03.36-.14.91-.39,1.76l14.36,4.35c.71-2.33,1.91-6.9.07-11.54l-13.95,5.51Zm-.1.23c.1.04.18.08.25.12.07.04.1.07.11.08.02.01-.13-.11-.25-.42l13.94-5.53c-1.72-4.34-5.33-6.91-8.44-8.16l-5.61,13.91Zm-3.56-.56c1.98.14,2.92.31,3.56.57l5.6-13.92c-3.04-1.22-6.1-1.47-8.08-1.61l-1.08,14.96Zm-1.88-.09c-.22.1-.26.06.08.03.38-.02.89,0,1.79.06l1.08-14.96c-1.71-.12-5.51-.45-9.19,1.23l6.24,13.64Zm-.82,2.25c.3-1.03.62-1.73.89-2.16.26-.4.28-.25-.08-.09l-6.23-13.65c-5.84,2.66-8.06,8.54-8.98,11.67l14.39,4.22Zm-.32,1.35c.04-.31.14-.74.32-1.35l-14.4-4.21c-.28.96-.59,2.15-.77,3.46l14.85,2.11Zm-15.11-1.35c.1.21.15.37.18.46.03.09.01.09.01.01l15-.35c-.06-2.55-.8-4.79-1.63-6.53l-13.56,6.41Zm.41.44c-.25-.23-.39-.43-.44-.51-.05-.07-.04-.08.02.06l13.57-6.38c-.48-1.01-1.35-2.66-2.92-4.13l-10.23,10.97Zm1.46.73c-.08,0-.22-.02-.44-.09-.22-.08-.61-.26-1.03-.66l10.27-10.93c-2.59-2.44-5.83-3.24-8.36-3.31l-.43,14.99Zm.81-.76c-.16.5-.4.67-.42.68-.02.01-.13.09-.39.08l.43-14.99c-6.02-.17-12.04,3.69-13.93,9.75l14.31,4.48Zm-.04.49c.02-.26.04-.41.05-.5.01-.08.02-.06-.01.02l-14.31-4.5c-.48,1.53-.62,2.95-.69,3.85l14.96,1.13Zm-.45-1.1c.33.63.41,1.14.43,1.32.01.15,0,.14.02-.21l-14.96-1.14c-.09,1.13-.31,4.11,1.25,7.06l13.25-7.02Zm-.95-1.25c-.28-.1-.29-.14-.14-.04.16.11.68.5,1.1,1.3l-13.26,7.01c1.98,3.75,5.58,5.25,7.22,5.84l5.08-14.11Zm-.95.94c.82-.75,1.58-.79,1.6-.79.03,0-.03,0-.17-.02-.14-.02-.3-.07-.47-.13l-5.11,14.1c1.81.66,4.04,1.13,6.4,1.03,2.37-.1,5.36-.83,7.87-3.12l-10.11-11.08Zm-5.66,38.41c3.4,2.47,7.16,2.38,8.76,2.32l-.59-14.99c-.23,0-.37,0-.47,0-.09,0-.1,0-.04,0,.13.02.61.13,1.15.53l-8.82,12.14Zm-6.02-9.07c1.17,3.32,3.16,5.93,4.6,7.72l11.66-9.43c-1.26-1.56-1.85-2.5-2.11-3.26l-14.15,4.98Zm.57-12.22c-2.19,4.28-1.74,8.88-.57,12.22l14.15-4.98c-.05-.14-.08-.27-.1-.39-.02-.12-.03-.21-.03-.26,0-.12.02,0-.1.24l-13.35-6.83Zm7.94-7.17c-2.56,1.15-5.96,3.3-7.95,7.18l13.36,6.83c-.11.21-.19.24-.07.14.13-.11.39-.28.81-.47l-6.15-13.68Zm12.3-.51c-4.79-2.08-9.51-.75-12.3.5l6.14,13.69c.21-.09.4-.16.55-.21.16-.05.25-.06.29-.06.08,0-.2.04-.65-.16l5.97-13.76Zm8.96,13.05c-.36-1.93-.99-4.35-2.22-6.64-1.25-2.32-3.34-4.94-6.74-6.41l-5.97,13.76c-.62-.27-.71-.64-.51-.25.1.18.22.47.35.87.13.4.24.87.33,1.38l14.75-2.71Zm-2.9,13.58c4.24-4.77,3.37-11,2.9-13.57l-14.76,2.7c.08.42.13.79.15,1.11.02.32.01.52,0,.63-.02.24-.03-.24.5-.83l11.21,9.97Zm-12.12,4.66c1.24-.05,3.21-.13,5.23-.64,2.09-.52,4.74-1.61,6.89-4.03l-11.21-9.97c.51-.57.98-.63.69-.56-.14.03-.38.08-.76.12-.39.04-.83.06-1.4.08l.56,14.99Zm41.35-53.62c-.74,0-.97-.24-.67-.06.26.16.69.5,1.16,1.06.46.55.84,1.18,1.09,1.77.25.61.3,1.01.3,1.19h15c0-4.95-2.28-9.46-4.88-12.58-2.41-2.88-6.66-6.39-12-6.39v15Zm-1.77,3.97c0-.2.05-.63.3-1.24.25-.6.62-1.22,1.07-1.77.46-.56.87-.89,1.11-1.04.28-.17.03.07-.71.07v-15c-5.37,0-9.6,3.53-11.98,6.43-2.58,3.14-4.79,7.63-4.79,12.54h15Zm1.44,3.97c.77,0,1.06.26.85.13-.18-.12-.55-.41-.98-.95-.41-.53-.77-1.14-1.01-1.76-.24-.62-.31-1.1-.31-1.38h-15c0,4.76,2.01,9.21,4.51,12.4,2.3,2.94,6.47,6.57,11.93,6.57v-15Zm2.22-3.97c0,.1-.03.46-.3,1.05-.26.58-.66,1.21-1.16,1.78-.51.58-.99.95-1.3,1.14-.37.22-.18,0,.53,0v15c5.26,0,9.58-3.42,12.06-6.26,2.68-3.06,5.16-7.61,5.16-12.71h-15Zm7.84,25.46c1.77-1.14,3.09-2.7,3.88-4.58.62-1.48.81-2.99.87-3.37l-14.83-2.27c-.02.16-.04.26-.05.34-.01.08-.02.1-.02.09,0-.01.05-.26.21-.62.17-.39.42-.85.8-1.29.37-.44.74-.73,1.01-.9l8.13,12.61Zm-4.18,1.74c.85-.17,2.89-.54,4.99-2.33l-9.74-11.41c.13-.11.33-.26.59-.42.27-.16.54-.29.81-.4.26-.1.46-.15.54-.17.05-.01.08-.02-.1.02l2.89,14.72Zm-.22.04s.03,0,.07-.01c.04,0,.08-.02.15-.03l-2.89-14.72c-.13.03-.39.08-.68.14l3.36,14.62Zm-5.12.06c.65.11,1.4.18,2.1.2.57.02,1.76.03,3.02-.26l-3.37-14.62c.23-.05.41-.08.52-.09.11-.01.19-.02.24-.02.08,0,.1,0,.06,0-.03,0-.08,0-.12,0-.05,0-.05,0,.01,0l-2.46,14.8Zm-5.95-3.18c.73.7,2.78,2.64,5.94,3.18l2.5-14.79c.88.15,1.47.48,1.74.65.25.16.35.27.23.16l-10.41,10.8Zm-2.66-3.8c.83,2.04,2.21,3.36,2.65,3.79l10.43-10.78c-.1-.1,0-.02.13.16.15.2.44.6.68,1.19l-13.9,5.64Zm-.61-5.56c-.16,1.11-.33,3.25.61,5.57l13.89-5.66c.27.66.34,1.22.36,1.57.02.34-.01.56-.02.61l-14.85-2.1Zm8.07-10.33c-4.96,1.81-7.52,6.4-8.07,10.34l14.86,2.07c-.03.24-.11.47-.29.71-.18.25-.6.7-1.36.98l-5.13-14.1Zm14.21,6.12c-2.47-6.04-9.27-7.92-14.22-6.12l5.14,14.09c-.98.36-1.87.26-2.55,0-.7-.27-1.7-.95-2.25-2.29l13.88-5.68Zm.12.29c-.06-.13-.09-.22-.12-.29l-13.88,5.7c.07.17.14.33.19.45l13.81-5.85Zm1.09,6.68c.52-3.37-.9-6.23-1.09-6.68l-13.81,5.85c.1.23.14.33.17.41.03.07,0,.03-.02-.08-.06-.23-.21-.89-.07-1.77l14.83,2.27ZM21.67,37.89c.08-.25.2-.37.28-.44.08-.07.26-.19.58-.24l2.28,14.83c5.12-.79,9.41-4.49,11.06-9.31l-14.2-4.84Zm.17,3.55c-.42-1.11-.42-2.06-.36-2.62.05-.53.17-.88.19-.93l14.2,4.82c.28-.82,1.16-3.53,0-6.58l-14.03,5.3Zm1.68,2.39c.1.07-.13-.08-.42-.38-.32-.33-.87-.98-1.26-2l14.02-5.32c-1.04-2.75-3.2-4.2-3.55-4.45l-8.79,12.16Zm1.77.14c-.91.11-1.56-.1-1.79-.18-.2-.08-.21-.12.02.05l8.78-12.16c-1.36-.98-4.6-3.11-8.83-2.59l1.82,14.89Zm1.55-.52c.11-.1.05-.03-.15.08-.21.12-.69.35-1.39.44l-1.84-14.89c-3.28.41-5.57,2.23-6.71,3.26l10.08,11.1Zm-.85,1.19c.2-.46.5-.88.85-1.19l-10.09-11.1c-1.93,1.75-3.47,3.91-4.51,6.28l13.74,6.02Zm.44-2.55c.03.87-.12,1.56-.24,1.97-.11.38-.23.63-.21.59l-13.73-6.04c-.11.24-.88,1.87-.81,3.98l14.99-.5Zm-.83-2.94c.07.11.25.42.42.88.18.47.38,1.17.41,2.06l-14.99.51c.07,2.18.98,3.75,1.31,4.28l12.86-7.73Zm-3.92-1.77c.96-.26,1.59-.11,1.89,0,.26.09,1.28.48,2.06,1.81l-12.91,7.64c1.59,2.69,4.09,4.09,6.02,4.75,1.96.67,4.43.94,6.9.27l-3.97-14.47Zm33.88.04c0-4.82-2.66-8.58-5.75-10.85-3.09-2.28-6.99-3.46-10.98-3.46v15c1.11,0,1.82.34,2.07.53.11.08.04.06-.07-.14-.13-.23-.27-.6-.27-1.08h15Zm-19.31,15.91c4.53,0,8.97-1.93,12.14-4.16,1.65-1.17,3.29-2.64,4.59-4.4,1.24-1.69,2.58-4.22,2.58-7.34h-15c0-1.24.51-1.78.33-1.54-.12.17-.48.56-1.14,1.02-.64.45-1.37.84-2.08,1.1-.74.27-1.22.32-1.41.32v15Zm-14.16-15.91c0,2.72.53,6.37,2.57,9.61,2.31,3.66,6.29,6.29,11.59,6.29v-15c-.07,0-.03,0,.09.02.12.03.28.09.44.18.36.2.53.44.57.51.02.04-.06-.08-.14-.43-.08-.33-.13-.75-.13-1.19h-15Zm16.73-14.32c-3.99,0-7.89,1.18-10.98,3.46-3.09,2.28-5.75,6.03-5.75,10.85h15c0,.47-.14.85-.27,1.07-.12.2-.19.22-.08.14.25-.19.96-.53,2.07-.53v-15Zm8.58,65.67c-.56-.45-3.92-3.32-8.51-2.22l3.47,14.59c-1.67.4-3,0-3.62-.28-.32-.14-.54-.27-.65-.34-.06-.04-.1-.07-.13-.09-.01-.01-.02-.02-.03-.02,0,0,0,0,0,0l9.47-11.63Zm4.55,11.14c.49-4.37-1.18-8.39-4.54-11.13l-9.49,11.62c-.15-.12-.46-.44-.68-.97-.22-.54-.22-.98-.2-1.18l14.91,1.67Zm-4.54,8.5c4.24-2.9,4.48-7.89,4.54-8.49l-14.9-1.69c-.03.27-.05.38-.06.44,0,.05,0-.06.08-.27.16-.46.65-1.53,1.87-2.36l8.47,12.38Zm-6.96,2.39c1.97-.18,4.55-.74,6.96-2.39l-8.47-12.38c.22-.15.38-.2.4-.21.01,0,0,0-.04,0-.04,0-.1.02-.19.02l1.34,14.94Zm-7.53-1.93c3.03,2.28,6.41,2.03,7.51,1.93l-1.31-14.94c-.1,0,.14-.03.56.04.45.07,1.33.29,2.24.97l-9,12Zm-3.65-5.3c.38,1.2,1.31,3.56,3.66,5.31l8.98-12.02c.7.52,1.11,1.09,1.33,1.45.21.36.3.62.32.69l-14.29,4.56Zm.88-10.38c-1.71,3.26-1.94,7.05-.88,10.38l14.29-4.55c.06.19.07.36.06.51-.01.16-.06.37-.19.63l-13.28-6.97Zm8.95-6.68c-3.52.73-7.08,3.12-8.95,6.68l13.28,6.97c-.26.49-.53.7-.61.76-.09.07-.28.19-.67.27l-3.05-14.69Zm18.83-22.83c4.97-2,7.56-6.59,8.69-10.08,1.17-3.6,1.55-8.22-.02-12.3l-13.99,5.41c-.04-.09.05.1.04.62-.01.49-.1,1.07-.28,1.62-.18.56-.4.92-.52,1.08-.13.17,0-.06.48-.26l5.6,13.91Zm-21.8-6.38c2.26,5.82,7.69,7.6,11.3,7.97,3.71.37,7.54-.39,10.5-1.59l-5.61-13.91c-.5.2-1.13.38-1.79.49-.67.11-1.23.12-1.6.08-.4-.04-.34-.11-.03.08.41.24.93.75,1.21,1.46l-13.99,5.42Zm8.82-24.03c-2.88,1.16-4.84,3.28-6.08,5.12-1.28,1.89-2.17,4-2.76,6-1.08,3.67-1.61,8.71.02,12.91l13.99-5.42c.09.22-.04,0-.02-.81.02-.73.15-1.61.41-2.46.26-.87.56-1.49.78-1.81.26-.38.1.05-.73.38l-5.6-13.91Zm21.65,8.03c-1.93-4.98-6.31-7.52-9.93-8.55-3.67-1.04-7.96-1-11.72.52l5.6,13.91c.11-.05.39-.13.82-.14.42-.02.85.04,1.2.14.36.1.5.21.48.2-.04-.03-.28-.24-.45-.67l13.99-5.41Zm-7.96,43.86c3.04-2.48,3.89-6.1,4.16-7.41l-14.68-3.07c-.05.22-.08.26-.03.16.03-.06.11-.22.26-.44.15-.22.41-.54.81-.86l9.48,11.62Zm-10.44,1.27c2.51,1.01,6.13,1.38,9.51-.62l-7.62-12.92c1.6-.94,3.05-.64,3.71-.38l-5.6,13.92Zm-4.93-3.4c.91.9,2.58,2.46,4.95,3.41l5.56-13.93c.15.06.27.12.34.16.07.04.1.07.1.06,0,0-.04-.03-.11-.09-.07-.06-.15-.14-.26-.25l-10.58,10.64Zm-3.31-5.56c.73,3.03,2.69,4.94,3.31,5.56l10.57-10.64c-.19-.19-.1-.12.04.08.17.23.48.75.66,1.51l-14.59,3.49Zm.09-5.45c-.28,1.12-.65,3.15-.09,5.46l14.58-3.51c.14.57.14,1.02.12,1.26-.01.24-.05.37-.05.36l-14.57-3.57Zm3.41-6.04c-2.16,2.01-3.03,4.49-3.41,6.04l14.57,3.58s-.02.09-.12.3c-.11.21-.35.63-.83,1.07l-10.21-10.99Zm7.87-2.82c-2.51-.12-5.49.61-7.88,2.83l10.22,10.98c-1.06.99-2.26,1.21-3.08,1.17l.73-14.98Zm5.76,1.76c-1.32-.75-3.31-1.64-5.76-1.76l-.73,14.98c-.39-.02-.68-.1-.82-.15-.14-.05-.19-.08-.13-.05l7.44-13.02Zm4.44,4.23c-1.37-2.31-3.29-3.58-4.46-4.25l-7.4,13.05s-.06-.03-.25-.19c-.2-.17-.5-.48-.79-.96l12.9-7.65Zm1.28,8.61c.47-2.24.54-5.53-1.27-8.6l-12.91,7.64c-.38-.64-.49-1.2-.52-1.5-.03-.3,0-.51.02-.61l14.68,3.07Zm-18.57,34.82c.33.83.39,1.94.08,2.99l14.38,4.28c1.21-4.07,1.13-8.62-.49-12.76l-13.96,5.49Zm-1.5-1.72c.55.26,1.17.88,1.5,1.72l13.96-5.49c-1.62-4.13-4.79-7.75-8.99-9.76l-6.48,13.53Zm.69.05c-.35.01-.59-.04-.69-.06-.1-.02-.1-.03,0,.01l6.46-13.54c-1.52-.72-3.74-1.51-6.37-1.4l.59,14.99Zm1.65-.65s-.03.07-.19.19c-.17.13-.66.43-1.45.46l-.61-14.99c-5.57.23-9.36,4.12-11.08,7.46l13.33,6.87Zm-.48,2.96c.1-1.91.32-2.64.48-2.96l-13.34-6.86c-1.71,3.33-2,6.8-2.12,9l14.98.82Zm-.04,1.44c.07.18.05.21.03-.05-.02-.29-.02-.69.02-1.4l-14.98-.81c-.09,1.61-.24,4.76,1.05,7.92l13.89-5.66Zm-.54-.66c.05,0,.06,0,.04,0-.02,0-.03,0-.01,0,.01,0,.3.17.51.67l-13.89,5.66c2.61,6.4,9.3,9.15,14.83,8.61l-1.48-14.93Zm.44,1.12c.1-.28.31-.63.61-.94.29-.29.54-.42.61-.45.05-.02-.04.02-.35.09-.31.07-.73.13-1.3.18l1.45,14.93c2.66-.26,10.29-1.08,13.06-8.62l-14.08-5.18Zm9.73-12.84c-.28.07-.5.13-.64.17l4,14.46c.12-.04.21-.06.32-.08l-3.69-14.54Zm2.71-1.56s-.23.27-.86.62c-.68.38-1.51.73-2.79,1.24l5.56,13.93c2.18-.87,6.79-2.58,9.9-6.56l-11.81-9.24Zm-.35,1.02c.06-.39.17-.67.24-.82.07-.15.13-.22.12-.21l11.81,9.25c1.1-1.4,2.3-3.45,2.68-6.05l-14.84-2.17Zm0,.73s0,0,0,0c0,0,0-.02,0-.03,0-.03,0-.07-.01-.13,0-.12,0-.31.03-.56l14.84,2.18c.26-1.77.08-3.36-.18-4.59l-14.67,3.14Zm.8.65c-.45-.19-.67-.44-.73-.52-.06-.08-.07-.11-.07-.13l14.67-3.12c-.83-3.88-3.44-8.1-8.04-10.04l-5.83,13.82Zm-1.12.57c.38-.14.7-.24.98-.31.28-.07.47-.11.59-.12.24-.03,0,.04-.44-.14l5.83-13.82c-4.91-2.07-9.72-.55-12.03.28l5.08,14.11Zm.18-.5c-.38.51-.75.72-.79.75-.02.01,0,0,.12-.05.11-.05.26-.11.49-.19l-5.08-14.12c-1.26.45-4.48,1.6-6.73,4.59l11.99,9.02Zm.29.21c.02-.16.04-.29.06-.42.02-.12.03-.23.05-.32.03-.18.05-.27.06-.29,0-.02-.01.06-.08.2-.06.15-.18.37-.37.62l-11.99-9.01c-2.18,2.9-2.48,6.35-2.6,7.33l14.88,1.89Zm-.17-.22c.06.24.08.43.09.57.01.13,0,.21,0,.23,0,.01,0-.02.01-.12,0-.05.01-.11.02-.18,0-.08.02-.16.03-.26l-14.88-1.91c-.08.62-.44,2.87.14,5.26l14.57-3.58Zm-.19-.59c-.07-.12-.07-.12-.03-.04.04.08.13.29.21.61l-14.56,3.61c.42,1.69,1.18,3,1.6,3.68l12.78-7.86Zm.77,1.02c-.29-.32-.55-.67-.77-1.03l-12.76,7.88c.72,1.16,1.54,2.25,2.44,3.24l11.09-10.09Zm-1.31-.85c.58.26.96.55,1.15.7.18.15.25.24.17.15l-11.1,10.09c.45.5,1.72,1.9,3.73,2.78l6.05-13.72Zm-1.6-.4c-.11,0,.03,0,.28.03.26.03.74.12,1.32.38l-6.04,13.73c2.02.89,3.9.88,4.6.87l-.16-15Zm-.63.09c-.06.02-.09.02-.1.03-.02,0,0,0,.03,0,.07-.02.21-.05.38-.07.33-.05.52-.04.31-.04l.19,15c.48,0,1.09-.03,1.79-.13.69-.11,1.26-.27,1.42-.32l-4-14.46Zm61.36-18.79c.08-.25.2-.37.28-.44.08-.07.25-.19.58-.24l2.28,14.83c5.12-.79,9.41-4.49,11.06-9.31l-14.2-4.84Zm.17,3.55c-.42-1.11-.42-2.06-.36-2.62.05-.53.17-.88.19-.93l14.2,4.82c.28-.82,1.16-3.53,0-6.58l-14.03,5.3Zm1.69,2.39c.1.07-.13-.08-.42-.38-.32-.33-.87-.98-1.26-2l14.02-5.32c-1.04-2.75-3.2-4.2-3.55-4.45l-8.79,12.16Zm1.77.14c-.91.11-1.56-.1-1.79-.18-.2-.08-.21-.12.02.05l8.78-12.16c-1.36-.98-4.6-3.11-8.83-2.59l1.82,14.89Zm1.55-.52c.1-.1.05-.03-.15.08-.21.12-.69.35-1.39.44l-1.84-14.89c-3.28.41-5.57,2.23-6.71,3.26l10.08,11.1Zm-.85,1.19c.2-.46.5-.88.85-1.19l-10.08-11.1c-1.93,1.75-3.47,3.91-4.51,6.28l13.74,6.02Zm.44-2.55c.03.87-.12,1.56-.24,1.97-.11.38-.23.63-.21.59l-13.73-6.04c-.11.24-.88,1.87-.81,3.98l14.99-.5Zm-.83-2.94c.07.11.25.42.42.88.18.47.38,1.17.41,2.06l-14.99.51c.07,2.18.98,3.75,1.31,4.28l12.86-7.73Zm-3.92-1.76c.96-.26,1.59-.11,1.89,0,.27.09,1.27.48,2.06,1.8l-12.89,7.66c1.59,2.68,4.09,4.08,6.02,4.74,1.96.67,4.43.94,6.9.27l-3.97-14.47Zm7.3,12.72c-.06-.25-.29-1.19-.7-2.16-.41-.98-1.28-2.63-3.03-3.96l-9.05,11.96c-1.16-.88-1.61-1.88-1.73-2.14-.11-.26-.14-.43-.03,0l14.54-3.7Zm.02.09l-.03-.1-14.53,3.71.02.1,14.53-3.71Zm-2.39,9.16c3.02-3.02,2.95-6.93,2.4-9.14l-14.55,3.66c-.15-.6-.21-1.31-.06-2.12.15-.82.58-1.98,1.61-3.02l10.6,10.62Zm-4.97,2.63c.24-.06,2.87-.55,4.95-2.61l-10.56-10.66c.74-.73,1.47-1.08,1.82-1.21.3-.12.5-.16.23-.09l3.56,14.57Zm-4.21.27c2.13.32,3.98-.21,4.22-.27l-3.59-14.56c-.22.06-.1.02.11-.01.24-.03.79-.09,1.51.02l-2.26,14.83Zm-4.9-2.33c1.11.98,2.75,2,4.88,2.33l2.29-14.82c1.35.21,2.27.82,2.78,1.28l-9.95,11.22Zm-1.44-13.76c-3.08,4.19-2.49,10.27,1.44,13.76l9.96-11.21c1.1.98,1.52,2.16,1.61,3.06.09.9-.07,2.12-.93,3.29l-12.08-8.89Zm13.77-2.45c-4.49-2.97-10.62-1.82-13.77,2.45l12.08,8.89c-.87,1.18-2.04,1.74-3.03,1.92-.99.18-2.3.07-3.56-.76l8.28-12.51ZM52.75,48.07c-.25,2.51,0,5.81,2.49,8.9l11.68-9.41c.28.35.55.85.68,1.43.11.49.06.76.08.57l-14.93-1.49Zm1.67-4.56c-1.27,1.78-1.57,3.6-1.67,4.57l14.93,1.46c-.03.29-.16,1.43-1.04,2.66l-12.22-8.7Zm7.39-3.81c-2.14.03-5.31.87-7.4,3.81l12.23,8.69c-1.47,2.07-3.53,2.48-4.6,2.5l-.23-15Zm4.47.9c-.71-.28-2.38-.93-4.47-.9l.23,15c-.55,0-.96-.08-1.17-.13-.2-.05-.29-.09-.19-.05l5.6-13.92Zm4.8,3.11c-1.63-1.66-3.48-2.58-4.78-3.11l-5.63,13.9c.14.06.17.08.12.05-.05-.03-.21-.14-.42-.34l10.71-10.5Zm3.23,7.49c-.06-3.25-1.61-5.85-3.25-7.51l-10.66,10.55c-.39-.39-1.05-1.29-1.08-2.76l15-.28Zm-9.02,10.41c5.21-.64,9.13-5.24,9.02-10.42l-15,.3c-.03-1.38.5-2.47,1.12-3.18.62-.71,1.63-1.42,3.03-1.59l1.82,14.89Zm-10.35-5.04c1.49,2.12,4.86,5.71,10.35,5.04l-1.82-14.89c.51-.06,1.07-.04,1.65.09.57.13,1.04.35,1.39.57.64.39.84.76.71.57l-12.28,8.62Zm31.2,33.6c4.97-2,7.56-6.59,8.69-10.08,1.17-3.6,1.55-8.22-.02-12.3l-13.99,5.41c-.04-.09.05.1.04.62-.01.49-.1,1.07-.28,1.62-.18.56-.4.92-.52,1.08-.13.17,0-.06.48-.26l5.6,13.91Zm-21.8-6.38c2.26,5.83,7.69,7.61,11.31,7.97,3.71.37,7.54-.4,10.5-1.59l-5.62-13.91c-.5.2-1.13.38-1.79.49-.67.11-1.23.12-1.6.08-.4-.04-.34-.11-.02.08.42.25.94.75,1.21,1.46l-13.99,5.41Zm8.82-24.03c-2.88,1.16-4.84,3.28-6.08,5.12-1.28,1.89-2.17,4-2.76,6-1.08,3.67-1.61,8.71.02,12.91l13.99-5.42c.09.22-.04,0-.02-.81.02-.73.15-1.61.4-2.46.26-.87.56-1.49.78-1.81.26-.38.1.05-.73.38l-5.6-13.91Zm21.65,8.02c-1.93-4.98-6.3-7.51-9.93-8.54-3.67-1.04-7.96-1-11.72.52l5.6,13.91c.11-.05.39-.13.82-.14.42-.01.85.04,1.2.14.36.1.5.21.48.2-.04-.03-.28-.24-.44-.67l13.99-5.42Zm-11.83-8.09c-.36-.55-.64-1.17-.82-1.82l-14.47,3.94c.59,2.16,1.52,4.23,2.75,6.11l12.54-8.23Zm-2.29-1.28c1.11.27,1.79.81,2.07,1.07.26.24.33.38.22.22l-12.54,8.23c.68,1.04,2.77,4.12,6.74,5.07l3.5-14.59Zm-2.81.19s.23-.13.64-.22c.42-.1,1.2-.2,2.16.03l-3.48,14.59c3.5.83,6.4-.45,7.73-1.16l-7.04-13.24Zm-1.59,1.4c.45-.57.9-.93,1.17-1.13.26-.19.45-.29.42-.27l7.04,13.24c.42-.22,1.94-1.01,3.18-2.6l-11.81-9.25Zm-1.15,2.64c.02-.17.07-.51.22-.94.15-.44.42-1.06.93-1.7l11.81,9.25c1.44-1.84,1.81-3.79,1.93-4.8l-14.89-1.81Zm-.11,1c.11.11.18.21.23.28.05.07.05.08.03.04-.04-.09-.24-.58-.14-1.34l14.88,1.86c.64-5.14-2.19-9.08-3.98-11.02l-11.01,10.18Zm1.25.81c-.56-.25-.94-.54-1.11-.69-.16-.14-.23-.22-.13-.11l11-10.2c-.41-.44-1.65-1.8-3.59-2.68l-6.17,13.67Zm3.94.04c-.38.19-.88.35-1.51.4-.63.05-1.51-.02-2.46-.45l6.22-13.65c-3.38-1.54-6.71-.81-8.81.22l6.56,13.49Zm2.03-3.03c-.33,1.51-1.15,2.34-1.42,2.59-.3.28-.53.39-.6.43l-6.58-13.48c-.83.41-1.95,1.06-3.01,2.05-1.03.96-2.48,2.66-3.04,5.19l14.65,3.22Zm20.65-39.94c.14-.1.37-.25.69-.38.33-.13.68-.21,1.01-.23l1.13,14.96c2.44-.18,4.5-1.09,6.15-2.33l-8.98-12.02Zm.04.11c.11-.15.21-.26.27-.33.07-.07.11-.1.11-.1,0,0,0,0-.02.02-.02.01-.04.03-.08.06-.04.03-.08.06-.13.1-.06.04-.11.09-.19.14l8.98,12.02c.41-.31,1.93-1.37,3.12-2.99l-12.06-8.92Zm-.76,4c-.23-1.06-.11-1.96.08-2.59.18-.62.45-1.09.71-1.44l12.01,8.98c1.26-1.69,2.62-4.61,1.87-8.1l-14.67,3.15Zm1.4,2.62c.3.2.13.12-.13-.15-.3-.31-.99-1.13-1.27-2.47l14.67-3.15c-.91-4.24-4.42-6.36-4.95-6.71l-8.32,12.48Zm2.88,1.01c.27.01-.18,0-.71-.1-.69-.14-1.45-.43-2.16-.9l8.31-12.49c-2.23-1.48-4.46-1.48-4.76-1.49l-.68,14.98Zm-1.44-.15c.7.12,1.31.14,1.44.15l.68-14.98s-.03,0-.04,0c-.01,0-.01,0-.01,0,0,0,.02,0,.06,0,.08,0,.22.02.4.05l-2.52,14.79Zm3.89-.78c.12-.12.03,0-.3.2-.24.14-1.6.93-3.62.57l2.57-14.78c-3.03-.53-5.44.6-6.65,1.33-1.3.78-2.28,1.71-2.88,2.34l10.87,10.34Zm.57-4.01c.1.33.2.87.16,1.55-.04.7-.21,1.33-.44,1.84-.21.47-.43.75-.47.82-.04.05-.02.02.19-.2l-10.88-10.33c-.47.49-1.72,1.79-2.53,3.6-1.01,2.26-1.08,4.65-.43,6.9l14.4-4.19Zm-4.79-3.43c.58-.04,1.66.06,2.79.8,1.18.78,1.77,1.85,2,2.63l-14.41,4.18c.63,2.18,1.97,4.28,4.14,5.71,2.12,1.4,4.44,1.78,6.42,1.65l-.94-14.97Zm-.97,80.74c.16-.12.36-.25.62-.38.26-.13.51-.23.74-.3.42-.13.68-.14.45-.12l1.64,14.91c1.28-.14,3.34-.47,5.47-2.05l-8.91-12.06Zm.02-.02h-.01s8.89,12.09,8.89,12.09h.01s-8.89-12.09-8.89-12.09Zm.01,0h0s8.87,12.1,8.87,12.1h0s-8.87-12.1-8.87-12.1Zm.03-.02h0s8.82,12.13,8.82,12.13h0s-8.82-12.13-8.82-12.13Zm1.74-1.28c-.6.44-1.19.87-1.77,1.31l8.9,12.08c.59-.43,1.17-.86,1.75-1.29l-8.87-12.1Zm-1.57,2.47c-.01.09.06-.47.47-1.19.44-.77.96-1.19,1.09-1.28l8.89,12.08c1.03-.75,2.16-1.81,3.03-3.33.85-1.47,1.17-2.89,1.33-3.9l-14.81-2.38Zm1.67,3.69c-.94-.77-1.4-1.73-1.58-2.43-.16-.64-.12-1.09-.09-1.26l14.81,2.4c.4-2.49.28-7.08-3.61-10.28l-9.53,11.58Zm-1.51-.59c.55.03,1.11.26,1.52.59l9.51-11.6c-2.86-2.34-6.42-3.74-10.1-3.97l-.94,14.97Zm1.9-.43c-.67.29-1.23.38-1.53.41-.29.03-.45.01-.36.02l.92-14.97c-.76-.05-2.85-.16-5.08.82l6.05,13.73Zm1.52-1.04s-.13.15-.36.33c-.23.19-.61.46-1.15.7l-6.06-13.72c-1.85.82-3.04,2.05-3.6,2.68l11.18,10Zm.24-1.21c.06.43-.01.75-.07.91-.06.16-.12.25-.18.32l-11.15-10.03c-2.36,2.63-4.03,6.51-3.47,10.77l14.87-1.97Zm-2.03-2.29c.75.24,1.23.67,1.5,1.02.27.34.46.77.53,1.29l-14.87,1.94c.55,4.24,3.48,8.49,8.21,10.02l4.63-14.27Zm.33-.12c-.25.01-.42.02-.56.02-.14,0-.21,0-.24,0-.03,0,.01,0,.1.01.09.01.24.05.43.11l-4.71,14.24c2.43.8,4.81.64,5.58.61l-.58-14.99Zm-39.56-32.26c-4.89.54-8.96,3.64-10.78,4.93l8.67,12.24c1.2-.85,2.02-1.42,2.78-1.84.74-.41,1.02-.43.96-.42l-1.63-14.91Zm9.46,5.19c-.63-1.01-1.52-2.1-2.64-3.02-.92-.75-3.17-2.35-6.32-2.21l.64,14.99c-1.24.05-2.18-.26-2.72-.5-.54-.24-.9-.5-1.07-.65-.32-.26-.5-.49-.64-.72l12.76-7.89Zm1.85,4.43c-.26-.88-.77-2.68-1.85-4.42l-12.77,7.87c-.08-.13-.08-.17-.03-.03.05.15.12.36.24.77l14.4-4.19Zm.7,3c-.19-1.21-.5-2.29-.7-3l-14.4,4.19c.19.65.26.94.29,1.14l14.82-2.33Zm-2.81,13.09c1.94-3.34,3.6-7.99,2.81-13.07l-14.82,2.3c.08.54-.05,1.68-.95,3.23l12.97,7.54Zm-3.14,4.35c1.19-1.34,2.25-2.8,3.15-4.35l-12.98-7.53c-.4.68-.86,1.32-1.38,1.91l11.2,9.97Zm-8.52,4.83c4.43-.5,7.29-3.45,8.52-4.83l-11.2-9.97c-.13.15-.23.25-.3.31-.07.06-.08.07-.03.03.08-.06.55-.36,1.34-.45l1.68,14.91Zm-12.27-7.07c1.73,3.38,6.04,7.78,12.28,7.07l-1.68-14.9c1.16-.13,1.96.27,2.28.49.3.2.42.38.49.52l-13.36,6.83Zm-2.05-8.72c.14,1.76.34,5.38,2.05,8.72l13.36-6.83s-.11-.24-.21-.78c-.1-.58-.17-1.25-.25-2.3l-14.95,1.18Zm-.17-2.2l.17,2.2,14.95-1.18-.17-2.2-14.95,1.18Zm.59-5.61c-.94,2.56-.64,5.05-.59,5.62l14.95-1.21c-.02-.2-.02-.3-.03-.38,0-.07,0-.07,0-.01,0,.1-.02.56-.25,1.17l-14.08-5.18Zm4.81-5.81c-.79.55-3.55,2.4-4.81,5.8l14.07,5.2c-.3.81-.73,1.28-.87,1.43-.07.07-.11.1-.07.07.04-.03.12-.09.27-.2l-8.59-12.3Zm.76-.54c-.27.19-.52.37-.76.54l8.59,12.3c.29-.2.58-.4.84-.59l-8.67-12.24Zm28.55,12.4c-.05.22-.08.26-.03.16.03-.06.11-.22.26-.44.15-.22.41-.54.81-.86l9.48,11.62c3.04-2.48,3.89-6.1,4.16-7.41l-14.68-3.07Zm.5,2.11c-.38-.64-.49-1.2-.52-1.5-.03-.3,0-.51.02-.61l14.68,3.07c.47-2.24.54-5.53-1.27-8.6l-12.91,7.64Zm1.04,1.16s-.06-.03-.25-.19c-.2-.17-.5-.48-.79-.96l12.9-7.65c-1.37-2.31-3.29-3.58-4.46-4.25l-7.4,13.05Zm.93.19c-.39-.02-.68-.1-.82-.15-.14-.05-.19-.08-.13-.05l7.44-13.02c-1.32-.75-3.31-1.64-5.76-1.76l-.73,14.98Zm3.08-1.17c-1.06.99-2.26,1.21-3.08,1.17l.73-14.98c-2.51-.12-5.49.61-7.88,2.83l10.22,10.98Zm.94-1.37s-.02.09-.12.3c-.11.21-.35.63-.83,1.07l-10.21-10.99c-2.16,2.01-3.03,4.49-3.41,6.04l14.57,3.58Zm-.07-1.62c.14.57.14,1.02.12,1.26-.01.24-.05.37-.05.36l-14.57-3.57c-.28,1.12-.64,3.15-.09,5.46l14.58-3.51Zm-.7-1.58c-.19-.19-.1-.12.04.08.17.23.48.75.66,1.51l-14.59,3.49c.73,3.03,2.69,4.94,3.31,5.56l10.57-10.64Zm-.06.12c.15.06.27.12.34.16.07.04.1.07.1.06,0,0-.04-.03-.11-.09-.07-.06-.15-.14-.26-.25l-10.58,10.64c.91.9,2.58,2.46,4.95,3.41l5.56-13.93Zm-3.69.39c1.6-.94,3.05-.64,3.71-.38l-5.6,13.92c2.51,1.01,6.13,1.38,9.51-.62l-7.62-12.92Zm5.43,1.74c-3.55-3.29-8.33-5.1-12.45-5.73-2.12-.32-4.44-.39-6.68,0-2.12.38-5,1.34-7.18,3.8l11.2,9.98c-.9,1.02-1.73,1.06-1.37.99.24-.04.85-.08,1.76.06.88.13,1.82.4,2.68.78.87.38,1.48.8,1.84,1.13l10.2-11Zm6.26,13.72c-.07-4.8-2.15-9.91-6.26-13.72l-10.2,11c1.07.99,1.44,2.19,1.46,2.94l15-.22Zm-12.7-6.84c-1,1.63-1.72,3.47-2.13,5.34l14.65,3.22c.08-.35.2-.6.27-.72l-12.79-7.84Zm3.22-3.42c-1.87,1.21-2.89,2.88-3.22,3.42l12.79,7.84c.03-.06-.04.07-.21.27-.16.19-.55.63-1.21,1.06l-8.15-12.59Zm6.06-1.44c-.93-.08-3.54-.23-6.11,1.47l8.25,12.53c-1.73,1.14-3.38.95-3.39.95l1.25-14.95Zm10.09,5.51c-2.4-2.89-5.9-5.15-10.09-5.51l-1.25,14.95c-.28-.02-.43-.1-.46-.12-.02,0,.09.05.26.25l11.54-9.58Zm2.49,9.78c.24-2.09.35-6.36-2.48-9.77l-11.56,9.56c-.36-.44-.56-.84-.68-1.11-.11-.27-.15-.47-.16-.55-.02-.14,0-.09-.02.14l14.9,1.73Zm-3.15,7.22c2.21-2.39,2.88-4.88,3.15-7.22l-14.9-1.73c-.05.41-.06.21.1-.19.09-.22.2-.44.34-.65.13-.2.24-.33.29-.38l11.02,10.17Zm-1.52,1.65l1.52-1.65-11.03-10.17-1.52,1.65,11.03,10.17Zm-5.81,3.1c.54-.09,1.59-.29,2.76-.84,1.26-.59,2.25-1.39,3.05-2.25l-11.01-10.18c.3-.33.83-.79,1.59-1.14.66-.31,1.17-.38,1.07-.36l2.54,14.78Zm-6.94-.86c2.8,1.3,5.6.99,6.14.96l-.93-14.97c-.22.01-.32.02-.39.02-.06,0-.02,0,.07,0,.21.01.76.07,1.44.39l-6.34,13.6Zm-6.91-11c.17,1.99.72,4.03,1.69,5.86.92,1.74,2.55,3.89,5.21,5.13l6.38-13.58c.64.3,1.06.67,1.29.92.23.25.34.43.38.51.06.12.02.07,0-.08l-14.95,1.25Zm-.06-1.36c0,.45.02.91.06,1.37l14.95-1.27s0-.09,0-.15l-15,.05Zm11.79,7.57c1.56-1.76,2.5-3.81,2.99-5.8l-14.56-3.59s.04-.22.36-.58l11.21,9.97Zm-27.85.4c4.33,4.01,10.4,4.8,14.62,4.65,2.31-.08,4.65-.45,6.76-1.13,1.91-.61,4.53-1.74,6.47-3.92l-11.2-9.98c.21-.23.39-.38.49-.46.05-.04.1-.07.12-.09.03-.02.04-.03.04-.03,0,0-.04.02-.12.06-.09.04-.2.08-.36.13-.66.21-1.62.39-2.74.43-1.11.04-2.13-.07-2.92-.28-.82-.22-1.05-.44-.98-.38l-10.2,11Zm-1.26-25.96c-2.94,3.3-4.07,8.21-4.12,12.19-.05,4.16,1.05,9.76,5.38,13.77l10.2-11s-.6-.74-.58-2.59c0-.81.14-1.56.31-2.12.2-.65.33-.63.01-.28l-11.2-9.98Zm20.31,30.22c1-.28,2.05-.2,2.82.12l5.75-13.86c-4.06-1.68-8.56-1.84-12.61-.71l4.04,14.45Zm1.64.2c.07-.57.13-.97.2-1.27.07-.3.11-.38.09-.32-.04.07-.17.33-.48.62-.33.31-.69.52-.99.62l-4.94-14.16c-7.53,2.63-8.48,10.19-8.78,12.78l14.9,1.73Zm-.72-.66c.52.22.7.54.72.57.01.03.01.03,0,.02,0,0,0,.02,0,.08l-14.9-1.75c-.64,5.46,1.96,12.16,8.25,14.86l5.92-13.78Zm1.34-.03c-.68.03-1.07.02-1.34,0-.25-.02-.2-.05,0,.04l-5.93,13.78c3.11,1.34,6.23,1.24,7.82,1.18l-.56-14.99Zm2.84-.4c-.28.14-.97.33-2.84.4l.55,14.99c2.17-.08,5.61-.3,8.94-1.95l-6.66-13.44Zm-.74,1.7c.05-.81.36-1.31.5-1.49.13-.17.22-.21.24-.22l6.66,13.44c3.34-1.65,7.26-5.34,7.58-10.86l-14.97-.88Zm.05.74c.04.09.03.08,0-.02-.03-.11-.07-.35-.05-.71l14.98.86c.15-2.6-.58-4.81-1.27-6.33l-13.66,6.2Zm-1.57-1.43c.78.32,1.34.92,1.58,1.43l13.65-6.21c-1.91-4.2-5.43-7.4-9.48-9.08l-5.75,13.86Zm7.74-2.05c.1.67.1,1.37,0,2.04l14.81,2.35c.35-2.21.36-4.48.01-6.69l-14.82,2.3Zm1.49,2.04c-.86-.69-1.24-1.44-1.38-1.78-.13-.31-.13-.46-.1-.26l14.82-2.3c-.19-1.25-.82-4.86-3.97-7.38l-9.37,11.71Zm2.58,1.02s-.07,0-.17,0c-.1,0-.26-.02-.48-.07-.43-.09-1.17-.33-1.93-.94l9.35-11.73c-2.81-2.24-5.98-2.31-7.45-2.24l.68,14.98Zm2.09-.6c-.65.33-1.21.47-1.54.53-.32.06-.54.07-.51.07l-.75-14.98c-.49.03-2.19.1-3.99,1.01l6.8,13.37Zm2.21-1.97c-.12.2-.76,1.23-2.19,1.96l-6.83-13.36c-2.11,1.08-3.26,2.72-3.79,3.58l12.81,7.81Zm.53-.84c-.05-.15-.08-.28-.1-.37-.02-.09-.01-.11-.01-.07,0,.08-.02.62-.43,1.29l-12.78-7.85c-2.72,4.42-1.75,9.19-.93,11.69l14.25-4.69Zm-.73-1.16c.37.44.57.82.66,1.01.08.18.11.27.07.15l-14.24,4.7c.2.61.76,2.3,2.09,3.87l11.42-9.73Zm-3.55-1.72c.68,0,2.24.19,3.54,1.71l-11.4,9.75c2.4,2.81,5.7,3.57,8.05,3.54l-.2-15Zm-3.21,1.95c.95-1.26,2.07-1.69,2.44-1.81.41-.13.68-.14.79-.14l.15,15c.94,0,2.24-.13,3.64-.58,1.36-.44,3.41-1.39,4.98-3.48l-12.01-8.99Zm-29.94,7.49c5.12-.79,9.41-4.49,11.06-9.31l-14.2-4.84c.08-.25.2-.37.28-.44.08-.07.26-.19.58-.24l2.28,14.83Zm-12.07-5.19c1.59,2.68,4.09,4.08,6.02,4.74,1.96.67,4.43.94,6.9.27l-3.97-14.47c.96-.26,1.59-.11,1.89,0,.27.09,1.27.48,2.06,1.8l-12.89,7.66Zm-1.29-4.25c.07,2.18.98,3.75,1.31,4.28l12.86-7.73c.07.11.25.42.42.88.18.47.38,1.17.41,2.06l-14.99.51Zm.81-3.99c-.11.24-.88,1.87-.81,3.98l14.99-.5c.03.88-.12,1.56-.24,1.96-.11.38-.23.63-.21.6l-13.73-6.04Zm4.5-6.27c-1.93,1.75-3.47,3.91-4.51,6.28l13.74,6.01c.2-.46.5-.88.85-1.19l-10.09-11.1Zm6.71-3.26c-3.28.41-5.57,2.23-6.71,3.26l10.08,11.1c.11-.1.05-.03-.15.08-.21.12-.69.35-1.39.44l-1.84-14.89Zm8.84,2.59c-1.36-.98-4.6-3.11-8.83-2.59l1.82,14.89c-.91.11-1.56-.1-1.79-.18-.2-.08-.21-.12.02.05l8.78-12.16Zm3.56,4.45c-1.04-2.75-3.2-4.2-3.55-4.45l-8.79,12.16c.1.07-.13-.08-.42-.38-.32-.33-.87-.98-1.26-2l14.02-5.33Zm0,6.59c.28-.82,1.16-3.53,0-6.58l-14.03,5.3c-.42-1.11-.42-2.07-.36-2.62.05-.53.17-.88.19-.93l14.2,4.82Zm-6.85,6.52c.03-.3.11-.52.22-.71.11-.19.39-.59.98-.96l7.89,12.76c3.67-2.27,5.46-6.17,5.82-9.45l-14.91-1.64Zm-.2-.32c.13.27.18.44.19.51.01.07-.01-.01,0-.21l14.91,1.67c.37-3.32-.54-6.26-1.55-8.38l-13.56,6.41Zm.41.44c-.25-.23-.39-.43-.44-.51-.05-.07-.04-.08.02.06l13.57-6.38c-.48-1.01-1.35-2.67-2.92-4.13l-10.23,10.97Zm1.46.73c-.08,0-.22-.01-.44-.09-.22-.08-.61-.26-1.03-.66l10.27-10.93c-2.59-2.44-5.83-3.24-8.36-3.31l-.43,14.99Zm.81-.76c-.16.5-.4.67-.42.68-.02.01-.13.09-.39.08l.43-14.99c-6.02-.17-12.04,3.69-13.93,9.75l14.31,4.48Zm-.04.49c.02-.26.04-.41.05-.5.01-.08.02-.06-.01.02l-14.31-4.5c-.48,1.53-.62,2.95-.69,3.85l14.96,1.13Zm-.45-1.1c.33.63.41,1.14.43,1.32.01.15,0,.14.02-.21l-14.96-1.14c-.09,1.12-.31,4.11,1.25,7.06l13.25-7.02Zm-.95-1.25c-.28-.1-.29-.14-.14-.04.16.11.68.5,1.1,1.3l-13.26,7.01c1.98,3.75,5.58,5.25,7.22,5.84l5.08-14.11Zm-.95.95c.82-.75,1.59-.79,1.61-.79.03,0-.03,0-.17-.02-.14-.02-.3-.07-.47-.13l-5.11,14.1c1.81.66,4.04,1.13,6.4,1.03,2.37-.1,5.36-.83,7.87-3.13l-10.12-11.07Zm5.36-76.98c5.3-.18,9.25-3.74,11.08-7.33l-13.36-6.81c.09-.17.2-.3.37-.43.18-.13.65-.4,1.4-.42l.51,14.99Zm-7.98-3.44c1.62,1.91,5.12,4.35,9.59,3.21l-3.72-14.53c1.51-.39,2.82-.11,3.68.25.83.35,1.46.86,1.91,1.39l-11.46,9.68Zm-2.43-4.8c.22.76.82,2.88,2.42,4.78l11.48-9.65c.35.42.51.77.56.87.02.05.03.07.01.03-.01-.04-.04-.11-.08-.25l-14.4,4.21Zm.1-11.64c-1.88,4.58-.84,9.12-.1,11.65l14.39-4.22c-.23-.79-.33-1.34-.35-1.7-.02-.34.04-.29-.06-.04l-13.88-5.69Zm4.85-5.47c-2.95,1.52-4.29,4.11-4.85,5.47l13.88,5.7c-.04.11-.17.4-.46.77-.29.38-.84.95-1.71,1.4l-6.86-13.34Zm4.07-1.1c-.85.06-2.43.24-4.09,1.11l6.9,13.32c-.5.26-.93.39-1.22.45-.29.07-.49.08-.55.09l-1.04-14.96Zm11.83,5.98c-2.52-3.93-7.09-6.3-11.82-5.98l1.02,14.97c-.48.03-.84-.08-1.08-.2-.25-.13-.52-.34-.74-.69l12.63-8.09Zm.65,13.14c2.11-4.13,1.86-9.23-.65-13.15l-12.62,8.1c-.23-.35-.29-.66-.3-.88-.01-.22.02-.52.21-.89l13.36,6.81Zm-30.48,79.87c.06,0,.2.01.4.06.19.05.37.12.52.2.28.15.29.24-.01-.09l-10.99,10.21c2.11,2.27,5.19,4.52,9.77,4.61l.31-15Zm-1.27,1.45c.18-.27.45-.57.8-.82.34-.25.67-.41.93-.49.45-.15.57-.06.05-.1l-1.31,14.94c3.31.29,8.63-.17,11.98-5.14l-12.44-8.38Zm.73,4.67c-.91-.77-1.24-1.68-1.32-2.32-.08-.64.02-1.5.6-2.36l12.43,8.4c3.15-4.67,2.48-11.39-2.05-15.2l-9.66,11.48Zm1.92.75c-.14.01-.37,0-.67-.07-.31-.08-.77-.27-1.25-.67l9.66-11.48c-2.84-2.39-6.27-2.94-8.95-2.73l1.21,14.95Zm-.7.32c.32-.17.53-.26.67-.3.13-.04.13-.03.03-.02l-1.21-14.95c-2.68.22-4.92,1.18-6.49,2.01l7.01,13.26Zm.42-.47c-.26.32-.49.49-.57.54-.07.05-.05.03.14-.07l-7-13.27c-.89.47-2.65,1.45-4.12,3.22l11.54,9.58Zm.93-4.28c.25,1.13.1,2.09-.1,2.75-.2.65-.51,1.15-.82,1.53l-11.54-9.58c-1.47,1.76-2.99,4.86-2.18,8.54l14.65-3.23Zm-1.13-2.27c.15.16.82.91,1.12,2.25l-14.64,3.28c.51,2.28,1.74,3.84,2.53,4.69l10.98-10.22Zm-23.82-72.14c2.44-.18,4.5-1.09,6.15-2.33l-8.98-12.02c.14-.1.37-.25.69-.38.33-.13.68-.21,1.01-.23l1.13,14.96Zm-10.65-7.35c.63,2.17,1.96,4.27,4.13,5.7,2.12,1.4,4.45,1.79,6.44,1.66l-.97-14.97c.59-.04,1.68.06,2.81.8,1.18.78,1.77,1.85,1.99,2.62l-14.4,4.19Zm2.96-10.5c-.47.49-1.72,1.79-2.53,3.6-1.01,2.26-1.08,4.65-.43,6.9l14.4-4.19c.1.33.2.87.16,1.55-.04.7-.21,1.33-.44,1.84-.21.47-.42.75-.47.82-.04.05-.02.02.19-.2l-10.88-10.33Zm9.53-3.67c-3.03-.53-5.44.6-6.65,1.33-1.3.78-2.28,1.71-2.88,2.34l10.87,10.34c.12-.12.03,0-.3.2-.24.14-1.6.93-3.62.57l2.57-14.78Zm-.43-.06s-.03,0-.04,0c0,0-.01,0-.01,0,0,0,.02,0,.06,0,.08,0,.22.02.4.05l-2.52,14.79c.7.12,1.31.14,1.44.15l.68-14.98Zm4.76,1.49c-2.23-1.48-4.46-1.48-4.76-1.49l-.68,14.98c.27.01-.18,0-.71-.1-.69-.14-1.45-.43-2.16-.9l8.31-12.49Zm4.95,6.71c-.91-4.24-4.42-6.36-4.95-6.71l-8.32,12.48c.3.2.13.12-.13-.15-.3-.31-.98-1.13-1.27-2.47l14.66-3.15Zm-1.84,8.07c1.22-1.64,2.6-4.56,1.84-8.06l-14.67,3.15c-.23-1.07-.1-1.98.08-2.6.18-.61.44-1.07.68-1.4l12.06,8.92Zm-3.12,2.99c.41-.31,1.93-1.37,3.12-2.99l-12.06-8.92c.11-.15.21-.26.27-.33.07-.07.11-.1.11-.1,0,0,0,0-.02.02-.02.01-.04.03-.08.06-.04.03-.08.06-.13.1-.06.04-.11.09-.19.14l8.98,12.02Z"/>
</svg>