<?xml version="1.0" encoding="utf-8"?>
<!-- Generator: Adobe Illustrator 27.0.0, SVG Export Plug-In . SVG Version: 6.00 Build 0)  -->
<svg version="1.1" xmlns="http://www.w3.org/2000/svg" xmlns:xlink="http://www.w3.org/1999/xlink" x="0px" y="0px"
	 viewBox="0 0 492.05 425.48" style="enable-background:new 0 0 492.05 425.48;" xml:space="preserve">
<style type="text/css">
	.st0{fill:none;stroke:#35398E;stroke-width:4;stroke-linecap:round;stroke-linejoin:round;stroke-miterlimit:10;}
	.st1{fill:none;stroke:#6CC4C7;stroke-width:6.4204;stroke-miterlimit:10;}
	.st2{fill:#6CC4C7;}
	.st3{fill:#35398E;}
	.st4{fill:#62388E;}
	.st5{fill:#E83B68;}
	.st6{fill:none;stroke:#35398E;stroke-width:4;stroke-miterlimit:10;}
	.st7{display:none;}
	.st8{display:inline;fill:none;stroke:#6CC4C7;stroke-width:6.4204;stroke-miterlimit:10;}
</style>
<g id="Camada_1">
</g>
<g id="Camada_2">
</g>
<g id="original">
</g>
<g id="inv_x5F_vertical">
	<g>
		<path class="st0" d="M263.32,225.81c0,38.97-51.29,64.54-98.7,64.54s-72.99-29.55-72.99-99.53c0-38.97,38.43-54.82,85.85-54.82
			S263.32,186.84,263.32,225.81z"/>
		<path class="st0" d="M217.3,368.67c0,24.62-29.09,36.64-64.98,36.64s-64.98-48.66-64.98-73.28s25.33-42.38,61.21-42.38
			S217.3,344.05,217.3,368.67z"/>
		<path class="st0" d="M289.44,321.21c0,17.01-25.79,32.7-45.94,32.7c-10.45,0-19.72,0.76-28.26-6.86
			c-7.93-7.07-15.52-22.22-15.52-30.41c0-17.01,17.96-43.97,38.11-43.97S289.44,304.2,289.44,321.21z"/>
		<path class="st0" d="M360.75,256.18c0,30.65-28.05,55.49-51.14,55.49s-51.14-27.08-51.14-57.72s37.37-61.8,60.47-61.8
			C342.03,192.14,360.75,225.53,360.75,256.18z"/>
		<path class="st0" d="M173.48,49.08c13.11,11.58,15.3,17.21,19.71,31.56c3.17,10.29,5.35,21.64,1.33,31.63
			c-3.6,8.96-11.81,15.45-20.76,19c-8.95,3.55-18.69,4.52-28.29,5.21c-9.08,0.65-18.58,1.01-26.9-2.72
			c-12.82-5.76-19.76-19.79-23.78-33.3c-2.1-7.04-3.69-14.38-3-21.7c0.86-9.02,5.19-17.45,10.91-24.46
			c8.66-10.62,21.04-18.54,34.61-20.13C150.89,32.57,163.09,39.63,173.48,49.08"/>
		<path class="st0" d="M77.55,196.33c15.04,12.78,19.23,41.84,9.32,53.61s-38.87,12.12-53.91-0.66
			c-15.04-12.78-20.3-40.57-10.39-52.34C32.48,185.18,62.51,183.55,77.55,196.33z"/>
		<path class="st0" d="M69.2,121.21c5.31-3.44,10.76-3.76,15.74-3.53c8.72,0.41,18.3,1.32,22.07,8.74
			c3.84,7.56,0.16,19.07-4.41,29.06c-5.55,12.13-13.9,25.32-25.36,30.11c-8.16,3.41-15.98,1.6-22.06-1.97
			c-5.48-3.22-10.15-8.08-11.34-15.11c-1.31-7.72,1.79-17.17,6.78-25.34S62.34,127.9,69.2,121.21"/>
		<path class="st0" d="M244.33,419.06c-16.13-2.33-29.04-25.43-26.78-41.24c2.26-15.8,23.38-25.89,39.51-23.56
			s30.98,31.13,28.71,46.93C283.51,416.99,260.47,421.39,244.33,419.06z"/>
		<path class="st0" d="M102.72,260.21c4.87,3.18,7.94,9.38,8.56,15.16c0.62,5.77-0.83,11.61-3.2,16.92
			c-1.17,2.61-2.58,5.16-4.62,7.16c-3.32,3.28-8.07,4.85-12.74,4.98c-10.75,0.3-21.24-7.27-24.31-17.56
			c-0.82-2.73-1.15-5.59-1.36-8.43c-0.29-3.94-0.3-8.08,1.48-11.61c2.24-4.45,6.91-7.14,11.58-8.91
			C86.24,254.84,96.45,254.19,102.72,260.21"/>
		<path class="st0" d="M254.2,150.61c-4.35,5.55-7.27,11.08-7.86,18.12c-0.64,7.69,2.86,15.4,8.45,20.7
			c5.58,5.3,13.05,8.32,20.65,9.42c8.53,1.24,17.55,0.09,25.07-4.15c11.98-6.77,18.54-20.2,22.89-33.3
			c2.6-7.84,4.23-17.63-1.66-23.4c-1.97-1.93-4.56-3.11-7.16-4.04C293.65,126.41,268.36,133.39,254.2,150.61"/>
		<path class="st0" d="M253.47,7.1c23.45-7.2,43.4,17.22,53.9,51.69c10.5,34.47-27.32,76.64-50.76,83.85s-47.76-11.93-58.26-46.39
			C187.85,61.78,230.03,14.31,253.47,7.1z"/>
		<path class="st0" d="M310.39,86.53c3.46-2.59,7.7-2.95,11.68-2.91c6.97,0.08,14.72,0.51,19.28,5.73
			c4.64,5.33,4.17,13.67,2.68,20.94c-1.81,8.83-5.6,18.49-13.64,22.19c-5.72,2.64-12.28,1.53-17.84-0.88
			c-5.01-2.17-9.73-5.55-12.16-10.56c-2.67-5.5-2.23-12.35-0.02-18.33C302.58,96.75,306.39,91.49,310.39,86.53"/>
		<path class="st0" d="M315.84,73.86c9.14,10.94,34.67,6.64,48.02-4.61c6.92-5.83,13.47-10.52,15.04-20.19
			c1.45-8.98-1.66-22.96-6.06-28.23c-9.14-10.94-35.53-18.27-48.88-7.02C310.6,25.06,306.7,62.91,315.84,73.86z"/>
		<path class="st0" d="M446.18,154.64c0-23.8-35.65-39.41-68.61-39.41s-50.73,18.04-50.73,60.78c0,23.8,26.72,33.48,59.67,33.48
			S446.18,178.44,446.18,154.64z"/>
		<path class="st0" d="M366.63,281.68c-5.56-11.85-5.37-26.89-5.83-40.39c-0.16-4.59-0.07-9.44,2.01-13.03
			c1.63-2.81,4.27-4.47,6.83-6.05c2.3-1.42,4.61-2.84,6.91-4.27c6.34-3.92,12.91-7.91,20.3-8.4c7.39-0.49,15.89,3.41,19.68,11.52
			c2.87,6.13,2.53,13.32,1.45,19.76c-0.92,5.45-2.32,10.74-4.16,15.75c-4.05,10.99-10.59,20.91-19.9,25.54
			c-2.33,1.16-4.79,1.97-7.25,2.73c-3.23,1-6.52,1.92-9.95,1.81C373.29,286.52,368.41,284.97,366.63,281.68"/>
		<path class="st0" d="M294.9,335.94c2.78,0.3,4.67,0.72,6.79,2.26c2.19,1.59,4.38,3.17,6.57,4.76c3.34,2.42,4.54,4.68,5.19,8.68
			c0.73,4.42-0.05,9.12-3.6,11.99c-6.03,4.87-13.68,7.83-21.51,8.31c-2,0.12-4.08,0.08-5.91-0.71c-1.52-0.66-2.77-1.79-3.88-3
			c-4.3-4.71-6.78-11.13-5.95-17.37s5.26-12.1,11.42-14.06C287.51,335.69,291.25,335.81,294.9,335.94"/>
		<path class="st0" d="M190.87,13.11c7.22,0.24,13.89,5.36,17.22,11.79s2.92,14.66-1.03,20.73c-3.95,6.07-11.29,9.74-18.49,9.26
			c-1.47-0.1-2.96-0.37-4.28-1.03c-2.36-1.2-3.93-3.55-4.96-6c-3.19-7.65-1.8-16.43,0.57-24.38c0.8-2.68,1.74-5.4,3.56-7.51
			S188.17,12.44,190.87,13.11"/>
		<path class="st0" d="M321.46,360.16c-11.77-11.32-8.89-37.66,2.1-49.19c10.99-11.53,34.01-7.4,45.78,3.92s7.17,43.42-3.83,54.95
			C354.52,381.37,333.23,371.48,321.46,360.16z"/>
		<path class="st0" d="M378.91,287.8c8.38,1.91,15.42,8.73,17.59,17.03c0.47,1.81,0.71,3.81-0.1,5.51c-0.75,1.56-2.27,2.6-3.76,3.49
			c-4.06,2.43-8.78,4.38-13.41,3.48c-3.59-0.7-6.63-3.05-9.16-5.68c-3.91-4.06-6.94-8.95-8.82-14.26c-0.3-0.84-0.57-1.73-0.47-2.62
			c0.1-0.87,0.56-1.66,1.07-2.38C365.24,287.66,373.46,285.89,378.91,287.8"/>
		<path class="st0" d="M367.41,73.54c2.78,0.36,4.67,0.85,6.8,2.64c2.19,1.84,4.39,3.68,6.58,5.52c3.35,2.81,4.55,5.43,5.22,10.06
			c0.74,5.12-0.03,10.56-3.56,13.86c-6.02,5.62-13.66,9.02-21.49,9.56c-2,0.14-4.08,0.08-5.91-0.84c-1.52-0.77-2.78-2.08-3.88-3.48
			c-4.31-5.46-6.81-12.9-6-20.12c0.81-7.22,5.23-13.98,11.38-16.24C360.01,73.22,363.76,73.37,367.41,73.54"/>
		<path class="st0" d="M459.45,185.59c-4.45-1.46-9.42-2.08-14.43-1.2c-5.01,0.88-10.06,3.36-13.47,7.2
			c-2.68,3.01-4.19,6.63-5.65,10.17c-1.77,4.29-3.55,8.58-5.13,12.91c-1.01,2.77-1.95,5.6-2,8.38c-0.07,4.37,2.13,8.3,5.48,10.95
			s7.76,4.1,12.37,4.7c1.31,0.17,2.66,0.28,4.03,0.1c1.49-0.19,2.95-0.71,4.4-1.23c4.12-1.46,8.23-2.93,12.3-4.56
			c2.84-1.15,5.94-2.1,8.21-4.15c5.96-5.38,9.55-13.97,10.8-21.34C478.05,197.45,469.79,188.76,459.45,185.59"/>
		<path class="st0" d="M389.65,317.7c7.22,0.24,13.89,5.36,17.22,11.79c3.33,6.43,2.92,14.66-1.03,20.73
			c-3.95,6.07-11.29,9.74-18.49,9.26c-1.47-0.1-2.96-0.37-4.28-1.03c-2.36-1.2-3.93-3.55-4.96-6c-3.19-7.65-1.8-16.43,0.57-24.38
			c0.8-2.68,1.74-5.4,3.56-7.51S386.95,317.02,389.65,317.7"/>
		<path class="st0" d="M317.27,364.7c4.56-0.67,8.58,1.06,12.14,3.02c6.23,3.43,12.98,7.56,14.16,14.46
			c1.21,7.03-3.86,14.31-9.25,20.14c-6.55,7.07-15.34,13.94-24.64,13.41c-6.62-0.38-11.91-4.54-15.57-9.39
			c-3.3-4.37-5.67-9.69-5.06-15.37c0.66-6.24,4.87-12.19,10.19-16.51C304.55,370.13,310.91,367.24,317.27,364.7"/>
		<path class="st0" d="M435.11,284.42c3.02,11.87-0.93,24.75-9.86,32.17c-1.95,1.62-4.28,3.04-6.91,2.93
			c-2.43-0.1-4.69-1.48-6.76-2.91c-5.63-3.89-11.11-8.89-12.96-15.37c-1.43-5.02-0.47-10.25,1.17-14.98
			c2.53-7.3,6.67-13.93,12.06-19.32c0.86-0.86,1.78-1.7,2.95-2.06c1.15-0.35,2.43-0.21,3.65,0.06
			C426.48,266.71,433.98,276.33,435.11,284.42"/>
		<path class="st0" d="M450.11,270.49c3.87-3.03,5.17-8.93,6.24-13.36c1.08-4.43,0.47-9.61-2.63-12.81
			c-2.37-2.45-5.74-3.37-8.96-4.19c-2.64-0.67-5.35-1.33-8.03-0.91c-2.42,0.39-4.66,1.65-6.5,3.35c-6.23,5.74-7.31,16.74-2.33,23.73
			C432.89,273.31,443.17,275.24,450.11,270.49"/>
		<path class="st0" d="M361.24,375.59c8.49,1.29,16.04,7.58,18.86,15.72c0.62,1.78,1.01,3.76,0.34,5.52
			c-0.62,1.62-2.05,2.77-3.46,3.77c-3.85,2.73-8.39,5.04-13.07,4.48c-3.62-0.44-6.84-2.56-9.57-5c-4.21-3.77-7.61-8.44-9.91-13.61
			c-0.37-0.82-0.71-1.69-0.68-2.58c0.03-0.88,0.42-1.71,0.88-2.46C347.63,376.47,355.67,374.09,361.24,375.59"/>
	</g>
</g>
<g id="Camada_9">
</g>
<g id="inv_x5F_horiz">
</g>
<g id="inv_x5F_horiz_x5F_vert">
</g>
<g id="Camada_4">
</g>
<g id="Camada_5">
</g>
</svg>
