<?xml version="1.0" encoding="utf-8"?>
<!-- Generator: Adobe Illustrator 27.0.0, SVG Export Plug-In . SVG Version: 6.00 Build 0)  -->
<svg version="1.1" xmlns="http://www.w3.org/2000/svg" xmlns:xlink="http://www.w3.org/1999/xlink" x="0px" y="0px"
	 viewBox="0 0 492.05 425.48" style="enable-background:new 0 0 492.05 425.48;" xml:space="preserve">
<style type="text/css">
	.st0{fill:none;stroke:#35398E;stroke-width:4;stroke-linecap:round;stroke-linejoin:round;stroke-miterlimit:10;}
	.st1{fill:none;stroke:#6CC4C7;stroke-width:6.4204;stroke-miterlimit:10;}
	.st2{fill:#6CC4C7;}
	.st3{fill:#35398E;}
	.st4{fill:#62388E;}
	.st5{fill:#E83B68;}
	.st6{fill:none;stroke:#35398E;stroke-width:4;stroke-miterlimit:10;}
	.st7{display:none;}
	.st8{display:inline;fill:none;stroke:#6CC4C7;stroke-width:6.4204;stroke-miterlimit:10;}
</style>
<g id="Camada_1">
</g>
<g id="Camada_2">
</g>
<g id="original">
	<g>
		<path class="st0" d="M382.57,44.52c0-24.66-28.82-36.69-64.37-36.69s-64.37,48.72-64.37,73.38s25.09,42.44,60.64,42.44
			S382.57,69.18,382.57,44.52z"/>
		<path class="st0" d="M207.68,63.88c0-30.69-27.78-55.56-50.66-55.56s-50.66,27.11-50.66,57.8S143.37,128,166.25,128
			S207.68,94.56,207.68,63.88z"/>
		<path class="st0" d="M141.73,182.03c15.01-6.02,22.19-31.53,16.4-46.4c-5.79-14.87-28.44-19.79-43.45-13.76
			s-22.75,37.53-16.96,52.4C103.5,189.13,126.72,188.05,141.73,182.03z"/>
		<path class="st0" d="M298.27,144.86c0-17.03-25.55-32.74-45.51-32.74c-10.35,0-19.54-0.76-28,6.86
			c-7.85,7.08-15.37,22.25-15.37,30.45c0,17.03,17.79,44.03,37.75,44.03S298.27,161.89,298.27,144.86z"/>
		<path class="st0" d="M111.81,212.34c0-20.14-17.82-43.38-41.03-43.38s-50.41,23.24-50.41,43.38s17.18,43.38,40.38,43.38
			S111.81,232.48,111.81,212.34z"/>
		<path class="st0" d="M271.75,30.69c0-13.73-15.15-24.86-33.84-24.86s-33.84,11.13-33.84,24.86s5.71,30.66,24.4,30.66
			S271.75,44.42,271.75,30.69z"/>
		<path class="st0" d="M371.62,116.36c-1.91-6.1-3.2-12.76-3.41-19.54c-0.14-4.46-0.39-9.32,1.96-12.88
			c3.78-5.71,10.91-6.47,17.18-6.75c5.41-0.24,11.21-0.37,15.78,2.95c4.68,3.41,7.01,9.66,9.08,15.54c1.76,5,3.55,10.23,3.13,15.6
			c-0.57,7.26-5.33,13.58-11.22,16.4c-5.89,2.82-12.68,2.47-18.76,0.21C378.06,125.16,376.75,124.59,371.62,116.36"/>
		<path class="st0" d="M394.69,167.68c-5.61-2.73-10.97-6.85-13.96-12.91s-3.05-14.35,1.04-19.52c4.44-5.61,11.91-6.01,18.53-6.01
			c4.79,0,9.59,0,14.38,0c1.66,0,3.36,0.01,4.93,0.64c4.25,1.71,6.17,7.3,6.94,12.36c0.68,4.47,0.86,9.21-0.61,13.42
			c-1.65,4.76-5.26,8.37-9.29,10.63C409.57,170.26,403.05,170.77,394.69,167.68"/>
		<path class="st0" d="M405.46,213.39c-4.31-5.56-7.2-11.1-7.78-18.15c-0.64-7.7,2.84-15.42,8.37-20.73
			c5.53-5.31,12.92-8.33,20.45-9.44c8.45-1.24,17.39-0.09,24.83,4.16c11.87,6.78,18.37,20.22,22.67,33.34
			c2.57,7.85,4.19,17.65-1.64,23.43c-1.96,1.94-4.52,3.11-7.09,4.05C444.54,237.62,419.49,230.64,405.46,213.39"/>
		<path class="st0" d="M57.9,158.43c-4.7-5.65-3.74-14.1-2.25-21.16c0.38-1.8,0.92-3.6,1.96-5.11c2.58-3.74,7.77-4.84,12.15-3.77
			c4.37,1.08,8.1,3.91,11.61,6.77c4.05,3.31,8.09,6.88,10.54,11.54c2.46,4.66,3.05,10.67,0.22,15.11c-2.48,3.9-7.13,5.9-11.68,6.36
			C71.7,169.07,64.21,165.19,57.9,158.43"/>
		<path class="st0" d="M443.6,145.33c2.3,1.73,3.07,5.08,3.71,7.6c0.64,2.52,0.28,5.46-1.55,7.28c-1.4,1.39-3.41,1.92-5.31,2.38
			c-1.56,0.38-3.17,0.76-4.76,0.51c-1.43-0.22-2.76-0.94-3.86-1.91c-3.7-3.27-4.34-9.52-1.39-13.5
			C433.38,143.72,439.48,142.62,443.6,145.33"/>
		<path class="st0" d="M215.25,199.66c-3.5,5.22-7.61,7.17-12.97,9.16c-7.7,2.86-16.36,2.15-24.12-0.51
			c-6.3-2.16-12.33-5.71-16.29-11.12c-3.96-5.41-5.54-12.89-2.92-19.09c0.83-1.96,2.02-3.73,3.3-5.42c2.27-3,4.89-5.84,8.22-7.55
			c2.46-1.26,5.2-1.85,7.93-2.25c10.73-1.57,21.83-0.39,32,3.4c0.76,0.28,1.53,0.59,2.13,1.15c0.61,0.56,0.98,1.34,1.33,2.09
			c2.89,6.09,5.85,12.69,4.7,19.36C217.9,192.58,217.65,195.77,215.25,199.66"/>
		<path class="st0" d="M102.97,256.14c-3.07-3.8-3.66-7.75-3.18-12.59c0.12-1.23,0.44-2.48,1.16-3.48c1.14-1.59,3.16-2.36,5.12-2.39
			s3.88,0.58,5.7,1.32c3.02,1.22,5.94,2.82,8.23,5.13s3.92,5.41,3.98,8.66c0.1,5-3.97,9.7-8.92,10.3
			C110.1,263.68,106.28,260.82,102.97,256.14"/>
		<path class="st0" d="M348.51,212.69c-1.95-2.05-2.67-5.45-2.59-8.21c0.07-2.42,1.29-4.78,3.2-6.22c2.03-1.52,4.62-1.97,7.11-2.37
			c0.82-0.13,1.66-0.27,2.48-0.1c1.49,0.3,2.61,1.55,3.39,2.86c1.61,2.71,2.18,5.93,2.37,9.09c0.03,0.49,0.05,1-0.12,1.46
			c-0.18,0.51-0.57,0.92-0.98,1.27c-3.62,3.13-8.91,3.93-13.62,2.81C348.94,213.09,348.67,213.16,348.51,212.69"/>
		<path class="st0" d="M161.09,134.64c-2.38,6.85-0.1,14.97,4.61,20.43c4.71,5.46,12.41,8.08,19.41,6.59s13.02-7.02,15.18-13.94
			c0.44-1.42,0.73-2.91,0.59-4.38c-0.25-2.65-1.84-4.98-3.72-6.83c-5.88-5.78-14.44-7.68-22.6-8.36c-2.75-0.23-5.59-0.34-8.19,0.59
			C163.77,129.68,161.44,131.87,161.09,134.64"/>
		<path class="st0" d="M245.14,102.79c4.82-2.97,7.86-8.77,8.46-14.18c0.6-5.4-0.84-10.87-3.19-15.84
			c-1.16-2.44-2.56-4.83-4.58-6.71c-3.29-3.07-8-4.55-12.62-4.68c-10.65-0.3-21.03,6.78-24.06,16.4c-0.8,2.56-1.13,5.23-1.33,7.89
			c-0.28,3.69-0.29,7.56,1.48,10.86c2.22,4.17,6.85,6.69,11.48,8.35C228.83,107.8,238.94,108.42,245.14,102.79"/>
		<path class="st0" d="M370.48,217.27c5.23,0.48,10.53,0.1,15.65-1.11c3.53-0.84,7.22-2.26,9.24-5.31c1.75-2.64,1.93-6.05,1.56-9.2
			c-0.14-1.23-0.37-2.48-1-3.54c-0.71-1.22-1.88-2.09-3.11-2.75c-5.93-3.19-13.26-1.93-19.45,0.7c-1.7,0.72-3.39,1.56-4.68,2.89
			c-2.16,2.2-2.93,5.52-2.68,8.61S367.34,215.19,370.48,217.27"/>
		<path class="st0" d="M245.5,223.84c3.22-2.62,4.87-7.4,5.72-11.43c0.85-4.03,0.6-8.45-1.42-11.84c-1.5-2.51-3.83-4.27-6.27-5.65
			c-2.73-1.54-5.7-2.7-8.81-2.85c-3.11-0.15-6.37,0.79-8.8,3.02c-2.34,2.16-3.72,5.32-4.5,8.51c-0.56,2.3-0.85,4.75-0.31,7.01
			c0.71,2.94,2.73,5.22,4.78,7.24c2.66,2.63,5.56,5.09,8.96,6.43C238.24,225.64,242.23,225.76,245.5,223.84"/>
		<path class="st0" d="M68.75,310.54c4.35,3.14,9.77,3.45,14.88,3.26c8.93-0.34,18.89-1.13,24.89-7.85
			c6.12-6.85,5.79-17.32,4.12-26.41c-2.03-11.03-6.57-23.05-16.75-27.44c-7.24-3.13-15.69-1.52-22.89,1.7
			c-6.49,2.9-12.65,7.3-15.93,13.68c-3.61,7.01-3.26,15.6-0.62,23.04C59.08,297.96,63.8,304.44,68.75,310.54"/>
		<path class="st0" d="M368.41,116.39c0.05-3.53-0.43-4.81-2.41-6.71s-4.85-2.61-7.58-2.47c-1.73,0.08-3.5,0.5-4.85,1.58
			c-2.52,2.01-2.97,5.66-3.05,8.91c-0.02,0.86-0.02,1.77,0.38,2.53c0.45,0.84,1.31,1.36,2.17,1.78c2.9,1.41,6.26,2.14,9.36,1.27
			C365.53,122.4,368.24,119.65,368.41,116.39"/>
		<path class="st0" d="M357.04,191.45c10.42-8.18,12.34-12.35,16.34-23.06c2.87-7.67,5.06-16.21,2.51-24
			c-2.29-7-8.15-12.33-14.73-15.47c-6.57-3.14-13.85-4.35-21.05-5.34c-6.81-0.94-13.94-1.67-20.38,0.77
			c-9.92,3.76-15.82,14.1-19.49,24.19c-1.91,5.26-3.46,10.77-3.29,16.37c0.22,6.91,3.08,13.53,7.05,19.14
			c6.02,8.5,14.95,15.13,25.1,17C339.24,202.92,348.77,198.14,357.04,191.45"/>
		<path class="st0" d="M383.14,191.76c3.08-0.23,5.74-1.34,8.15-3.13c2.1-1.56,4.23-3.15,5.8-5.25s2.54-4.82,1.99-7.4
			c-0.72-3.33-3.69-5.6-6.5-7.46c-1.76-1.17-3.27-0.7-5.35-1.06c-3.71-0.64-7.67,2.54-10.29,5.29c-3.64,3.82-5.88,6.75-4.39,11.85
			C374.04,189.69,378.02,192.09,383.14,191.76"/>
		<path class="st0" d="M166.6,238.33c2.79-9.35,2.54-19.66-1.04-28.73c-3.58-9.07-10.51-16.79-19.23-20.93
			c-3.26-1.55-6.82-2.62-10.41-2.47c-7.39,0.3-13.86,5.77-17.31,12.42c-3.45,6.65-4.36,14.33-4.77,21.83
			c-0.32,5.77-0.34,11.74,1.84,17.07c4.09,9.99,15.6,15.54,26.2,14.49C152.49,250.97,162.81,248.57,166.6,238.33"/>
		<path class="st0" d="M86.98,134.97c7.29,2.33,13.6-2.53,18.04-7.71c1.38-1.61,2.54-3.42,3.84-5.1c1.31-1.7,2.77-3.27,4.05-5
			c1.57-2.11,2.86-4.44,3.93-6.85c1.34-3.02,2.34-6.48,1.24-9.59c-0.82-2.34-2.71-4.1-4.55-5.73c-3.3-2.9-6.83-5.73-11.01-7.05
			c-2.13-0.67-4.36-0.93-6.59-1.06c-1.52-0.09-3.06-0.13-4.54,0.22c-1.72,0.4-3.29,1.31-4.74,2.33c-5.32,3.77-9.33,9.39-11.21,15.69
			s-1.6,13.24,0.78,19.37C77.91,128.87,82.51,133.76,86.98,134.97"/>
		<path class="st0" d="M204.62,132.25c8.41-1.29,15.88-7.59,18.68-15.74c0.61-1.78,1-3.77,0.33-5.52c-0.62-1.62-2.03-2.77-3.43-3.77
			c-3.81-2.74-8.31-5.05-12.94-4.48c-3.59,0.44-6.77,2.56-9.48,5c-4.17,3.77-7.54,8.45-9.82,13.63c-0.36,0.82-0.7,1.69-0.67,2.59
			c0.03,0.88,0.42,1.71,0.87,2.46C191.13,131.36,199.09,133.75,204.62,132.25"/>
	</g>
</g>
<g id="inv_x5F_vertical">
</g>
<g id="Camada_9">
</g>
<g id="inv_x5F_horiz">
</g>
<g id="inv_x5F_horiz_x5F_vert">
</g>
<g id="Camada_4">
</g>
<g id="Camada_5">
</g>
</svg>
