<?xml version="1.0" encoding="utf-8"?>
<!-- Generator: Adobe Illustrator 27.0.0, SVG Export Plug-In . SVG Version: 6.00 Build 0)  -->
<svg version="1.1" xmlns="http://www.w3.org/2000/svg" xmlns:xlink="http://www.w3.org/1999/xlink" x="0px" y="0px"
	 viewBox="0 0 492.05 425.48" style="enable-background:new 0 0 492.05 425.48;" xml:space="preserve">
<style type="text/css">
	.st0{fill:none;stroke:#35398E;stroke-width:4;stroke-linecap:round;stroke-linejoin:round;stroke-miterlimit:10;}
	.st1{fill:none;stroke:#6CC4C7;stroke-width:6.4204;stroke-miterlimit:10;}
	.st2{fill:#6CC4C7;}
	.st3{fill:#35398E;}
	.st4{fill:#62388E;}
	.st5{fill:#E83B68;}
	.st6{fill:none;stroke:#35398E;stroke-width:4;stroke-miterlimit:10;}
	.st7{display:none;}
	.st8{display:inline;fill:none;stroke:#6CC4C7;stroke-width:6.4204;stroke-miterlimit:10;}
</style>
<g id="Camada_1">
</g>
<g id="Camada_2">
</g>
<g id="Camada_3">
	<g>
		<path class="st0" d="M222.48,42.73c0-24.8-28.93-36.9-64.62-36.9s-64.62,49-64.62,73.79s25.19,42.68,60.87,42.68
			S222.48,67.53,222.48,42.73z"/>
		<path class="st0" d="M237.72,351.18c0-29.71-38.61-49.19-74.3-49.19s-54.94,22.52-54.94,75.87c0,29.71,28.93,41.79,64.62,41.79
			S237.72,380.89,237.72,351.18z"/>
		<path class="st0" d="M121.66,144.54c0-19.93-19.28-42.06-34.54-42.06s-34.12,22.13-34.12,42.06s17.64,42.06,32.9,42.06
			S121.66,164.47,121.66,144.54z"/>
		<path class="st0" d="M138.51,165.51c7.18-0.24,13.82-5.39,17.13-11.87c3.31-6.48,2.9-14.76-1.03-20.87
			c-3.93-6.11-11.22-9.81-18.39-9.32c-1.47,0.1-2.94,0.37-4.25,1.04c-2.35,1.21-3.91,3.58-4.93,6.04
			c-3.17,7.71-1.79,16.55,0.57,24.55c0.79,2.7,1.73,5.43,3.54,7.57C132.95,164.78,135.82,166.19,138.51,165.51"/>
		<path class="st0" d="M114.32,170.68c-5.53,11.93-5.34,27.07-5.8,40.68c-0.15,4.62-0.07,9.51,2,13.12c1.62,2.83,4.25,4.5,6.79,6.09
			c2.29,1.43,4.58,2.86,6.87,4.3c6.31,3.95,12.84,7.97,20.19,8.46c7.35,0.5,15.81-3.44,19.58-11.6c2.85-6.18,2.52-13.41,1.44-19.9
			c-0.92-5.49-2.3-10.81-4.14-15.86c-4.02-11.06-10.53-21.05-19.79-25.71c-2.31-1.16-4.76-1.98-7.21-2.75
			c-3.21-1-6.49-1.93-9.89-1.82C120.95,165.81,116.09,167.36,114.32,170.68"/>
		<path class="st0" d="M91.44,239.14c-4.42,1.47-9.37,2.1-14.35,1.21c-4.99-0.88-10.01-3.39-13.39-7.25
			c-2.66-3.04-4.17-6.68-5.62-10.24c-1.76-4.32-3.53-8.64-5.1-13c-1-2.79-1.94-5.64-1.99-8.44c-0.07-4.4,2.12-8.36,5.45-11.03
			c3.33-2.67,7.71-4.13,12.3-4.74c1.3-0.17,2.64-0.28,4.01-0.1c1.48,0.19,2.94,0.72,4.38,1.24c4.09,1.47,8.19,2.95,12.23,4.6
			c2.82,1.15,5.91,2.12,8.16,4.18c5.93,5.42,9.5,14.07,10.74,21.49C109.94,227.2,101.72,235.95,91.44,239.14"/>
		<path class="st0" d="M110.72,274.54c7.18-0.24,13.82-5.39,17.13-11.87c3.31-6.48,2.9-14.76-1.03-20.87
			c-3.93-6.11-11.22-9.81-18.39-9.32c-1.47,0.1-2.94,0.37-4.25,1.04c-2.35,1.21-3.91,3.58-4.93,6.04
			c-3.17,7.71-1.79,16.55,0.57,24.55c0.79,2.7,1.73,5.43,3.54,7.57S108.04,275.22,110.72,274.54"/>
		<path class="st0" d="M42.67,195.46c8.44-1.3,15.95-7.63,18.75-15.83c0.61-1.79,1.01-3.79,0.33-5.55c-0.62-1.63-2.04-2.79-3.44-3.8
			c-3.82-2.75-8.34-5.08-12.99-4.51c-3.6,0.44-6.8,2.58-9.51,5.03c-4.19,3.79-7.57,8.5-9.86,13.7c-0.36,0.83-0.71,1.7-0.67,2.6
			c0.03,0.89,0.42,1.72,0.87,2.48C29.13,194.57,37.12,196.97,42.67,195.46"/>
		<path class="st0" d="M180.19,158.61c2.76-0.31,4.64-0.73,6.75-2.28c2.18-1.6,4.35-3.19,6.53-4.79c3.32-2.44,4.51-4.71,5.17-8.74
			c0.72-4.45-0.05-9.19-3.58-12.07c-6-4.91-13.61-7.88-21.39-8.37c-1.99-0.12-4.05-0.08-5.87,0.72c-1.51,0.66-2.76,1.8-3.85,3.02
			c-4.27,4.74-6.74,11.21-5.92,17.49c0.83,6.29,5.23,12.18,11.36,14.16C172.83,158.87,176.56,158.74,180.19,158.61"/>
		<path class="st0" d="M255.4,190.2c0-17.12-25.65-32.93-45.68-32.93c-10.39,0-19.61-0.77-28.1,6.9
			c-7.89,7.12-15.43,22.37-15.43,30.62c0,17.12,17.86,44.27,37.89,44.27S255.4,207.32,255.4,190.2z"/>
		<path class="st0" d="M151.2,245.83c-11.04,10.75-7.95,36.17,2.65,47.43c10.6,11.26,32.43,7.59,43.47-3.16
			c11.04-10.75,6.23-41.74-4.37-53S162.24,235.08,151.2,245.83z"/>
		<path class="st0" d="M406.41,214.75c-4.32-5.59-7.23-11.16-7.81-18.25c-0.64-7.74,2.85-15.51,8.4-20.85
			c5.55-5.34,12.97-8.38,20.53-9.49c8.49-1.25,17.46-0.1,24.93,4.18c11.91,6.82,18.44,20.34,22.76,33.53
			c2.58,7.9,4.21,17.75-1.65,23.56c-1.96,1.95-4.53,3.13-7.12,4.07C445.64,239.11,420.49,232.08,406.41,214.75"/>
		<path class="st0" d="M124.31,311.24c-1.22,5.3-3.49,10.44-7.12,14.44s-8.72,6.78-14.07,6.96c-4.21,0.14-8.3-1.28-12.28-2.68
			c-4.83-1.7-9.67-3.4-14.43-5.32c-3.04-1.22-6.1-2.56-8.61-4.69c-3.94-3.35-6.2-8.5-6.66-13.7c-0.47-5.21,0.74-10.47,2.82-15.25
			c0.59-1.36,1.26-2.7,2.2-3.85c1.02-1.24,2.31-2.2,3.6-3.16c3.64-2.7,7.28-5.41,11.05-7.92c2.63-1.76,5.25-3.91,8.36-4.42
			c8.19-1.36,17.89,2.01,25.17,6.62C124.29,284.56,127.35,299.09,124.31,311.24"/>
		<path class="st0" d="M445.06,236.58c-10.48-2.19-22.18,2.11-32.82,5.34c-3.62,1.1-7.39,2.51-9.73,5.51
			c-1.83,2.35-2.55,5.38-3.22,8.3c-0.6,2.63-1.2,5.26-1.81,7.89c-1.66,7.25-3.33,14.73-2.08,22.06c1.25,7.33,6.17,14.54,13.34,16.02
			c5.42,1.12,10.96-1.17,15.74-3.98c4.06-2.38,7.87-5.19,11.38-8.35c7.68-6.94,13.99-16.01,15.54-26.34
			c0.39-2.58,0.48-5.19,0.53-7.8c0.07-3.41,0.06-6.87-0.78-10.18C450.31,241.74,448.03,237.41,445.06,236.58"/>
		<path class="st0" d="M72.95,243.52c2.68-0.64,5.35,0.98,7.5,2.73c5.16,4.2,7.49,9.78,6.74,16.46c-0.5,4.46-1.22,9.05-4.89,11.55
			c-3.67,2.5-8.09,3.66-12.48,4.05c-3,0.27-6.25,0.13-8.67-1.69c-1.86-1.39-2.98-3.58-3.69-5.81c-1.77-5.54-1.32-11.8,1.38-16.93
			C61.53,248.74,67.34,244.68,72.95,243.52"/>
		<path class="st0" d="M128.79,282.67c-1.25,3.7-2.16,7.63-1.62,11.5s2.77,7.68,6.32,9.18c3.48,1.47,7.74,0.41,10.46-2.25
			c2.72-2.66,3.95-6.68,3.62-10.51c-0.26-3.1-1.5-6.14-3.61-8.4c-2.1-2.26-5.08-3.71-8.14-3.79
			C133.15,278.34,129.33,279.99,128.79,282.67"/>
		<path class="st0" d="M280.35,74.8c-16.54-14.37-48.58-18.01-57.68-7.17c-9.1,10.84-12.04,42.28,4.5,56.65s54,9.29,63.1-1.55
			C299.38,111.89,296.9,89.17,280.35,74.8z"/>
		<path class="st0" d="M371.92,131.06c4.37,3.16,9.81,3.47,14.93,3.28c8.97-0.34,18.96-1.14,24.99-7.9
			c6.14-6.89,5.81-17.42,4.13-26.56c-2.04-11.09-6.6-23.18-16.81-27.6c-7.27-3.14-15.75-1.52-22.98,1.71
			c-6.52,2.92-12.7,7.34-15.99,13.76c-3.62,7.05-3.27,15.68-0.63,23.17S366.94,124.93,371.92,131.06"/>
		<path class="st0" d="M428.76,162.32c3.44-3.22,5.33-8.95,6.36-13.77c1.03-4.82,0.92-10.05-1.06-13.99
			c-1.47-2.92-3.84-4.92-6.33-6.47c-2.78-1.73-5.84-2.99-9.07-3.06c-3.23-0.06-6.66,1.17-9.27,3.91c-2.51,2.64-4.06,6.45-4.99,10.27
			c-0.67,2.75-1.06,5.66-0.57,8.33c0.63,3.46,2.65,6.09,4.71,8.42c2.68,3.02,5.61,5.83,9.1,7.3
			C421.15,164.72,425.29,164.72,428.76,162.32"/>
		<path class="st0" d="M305.49,40.51c3.23-2.63,4.89-7.44,5.74-11.5s0.6-8.5-1.43-11.9c-1.5-2.52-3.85-4.29-6.3-5.68
			c-2.74-1.55-5.72-2.72-8.84-2.87c-3.12-0.15-6.4,0.79-8.83,3.04c-2.35,2.17-3.73,5.35-4.52,8.56c-0.57,2.32-0.86,4.77-0.31,7.05
			c0.71,2.96,2.74,5.25,4.8,7.29c2.67,2.64,5.58,5.11,9,6.47C298.21,42.32,302.21,42.44,305.49,40.51"/>
		<path class="st0" d="M212.9,132.18c3.23-2.63,4.89-7.44,5.74-11.5c0.85-4.06,0.6-8.5-1.43-11.9c-1.5-2.52-3.85-4.29-6.3-5.68
			c-2.74-1.55-5.72-2.72-8.84-2.87s-6.4,0.79-8.83,3.04c-2.35,2.17-3.73,5.35-4.52,8.56c-0.57,2.32-0.86,4.77-0.31,7.05
			c0.71,2.96,2.74,5.25,4.8,7.29c2.67,2.64,5.58,5.11,9,6.47C205.61,133.99,209.61,134.11,212.9,132.18"/>
		<path class="st0" d="M213.6,150.3c-3.09-3.82-3.67-7.8-3.19-12.66c0.12-1.24,0.44-2.49,1.16-3.5c1.14-1.6,3.17-2.37,5.14-2.41
			s3.89,0.58,5.73,1.33c3.03,1.22,5.96,2.83,8.26,5.16s3.93,5.44,4,8.71c0.1,5.03-3.99,9.76-8.96,10.36
			C220.77,157.89,216.92,155.01,213.6,150.3"/>
		<path class="st0" d="M378.49,217.38c13.04-11.66,15.21-17.33,19.6-31.78c3.15-10.36,5.32-21.79,1.32-31.85
			c-3.58-9.03-11.74-15.56-20.65-19.13c-8.9-3.58-18.58-4.55-28.13-5.25c-9.03-0.66-18.48-1.02-26.75,2.74
			c-12.75,5.8-19.65,19.92-23.65,33.53c-2.08,7.09-3.67,14.48-2.98,21.85c0.85,9.09,5.16,17.57,10.85,24.63
			c8.61,10.69,20.92,18.67,34.42,20.27C356.02,234.01,368.16,226.9,378.49,217.38"/>
		<path class="st0" d="M16.4,208.25c-0.67,11.46,5.19,23.08,14.73,29.22c2.72,1.75,5.77,3.09,8.98,3.27
			c5.66,0.31,11.18-3.29,13.86-8.37c2.68-5.08,3.47-11.76,0.65-16.76c-2.61-4.61-6.83-8.71-10.6-13.21
			c-3.68-4.4-10.31-5.62-15.95-4.88s-11.01,5.15-11.65,10.89"/>
		<path class="st0" d="M391.86,274.72c0-19.93-19.28-42.06-34.54-42.06c-15.26,0-34.12,22.13-34.12,42.06s17.64,42.06,32.9,42.06
			C371.36,316.77,391.86,294.64,391.86,274.72z"/>
		<path class="st0" d="M373.12,228.17c1.41,5.17,3.64,10.1,6.57,14.55c2.03,3.08,4.64,6.09,8.19,6.94c3.06,0.73,6.28-0.3,9.07-1.78
			c1.09-0.57,2.16-1.24,2.92-2.21c0.87-1.11,1.27-2.54,1.45-3.95c0.85-6.79-2.92-13.35-7.54-18.33c-1.27-1.36-2.64-2.68-4.33-3.45
			c-2.8-1.28-6.14-0.85-8.92,0.5S373.94,224.44,373.12,228.17"/>
		<path class="st0" d="M380.27,389.6c5.53-11.93,5.34-27.07,5.8-40.68c0.15-4.62,0.07-9.51-2-13.12c-1.62-2.83-4.25-4.5-6.79-6.09
			c-2.29-1.43-4.58-2.86-6.87-4.3c-6.31-3.95-12.84-7.97-20.19-8.46c-7.35-0.5-15.81,3.44-19.58,11.6
			c-2.85,6.18-2.52,13.41-1.44,19.9c0.92,5.49,2.3,10.81,4.14,15.86c4.02,11.06,10.53,21.05,19.79,25.71
			c2.31,1.16,4.76,1.98,7.21,2.75c3.21,1,6.49,1.93,9.89,1.82S378.5,392.92,380.27,389.6"/>
		<path class="st0" d="M391.93,329.05c8.33-1.92,15.33-8.79,17.49-17.15c0.47-1.82,0.71-3.84-0.1-5.54
			c-0.75-1.57-2.25-2.62-3.73-3.51c-4.04-2.44-8.73-4.42-13.34-3.5c-3.57,0.71-6.59,3.07-9.11,5.72c-3.89,4.08-6.9,9.01-8.77,14.36
			c-0.3,0.85-0.57,1.74-0.47,2.64c0.1,0.88,0.55,1.68,1.07,2.4C378.34,329.19,386.51,330.97,391.93,329.05"/>
		<path class="st0" d="M343.66,419.53c2.76-0.27,4.64-0.65,6.75-2.05c2.17-1.44,4.35-2.88,6.52-4.32c3.32-2.2,4.5-4.26,5.15-7.9
			c0.72-4.03-0.07-8.32-3.6-10.94c-6.01-4.45-13.62-7.16-21.4-7.61c-1.99-0.12-4.05-0.08-5.87,0.64c-1.51,0.6-2.75,1.63-3.85,2.73
			c-4.27,4.28-6.73,10.13-5.89,15.82c0.84,5.69,5.25,11.04,11.38,12.84C336.3,419.76,340.03,419.65,343.66,419.53"/>
		<path class="st0" d="M268.91,61.66c8.44-1.3,15.95-7.63,18.75-15.83c0.61-1.79,1.01-3.79,0.33-5.55c-0.62-1.63-2.04-2.79-3.44-3.8
			c-3.82-2.75-8.34-5.08-12.99-4.51c-3.6,0.44-6.8,2.58-9.51,5.03c-4.19,3.79-7.57,8.5-9.86,13.7c-0.36,0.83-0.71,1.7-0.67,2.6
			c0.03,0.89,0.42,1.72,0.87,2.48C255.37,60.77,263.36,63.17,268.91,61.66"/>
		<path class="st0" d="M328.73,230.83c2.31,1.74,3.08,5.11,3.72,7.64c0.64,2.53,0.28,5.5-1.56,7.32c-1.41,1.4-3.42,1.93-5.33,2.39
			c-1.57,0.38-3.19,0.76-4.78,0.51c-1.44-0.22-2.77-0.95-3.87-1.92c-3.71-3.29-4.36-9.58-1.4-13.58
			C318.48,229.21,324.6,228.11,328.73,230.83"/>
		<path class="st0" d="M306.76,381.88c0,2.21,2.12,3.35,3.91,4.8c4.61,3.75,11.41,4.46,16.68,1.74c5.27-2.72,8.72-8.71,8.48-14.71
			c-0.2-4.84-3.33-9.94-8.06-10.54c-1.67-0.21-3.37,0.15-4.97,0.69C314.88,366.49,308.55,373.6,306.76,381.88"/>
		<path class="st0" d="M201.68,247.93c1.41,5.17,3.64,10.1,6.57,14.55c2.03,3.08,4.64,6.09,8.19,6.94c3.06,0.73,6.28-0.3,9.07-1.78
			c1.09-0.57,2.16-1.24,2.92-2.21c0.87-1.11,1.27-2.54,1.45-3.95c0.85-6.79-2.92-13.35-7.54-18.33c-1.27-1.36-2.64-2.68-4.33-3.45
			c-2.8-1.28-6.14-0.85-8.92,0.5S202.5,244.2,201.68,247.93"/>
		<path class="st0" d="M323.92,336.67c9.22-8.02,13.35-20.92,10.32-32.23c-0.66-2.47-1.75-5-3.95-6.44
			c-2.03-1.33-4.66-1.51-7.15-1.54c-6.8-0.08-14.1,0.86-19.3,5.11c-4.03,3.3-6.23,8.16-7.59,13.01c-2.1,7.48-2.52,15.35-1.2,22.93
			c0.21,1.2,0.48,2.44,1.23,3.42c0.73,0.96,1.86,1.59,3,2.07C306.8,346.23,318.38,342.68,323.92,336.67"/>
		<path class="st0" d="M216.6,307.21c8.41-3.48,15.34-12.53,17.33-22.62c0.43-2.2,0.63-4.59-0.24-6.46
			c-0.8-1.73-2.35-2.72-3.87-3.55c-4.15-2.26-8.97-3.87-13.61-2.12c-3.6,1.36-6.61,4.56-9.1,8.03c-3.84,5.35-6.78,11.55-8.56,18.07
			c-0.28,1.04-0.54,2.12-0.41,3.15c0.12,1.01,0.6,1.88,1.14,2.64C202.81,309.38,211.15,310.26,216.6,307.21"/>
		<path class="st0" d="M222.79,419.61c3.1-0.23,5.76-1.34,8.18-3.15c2.11-1.57,4.24-3.17,5.82-5.28s2.55-4.85,1.99-7.45
			c-0.72-3.35-3.7-5.63-6.53-7.5c-1.77-1.17-3.29-0.7-5.37-1.06c-3.73-0.64-7.7,2.56-10.33,5.32c-3.66,3.84-5.9,6.79-4.41,11.91
			S217.65,419.94,222.79,419.61"/>
		<path class="st0" d="M230.23,8.93c2.31,1.74,3.08,5.11,3.72,7.64s0.28,5.5-1.56,7.32c-1.41,1.4-3.42,1.93-5.33,2.39
			c-1.57,0.38-3.19,0.76-4.78,0.51c-1.44-0.22-2.77-0.95-3.87-1.92c-3.71-3.29-4.36-9.58-1.4-13.58
			C219.98,7.3,226.1,6.2,230.23,8.93"/>
		<path class="st0" d="M246.26,53.92c5.48-6.67,6.95-16.44,3.68-24.42c-0.71-1.74-1.73-3.49-3.39-4.35
			c-1.53-0.79-3.35-0.69-5.06-0.49c-4.67,0.55-9.58,1.87-12.69,5.44c-2.41,2.76-3.41,6.51-3.83,10.16
			c-0.65,5.64-0.11,11.42,1.58,16.83c0.27,0.86,0.58,1.74,1.2,2.39c0.6,0.64,1.44,0.99,2.28,1.25
			C235.53,62.41,243.1,58.79,246.26,53.92"/>
		<path class="st0" d="M306.38,241.05c3.23-2.63,4.89-7.44,5.74-11.5c0.85-4.06,0.6-8.5-1.43-11.9c-1.5-2.52-3.85-4.29-6.3-5.68
			c-2.74-1.55-5.72-2.72-8.84-2.87c-3.12-0.15-6.4,0.79-8.83,3.04c-2.35,2.17-3.73,5.35-4.52,8.56c-0.57,2.32-0.86,4.77-0.31,7.05
			c0.71,2.96,2.74,5.25,4.8,7.29c2.67,2.64,5.58,5.11,9,6.47C299.1,242.86,303.1,242.98,306.38,241.05"/>
	</g>
</g>
<g id="Camada_4">
</g>
<g id="Camada_5">
</g>
</svg>
