<?xml version="1.0" encoding="utf-8"?>
<!-- Generator: Adobe Illustrator 27.0.0, SVG Export Plug-In . SVG Version: 6.00 Build 0)  -->
<svg version="1.1" xmlns="http://www.w3.org/2000/svg" xmlns:xlink="http://www.w3.org/1999/xlink" x="0px" y="0px"
	 viewBox="0 0 492.05 425.48" style="enable-background:new 0 0 492.05 425.48;" xml:space="preserve">
<style type="text/css">
	.st0{fill:none;stroke:#35398E;stroke-width:4;stroke-linecap:round;stroke-linejoin:round;stroke-miterlimit:10;}
	.st1{fill:none;stroke:#6CC4C7;stroke-width:6.4204;stroke-miterlimit:10;}
	.st2{fill:#6CC4C7;}
	.st3{fill:#35398E;}
	.st4{fill:#62388E;}
	.st5{fill:#E83B68;}
	.st6{fill:none;stroke:#35398E;stroke-width:4;stroke-miterlimit:10;}
	.st7{display:none;}
	.st8{display:inline;fill:none;stroke:#6CC4C7;stroke-width:6.4204;stroke-miterlimit:10;}
</style>
<g id="Camada_1">
</g>
<g id="Camada_2">
</g>
<g id="original">
</g>
<g id="inv_x5F_vertical">
</g>
<g id="Camada_9">
</g>
<g id="inv_x5F_horiz">
	<g>
		<path class="st0" d="M271.43,42.73c0-24.8,28.93-36.9,64.62-36.9s64.62,49,64.62,73.79s-25.19,42.68-60.87,42.68
			S271.43,67.53,271.43,42.73z"/>
		<path class="st0" d="M256.2,351.18c0-29.71,38.61-49.19,74.3-49.19s54.94,22.52,54.94,75.87c0,29.71-28.93,41.79-64.62,41.79
			S256.2,380.89,256.2,351.18z"/>
		<path class="st0" d="M372.26,144.54c0-19.93,19.28-42.06,34.54-42.06c15.26,0,34.12,22.13,34.12,42.06s-17.64,42.06-32.9,42.06
			C392.77,186.6,372.26,164.47,372.26,144.54z"/>
		<path class="st0" d="M355.41,165.51c-7.18-0.24-13.82-5.39-17.13-11.87c-3.31-6.48-2.9-14.76,1.03-20.87
			c3.93-6.11,11.22-9.81,18.39-9.32c1.47,0.1,2.94,0.37,4.25,1.04c2.35,1.21,3.91,3.58,4.93,6.04c3.17,7.71,1.79,16.55-0.57,24.55
			c-0.79,2.7-1.73,5.43-3.54,7.57S358.09,166.19,355.41,165.51"/>
		<path class="st0" d="M379.59,170.68c5.53,11.93,5.34,27.07,5.8,40.68c0.15,4.62,0.07,9.51-2,13.12c-1.62,2.83-4.25,4.5-6.79,6.09
			c-2.29,1.43-4.58,2.86-6.87,4.3c-6.31,3.95-12.84,7.97-20.19,8.46s-15.81-3.44-19.58-11.6c-2.85-6.18-2.52-13.41-1.44-19.9
			c0.92-5.49,2.3-10.81,4.14-15.86c4.02-11.06,10.53-21.05,19.79-25.71c2.31-1.16,4.76-1.98,7.21-2.75c3.21-1,6.49-1.93,9.89-1.82
			C372.97,165.81,377.82,167.36,379.59,170.68"/>
		<path class="st0" d="M402.47,239.14c4.42,1.47,9.37,2.1,14.35,1.21c4.99-0.88,10.01-3.39,13.39-7.25
			c2.66-3.04,4.17-6.68,5.62-10.24c1.76-4.32,3.53-8.64,5.1-13c1-2.79,1.94-5.64,1.99-8.44c0.07-4.4-2.12-8.36-5.45-11.03
			c-3.33-2.67-7.71-4.13-12.3-4.74c-1.3-0.17-2.64-0.28-4.01-0.1c-1.48,0.19-2.94,0.72-4.38,1.24c-4.09,1.47-8.19,2.95-12.23,4.6
			c-2.82,1.15-5.91,2.12-8.16,4.18c-5.93,5.42-9.5,14.07-10.74,21.49C383.97,227.2,392.19,235.95,402.47,239.14"/>
		<path class="st0" d="M383.19,274.54c-7.18-0.24-13.82-5.39-17.13-11.87c-3.31-6.48-2.9-14.76,1.03-20.87s11.22-9.81,18.39-9.32
			c1.47,0.1,2.94,0.37,4.25,1.04c2.35,1.21,3.91,3.58,4.93,6.04c3.17,7.71,1.79,16.55-0.57,24.55c-0.79,2.7-1.73,5.43-3.54,7.57
			C388.75,273.81,385.88,275.22,383.19,274.54"/>
		<path class="st0" d="M451.25,195.46c-8.44-1.3-15.95-7.63-18.75-15.83c-0.61-1.79-1.01-3.79-0.33-5.55
			c0.62-1.63,2.04-2.79,3.44-3.8c3.82-2.75,8.34-5.08,12.99-4.51c3.6,0.44,6.8,2.58,9.51,5.03c4.19,3.79,7.57,8.5,9.86,13.7
			c0.36,0.83,0.71,1.7,0.67,2.6c-0.03,0.89-0.42,1.72-0.87,2.48C464.79,194.57,456.79,196.97,451.25,195.46"/>
		<path class="st0" d="M313.73,158.61c-2.76-0.31-4.64-0.73-6.75-2.28c-2.18-1.6-4.35-3.19-6.53-4.79
			c-3.32-2.44-4.51-4.71-5.17-8.74c-0.72-4.45,0.05-9.19,3.58-12.07c6-4.91,13.61-7.88,21.39-8.37c1.99-0.12,4.05-0.08,5.87,0.72
			c1.51,0.66,2.76,1.8,3.85,3.02c4.27,4.74,6.74,11.21,5.92,17.49s-5.23,12.18-11.36,14.16
			C321.08,158.87,317.36,158.74,313.73,158.61"/>
		<path class="st0" d="M238.52,190.2c0-17.12,25.65-32.93,45.68-32.93c10.39,0,19.61-0.77,28.1,6.9
			c7.89,7.12,15.43,22.37,15.43,30.62c0,17.12-17.86,44.27-37.89,44.27S238.52,207.32,238.52,190.2z"/>
		<path class="st0" d="M342.72,245.83c11.04,10.75,7.95,36.17-2.65,47.43c-10.6,11.26-32.43,7.59-43.47-3.16
			c-11.04-10.75-6.23-41.74,4.37-53S331.68,235.08,342.72,245.83z"/>
		<path class="st0" d="M87.5,214.75c4.32-5.59,7.23-11.16,7.81-18.25c0.64-7.74-2.85-15.51-8.4-20.85
			c-5.55-5.34-12.97-8.38-20.53-9.49c-8.49-1.25-17.46-0.1-24.93,4.18c-11.91,6.82-18.44,20.34-22.76,33.53
			c-2.58,7.9-4.21,17.75,1.65,23.56c1.96,1.95,4.53,3.13,7.12,4.07C48.27,239.11,73.42,232.08,87.5,214.75"/>
		<path class="st0" d="M369.61,311.24c1.22,5.3,3.49,10.44,7.12,14.44c3.63,4,8.72,6.78,14.07,6.96c4.21,0.14,8.3-1.28,12.28-2.68
			c4.83-1.7,9.67-3.4,14.43-5.32c3.04-1.22,6.1-2.56,8.61-4.69c3.94-3.35,6.2-8.5,6.66-13.7c0.47-5.21-0.74-10.47-2.82-15.25
			c-0.59-1.36-1.26-2.7-2.2-3.85c-1.02-1.24-2.31-2.2-3.6-3.16c-3.64-2.7-7.28-5.41-11.05-7.92c-2.63-1.76-5.25-3.91-8.36-4.42
			c-8.19-1.36-17.89,2.01-25.17,6.62C369.62,284.56,366.56,299.09,369.61,311.24"/>
		<path class="st0" d="M48.85,236.58c10.48-2.19,22.18,2.11,32.82,5.34c3.62,1.1,7.39,2.51,9.73,5.51c1.83,2.35,2.55,5.38,3.22,8.3
			c0.6,2.63,1.2,5.26,1.81,7.89c1.66,7.25,3.33,14.73,2.08,22.06c-1.25,7.33-6.17,14.54-13.34,16.02
			c-5.42,1.12-10.96-1.17-15.74-3.98c-4.06-2.38-7.87-5.19-11.38-8.35c-7.68-6.94-13.99-16.01-15.54-26.34
			c-0.39-2.58-0.48-5.19-0.53-7.8c-0.07-3.41-0.06-6.87,0.78-10.18C43.6,241.74,45.89,237.41,48.85,236.58"/>
		<path class="st0" d="M420.96,243.52c-2.68-0.64-5.35,0.98-7.5,2.73c-5.16,4.2-7.49,9.78-6.74,16.46c0.5,4.46,1.22,9.05,4.89,11.55
			c3.67,2.5,8.09,3.66,12.48,4.05c3,0.27,6.25,0.13,8.67-1.69c1.86-1.39,2.98-3.58,3.69-5.81c1.77-5.54,1.32-11.8-1.38-16.93
			C432.38,248.74,426.57,244.68,420.96,243.52"/>
		<path class="st0" d="M365.12,282.67c1.25,3.7,2.16,7.63,1.62,11.5s-2.77,7.68-6.32,9.18c-3.48,1.47-7.74,0.41-10.46-2.25
			s-3.95-6.68-3.62-10.51c0.26-3.1,1.5-6.14,3.61-8.4c2.1-2.26,5.08-3.71,8.14-3.79C360.77,278.34,364.59,279.99,365.12,282.67"/>
		<path class="st0" d="M213.56,74.8c16.54-14.37,48.58-18.01,57.68-7.17s12.04,42.28-4.5,56.65s-54,9.29-63.1-1.55
			C194.54,111.89,197.02,89.17,213.56,74.8z"/>
		<path class="st0" d="M121.99,131.06c-4.37,3.16-9.81,3.47-14.93,3.28c-8.97-0.34-18.96-1.14-24.99-7.9
			c-6.14-6.89-5.81-17.42-4.13-26.56c2.04-11.09,6.6-23.18,16.81-27.6c7.27-3.14,15.75-1.52,22.98,1.71
			c6.52,2.92,12.7,7.34,15.99,13.76c3.62,7.05,3.27,15.68,0.63,23.17S126.97,124.93,121.99,131.06"/>
		<path class="st0" d="M65.15,162.32c-3.44-3.22-5.33-8.95-6.36-13.77c-1.03-4.82-0.92-10.05,1.06-13.99
			c1.47-2.92,3.84-4.92,6.33-6.47c2.78-1.73,5.84-2.99,9.07-3.06c3.23-0.06,6.66,1.17,9.27,3.91c2.51,2.64,4.06,6.45,4.99,10.27
			c0.67,2.75,1.06,5.66,0.57,8.33c-0.63,3.46-2.65,6.09-4.71,8.42c-2.68,3.02-5.61,5.83-9.1,7.3
			C72.77,164.72,68.62,164.72,65.15,162.32"/>
		<path class="st0" d="M188.42,40.51c-3.23-2.63-4.89-7.44-5.74-11.5c-0.85-4.06-0.6-8.5,1.43-11.9c1.5-2.52,3.85-4.29,6.3-5.68
			c2.74-1.55,5.72-2.72,8.84-2.87c3.12-0.15,6.4,0.79,8.83,3.04c2.35,2.17,3.73,5.35,4.52,8.56c0.57,2.32,0.86,4.77,0.31,7.05
			c-0.71,2.96-2.74,5.25-4.8,7.29c-2.67,2.64-5.58,5.11-9,6.47S191.71,42.44,188.42,40.51"/>
		<path class="st0" d="M281.02,132.18c-3.23-2.63-4.89-7.44-5.74-11.5c-0.85-4.06-0.6-8.5,1.43-11.9c1.5-2.52,3.85-4.29,6.3-5.68
			c2.74-1.55,5.72-2.72,8.84-2.87s6.4,0.79,8.83,3.04c2.35,2.17,3.73,5.35,4.52,8.56c0.57,2.32,0.86,4.77,0.31,7.05
			c-0.71,2.96-2.74,5.25-4.8,7.29c-2.67,2.64-5.58,5.11-9,6.47C288.3,133.99,284.3,134.11,281.02,132.18"/>
		<path class="st0" d="M280.31,150.3c3.09-3.82,3.67-7.8,3.19-12.66c-0.12-1.24-0.44-2.49-1.16-3.5c-1.14-1.6-3.17-2.37-5.14-2.41
			s-3.89,0.58-5.73,1.33c-3.03,1.22-5.96,2.83-8.26,5.16c-2.3,2.33-3.93,5.44-4,8.71c-0.1,5.03,3.99,9.76,8.96,10.36
			S276.99,155.01,280.31,150.3"/>
		<path class="st0" d="M115.43,217.38c-13.04-11.66-15.21-17.33-19.6-31.78c-3.15-10.36-5.32-21.79-1.32-31.85
			c3.58-9.03,11.74-15.56,20.65-19.13c8.9-3.58,18.58-4.55,28.13-5.25c9.03-0.66,18.48-1.02,26.75,2.74
			c12.75,5.8,19.65,19.92,23.65,33.53c2.08,7.09,3.67,14.48,2.98,21.85c-0.85,9.09-5.16,17.57-10.85,24.63
			c-8.61,10.69-20.92,18.67-34.42,20.27C137.89,234.01,125.75,226.9,115.43,217.38"/>
		<path class="st0" d="M477.51,208.25c0.67,11.46-5.19,23.08-14.73,29.22c-2.72,1.75-5.77,3.09-8.98,3.27
			c-5.66,0.31-11.18-3.29-13.86-8.37c-2.68-5.08-3.47-11.76-0.65-16.76c2.61-4.61,6.83-8.71,10.6-13.21
			c3.68-4.4,10.31-5.62,15.95-4.88c5.64,0.75,11.01,5.15,11.65,10.89"/>
		<path class="st0" d="M102.05,274.72c0-19.93,19.28-42.06,34.54-42.06s34.12,22.13,34.12,42.06s-17.64,42.06-32.9,42.06
			S102.05,294.64,102.05,274.72z"/>
		<path class="st0" d="M120.79,228.17c-1.41,5.17-3.64,10.1-6.57,14.55c-2.03,3.08-4.64,6.09-8.19,6.94
			c-3.06,0.73-6.28-0.3-9.07-1.78c-1.09-0.57-2.16-1.24-2.92-2.21c-0.87-1.11-1.27-2.54-1.45-3.95c-0.85-6.79,2.92-13.35,7.54-18.33
			c1.27-1.36,2.64-2.68,4.33-3.45c2.8-1.28,6.14-0.85,8.92,0.5S119.98,224.44,120.79,228.17"/>
		<path class="st0" d="M113.64,389.6c-5.53-11.93-5.34-27.07-5.8-40.68c-0.15-4.62-0.07-9.51,2-13.12c1.62-2.83,4.25-4.5,6.79-6.09
			c2.29-1.43,4.58-2.86,6.87-4.3c6.31-3.95,12.84-7.97,20.19-8.46c7.35-0.5,15.81,3.44,19.58,11.6c2.85,6.18,2.52,13.41,1.44,19.9
			c-0.92,5.49-2.3,10.81-4.14,15.86c-4.02,11.06-10.53,21.05-19.79,25.71c-2.31,1.16-4.76,1.98-7.21,2.75
			c-3.21,1-6.49,1.93-9.89,1.82C120.27,394.47,115.41,392.92,113.64,389.6"/>
		<path class="st0" d="M101.98,329.05c-8.33-1.92-15.33-8.79-17.49-17.15c-0.47-1.82-0.71-3.84,0.1-5.54
			c0.75-1.57,2.25-2.62,3.73-3.51c4.04-2.44,8.73-4.42,13.34-3.5c3.57,0.71,6.59,3.07,9.11,5.72c3.89,4.08,6.9,9.01,8.77,14.36
			c0.3,0.85,0.57,1.74,0.47,2.64c-0.1,0.88-0.55,1.68-1.07,2.4C115.58,329.19,107.4,330.97,101.98,329.05"/>
		<path class="st0" d="M150.26,419.53c-2.76-0.27-4.64-0.65-6.75-2.05c-2.17-1.44-4.35-2.88-6.52-4.32c-3.32-2.2-4.5-4.26-5.15-7.9
			c-0.72-4.03,0.07-8.32,3.6-10.94c6.01-4.45,13.62-7.16,21.4-7.61c1.99-0.12,4.05-0.08,5.87,0.64c1.51,0.6,2.75,1.63,3.85,2.73
			c4.27,4.28,6.73,10.13,5.89,15.82c-0.84,5.69-5.25,11.04-11.38,12.84C157.61,419.76,153.89,419.65,150.26,419.53"/>
		<path class="st0" d="M225,61.66c-8.44-1.3-15.95-7.63-18.75-15.83c-0.61-1.79-1.01-3.79-0.33-5.55c0.62-1.63,2.04-2.79,3.44-3.8
			c3.82-2.75,8.34-5.08,12.99-4.51c3.6,0.44,6.8,2.58,9.51,5.03c4.19,3.79,7.57,8.5,9.86,13.7c0.36,0.83,0.71,1.7,0.67,2.6
			c-0.03,0.89-0.42,1.72-0.87,2.48C238.54,60.77,230.55,63.17,225,61.66"/>
		<path class="st0" d="M165.18,230.83c-2.31,1.74-3.08,5.11-3.72,7.64s-0.28,5.5,1.56,7.32c1.41,1.4,3.42,1.93,5.33,2.39
			c1.57,0.38,3.19,0.76,4.78,0.51c1.44-0.22,2.77-0.95,3.87-1.92c3.71-3.29,4.36-9.58,1.4-13.58
			C175.44,229.21,169.31,228.11,165.18,230.83"/>
		<path class="st0" d="M187.15,381.88c0,2.21-2.12,3.35-3.91,4.8c-4.61,3.75-11.41,4.46-16.68,1.74c-5.27-2.72-8.72-8.71-8.48-14.71
			c0.2-4.84,3.33-9.94,8.06-10.54c1.67-0.21,3.37,0.15,4.97,0.69C179.04,366.49,185.36,373.6,187.15,381.88"/>
		<path class="st0" d="M292.23,247.93c-1.41,5.17-3.64,10.1-6.57,14.55c-2.03,3.08-4.64,6.09-8.19,6.94
			c-3.06,0.73-6.28-0.3-9.07-1.78c-1.09-0.57-2.16-1.24-2.92-2.21c-0.87-1.11-1.27-2.54-1.45-3.95c-0.85-6.79,2.92-13.35,7.54-18.33
			c1.27-1.36,2.64-2.68,4.33-3.45c2.8-1.28,6.14-0.85,8.92,0.5C287.6,241.55,291.42,244.2,292.23,247.93"/>
		<path class="st0" d="M170,336.67c-9.22-8.02-13.35-20.92-10.32-32.23c0.66-2.47,1.75-5,3.95-6.44c2.03-1.33,4.66-1.51,7.15-1.54
			c6.8-0.08,14.1,0.86,19.3,5.11c4.03,3.3,6.23,8.16,7.59,13.01c2.1,7.48,2.52,15.35,1.2,22.93c-0.21,1.2-0.48,2.44-1.23,3.42
			c-0.73,0.96-1.86,1.59-3,2.07C187.11,346.23,175.53,342.68,170,336.67"/>
		<path class="st0" d="M277.31,307.21c-8.41-3.48-15.34-12.53-17.33-22.62c-0.43-2.2-0.63-4.59,0.24-6.46
			c0.8-1.73,2.35-2.72,3.87-3.55c4.15-2.26,8.97-3.87,13.61-2.12c3.6,1.36,6.61,4.56,9.1,8.03c3.84,5.35,6.78,11.55,8.56,18.07
			c0.28,1.04,0.54,2.12,0.41,3.15c-0.12,1.01-0.6,1.88-1.14,2.64C291.1,309.38,282.77,310.26,277.31,307.21"/>
		<path class="st0" d="M271.12,419.61c-3.1-0.23-5.76-1.34-8.18-3.15c-2.11-1.57-4.24-3.17-5.82-5.28
			c-1.58-2.11-2.55-4.85-1.99-7.45c0.72-3.35,3.7-5.63,6.53-7.5c1.77-1.17,3.29-0.7,5.37-1.06c3.73-0.64,7.7,2.56,10.33,5.32
			c3.66,3.84,5.9,6.79,4.41,11.91C280.25,417.53,276.26,419.94,271.12,419.61"/>
		<path class="st0" d="M263.68,8.93c-2.31,1.74-3.08,5.11-3.72,7.64c-0.64,2.53-0.28,5.5,1.56,7.32c1.41,1.4,3.42,1.93,5.33,2.39
			c1.57,0.38,3.19,0.76,4.78,0.51c1.44-0.22,2.77-0.95,3.87-1.92c3.71-3.29,4.36-9.58,1.4-13.58C273.94,7.3,267.81,6.2,263.68,8.93"
			/>
		<path class="st0" d="M247.65,53.92c-5.48-6.67-6.95-16.44-3.68-24.42c0.71-1.74,1.73-3.49,3.39-4.35
			c1.53-0.79,3.35-0.69,5.06-0.49c4.67,0.55,9.58,1.87,12.69,5.44c2.41,2.76,3.41,6.51,3.83,10.16c0.65,5.64,0.11,11.42-1.58,16.83
			c-0.27,0.86-0.58,1.74-1.2,2.39c-0.6,0.64-1.44,0.99-2.28,1.25C258.38,62.41,250.82,58.79,247.65,53.92"/>
		<path class="st0" d="M187.53,241.05c-3.23-2.63-4.89-7.44-5.74-11.5c-0.85-4.06-0.6-8.5,1.43-11.9c1.5-2.52,3.85-4.29,6.3-5.68
			c2.74-1.55,5.72-2.72,8.84-2.87c3.12-0.15,6.4,0.79,8.83,3.04c2.35,2.17,3.73,5.35,4.52,8.56c0.57,2.32,0.86,4.77,0.31,7.05
			c-0.71,2.96-2.74,5.25-4.8,7.29c-2.67,2.64-5.58,5.11-9,6.47C194.82,242.86,190.82,242.98,187.53,241.05"/>
	</g>
</g>
<g id="inv_x5F_horiz_x5F_vert">
</g>
<g id="Camada_4">
</g>
<g id="Camada_5">
</g>
</svg>
