<?xml version="1.0" encoding="utf-8"?>
<!-- Generator: Adobe Illustrator 27.0.0, SVG Export Plug-In . SVG Version: 6.00 Build 0)  -->
<svg version="1.1" xmlns="http://www.w3.org/2000/svg" xmlns:xlink="http://www.w3.org/1999/xlink" x="0px" y="0px"
	 viewBox="0 0 492.05 425.48" style="enable-background:new 0 0 492.05 425.48;" xml:space="preserve">
<style type="text/css">
	.st0{fill:none;stroke:#35398E;stroke-width:4;stroke-linecap:round;stroke-linejoin:round;stroke-miterlimit:10;}
	.st1{fill:none;stroke:#6CC4C7;stroke-width:6.4204;stroke-miterlimit:10;}
	.st2{fill:#6CC4C7;}
	.st3{fill:#35398E;}
	.st4{fill:#62388E;}
	.st5{fill:#E83B68;}
	.st6{fill:none;stroke:#35398E;stroke-width:4;stroke-miterlimit:10;}
	.st7{display:none;}
	.st8{display:inline;fill:none;stroke:#6CC4C7;stroke-width:6.4204;stroke-miterlimit:10;}
</style>
<g id="Camada_1">
</g>
<g id="Camada_2">
</g>
<g id="Camada_3">
	<g>
		<path class="st0" d="M273.74,283.02c0-29.54-38.22-48.92-73.55-48.92s-54.39,22.4-54.39,75.44c0,29.54,28.64,41.55,63.97,41.55
			S273.74,312.56,273.74,283.02z"/>
		<path class="st0" d="M343.57,126.93c0-24.66-28.64-36.69-63.97-36.69s-63.97,48.72-63.97,73.38s24.93,42.44,60.26,42.44
			S343.57,151.59,343.57,126.93z"/>
		<path class="st0" d="M178.42,348.1c-19.13-10.11-51.71-4.51-58.78,9.44c-7.07,13.95-4.19,47.54,14.93,57.65
			c19.13,10.11,55.5-6.16,62.56-20.11C204.2,381.14,197.54,358.22,178.42,348.1z"/>
		<path class="st0" d="M382.95,375.82c0-19.82-19.09-41.82-34.19-41.82s-33.78,22-33.78,41.82s17.46,41.82,32.57,41.82
			S382.95,395.64,382.95,375.82z"/>
		<path class="st0" d="M208.84,63.88c0-30.69-27.61-55.56-50.35-55.56s-50.35,27.11-50.35,57.8S144.93,128,167.67,128
			S208.84,94.56,208.84,63.88z"/>
		<path class="st0" d="M143.3,182.03c14.92-6.02,22.05-31.53,16.3-46.4c-5.75-14.87-28.26-19.79-43.18-13.76
			s-22.61,37.53-16.86,52.4C105.31,189.13,128.38,188.05,143.3,182.03z"/>
		<path class="st0" d="M264.43,221.01c0-8.6-8.23-16.53-14.67-16.53c-3.34,0-6.3-0.38-9.02,3.47c-2.53,3.57-4.95,11.23-4.95,15.37
			c0,8.6,5.73,22.23,12.17,22.23S264.43,229.6,264.43,221.01z"/>
		<path class="st0" d="M113.56,212.34c0-20.14-17.71-43.38-40.78-43.38s-50.1,23.24-50.1,43.38s17.07,43.38,40.13,43.38
			S113.56,232.48,113.56,212.34z"/>
		<path class="st0" d="M272.52,30.69c0-13.73-15.06-24.86-33.63-24.86s-33.63,11.13-33.63,24.86s5.67,30.66,24.25,30.66
			S272.52,44.42,272.52,30.69z"/>
		<path class="st0" d="M411.34,310.62c-3.13,0.79-3.23,1.07-6.46,1.11c-1.86,0.02-3.76-0.09-5.47-0.84
			c-1.73-0.76-3.13-2.12-4.41-3.53c-2.19-2.4-4.15-5.01-5.86-7.79c-1.09-1.77-2.08-3.64-2.58-5.67c-0.73-2.99-0.35-6.14,0.04-9.2
			c0.62-4.82,1.33-9.89,4.23-13.75c2.88-3.83,7.46-5.85,11.91-7.45c7.73-2.78,16.4-4.75,23.97-1.56
			c6.83,2.88,11.62,9.74,13.19,17.12c0.49,2.3,0.7,4.69,0.35,7.02c-0.5,3.38-2.13,6.5-4.22,9.16
			C429.94,303.03,420.42,306.98,411.34,310.62"/>
		<path class="st0" d="M371.78,116.36c-1.9-6.1-3.18-12.76-3.39-19.54c-0.14-4.46-0.39-9.32,1.95-12.88
			c3.76-5.71,10.85-6.47,17.08-6.75c5.38-0.24,11.14-0.37,15.68,2.95c4.65,3.41,6.97,9.66,9.02,15.54c1.75,5,3.52,10.23,3.11,15.6
			c-0.56,7.26-5.29,13.58-11.15,16.4c-5.85,2.82-12.61,2.47-18.64,0.21C378.17,125.16,376.87,124.59,371.78,116.36"/>
		<path class="st0" d="M394.7,167.68c-5.58-2.73-10.91-6.85-13.88-12.91s-3.03-14.35,1.04-19.52c4.41-5.61,11.83-6.01,18.42-6.01
			c4.76,0,9.53,0,14.29,0c1.65,0,3.34,0.01,4.9,0.64c4.22,1.71,6.13,7.3,6.9,12.36c0.68,4.47,0.85,9.21-0.61,13.42
			c-1.64,4.76-5.23,8.37-9.23,10.63C409.49,170.26,403.01,170.77,394.7,167.68"/>
		<path class="st0" d="M405.4,213.39c-4.28-5.56-7.16-11.1-7.74-18.15c-0.63-7.7,2.82-15.42,8.32-20.73
			c5.5-5.31,12.84-8.33,20.33-9.44c8.4-1.24,17.28-0.09,24.68,4.16c11.79,6.78,18.26,20.22,22.53,33.34
			c2.56,7.85,4.17,17.65-1.63,23.43c-1.94,1.94-4.49,3.11-7.04,4.05C444.24,237.62,419.34,230.64,405.4,213.39"/>
		<path class="st0" d="M101.2,313.99c2.65-0.63,5.29,0.97,7.42,2.71c5.11,4.18,7.42,9.72,6.67,16.36c-0.5,4.44-1.21,9-4.84,11.49
			c-3.63,2.49-8.01,3.64-12.36,4.03c-2.97,0.26-6.18,0.12-8.58-1.68c-1.84-1.38-2.95-3.56-3.65-5.78
			c-1.75-5.5-1.31-11.74,1.37-16.84C89.9,319.17,95.65,315.14,101.2,313.99"/>
		<path class="st0" d="M359.79,260.65c-9.53,4.71-16.19,15.29-22.65,24.39c-2.19,3.09-4.33,6.52-4.39,10.33
			c-0.05,2.98,1.17,5.81,2.38,8.53c1.08,2.45,2.16,4.89,3.24,7.34c2.98,6.74,6.09,13.68,11.41,18.7c5.31,5.03,13.45,7.7,19.96,4.46
			c4.92-2.45,7.93-7.65,10.03-12.82c1.78-4.37,3.12-8.93,4.01-13.58c1.94-10.2,1.53-21.24-3.35-30.36c-1.22-2.28-2.69-4.4-4.2-6.49
			c-1.97-2.74-4.02-5.47-6.63-7.56C366.98,261.51,362.62,259.48,359.79,260.65"/>
		<path class="st0" d="M59.98,158.43c-4.68-5.65-3.72-14.1-2.24-21.16c0.38-1.8,0.91-3.6,1.95-5.11c2.56-3.74,7.73-4.84,12.07-3.77
			c4.35,1.08,8.05,3.91,11.54,6.77c4.03,3.31,8.04,6.88,10.48,11.54c2.44,4.66,3.03,10.67,0.22,15.11c-2.47,3.9-7.09,5.9-11.61,6.36
			C73.7,169.07,66.26,165.19,59.98,158.43"/>
		<path class="st0" d="M443.31,145.33c2.29,1.73,3.05,5.08,3.69,7.6s0.28,5.46-1.54,7.28c-1.39,1.39-3.38,1.92-5.28,2.38
			c-1.55,0.38-3.15,0.76-4.73,0.51c-1.42-0.22-2.75-0.94-3.83-1.91c-3.68-3.27-4.32-9.52-1.38-13.5S439.22,142.62,443.31,145.33"/>
		<path class="st0" d="M214.97,169.51c2.87,6.09,5.81,12.69,4.67,19.36c-0.64,3.71-0.89,6.91-3.28,10.79"/>
		<path class="st0" d="M216.36,199.66c-3.48,5.22-7.56,7.17-12.89,9.16c-7.66,2.86-16.26,2.15-23.97-0.51
			c-6.26-2.16-12.25-5.71-16.19-11.12c-3.94-5.41-5.5-12.89-2.9-19.09c0.82-1.96,2.01-3.73,3.28-5.42c2.26-3,4.86-5.84,8.17-7.55
			c2.44-1.26,5.17-1.85,7.88-2.25c10.66-1.57,32.43-0.33,35.24,6.64"/>
		<path class="st0" d="M104.78,256.14c-3.06-3.8-3.64-7.75-3.16-12.59c0.12-1.23,0.43-2.48,1.15-3.48c1.13-1.59,3.14-2.36,5.09-2.39
			s3.86,0.58,5.67,1.32c3,1.22,5.9,2.82,8.18,5.13c2.28,2.31,3.89,5.41,3.96,8.66c0.1,5-3.95,9.7-8.87,10.3
			C111.87,263.68,108.06,260.82,104.78,256.14"/>
		<path class="st0" d="M378.33,162.1c-0.79,3.43-2.25,6.75-4.58,9.33c-2.34,2.59-5.61,4.38-9.05,4.5c-2.71,0.09-5.34-0.83-7.9-1.73
			c-3.11-1.1-6.22-2.2-9.29-3.44c-1.96-0.79-3.93-1.65-5.54-3.03c-2.54-2.17-3.99-5.49-4.29-8.86c-0.3-3.37,0.48-6.77,1.82-9.86
			c0.38-0.88,0.81-1.75,1.42-2.49c0.65-0.8,1.49-1.43,2.31-2.04c2.34-1.75,4.69-3.5,7.11-5.12c1.7-1.14,3.38-2.53,5.38-2.86
			c5.27-0.88,11.51,1.3,16.2,4.28C378.32,144.85,380.29,154.25,378.33,162.1"/>
		<path class="st0" d="M235.04,416.67c-5.99-4.8-8.86-12.36-8.68-20.13c0.19-7.77,4.14-15.36,10.36-19.86
			c4.79-3.47,10.62-5.06,16.37-6.3c5.78-1.24,12.07-2.11,17.35,0.59c3.95,2.03,6.83,5.92,8.17,10.23s1.24,8.99,0.26,13.4
			c-0.69,3.11-1.82,6.13-3.33,8.92c-1.36,2.52-3.05,4.88-5.17,6.77c-3.53,3.15-8.05,4.85-12.46,6.48c-2.87,1.06-5.77,2.13-8.8,2.58
			C244.29,420.06,239.26,419.58,235.04,416.67"/>
		<path class="st0" d="M287.19,376.81c-6.66,9.17-8,22.08-3.37,32.47c1.32,2.96,3.13,5.77,5.7,7.69c4.53,3.39,11.01,3.45,15.94,0.71
			c4.93-2.75,9.15-7.86,9.47-13.59c0.3-5.28-1.02-11.03-1.74-16.86c-0.7-5.7-5.55-10.39-10.61-12.89
			c-5.07-2.5-11.86-1.81-15.45,2.61"/>
		<path class="st0" d="M296.02,302.26c10.11,1.44,21.38,2.61,29.61-3.57c7.49-5.63,10.12-15.65,12.27-24.89
			c0.55-2.39,1.11-4.82,0.92-7.27c-0.28-3.5-2.06-6.67-3.89-9.64c-2.77-4.5-6.33-9.26-11.48-10.05c-3.14-0.48-6.38,0.43-9.21,1.89
			c-11.07,5.71-21.02,14.24-30.65,20.73c-2.96,2-4.99,5.28-6.4,8.61c-2.31,5.44-1.42,12.15,2.22,16.76
			C283.04,299.44,288.1,301.21,296.02,302.26"/>
		<path class="st0" d="M162.54,134.64c-2.37,6.85-0.09,14.97,4.59,20.43c4.68,5.46,12.33,8.08,19.29,6.59
			c6.96-1.49,12.94-7.02,15.09-13.94c0.44-1.42,0.73-2.91,0.59-4.38c-0.25-2.65-1.83-4.98-3.7-6.83
			c-5.84-5.78-14.35-7.68-22.46-8.36c-2.73-0.23-5.55-0.34-8.14,0.59C165.21,129.68,162.89,131.87,162.54,134.64"/>
		<path class="st0" d="M246.07,102.79c4.79-2.97,7.81-8.77,8.41-14.18c0.6-5.4-0.83-10.87-3.17-15.84
			c-1.15-2.44-2.55-4.83-4.55-6.71c-3.27-3.07-7.95-4.55-12.55-4.68c-10.58-0.3-20.9,6.78-23.91,16.4c-0.8,2.56-1.12,5.23-1.32,7.89
			c-0.28,3.69-0.28,7.56,1.47,10.86c2.21,4.17,6.81,6.69,11.41,8.35C229.86,107.8,239.91,108.42,246.07,102.79"/>
		<path class="st0" d="M359.56,217.37c7.36,1.65,14.68,1.87,21.61,0.63c4.79-0.85,9.7-2.66,12.04-7.52
			c2.02-4.2,1.74-9.94,0.74-15.36c-0.39-2.11-0.91-4.26-1.94-6.17c-1.18-2.18-2.94-3.85-4.76-5.17c-8.75-6.36-18.76-5.4-26.97-1.94
			c-2.25,0.95-4.48,2.1-6.07,4.14c-2.66,3.39-3.23,8.88-2.39,14.17C352.65,205.45,354.87,213.34,359.56,217.37"/>
		<path class="st0" d="M362.95,100.77c3.15-3.53,3.5-8.61,3.09-12.71s-2.37-8.22-6.21-10.77c-2.85-1.89-6.49-2.8-10.13-3.32
			c-4.06-0.58-8.3-0.71-12.34,0.16c-4.04,0.87-7.87,2.82-10.15,5.74c-2.2,2.81-2.79,6.26-2.61,9.55c0.13,2.37,0.66,4.78,2.2,6.75
			c2,2.56,5.43,4.07,8.8,5.32c4.39,1.63,9.01,3.01,13.86,3.19C354.32,104.84,359.47,103.66,362.95,100.77"/>
		<path class="st0" d="M324.93,242.03c3.89,5.75,12.83,3.37,18.23,0.34c5.4-3.03,9.15-9.01,9.42-15.3c0.27-6.29-3-12.65-8.31-15.85
			c-4.79-2.89-11.41-2.95-15.59,0.79c-1.35,1.21-2.39,2.74-3.27,4.34C321.17,224.14,320.98,234.09,324.93,242.03"/>
		<path class="st0" d="M305.39,90.24c15.55-0.29,22.99-13.86,28.26-28.46c2.43-6.73,5.14-13.38,2.81-20.14
			c-1.52-4.39-4.34-8.2-7.52-11.54c-7.75-8.13-18.39-13.98-29.5-13.62c-13.94,0.46-26.67,11.39-30.37,25.13
			c-3.7,13.74,1.37,29.28,11.81,38.73C287.66,86.48,296.47,89.72,305.39,90.24"/>
		<path class="st0" d="M453.84,261.89c3.92-2.53,4.42-5.66,5.1-10.14c0.59-3.81-1.23-7.33-2.69-10.89
			c-2.62-6.4-10.76-9.3-17.15-6.97s-10.74,8.91-11.7,15.77c-0.29,2.07-0.3,4.25,0.49,6.18c0.71,1.74,2,3.15,3.33,4.44
			c2.06,1.98,4.42,3.84,7.21,4.31c2.11,0.35,5.96,0.6,8.04,0.12C449.5,264.01,451.27,264.08,453.84,261.89"/>
		<path class="st0" d="M396.28,264.5c8.58-1.05,17.1-5.13,22.07-12.35s5.59-17.79,0.21-24.69c-4.17-5.35-11.01-7.76-17.63-8.78
			c-11.1-1.71-22.65-0.22-32.99,4.26c-4.85,2.1-9.64,5.05-12.29,9.71c-3.42,6.02-2.47,13.98,1.31,19.76s10,9.57,16.52,11.57
			C380,265.98,389.47,264.31,396.28,264.5"/>
		<path class="st0" d="M233.98,367.28c1.59,1.64,3.23,2.2,5.42,2.8c5.65,1.55,12.09-0.56,15.81-5.17
			c3.72-4.61,4.52-11.47,1.96-16.84c-2.06-4.33-6.9-7.71-11.41-6.34c-1.6,0.48-2.99,1.5-4.24,2.63
			C235.35,349.97,232.38,359.01,233.98,367.28"/>
		<path class="st0" d="M413.29,327.83c-0.22-6.07-2.88-12.89-8.52-14.24c-2.87-0.69-5.88-0.16-8.79,0.36
			c-4.65,0.84-9.58,1.82-13.05,5.11c-1.65,1.57-2.86,3.56-3.85,5.63c-3.25,6.76-4.4,14.47-3.82,21.97c0.35,4.43,1.87,7.55,5.55,9.93
			c3.86,2.49,8.63,1.89,12.73-0.18C404.51,350.86,412.33,340.31,413.29,327.83"/>
		<path class="st0" d="M368.59,116.39c0.05-3.53-0.42-4.81-2.39-6.71s-4.82-2.61-7.53-2.47c-1.71,0.08-3.47,0.5-4.82,1.58
			c-2.51,2.01-2.95,5.66-3.03,8.91c-0.02,0.86-0.02,1.77,0.38,2.53c0.44,0.84,1.31,1.36,2.15,1.78c2.88,1.41,6.22,2.14,9.3,1.27
			C365.72,122.4,368.41,119.65,368.59,116.39"/>
		<path class="st0" d="M306.88,252.11c7.35-5.54,8.7-8.37,11.53-15.63c2.02-5.21,3.56-11,1.76-16.28
			c-1.62-4.75-5.77-8.37-10.41-10.5s-9.78-2.96-14.87-3.64c-4.81-0.64-9.85-1.14-14.39,0.51c-7.01,2.54-11.16,9.56-13.75,16.4
			c-1.35,3.57-2.44,7.3-2.31,11.1c0.16,4.69,2.18,9.18,4.99,12.99c4.25,5.77,10.57,10.28,17.73,11.55
			C294.32,259.88,301.05,256.64,306.88,252.11"/>
		<path class="st0" d="M349.67,71.11c2.37,1.43,4.11,2.22,6.68,2.27c2.66,0.04,5.31,0.09,7.97,0.13c4.06,0.07,6.32-1.03,9.19-3.84
			c3.16-3.11,5.31-7.36,4.19-11.79c-1.91-7.54-6.21-14.51-12.1-19.61c-1.51-1.3-3.17-2.51-5.08-2.98c-1.59-0.39-3.24-0.23-4.82,0.08
			c-6.15,1.19-11.87,4.85-14.88,10.36c-3,5.51-2.94,12.87,0.77,18.16C343.69,66.87,346.71,69.02,349.67,71.11"/>
		<path class="st0" d="M168.02,238.33c2.78-9.35,2.52-19.66-1.04-28.73c-3.56-9.07-10.45-16.79-19.11-20.93
			c-3.24-1.55-6.77-2.62-10.35-2.47c-7.35,0.3-13.77,5.77-17.2,12.42c-3.42,6.65-4.33,14.33-4.74,21.83
			c-0.32,5.77-0.34,11.74,1.83,17.07c4.06,9.99,15.5,15.54,26.04,14.49C153.99,250.97,164.25,248.57,168.02,238.33"/>
		<path class="st0" d="M88.88,134.97c7.24,2.33,13.52-2.53,17.93-7.71c1.38-1.61,2.52-3.42,3.81-5.1c1.3-1.7,2.75-3.27,4.03-5
			c1.56-2.11,2.84-4.44,3.91-6.85c1.33-3.02,2.32-6.48,1.23-9.59c-0.82-2.34-2.69-4.1-4.53-5.73c-3.28-2.9-6.79-5.73-10.94-7.05
			c-2.12-0.67-4.34-0.93-6.55-1.06c-1.51-0.09-3.04-0.13-4.51,0.22c-1.71,0.4-3.27,1.31-4.71,2.33c-5.28,3.77-9.28,9.39-11.14,15.69
			s-1.59,13.24,0.77,19.37C79.87,128.87,84.45,133.76,88.88,134.97"/>
		<path class="st0" d="M218.71,390.4c4.43-0.46,8.61-4.22,11.29-8.22c1.58-2.35,2.91-4.96,3.52-7.82c1.06-4.92-0.18-10.3-2.95-14.29
			s-6.96-6.59-11.39-7.53c-4.53-0.96-9.62-0.07-12.96,3.52c-1.67,1.79-2.79,4.12-3.76,6.47c-1.99,4.84-3.44,10.34-2.14,15.46
			c1.05,4.15,3.86,7.57,7.24,9.62C210.96,389.67,214.87,390.43,218.71,390.4"/>
		<path class="st0" d="M205.8,132.25c8.36-1.29,15.79-7.59,18.56-15.74c0.61-1.78,1-3.77,0.33-5.52c-0.61-1.62-2.02-2.77-3.41-3.77
			c-3.79-2.74-8.26-5.05-12.86-4.48c-3.57,0.44-6.73,2.56-9.42,5c-4.15,3.77-7.5,8.45-9.76,13.63c-0.36,0.82-0.7,1.69-0.67,2.59
			c0.03,0.88,0.41,1.71,0.86,2.46C192.4,131.36,200.31,133.75,205.8,132.25"/>
		<path class="st0" d="M273.75,354.8c9.51,1.54,18.36,2.19,27.26-1.73c2.74-1.21,5.27-2.89,7.71-4.7c2.86-2.12,5.67-4.5,7.39-7.71
			c1.53-2.86,2.08-6.19,2.37-9.46c0.51-5.9,0.21-12.01-2.02-17.44c-0.67-1.64-1.54-3.24-2.84-4.39c-2.15-1.91-5.12-2.32-7.92-2.54
			c-4.15-0.33-8.33-0.4-12.49-0.21c-4.35,0.19-8.72,0.67-12.87,2.07c-3.93,1.33-7.57,3.46-11.11,5.7c-3.43,2.17-6.83,4.48-9.57,7.55
			s-4.8,7.01-5.01,11.22c-0.26,5.29,2.43,10.35,6.13,13.89C264.48,350.59,269.12,352.82,273.75,354.8"/>
		<path class="st0" d="M321.88,316.56c-1.23,3.68-2.13,7.59-1.6,11.44c0.53,3.85,2.74,7.64,6.26,9.13
			c3.45,1.47,7.67,0.41,10.36-2.24c2.69-2.64,3.91-6.65,3.59-10.45c-0.26-3.09-1.49-6.1-3.57-8.35c-2.08-2.25-5.03-3.69-8.06-3.76
			C326.19,312.26,322.41,313.9,321.88,316.56"/>
		<path class="st0" d="M349.05,195.87c1.16-2.18,1.8-3.77,1.75-6.1c-0.04-2.4-0.09-4.79-0.13-7.19c-0.07-3.66-1.08-5.67-3.6-8.17
			c-2.78-2.76-6.52-4.56-10.32-3.42c-6.46,1.95-12.35,6.04-16.58,11.52c-1.08,1.4-2.08,2.94-2.42,4.67
			c-0.29,1.44-0.1,2.93,0.21,4.34c1.22,5.51,4.56,10.56,9.41,13.1c4.85,2.54,11.22,2.26,15.67-1.25
			C345.56,201.4,347.33,198.6,349.05,195.87"/>
		<path class="st0" d="M209.97,231.01c-2.89-3.06-3.96-8.12-3.84-12.24c0.11-3.61,1.91-7.12,4.75-9.27c3-2.27,6.85-2.93,10.54-3.53
			c1.22-0.2,2.47-0.4,3.67-0.15c2.2,0.45,3.87,2.31,5.03,4.27c2.38,4.04,3.23,8.84,3.51,13.55c0.04,0.73,0.07,1.48-0.17,2.17
			c-0.27,0.76-0.85,1.37-1.45,1.9c-5.36,4.66-13.2,5.86-20.18,4.19C210.6,231.62,210.21,231.72,209.97,231.01"/>
		<path class="st0" d="M119.96,339.06c3.05,4.3,8.23,7.93,12.98,6.11c2.42-0.93,4.35-2.8,6.21-4.63c2.98-2.93,6.09-6.09,7.05-10.2
			c0.45-1.96,0.38-4.01,0.11-6.01c-0.86-6.52-3.69-12.7-7.69-17.86c-2.36-3.04-4.96-4.56-8.76-4.46c-3.99,0.11-7.17,2.92-9.16,6.46
			C115.37,317.97,114.72,329.52,119.96,339.06"/>
		<path class="st0" d="M122.09,300.79c-5.74-2.42-6.36-15.52-6.23-22.6c0.12-6.2,2.09-12.25,5.19-15.94
			c3.28-3.9,7.49-5.05,11.52-6.08c1.33-0.34,2.7-0.68,4.02-0.25c2.41,0.78,4.23,3.97,5.5,7.35c2.61,6.96,3.53,15.21,3.84,23.32
			c0.05,1.26,0.08,2.55-0.19,3.74c-0.3,1.31-0.93,2.36-1.59,3.26C138.29,301.6,129.72,303.66,122.09,300.79"/>
		<path class="st0" d="M82.86,254.45c-5.18,4.97-6.82,13.25-5.13,20.3c1.69,7.05,7.31,12.97,14.16,14.92
			c6.85,1.95,14.65-0.15,19.67-5.29c1.03-1.05,1.95-2.24,2.5-3.61c0.97-2.47,0.62-5.28-0.21-7.8c-2.58-7.88-9.29-13.57-16.17-17.98
			c-2.32-1.49-4.78-2.91-7.49-3.3C87.47,251.29,84.42,252.15,82.86,254.45"/>
		<path class="st0" d="M99.08,311.35c-2.42-2.56-3.31-6.8-3.21-10.24c0.09-3.02,1.6-5.96,3.97-7.76c2.51-1.9,5.73-2.46,8.82-2.96
			c1.02-0.17,2.06-0.33,3.07-0.12c1.84,0.38,3.24,1.93,4.21,3.57c2,3.38,2.71,7.4,2.94,11.35c0.04,0.61,0.06,1.24-0.14,1.82
			c-0.23,0.64-0.71,1.15-1.22,1.59c-4.49,3.9-11.05,4.91-16.89,3.51C99.62,311.86,99.28,311.94,99.08,311.35"/>
	</g>
</g>
<g id="Camada_4">
</g>
<g id="Camada_5">
</g>
</svg>
