<?xml version="1.0" encoding="utf-8"?>
<!-- Generator: Adobe Illustrator 27.0.0, SVG Export Plug-In . SVG Version: 6.00 Build 0)  -->
<svg version="1.1" xmlns="http://www.w3.org/2000/svg" xmlns:xlink="http://www.w3.org/1999/xlink" x="0px" y="0px"
	 viewBox="0 0 492.05 425.48" style="enable-background:new 0 0 492.05 425.48;" xml:space="preserve">
<style type="text/css">
	.st0{fill:none;stroke:#35398E;stroke-width:4;stroke-linecap:round;stroke-linejoin:round;stroke-miterlimit:10;}
	.st1{fill:none;stroke:#6CC4C7;stroke-width:6.4204;stroke-miterlimit:10;}
	.st2{fill:#6CC4C7;}
	.st3{fill:#35398E;}
	.st4{fill:#62388E;}
	.st5{fill:#E83B68;}
	.st6{fill:none;stroke:#35398E;stroke-width:4;stroke-miterlimit:10;}
	.st7{display:none;}
	.st8{display:inline;fill:none;stroke:#6CC4C7;stroke-width:6.4204;stroke-miterlimit:10;}
</style>
<g id="Camada_1">
</g>
<g id="Camada_2">
</g>
<g id="original">
</g>
<g id="inv_x5F_vertical">
</g>
<g id="Camada_9">
</g>
<g id="inv_x5F_horiz">
</g>
<g id="inv_x5F_horiz_x5F_vert">
	<g>
		<path class="st0" d="M345.2,246.99c0,24.54,28.48,36.51,63.6,36.51s63.6-48.49,63.6-73.02s-24.79-42.23-59.92-42.23
			S345.2,222.45,345.2,246.99z"/>
		<path class="st0" d="M19.64,217.79c0,29.4,38,48.68,73.13,48.68s54.08-22.29,54.08-75.08c0-29.4-28.48-41.35-63.6-41.35
			S19.64,188.39,19.64,217.79z"/>
		<path class="st0" d="M423.45,118.77c4.26,5.54,7.12,11.04,7.69,18.06c0.63,7.66-2.8,15.35-8.27,20.63
			c-5.46,5.28-12.77,8.29-20.21,9.39c-8.35,1.23-17.18,0.09-24.54-4.14c-11.73-6.75-18.15-20.13-22.4-33.18
			c-2.54-7.81-4.15-17.57,1.62-23.32c1.93-1.93,4.46-3.1,7-4.03C384.84,94.66,409.59,101.61,423.45,118.77"/>
		<path class="st0" d="M72.23,311.18c0,16.95,25.24,32.58,44.97,32.58c10.23,0,19.3,0.76,27.66-6.83
			c7.76-7.05,15.19-22.14,15.19-30.3c0-16.95-17.58-43.81-37.3-43.81S72.23,294.23,72.23,311.18z"/>
		<path class="st0" d="M361.46,152.27c5.55,2.71,10.84,6.81,13.8,12.85c2.95,6.04,3.01,14.28-1.03,19.42
			c-4.39,5.58-11.77,5.98-18.31,5.98c-4.74,0-9.47,0-14.21,0c-1.64,0-3.32-0.01-4.87-0.63c-4.2-1.7-6.1-7.26-6.86-12.3
			c-0.68-4.45-0.85-9.16,0.6-13.36c1.64-4.73,5.2-8.33,9.18-10.57C346.76,149.7,353.2,149.2,361.46,152.27"/>
		<path class="st0" d="M315.2,195.15c-4.76,2.95-7.77,8.73-8.36,14.11c-0.6,5.38,0.83,10.82,3.16,15.76
			c1.14,2.43,2.53,4.81,4.53,6.68c3.25,3.06,7.91,4.52,12.47,4.65c10.52,0.3,20.78-6.75,23.77-16.32c0.8-2.55,1.12-5.2,1.32-7.85
			c0.28-3.67,0.28-7.52-1.46-10.81c-2.19-4.15-6.77-6.66-11.34-8.31C331.32,190.16,321.33,189.55,315.2,195.15"/>
		<path class="st0" d="M338.06,97.87c-4.3-3.13-9.65-3.44-14.7-3.24c-8.83,0.33-18.66,1.12-24.6,7.81
			c-6.05,6.82-5.72,17.23-4.07,26.28c2.01,10.98,6.5,22.94,16.55,27.31c7.16,3.11,15.5,1.51,22.62-1.69
			c6.41-2.89,12.5-7.27,15.74-13.62c3.56-6.97,3.22-15.52,0.62-22.93S342.96,103.94,338.06,97.87"/>
		<path class="st0" d="M138.55,247.65c0,19.72,18.98,41.62,34,41.62c15.02,0,33.59-21.9,33.59-41.62s-17.36-41.62-32.38-41.62
			C158.74,206.03,138.55,227.93,138.55,247.65z"/>
		<path class="st0" d="M152.03,178.1c-3.9,2.52-4.39,5.64-5.07,10.09c-0.58,3.79,1.22,7.3,2.67,10.84c2.6,6.37,10.7,9.26,17.05,6.94
			s10.68-8.87,11.63-15.7c0.29-2.06,0.3-4.23-0.48-6.15c-0.7-1.73-1.99-3.13-3.32-4.42c-2.04-1.97-4.39-3.82-7.17-4.29
			c-2.1-0.35-5.92-0.6-8-0.12C156.34,175.98,154.59,175.92,152.03,178.1"/>
		<path class="st0" d="M413.83,284.88c-8.31,1.28-15.7,7.55-18.46,15.67c-0.6,1.77-0.99,3.75-0.33,5.5
			c0.61,1.61,2.01,2.76,3.39,3.76c3.76,2.72,8.21,5.02,12.79,4.46c3.55-0.44,6.69-2.55,9.36-4.98c4.12-3.75,7.45-8.41,9.7-13.56
			c0.36-0.82,0.69-1.68,0.66-2.58c-0.03-0.88-0.41-1.7-0.86-2.45C427.15,285.76,419.29,283.38,413.83,284.88"/>
		<path class="st0" d="M325.44,311c0,13.66,14.97,24.74,33.44,24.74s33.44-11.07,33.44-24.74s-5.64-30.51-24.11-30.51
			C349.74,280.49,325.44,297.33,325.44,311z"/>
		<path class="st0" d="M352.35,106.18c-2.64,0.63-5.26-0.97-7.38-2.7c-5.08-4.16-7.37-9.68-6.63-16.29
			c0.5-4.41,1.21-8.96,4.81-11.43c3.61-2.48,7.96-3.62,12.29-4.01c2.95-0.26,6.15-0.12,8.53,1.67c1.83,1.37,2.93,3.55,3.63,5.75
			c1.74,5.48,1.3,11.68-1.36,16.76C363.59,101.02,357.87,105.03,352.35,106.18"/>
		<path class="st0" d="M299.8,240.94c-14.84,5.99-21.92,31.38-16.21,46.18c5.72,14.8,28.1,19.69,42.94,13.7s22.48-37.35,16.76-52.14
			S314.64,234.94,299.8,240.94z"/>
		<path class="st0" d="M320.03,306.44c1.93,2.04,2.64,5.42,2.56,8.17c-0.07,2.41-1.27,4.76-3.17,6.19c-2,1.51-4.57,1.96-7.03,2.36
			c-0.81,0.13-1.64,0.26-2.45,0.1c-1.47-0.3-2.58-1.54-3.35-2.85c-1.59-2.7-2.16-5.9-2.34-9.05c-0.03-0.49-0.05-0.99,0.11-1.45
			c0.18-0.51,0.57-0.91,0.97-1.27c3.58-3.11,8.8-3.91,13.46-2.8C319.61,306.03,319.87,305.97,320.03,306.44"/>
		<path class="st0" d="M304.27,158.82c-3.18,2.6-4.81,7.36-5.65,11.38c-0.84,4.02-0.59,8.41,1.4,11.78c1.48,2.5,3.79,4.25,6.2,5.62
			c2.69,1.54,5.63,2.69,8.7,2.84c3.07,0.15,6.3-0.78,8.69-3.01c2.31-2.15,3.67-5.29,4.45-8.47c0.56-2.29,0.84-4.72,0.3-6.97
			c-0.7-2.93-2.7-5.2-4.72-7.21c-2.63-2.62-5.5-5.06-8.85-6.4S307.5,156.91,304.27,158.82"/>
		<path class="st0" d="M312.99,19.59c-2.76,9.3-2.51,19.57,1.03,28.59s10.39,16.7,19,20.83c3.22,1.54,6.73,2.6,10.29,2.46
			c7.31-0.3,13.7-5.75,17.1-12.36c3.4-6.62,4.31-14.26,4.72-21.72c0.31-5.74,0.34-11.68-1.82-16.99
			c-4.04-9.94-15.41-15.46-25.89-14.42C326.94,7.01,316.73,9.4,312.99,19.59"/>
		<path class="st0" d="M296.57,49.19c3.11-0.79,3.22-1.07,6.42-1.11c1.85-0.02,3.74,0.09,5.44,0.84c1.72,0.76,3.11,2.11,4.38,3.51
			c2.17,2.39,4.13,4.99,5.83,7.75c1.08,1.76,2.07,3.62,2.57,5.64c0.73,2.98,0.35,6.11-0.04,9.15c-0.61,4.8-1.32,9.84-4.2,13.68
			c-2.86,3.81-7.41,5.82-11.85,7.42c-7.68,2.77-16.3,4.73-23.83,1.55c-6.79-2.87-11.55-9.69-13.11-17.03
			c-0.49-2.29-0.69-4.67-0.35-6.99c0.49-3.36,2.12-6.46,4.2-9.12C278.08,56.73,287.54,52.8,296.57,49.19"/>
		<path class="st0" d="M76.03,118.73c-8.31,1.28-15.7,7.55-18.46,15.67c-0.6,1.77-0.99,3.75-0.33,5.5c0.61,1.61,2.01,2.76,3.39,3.76
			c3.76,2.72,8.21,5.02,12.79,4.46c3.55-0.44,6.69-2.55,9.36-4.98c4.12-3.75,7.45-8.41,9.7-13.56c0.36-0.82,0.69-1.68,0.66-2.58
			c-0.03-0.88-0.41-1.7-0.86-2.45C89.36,119.61,81.49,117.23,76.03,118.73"/>
		<path class="st0" d="M97.76,136.54c-3.62-5.99-5.85-11.8-5.64-18.83c0.23-7.68,4.49-14.92,10.5-19.54s13.61-6.76,21.12-6.98
			c8.44-0.26,17.08,1.9,23.92,6.96c10.9,8.06,15.8,22.1,18.57,35.57c1.66,8.06,2.17,17.94-4.2,22.98c-2.13,1.69-4.78,2.56-7.41,3.19
			C133.45,164.97,109.63,155.19,97.76,136.54"/>
		<path class="st0" d="M86.67,99.3c-2.27-1.72-3.03-5.06-3.67-7.56c-0.63-2.51-0.28-5.44,1.53-7.25c1.39-1.38,3.37-1.91,5.25-2.37
			c1.54-0.38,3.14-0.75,4.71-0.51c1.42,0.22,2.73,0.94,3.81,1.9c3.65,3.25,4.29,9.48,1.38,13.44C96.76,100.91,90.73,102,86.67,99.3"
			/>
		<path class="st0" d="M162.56,300.44c-2.73,9.1-2.47,19.15,1.02,27.98s10.27,16.35,18.77,20.39c3.18,1.51,6.65,2.55,10.16,2.41
			c7.22-0.29,13.53-5.62,16.89-12.1c3.36-6.48,4.25-13.95,4.66-21.26c0.31-5.62,0.33-11.44-1.8-16.63
			c-3.99-9.73-15.23-15.14-25.58-14.12S166.26,290.47,162.56,300.44"/>
		<path class="st0" d="M246.07,182.06c-9.77,8.79-11.4,13.06-14.69,23.95c-2.36,7.81-3.98,16.42-0.99,24
			c2.69,6.8,8.8,11.72,15.48,14.42c6.67,2.69,13.93,3.43,21.09,3.95c6.77,0.49,13.85,0.77,20.05-2.07
			c9.56-4.37,14.73-15.02,17.73-25.27c1.56-5.34,2.75-10.91,2.23-16.47c-0.64-6.85-3.87-13.24-8.13-18.56
			c-6.46-8.06-15.68-14.07-25.8-15.28C262.91,169.53,253.81,174.89,246.07,182.06"/>
		<path class="st0" d="M247.26,249.35c-4.3-3.13-9.65-3.44-14.7-3.24c-8.83,0.33-18.66,1.12-24.6,7.81
			c-6.05,6.82-5.72,17.23-4.07,26.28c2.01,10.98,6.5,22.94,16.55,27.31c7.16,3.11,15.5,1.51,22.62-1.69
			c6.41-2.89,12.5-7.27,15.74-13.62c3.56-6.97,3.22-15.52,0.62-22.93S252.16,255.42,247.26,249.35"/>
		<path class="st0" d="M278.33,257.13c3.04,3.78,3.62,7.72,3.14,12.53c-0.12,1.23-0.43,2.47-1.14,3.47
			c-1.12,1.58-3.12,2.35-5.06,2.38c-1.94,0.03-3.83-0.58-5.64-1.31c-2.98-1.21-5.87-2.8-8.13-5.11s-3.87-5.39-3.93-8.62
			c-0.1-4.98,3.92-9.65,8.82-10.25S275.07,252.46,278.33,257.13"/>
		<path class="st0" d="M197.7,144.8c-14.84,5.99-21.92,31.38-16.21,46.18c5.72,14.8,28.1,19.69,42.94,13.7
			c14.84-5.99,22.48-37.35,16.76-52.14C235.48,137.73,212.54,138.8,197.7,144.8z"/>
		<path class="st0" d="M228.17,229.63c-1.39-5.11-3.58-9.99-6.47-14.4c-1.99-3.04-4.57-6.03-8.06-6.87
			c-3.01-0.72-6.18,0.3-8.92,1.76c-1.07,0.57-2.13,1.22-2.88,2.18c-0.86,1.1-1.25,2.51-1.42,3.91c-0.84,6.72,2.87,13.21,7.42,18.14
			c1.25,1.35,2.6,2.66,4.26,3.41c2.76,1.26,6.05,0.84,8.78-0.49C223.61,235.95,227.37,233.32,228.17,229.63"/>
		<path class="st0" d="M152.57,334.66c-6.09,0.63-11.83,5.81-15.51,11.3c-2.17,3.23-4,6.82-4.84,10.75
			c-1.46,6.77,0.24,14.17,4.05,19.65s9.57,9.06,15.65,10.35c6.22,1.32,13.22,0.1,17.8-4.83c2.29-2.47,3.83-5.67,5.16-8.9
			c2.73-6.66,4.72-14.22,2.94-21.26c-1.44-5.7-5.3-10.41-9.94-13.23C163.23,335.67,157.85,334.61,152.57,334.66"/>
		<path class="st0" d="M118.64,343.82c-3.05,0.23-5.67,1.33-8.06,3.12c-2.07,1.55-4.18,3.13-5.73,5.23
			c-1.56,2.09-2.51,4.8-1.96,7.37c0.71,3.31,3.65,5.57,6.42,7.42c1.74,1.16,3.23,0.7,5.28,1.05c3.67,0.64,7.58-2.53,10.17-5.26
			c3.6-3.8,5.81-6.72,4.34-11.79S123.7,343.49,118.64,343.82"/>
		<path class="st0" d="M120.1,385.85c-2.27-1.72-3.03-5.06-3.67-7.56c-0.63-2.51-0.28-5.44,1.53-7.25c1.39-1.38,3.37-1.91,5.25-2.37
			c1.54-0.38,3.14-0.75,4.71-0.51c1.42,0.22,2.73,0.94,3.81,1.9c3.65,3.25,4.29,9.48,1.38,13.44S124.17,388.54,120.1,385.85"/>
		<path class="st0" d="M114.36,53.74c-2.72,0.3-4.57,0.72-6.65,2.26c-2.14,1.58-4.28,3.16-6.43,4.74c-3.27,2.41-4.44,4.66-5.08,8.65
			c-0.71,4.4,0.05,9.09,3.52,11.95c5.91,4.86,13.39,7.8,21.06,8.28c1.96,0.12,3.99,0.08,5.78-0.71c1.49-0.66,2.71-1.78,3.79-2.99
			c4.21-4.69,6.64-11.09,5.82-17.31c-0.81-6.22-5.15-12.05-11.18-14.01C121.6,53.48,117.93,53.6,114.36,53.74"/>
		<path class="st0" d="M246.42,303.88c-14.73,12.74-18.82,41.69-9.12,53.42s38.04,12.08,52.77-0.66
			c14.73-12.74,19.87-40.43,10.17-52.16C290.53,292.76,261.15,291.14,246.42,303.88z"/>
		<path class="st0" d="M363.3,370.07c-1.97-13.15-4.61-16.86-11.81-25.56c-5.16-6.24-11.38-12.28-19.24-13.79
			c-7.05-1.35-14.4,1.26-20.22,5.56c-5.82,4.3-10.34,10.15-14.62,16.03c-4.06,5.57-8.1,11.52-9.1,18.38
			c-1.55,10.58,4.43,20.78,11.26,28.89c3.56,4.22,7.51,8.25,12.36,10.8c5.99,3.14,12.99,3.8,19.67,3
			c10.12-1.22,20.04-5.92,26.49-13.98S365.04,380.61,363.3,370.07"/>
		<path class="st0" d="M255.75,170.97c10.47-1.15,20.17-8.78,29.2-15.1c3.07-2.15,6.19-4.63,7.5-8.18c1.02-2.78,0.81-5.85,0.57-8.81
			c-0.21-2.66-0.42-5.33-0.63-7.99c-0.58-7.34-1.22-14.9-4.55-21.43c-3.33-6.53-10.07-11.82-17.23-11.01
			c-5.41,0.61-9.93,4.46-13.59,8.58c-3.1,3.49-5.85,7.3-8.2,11.36c-5.16,8.89-8.39,19.38-6.81,29.59c0.4,2.55,1.08,5.04,1.8,7.52
			c0.94,3.24,1.97,6.5,3.73,9.36C249.31,167.71,252.72,171.1,255.75,170.97"/>
		<path class="st0" d="M173.43,118.15c-3.18,2.6-4.81,7.36-5.65,11.38c-0.84,4.02-0.59,8.41,1.4,11.78c1.48,2.5,3.79,4.25,6.2,5.62
			c2.69,1.54,5.63,2.69,8.7,2.84c3.07,0.15,6.3-0.78,8.69-3.01c2.31-2.15,3.67-5.29,4.45-8.47c0.56-2.29,0.84-4.72,0.3-6.97
			c-0.7-2.93-2.7-5.2-4.72-7.21c-2.63-2.62-5.5-5.06-8.85-6.4C180.59,116.36,176.66,116.24,173.43,118.15"/>
		<path class="st0" d="M186.04,115.32c15.85,14.72,47.26,19.31,56.54,8.87s13.1-41.45-2.75-56.17s-52.85-10.85-62.13-0.41
			C168.42,78.05,170.19,100.6,186.04,115.32z"/>
		<path class="st0" d="M154.3,55.84c-2.32,0.4-3.9,0.94-5.69,2.88c-1.84,2-3.68,4-5.52,6c-2.81,3.05-3.82,5.88-4.4,10.89
			c-0.64,5.53-0.02,11.41,2.92,14.97c5.01,6.05,11.38,9.69,17.92,10.24c1.67,0.14,3.41,0.07,4.94-0.94
			c1.28-0.83,2.33-2.26,3.26-3.78c3.62-5.92,5.75-13.97,5.09-21.77c-0.65-7.8-4.31-15.09-9.45-17.51
			C160.48,55.47,157.35,55.65,154.3,55.84"/>
		<path class="st0" d="M196.63,58.82c-9.14,2.56-19.18,2.13-27.94-1.51s-16.15-10.52-20.03-19.07c-1.45-3.2-2.42-6.68-2.22-10.18
			c0.42-7.19,5.86-13.39,12.39-16.63s14.02-4,21.33-4.27c5.62-0.21,11.43-0.13,16.58,2.09C206.39,13.4,211.6,24.7,210.39,35
			C209.18,45.3,206.66,55.31,196.63,58.82"/>
		<path class="st0" d="M124.26,27.92c-0.83,5.24-0.84,10.61-0.03,15.85c0.56,3.62,1.68,7.43,4.5,9.69c2.44,1.95,5.73,2.37,8.83,2.23
			c1.2-0.06,2.43-0.2,3.51-0.75c1.23-0.63,2.16-1.74,2.89-2.94c3.52-5.74,2.81-13.23,0.7-19.65c-0.58-1.76-1.28-3.53-2.47-4.93
			c-1.99-2.33-5.15-3.35-8.17-3.31S126.5,24.91,124.26,27.92"/>
		<path class="st0" d="M258.58,43.95c-8.31,1.28-15.7,7.55-18.46,15.67c-0.6,1.77-0.99,3.75-0.33,5.5c0.61,1.61,2.01,2.76,3.39,3.76
			c3.76,2.72,8.21,5.02,12.79,4.46c3.55-0.44,6.69-2.55,9.36-4.98c4.12-3.75,7.45-8.41,9.7-13.56c0.36-0.82,0.69-1.68,0.66-2.58
			c-0.03-0.88-0.41-1.7-0.86-2.45C271.9,44.83,264.03,42.45,258.58,43.95"/>
		<path class="st0" d="M220.55,10.1c-4.76,2.95-7.77,8.73-8.36,14.11s0.83,10.82,3.16,15.76c1.14,2.43,2.53,4.81,4.53,6.68
			c3.25,3.06,7.91,4.52,12.47,4.65c10.52,0.3,20.78-6.75,23.77-16.32c0.8-2.55,1.12-5.2,1.32-7.85c0.28-3.67,0.28-7.52-1.46-10.81
			c-2.19-4.15-6.77-6.66-11.34-8.31C236.67,5.11,226.68,4.49,220.55,10.1"/>
		<path class="st0" d="M220.39,336.8c-7.06,0.24-13.6,5.34-16.86,11.75s-2.86,14.61,1.01,20.65c3.87,6.05,11.05,9.71,18.1,9.23
			c1.44-0.1,2.9-0.36,4.19-1.03c2.31-1.19,3.85-3.54,4.85-5.98c3.12-7.63,1.76-16.37-0.56-24.29c-0.78-2.67-1.71-5.38-3.48-7.49
			C225.86,337.53,223.03,336.12,220.39,336.8"/>
		<path class="st0" d="M229.71,381.86c1.99-4.28,4.92-8.34,8.94-11.37s9.2-4.94,14.21-4.7c3.94,0.19,7.52,1.66,11,3.11
			c4.23,1.76,8.45,3.51,12.57,5.44c2.63,1.23,5.27,2.55,7.26,4.5c3.13,3.05,4.4,7.45,4,11.78s-2.37,8.57-5.08,12.35
			c-0.77,1.08-1.61,2.13-2.66,3.01c-1.15,0.95-2.51,1.65-3.85,2.34c-3.82,1.96-7.65,3.92-11.56,5.72c-2.73,1.26-5.51,2.83-8.49,3.03
			c-7.84,0.52-16.32-2.96-22.36-7.3C225.44,403.84,224.93,391.65,229.71,381.86"/>
		<path class="st0" d="M290.28,19.08c6.82,0.14,11.48,3.12,16.06,8.06c1.17,1.26,2.17,2.74,2.55,4.44c0.59,2.68-0.48,5.58-2.27,7.74
			s-4.22,3.68-6.68,4.98c-4.08,2.16-8.46,3.87-13.01,4.24c-4.55,0.37-9.28-0.7-12.72-3.6c-5.3-4.47-6.4-13.18-2.41-19.1
			S282.32,18.38,290.28,19.08"/>
		<path class="st0" d="M205.79,372.32c-3.39-2.58-7.54-2.94-11.43-2.9c-6.82,0.08-14.41,0.5-18.87,5.71
			c-4.54,5.31-4.08,13.62-2.62,20.86c1.77,8.79,5.49,18.42,13.35,22.12c5.6,2.63,12.02,1.53,17.46-0.88
			c4.9-2.17,9.52-5.53,11.9-10.52c2.62-5.48,2.18-12.31,0.02-18.26C213.43,382.5,209.7,377.26,205.79,372.32"/>
		<path class="st0" d="M374.79,334.69c-3.05,0.23-5.67,1.33-8.06,3.12c-2.07,1.55-4.18,3.13-5.73,5.23s-2.51,4.8-1.96,7.37
			c0.71,3.31,3.65,5.57,6.42,7.42c1.74,1.16,3.23,0.7,5.28,1.05c3.67,0.64,7.58-2.53,10.17-5.26c3.6-3.8,5.81-6.72,4.34-11.79
			S379.85,334.36,374.79,334.69"/>
	</g>
</g>
<g id="Camada_4">
</g>
<g id="Camada_5">
</g>
</svg>
