<?xml version="1.0" encoding="utf-8"?>
<!-- Generator: Adobe Illustrator 27.0.0, SVG Export Plug-In . SVG Version: 6.00 Build 0)  -->
<svg version="1.1" xmlns="http://www.w3.org/2000/svg" xmlns:xlink="http://www.w3.org/1999/xlink" x="0px" y="0px"
	 viewBox="0 0 492.05 425.48" style="enable-background:new 0 0 492.05 425.48;" xml:space="preserve">
<style type="text/css">
	.st0{fill:none;stroke:#35398E;stroke-width:4;stroke-linecap:round;stroke-linejoin:round;stroke-miterlimit:10;}
	.st1{fill:none;stroke:#6CC4C7;stroke-width:6.4204;stroke-miterlimit:10;}
	.st2{fill:#6CC4C7;}
	.st3{fill:#35398E;}
	.st4{fill:#62388E;}
	.st5{fill:#E83B68;}
	.st6{fill:none;stroke:#35398E;stroke-width:4;stroke-miterlimit:10;}
	.st7{display:none;}
	.st8{display:inline;fill:none;stroke:#6CC4C7;stroke-width:6.4204;stroke-miterlimit:10;}
</style>
<g id="Camada_1">
</g>
<g id="Camada_2">
</g>
<g id="original">
</g>
<g id="inv_x5F_vertical">
	<g>
		<path class="st0" d="M239.57,74.91c0,29.54-38.46,48.92-74.01,48.92s-54.73-22.4-54.73-75.44c0-29.54,28.82-41.55,64.37-41.55
			S239.57,45.37,239.57,74.91z"/>
		<path class="st0" d="M382.57,380.96c0,24.66-28.82,36.69-64.37,36.69s-64.37-48.72-64.37-73.38s25.09-42.44,60.64-42.44
			S382.57,356.3,382.57,380.96z"/>
		<path class="st0" d="M305.75,113.78c-16.48,14.29-48.39,17.91-57.46,7.13s-11.99-42.04,4.49-56.33s53.79-9.23,62.85,1.54
			S322.23,99.48,305.75,113.78z"/>
		<path class="st0" d="M382.86,49.66c0,19.82-19.2,41.82-34.4,41.82c-15.2,0-33.99-22-33.99-41.82s17.57-41.82,32.77-41.82
			C362.44,7.83,382.86,29.84,382.86,49.66z"/>
		<path class="st0" d="M207.68,361.6c0,30.69-27.78,55.56-50.66,55.56s-50.66-27.11-50.66-57.8s37.02-61.88,59.9-61.88
			S207.68,330.92,207.68,361.6z"/>
		<path class="st0" d="M141.73,243.45c15.01,6.02,22.19,31.53,16.4,46.4c-5.79,14.87-28.44,19.79-43.45,13.76
			c-15.01-6.02-22.75-37.53-16.96-52.4C103.5,236.35,126.72,237.43,141.73,243.45z"/>
		<path class="st0" d="M298.27,280.62c0,17.03-25.55,32.74-45.51,32.74c-10.35,0-19.54,0.76-28-6.86
			c-7.85-7.08-15.37-22.25-15.37-30.45c0-17.03,17.79-44.03,37.75-44.03S298.27,263.59,298.27,280.62z"/>
		<path class="st0" d="M111.81,213.14c0,20.14-17.82,43.38-41.03,43.38s-50.41-23.24-50.41-43.38s17.18-43.38,40.38-43.38
			S111.81,193,111.81,213.14z"/>
		<path class="st0" d="M271.75,394.79c0,13.73-15.15,24.86-33.84,24.86s-33.84-11.13-33.84-24.86c0-13.73,5.71-30.66,24.4-30.66
			S271.75,381.06,271.75,394.79z"/>
		<path class="st0" d="M411.43,114.86c-3.15-0.79-3.25-1.07-6.5-1.11c-1.87-0.02-3.79,0.09-5.5,0.84c-1.74,0.76-3.14,2.12-4.43,3.53
			c-2.2,2.4-4.18,5.01-5.9,7.79c-1.1,1.77-2.1,3.64-2.6,5.67c-0.74,2.99-0.35,6.14,0.04,9.2c0.62,4.82,1.34,9.89,4.25,13.75
			c2.89,3.83,7.5,5.85,11.99,7.45c7.78,2.78,16.5,4.75,24.12,1.56c6.88-2.88,11.69-9.74,13.27-17.12c0.49-2.3,0.7-4.69,0.36-7.02
			c-0.5-3.38-2.15-6.5-4.25-9.16C430.15,122.45,420.57,118.5,411.43,114.86"/>
		<path class="st0" d="M371.62,309.12c-1.91,6.1-3.2,12.76-3.41,19.54c-0.14,4.46-0.39,9.32,1.96,12.88
			c3.78,5.71,10.91,6.47,17.18,6.75c5.41,0.24,11.21,0.37,15.78-2.95c4.68-3.41,7.01-9.66,9.08-15.54c1.76-5,3.55-10.23,3.13-15.6
			c-0.57-7.26-5.33-13.58-11.22-16.4c-5.89-2.82-12.68-2.47-18.76-0.21C378.06,300.32,376.75,300.89,371.62,309.12"/>
		<path class="st0" d="M394.69,257.8c-5.61,2.73-10.97,6.85-13.96,12.91c-2.99,6.07-3.05,14.35,1.04,19.52
			c4.44,5.61,11.91,6.01,18.53,6.01c4.79,0,9.59,0,14.38,0c1.66,0,3.36-0.01,4.93-0.64c4.25-1.71,6.17-7.3,6.94-12.36
			c0.68-4.47,0.86-9.21-0.61-13.42c-1.65-4.76-5.26-8.37-9.29-10.63C409.57,255.22,403.05,254.71,394.69,257.8"/>
		<path class="st0" d="M405.46,212.09c-4.31,5.56-7.2,11.1-7.78,18.15c-0.64,7.7,2.84,15.42,8.37,20.73
			c5.53,5.31,12.92,8.33,20.45,9.44c8.45,1.24,17.39,0.09,24.83-4.16c11.87-6.78,18.37-20.22,22.67-33.34
			c2.57-7.85,4.19-17.65-1.64-23.43c-1.96-1.94-4.52-3.11-7.09-4.05C444.54,187.86,419.49,194.84,405.46,212.09"/>
		<path class="st0" d="M99.37,111.5c2.67,0.63,5.33-0.97,7.47-2.71c5.14-4.18,7.46-9.72,6.71-16.36c-0.5-4.44-1.22-9-4.87-11.49
			c-3.65-2.49-8.06-3.64-12.44-4.03c-2.99-0.26-6.22-0.12-8.64,1.68c-1.85,1.38-2.96,3.56-3.67,5.78
			c-1.76,5.5-1.32,11.74,1.37,16.84C87.99,106.31,93.79,110.34,99.37,111.5"/>
		<path class="st0" d="M359.57,164.83c-9.59-4.71-16.3-15.29-22.79-24.39c-2.21-3.09-4.35-6.52-4.42-10.33
			c-0.05-2.98,1.18-5.81,2.39-8.53c1.09-2.45,2.18-4.89,3.26-7.34c3-6.74,6.13-13.68,11.48-18.7c5.35-5.03,13.54-7.7,20.09-4.46
			c4.95,2.45,7.97,7.65,10.09,12.82c1.79,4.37,3.14,8.93,4.03,13.58c1.95,10.2,1.54,21.24-3.37,30.36c-1.23,2.28-2.71,4.4-4.22,6.49
			c-1.98,2.74-4.04,5.47-6.68,7.56C366.79,163.98,362.41,166,359.57,164.83"/>
		<path class="st0" d="M57.9,267.05c-4.7,5.65-3.74,14.11-2.25,21.16c0.38,1.8,0.92,3.6,1.96,5.11c2.58,3.74,7.77,4.84,12.15,3.77
			c4.37-1.08,8.1-3.91,11.61-6.77c4.05-3.31,8.09-6.88,10.54-11.54c2.46-4.66,3.05-10.67,0.22-15.11c-2.48-3.9-7.13-5.9-11.68-6.36
			C71.7,256.41,64.21,260.29,57.9,267.05"/>
		<path class="st0" d="M443.6,280.15c2.3-1.73,3.07-5.08,3.71-7.6c0.64-2.52,0.28-5.46-1.55-7.28c-1.4-1.39-3.41-1.92-5.31-2.38
			c-1.56-0.38-3.17-0.76-4.76-0.51c-1.43,0.22-2.76,0.94-3.86,1.91c-3.7,3.27-4.34,9.52-1.39,13.5
			C433.38,281.76,439.48,282.86,443.6,280.15"/>
		<path class="st0" d="M215.25,225.82c-3.5-5.22-7.61-7.17-12.97-9.16c-7.7-2.86-16.36-2.15-24.12,0.51
			c-6.3,2.16-12.33,5.71-16.29,11.12c-3.96,5.41-5.54,12.89-2.92,19.09c0.83,1.96,2.02,3.73,3.3,5.42c2.27,3,4.89,5.84,8.22,7.55
			c2.46,1.26,5.2,1.85,7.93,2.25c10.73,1.57,21.83,0.39,32-3.4c0.76-0.28,1.53-0.59,2.13-1.15c0.61-0.56,0.98-1.34,1.33-2.09
			c2.89-6.09,5.85-12.69,4.7-19.36C217.9,232.9,217.65,229.71,215.25,225.82"/>
		<path class="st0" d="M102.97,169.35c-3.07,3.8-3.66,7.75-3.18,12.59c0.12,1.23,0.44,2.48,1.16,3.48c1.14,1.59,3.16,2.36,5.12,2.39
			s3.88-0.58,5.7-1.32c3.02-1.22,5.94-2.82,8.23-5.13s3.92-5.41,3.98-8.66c0.1-5-3.97-9.7-8.92-10.3
			C110.1,161.8,106.28,164.66,102.97,169.35"/>
		<path class="st0" d="M235.02,174.81c-1.22-5.27-3.47-10.38-7.09-14.36s-8.68-6.74-14.01-6.92c-4.19-0.14-8.27,1.27-12.23,2.66
			c-4.82,1.69-9.63,3.39-14.37,5.29c-3.03,1.21-6.08,2.54-8.58,4.67c-3.93,3.34-6.17,8.45-6.63,13.63
			c-0.46,5.18,0.74,10.41,2.81,15.16c0.59,1.35,1.26,2.69,2.19,3.82c1.01,1.23,2.3,2.19,3.58,3.14c3.63,2.69,7.26,5.38,11.01,7.88
			c2.62,1.75,5.23,3.88,8.33,4.4c8.16,1.35,17.82-2,25.07-6.58C235,201.34,238.05,186.89,235.02,174.81"/>
		<path class="st0" d="M234.04,8.81c-6.03,4.8-8.92,12.36-8.73,20.13c0.19,7.77,4.17,15.36,10.42,19.86
			c4.82,3.47,10.69,5.06,16.47,6.3c5.81,1.24,12.15,2.11,17.45-0.59c3.98-2.03,6.87-5.92,8.22-10.23c1.35-4.31,1.25-8.99,0.26-13.4
			c-0.7-3.11-1.83-6.13-3.35-8.92c-1.37-2.52-3.07-4.88-5.2-6.77c-3.56-3.15-8.1-4.85-12.54-6.48c-2.89-1.06-5.81-2.13-8.86-2.58
			C243.35,5.42,238.29,5.9,234.04,8.81"/>
		<path class="st0" d="M348.51,212.79c-1.95,2.05-2.67,5.45-2.59,8.21c0.07,2.42,1.29,4.78,3.2,6.22c2.03,1.52,4.62,1.97,7.11,2.37
			c0.82,0.13,1.66,0.27,2.48,0.1c1.49-0.3,2.61-1.55,3.39-2.86c1.61-2.71,2.18-5.93,2.37-9.09c0.03-0.49,0.05-1-0.12-1.46
			c-0.18-0.51-0.57-0.92-0.98-1.27c-3.62-3.13-8.91-3.93-13.62-2.81C348.94,212.39,348.67,212.32,348.51,212.79"/>
		<path class="st0" d="M286.52,48.67c-6.7-9.17-8.05-22.08-3.39-32.47c1.33-2.96,3.15-5.77,5.73-7.69
			c4.56-3.39,11.08-3.45,16.04-0.71s9.2,7.86,9.53,13.59c0.3,5.28-1.03,11.03-1.75,16.86c-0.71,5.7-5.58,10.39-10.68,12.89
			c-5.1,2.5-11.93,1.81-15.55-2.61"/>
		<path class="st0" d="M295.39,123.22c10.17-1.44,21.52-2.61,29.79,3.57c7.54,5.63,10.19,15.65,12.34,24.89
			c0.56,2.39,1.12,4.82,0.92,7.27c-0.28,3.5-2.07,6.67-3.91,9.64c-2.79,4.5-6.37,9.26-11.55,10.05c-3.16,0.48-6.42-0.43-9.27-1.89
			c-11.14-5.71-21.15-14.24-30.84-20.73c-2.98-2-5.02-5.28-6.44-8.61c-2.32-5.44-1.43-12.15,2.24-16.76
			C282.34,126.04,287.42,124.27,295.39,123.22"/>
		<path class="st0" d="M161.09,290.84c-2.38-6.85-0.1-14.97,4.61-20.43c4.71-5.46,12.41-8.08,19.41-6.59
			c7,1.49,13.02,7.02,15.18,13.94c0.44,1.42,0.73,2.91,0.59,4.38c-0.25,2.65-1.84,4.98-3.72,6.83c-5.88,5.78-14.44,7.68-22.6,8.36
			c-2.75,0.23-5.59,0.34-8.19-0.59C163.77,295.8,161.44,293.61,161.09,290.84"/>
		<path class="st0" d="M245.14,322.69c4.82,2.97,7.86,8.77,8.46,14.18s-0.84,10.87-3.19,15.84c-1.16,2.44-2.56,4.83-4.58,6.71
			c-3.29,3.07-8,4.55-12.62,4.68c-10.65,0.3-21.03-6.78-24.06-16.4c-0.8-2.56-1.13-5.23-1.33-7.89c-0.28-3.69-0.29-7.56,1.48-10.86
			c2.22-4.17,6.85-6.69,11.48-8.35C228.83,317.68,238.94,317.06,245.14,322.69"/>
		<path class="st0" d="M370.48,208.21c5.23-0.48,10.53-0.1,15.65,1.11c3.53,0.84,7.22,2.26,9.24,5.31c1.75,2.64,1.93,6.05,1.56,9.2
			c-0.14,1.23-0.37,2.48-1,3.54c-0.71,1.22-1.88,2.09-3.11,2.75c-5.93,3.19-13.26,1.93-19.45-0.7c-1.7-0.72-3.39-1.56-4.68-2.89
			c-2.16-2.2-2.93-5.52-2.68-8.61S367.34,210.29,370.48,208.21"/>
		<path class="st0" d="M245.5,201.64c3.22,2.62,4.87,7.4,5.72,11.43c0.85,4.03,0.6,8.45-1.42,11.84c-1.5,2.51-3.83,4.27-6.27,5.65
			c-2.73,1.54-5.7,2.7-8.81,2.85c-3.11,0.15-6.37-0.79-8.8-3.02c-2.34-2.16-3.72-5.32-4.5-8.51c-0.56-2.3-0.85-4.75-0.31-7.01
			c0.71-2.94,2.73-5.22,4.78-7.24c2.66-2.63,5.56-5.09,8.96-6.43C238.24,199.84,242.23,199.72,245.5,201.64"/>
		<path class="st0" d="M324.49,183.45c3.92-5.75,12.91-3.37,18.34-0.34c5.44,3.03,9.2,9.01,9.48,15.3
			c0.27,6.29-3.02,12.65-8.36,15.85c-4.82,2.89-11.48,2.95-15.69-0.79c-1.36-1.21-2.41-2.74-3.29-4.34
			C320.7,201.34,320.52,191.39,324.49,183.45"/>
		<path class="st0" d="M289.52,168.83c15.65,0.29,23.13,13.86,28.43,28.46c2.44,6.73,5.18,13.38,2.83,20.14
			c-1.53,4.39-4.37,8.2-7.57,11.54c-7.79,8.13-18.51,13.98-29.68,13.62c-14.02-0.46-26.84-11.39-30.56-25.13
			c-3.72-13.74,1.38-29.28,11.88-38.73C271.68,172.59,280.55,169.35,289.52,168.83"/>
		<path class="st0" d="M454.19,163.59c3.95,2.53,4.44,5.66,5.13,10.14c0.59,3.81-1.24,7.33-2.7,10.89
			c-2.63,6.4-10.82,9.3-17.26,6.97c-6.43-2.33-10.8-8.91-11.77-15.77c-0.29-2.07-0.3-4.25,0.49-6.18c0.71-1.74,2.01-3.15,3.36-4.44
			c2.07-1.98,4.45-3.84,7.26-4.31c2.12-0.35,6-0.6,8.09-0.12C449.83,161.47,451.61,161.4,454.19,163.59"/>
		<path class="st0" d="M396.28,160.98c8.63,1.05,17.21,5.13,22.21,12.35c5,7.22,5.62,17.79,0.21,24.69
			c-4.2,5.35-11.08,7.76-17.74,8.78c-11.17,1.71-22.79,0.22-33.19-4.26c-4.88-2.1-9.7-5.05-12.37-9.71
			c-3.44-6.02-2.49-13.98,1.32-19.76c3.81-5.79,10.06-9.57,16.63-11.57S389.43,161.17,396.28,160.98"/>
		<path class="st0" d="M227.89,104.3c2.26-0.22,3.88,0.42,5.95,1.39c5.34,2.5,9,8.33,8.97,14.3c-0.03,5.97-3.73,11.77-9.1,14.22
			c-4.32,1.98-10.19,1.42-12.82-2.59c-0.93-1.42-1.37-3.11-1.62-4.8C218.05,118.5,221.44,109.61,227.89,104.3"/>
		<path class="st0" d="M413.39,97.65c-0.22,6.07-2.9,12.89-8.58,14.24c-2.89,0.69-5.92,0.16-8.84-0.36
			c-4.68-0.84-9.64-1.82-13.13-5.11c-1.66-1.57-2.87-3.56-3.87-5.63c-3.27-6.76-4.43-14.47-3.84-21.97
			c0.35-4.43,1.88-7.55,5.58-9.93c3.88-2.49,8.69-1.89,12.8,0.18C404.56,74.62,412.43,85.17,413.39,97.65"/>
		<path class="st0" d="M68.75,114.94c4.35-3.14,9.77-3.45,14.88-3.26c8.93,0.34,18.89,1.13,24.89,7.85
			c6.12,6.85,5.79,17.32,4.12,26.41c-2.03,11.03-6.57,23.05-16.75,27.44c-7.24,3.13-15.69,1.52-22.89-1.7
			c-6.49-2.9-12.65-7.3-15.93-13.68c-3.61-7.01-3.26-15.6-0.62-23.04C59.08,127.52,63.8,121.04,68.75,114.94"/>
		<path class="st0" d="M368.41,309.09c0.05,3.53-0.43,4.81-2.41,6.71c-1.98,1.9-4.85,2.61-7.58,2.47c-1.73-0.08-3.5-0.5-4.85-1.58
			c-2.52-2.01-2.97-5.66-3.05-8.91c-0.02-0.86-0.02-1.77,0.38-2.53c0.45-0.84,1.31-1.36,2.17-1.78c2.9-1.41,6.26-2.14,9.36-1.27
			S368.24,305.83,368.41,309.09"/>
		<path class="st0" d="M357.04,234.03c10.42,8.18,12.34,12.35,16.34,23.06c2.87,7.67,5.06,16.21,2.51,24
			c-2.29,7-8.15,12.33-14.73,15.47c-6.57,3.14-13.85,4.35-21.05,5.34c-6.81,0.94-13.94,1.67-20.38-0.77
			c-9.92-3.76-15.82-14.1-19.49-24.19c-1.91-5.26-3.46-10.77-3.29-16.37c0.22-6.91,3.08-13.53,7.05-19.14
			c6.02-8.5,14.95-15.13,25.1-17C339.24,222.56,348.77,227.34,357.04,234.03"/>
		<path class="st0" d="M201.29,120.98c2.75,0.3,4.62,0.73,6.72,2.27c2.17,1.59,4.34,3.18,6.5,4.76c3.31,2.43,4.49,4.68,5.15,8.69
			c0.72,4.43-0.05,9.14-3.56,12.01c-5.98,4.88-13.55,7.84-21.31,8.32c-1.98,0.12-4.04,0.08-5.85-0.72c-1.51-0.66-2.75-1.79-3.84-3
			c-4.26-4.71-6.72-11.14-5.89-17.39s5.21-12.11,11.32-14.08C193.96,120.72,197.67,120.84,201.29,120.98"/>
		<path class="st0" d="M383.14,233.73c3.08,0.23,5.74,1.34,8.15,3.13c2.1,1.56,4.23,3.15,5.8,5.25s2.54,4.82,1.99,7.4
			c-0.72,3.33-3.69,5.6-6.5,7.46c-1.76,1.17-3.27,0.7-5.35,1.06c-3.71,0.64-7.67-2.54-10.29-5.29c-3.64-3.82-5.88-6.75-4.39-11.85
			C374.04,235.79,378.02,233.4,383.14,233.73"/>
		<path class="st0" d="M166.6,187.15c2.79,9.35,2.54,19.66-1.04,28.73c-3.58,9.07-10.51,16.79-19.23,20.93
			c-3.26,1.55-6.82,2.62-10.41,2.47c-7.39-0.3-13.86-5.77-17.31-12.42c-3.45-6.65-4.36-14.33-4.77-21.83
			c-0.32-5.77-0.34-11.74,1.84-17.07c4.09-9.99,15.6-15.54,26.2-14.49C152.49,174.51,162.81,176.91,166.6,187.15"/>
		<path class="st0" d="M86.98,290.51c7.29-2.33,13.6,2.53,18.04,7.71c1.38,1.61,2.54,3.42,3.84,5.1c1.31,1.7,2.77,3.27,4.05,5
			c1.57,2.11,2.86,4.44,3.93,6.85c1.34,3.02,2.34,6.48,1.24,9.59c-0.82,2.34-2.71,4.1-4.55,5.73c-3.3,2.9-6.83,5.73-11.01,7.05
			c-2.13,0.67-4.36,0.93-6.59,1.06c-1.52,0.09-3.06,0.13-4.54-0.22c-1.72-0.4-3.29-1.31-4.74-2.33c-5.32-3.77-9.33-9.39-11.21-15.69
			c-1.88-6.3-1.6-13.24,0.78-19.37C77.91,296.61,82.51,291.72,86.98,290.51"/>
		<path class="st0" d="M255.96,127.14c6.17,0.64,11.97,5.83,15.7,11.36c2.19,3.25,4.05,6.85,4.9,10.8c1.47,6.8-0.24,14.24-4.1,19.74
			c-3.85,5.5-9.68,9.1-15.84,10.4c-6.3,1.33-13.37,0.1-18.01-4.86c-2.32-2.48-3.88-5.7-5.22-8.95c-2.76-6.69-4.78-14.29-2.98-21.36
			c1.46-5.73,5.36-10.46,10.06-13.29S250.61,127.09,255.96,127.14"/>
		<path class="st0" d="M204.62,293.23c8.41,1.29,15.88,7.59,18.68,15.74c0.61,1.78,1,3.77,0.33,5.52c-0.62,1.62-2.03,2.77-3.43,3.77
			c-3.81,2.74-8.31,5.05-12.94,4.48c-3.59-0.44-6.77-2.56-9.48-5c-4.17-3.77-7.54-8.45-9.82-13.63c-0.36-0.82-0.7-1.69-0.67-2.59
			c0.03-0.88,0.42-1.71,0.87-2.46C191.13,294.12,199.09,291.73,204.62,293.23"/>
		<path class="st0" d="M132.87,125.05c9.57-1.54,18.47-2.19,27.43,1.73c2.76,1.21,5.31,2.89,7.76,4.7c2.87,2.12,5.7,4.5,7.43,7.71
			c1.54,2.86,2.1,6.19,2.38,9.46c0.52,5.9,0.21,12.01-2.03,17.44c-0.68,1.64-1.55,3.24-2.86,4.39c-2.16,1.91-5.15,2.32-7.97,2.54
			c-4.18,0.33-8.38,0.4-12.57,0.21c-4.38-0.19-8.78-0.67-12.95-2.07c-3.95-1.33-7.61-3.46-11.18-5.7c-3.45-2.17-6.87-4.48-9.63-7.55
			s-4.83-7.01-5.04-11.22c-0.27-5.29,2.44-10.35,6.17-13.89C123.54,129.26,128.21,127.03,132.87,125.05"/>
		<path class="st0" d="M321.42,108.92c-1.24-3.68-2.15-7.59-1.61-11.44c0.54-3.85,2.76-7.64,6.3-9.13
			c3.47-1.47,7.71-0.41,10.42,2.24c2.71,2.64,3.93,6.65,3.61,10.45c-0.26,3.09-1.5,6.1-3.6,8.35s-5.06,3.69-8.11,3.76
			C325.75,113.22,321.95,111.58,321.42,108.92"/>
	</g>
</g>
<g id="Camada_9">
</g>
<g id="inv_x5F_horiz">
</g>
<g id="inv_x5F_horiz_x5F_vert">
</g>
<g id="Camada_4">
</g>
<g id="Camada_5">
</g>
</svg>
