<?xml version="1.0" encoding="utf-8"?>
<!-- Generator: Adobe Illustrator 27.0.0, SVG Export Plug-In . SVG Version: 6.00 Build 0)  -->
<svg version="1.1" xmlns="http://www.w3.org/2000/svg" xmlns:xlink="http://www.w3.org/1999/xlink" x="0px" y="0px"
	 viewBox="0 0 492.05 425.48" style="enable-background:new 0 0 492.05 425.48;" xml:space="preserve">
<style type="text/css">
	.st0{fill:none;stroke:#35398E;stroke-width:4;stroke-linecap:round;stroke-linejoin:round;stroke-miterlimit:10;}
	.st1{fill:none;stroke:#6CC4C7;stroke-width:6.4204;stroke-miterlimit:10;}
	.st2{fill:#6CC4C7;}
	.st3{fill:#35398E;}
	.st4{fill:#62388E;}
	.st5{fill:#E83B68;}
	.st6{fill:none;stroke:#35398E;stroke-width:4;stroke-miterlimit:10;}
	.st7{display:none;}
	.st8{display:inline;fill:none;stroke:#6CC4C7;stroke-width:6.4204;stroke-miterlimit:10;}
</style>
<g id="Camada_1">
</g>
<g id="Camada_2">
</g>
<g id="original">
</g>
<g id="inv_x5F_vertical">
</g>
<g id="Camada_9">
</g>
<g id="inv_x5F_horiz">
</g>
<g id="inv_x5F_horiz_x5F_vert">
	<g>
		<path class="st0" d="M215.96,353.37c0,38.61,51.33,63.93,98.78,63.93s73.04-29.27,73.04-98.59c0-38.61-38.46-54.3-85.91-54.3
			S215.96,314.76,215.96,353.37z"/>
		<path class="st0" d="M338.35,245.24c0,24.39,29.12,36.29,65.03,36.29s65.03-48.2,65.03-72.59s-25.35-41.98-61.26-41.98
			S338.35,220.85,338.35,245.24z"/>
		<path class="st0" d="M215.67,176.43c0,30.36,28.07,54.96,51.18,54.96s51.18-26.82,51.18-57.18S280.63,113,257.52,113
			S215.67,146.07,215.67,176.43z"/>
		<path class="st0" d="M103.85,386.06c0,16.85,25.81,32.39,45.97,32.39c10.46,0,19.74,0.75,28.28-6.79
			c7.94-7,15.53-22.01,15.53-30.12c0-16.85-17.97-43.55-38.14-43.55S103.85,369.21,103.85,386.06z"/>
		<path class="st0" d="M311.85,211.81c-6.23,0.63-12.09,5.77-15.86,11.24c-2.21,3.21-4.09,6.78-4.95,10.69
			c-1.49,6.73,0.25,14.09,4.14,19.53c3.89,5.45,9.78,9.01,16,10.29c6.36,1.31,13.51,0.1,18.2-4.81c2.34-2.45,3.92-5.63,5.28-8.85
			c2.79-6.62,4.83-14.14,3.01-21.13c-1.48-5.67-5.42-10.35-10.17-13.15C322.74,212.81,317.25,211.77,311.85,211.81"/>
		<path class="st0" d="M337.51,176.23c-7.22,0.24-13.9,5.31-17.23,11.68c-3.33,6.37-2.92,14.52,1.03,20.53
			c3.95,6.01,11.3,9.65,18.5,9.17c1.47-0.1,2.96-0.36,4.28-1.02c2.36-1.19,3.94-3.52,4.96-5.95c3.19-7.58,1.8-16.28-0.57-24.15
			c-0.8-2.65-1.74-5.35-3.56-7.44S340.21,175.57,337.51,176.23"/>
		<path class="st0" d="M189.34,257.04c0,19.6,19.4,41.37,34.76,41.37s34.34-21.77,34.34-41.37c0-19.6-17.75-41.37-33.11-41.37
			S189.34,237.43,189.34,257.04z"/>
		<path class="st0" d="M211.24,385.92c-10.64,0.93-19.77,7.68-22.81,16.85c-0.66,2-1.04,4.25-0.07,6.31
			c0.89,1.9,2.77,3.31,4.61,4.55c5.03,3.38,10.92,6.33,16.79,5.98c4.55-0.27,8.47-2.5,11.76-5.12c5.08-4.06,9.08-9.2,11.65-14.99
			c0.41-0.92,0.79-1.89,0.69-2.93c-0.1-1.01-0.64-1.99-1.27-2.88C228.49,387.81,218.18,384.55,211.24,385.92"/>
		<path class="st0" d="M215.96,367.46c-1.42-5.08-3.66-9.93-6.61-14.32c-2.04-3.03-4.67-6-8.24-6.83c-3.08-0.72-6.32,0.3-9.12,1.75
			c-1.09,0.56-2.17,1.22-2.94,2.17c-0.88,1.09-1.28,2.5-1.45,3.88c-0.86,6.68,2.93,13.13,7.59,18.03c1.28,1.34,2.66,2.64,4.36,3.39
			c2.82,1.26,6.18,0.83,8.97-0.49S215.14,371.13,215.96,367.46"/>
		<path class="st0" d="M208.02,182.47c4.35,5.5,7.28,10.98,7.86,17.95c0.64,7.61-2.87,15.26-8.45,20.51s-13.06,8.24-20.66,9.33
			c-8.54,1.23-17.57,0.09-25.09-4.11c-11.99-6.71-18.56-20.01-22.9-32.98c-2.6-7.77-4.24-17.46,1.66-23.18
			c1.98-1.92,4.56-3.08,7.16-4.01C168.54,158.51,193.85,165.42,208.02,182.47"/>
		<path class="st0" d="M166.87,231.47c-2.78,0.3-4.67,0.72-6.79,2.24c-2.19,1.57-4.38,3.14-6.57,4.71c-3.35,2.4-4.54,4.63-5.2,8.6
			c-0.73,4.38,0.05,9.04,3.6,11.88c6.04,4.83,13.69,7.75,21.53,8.23c2,0.12,4.08,0.08,5.91-0.71c1.52-0.65,2.77-1.77,3.88-2.97
			c4.3-4.66,6.79-11.02,5.96-17.21c-0.83-6.18-5.27-11.98-11.43-13.93C174.28,231.22,170.53,231.34,166.87,231.47"/>
		<path class="st0" d="M198.5,340.99c5.57-11.73,5.38-26.63,5.83-40.01c0.16-4.54,0.07-9.35-2.01-12.91c-1.63-2.78-4.27-4.43-6.83-6
			c-2.3-1.41-4.61-2.82-6.91-4.23c-6.35-3.88-12.92-7.84-20.32-8.33s-15.91,3.38-19.7,11.41c-2.87,6.08-2.53,13.19-1.45,19.57
			c0.92,5.4,2.32,10.64,4.17,15.6c4.05,10.88,10.6,20.71,19.92,25.29c2.33,1.15,4.79,1.95,7.26,2.7c3.23,0.99,6.53,1.9,9.96,1.79
			C191.83,345.79,196.72,344.26,198.5,340.99"/>
		<path class="st0" d="M401.47,283.37c-3.12,0.22-5.8,1.32-8.24,3.1c-2.12,1.54-4.27,3.12-5.86,5.19c-1.59,2.08-2.57,4.77-2.01,7.32
			c0.73,3.3,3.73,5.54,6.57,7.38c1.78,1.15,3.31,0.69,5.4,1.05c3.75,0.63,7.75-2.52,10.39-5.23c3.68-3.78,5.94-6.68,4.44-11.72
			C410.66,285.42,406.64,283.05,401.47,283.37"/>
		<path class="st0" d="M265.38,264.58c-3.88-3-5.17-8.84-6.25-13.23c-1.08-4.39-0.47-9.51,2.63-12.69c2.37-2.43,5.75-3.34,8.97-4.15
			c2.64-0.66,5.36-1.32,8.04-0.9c2.42,0.38,4.66,1.64,6.51,3.32c6.23,5.69,7.31,16.58,2.33,23.51
			C282.61,267.38,272.32,269.29,265.38,264.58"/>
		<path class="st0" d="M110.9,304.94c-4.87,2.94-7.94,8.68-8.55,14.02c-0.61,5.34,0.85,10.75,3.23,15.67
			c1.17,2.42,2.59,4.78,4.63,6.64c3.33,3.04,8.08,4.5,12.75,4.63c10.76,0.29,21.24-6.71,24.3-16.23c0.81-2.53,1.14-5.17,1.35-7.81
			c0.28-3.65,0.29-7.48-1.49-10.75c-2.24-4.12-6.93-6.62-11.59-8.26C127.37,299.99,117.16,299.37,110.9,304.94"/>
		<path class="st0" d="M92.86,338.1c-3.25,2.59-4.92,7.32-5.78,11.31c-0.86,3.99-0.6,8.36,1.44,11.71c1.51,2.48,3.87,4.22,6.34,5.59
			c2.75,1.53,5.76,2.67,8.9,2.82c3.14,0.15,6.44-0.78,8.89-2.99c2.36-2.13,3.76-5.26,4.55-8.42c0.57-2.28,0.86-4.69,0.31-6.93
			c-0.72-2.91-2.76-5.17-4.83-7.17c-2.69-2.6-5.62-5.03-9.05-6.36C100.19,336.32,96.16,336.2,92.86,338.1"/>
		<path class="st0" d="M222.73,301.44c1.97,2.03,2.7,5.39,2.62,8.12c-0.07,2.39-1.3,4.73-3.24,6.15c-2.05,1.5-4.67,1.95-7.19,2.35
			c-0.83,0.13-1.68,0.26-2.5,0.1c-1.5-0.3-2.64-1.53-3.43-2.83c-1.63-2.68-2.2-5.87-2.4-8.99c-0.03-0.48-0.05-0.98,0.12-1.44
			c0.18-0.51,0.58-0.91,0.99-1.26c3.66-3.09,9-3.89,13.76-2.78C222.29,301.04,222.57,300.97,222.73,301.44"/>
		<path class="st0" d="M391.33,168.52c11.78-11.21,8.9-37.3-2.11-48.72c-11-11.42-34.04-7.33-45.82,3.88s-7.17,43.01,3.83,54.43
			C358.24,189.53,379.55,179.74,391.33,168.52z"/>
		<path class="st0" d="M418.48,137.68c-8.5,1.27-16.05,7.51-18.87,15.57c-0.62,1.76-1.01,3.72-0.34,5.46
			c0.62,1.6,2.05,2.74,3.46,3.73c3.85,2.71,8.4,4.99,13.08,4.44c3.63-0.43,6.84-2.53,9.57-4.95c4.21-3.73,7.62-8.36,9.92-13.48
			c0.37-0.81,0.71-1.67,0.68-2.56c-0.03-0.87-0.42-1.69-0.88-2.44C432.1,138.55,424.06,136.19,418.48,137.68"/>
		<path class="st0" d="M116.98,23c-13.12,11.47-15.31,17.04-19.73,31.26c-3.17,10.19-5.35,21.44-1.33,31.33
			c3.61,8.88,11.82,15.3,20.78,18.82c8.96,3.52,18.7,4.48,28.31,5.16c9.09,0.65,18.6,1,26.92-2.7c12.83-5.7,19.78-19.6,23.8-32.98
			c2.1-6.97,3.69-14.25,3-21.49c-0.86-8.94-5.19-17.28-10.92-24.23c-8.67-10.52-21.05-18.37-34.64-19.94S127.38,13.63,116.98,23"/>
		<path class="st0" d="M142,137.74c0,13.58,17.53,24.59,39.16,24.59s39.16-11.01,39.16-24.59s-6.61-30.32-28.23-30.32
			S142,124.16,142,137.74z"/>
		<path class="st0" d="M126.01,108.46c5.67,2.7,11.09,6.77,14.11,12.78c3.02,6,3.08,14.19-1.05,19.31
			c-4.49,5.55-12.03,5.95-18.72,5.95c-4.84,0-9.69,0-14.53,0c-1.68,0-3.4-0.01-4.98-0.63c-4.29-1.69-6.23-7.22-7.02-12.22
			c-0.69-4.42-0.87-9.11,0.62-13.28c1.67-4.7,5.31-8.28,9.38-10.51C110.99,105.9,117.57,105.4,126.01,108.46"/>
		<path class="st0" d="M336.49,147.87c-1.42-5.08-3.66-9.93-6.61-14.32c-2.04-3.03-4.67-6-8.24-6.83c-3.08-0.72-6.32,0.3-9.12,1.75
			c-1.09,0.56-2.17,1.22-2.94,2.17c-0.88,1.09-1.28,2.5-1.45,3.88c-0.86,6.68,2.93,13.13,7.59,18.03c1.28,1.34,2.66,2.64,4.36,3.39
			c2.82,1.26,6.18,0.83,8.97-0.49C331.82,154.14,335.67,151.54,336.49,147.87"/>
		<path class="st0" d="M361.07,69.01c-4.87,2.94-7.94,8.68-8.55,14.02s0.85,10.75,3.23,15.67c1.17,2.42,2.59,4.78,4.63,6.64
			c3.33,3.04,8.08,4.5,12.75,4.63c10.76,0.29,21.24-6.71,24.3-16.23c0.81-2.53,1.14-5.17,1.35-7.81c0.28-3.65,0.29-7.48-1.49-10.75
			c-2.24-4.12-6.93-6.62-11.59-8.26C377.55,64.05,367.34,63.44,361.07,69.01"/>
		<path class="st0" d="M57.31,267.96c0,16.85,25.81,32.39,45.97,32.39c10.46,0,19.74,0.75,28.28-6.79
			c7.94-7,15.53-22.01,15.53-30.12c0-16.85-17.97-43.55-38.14-43.55S57.31,251.11,57.31,267.96z"/>
		<path class="st0" d="M72.13,316.25c0.62,8.53,6.27,16.47,14.13,19.84c1.71,0.74,3.65,1.27,5.44,0.72c1.65-0.51,2.9-1.84,4-3.17
			c3-3.63,5.64-7.98,5.44-12.67c-0.15-3.63-2.01-6.97-4.21-9.85c-3.41-4.45-7.77-8.16-12.72-10.8c-0.79-0.42-1.62-0.82-2.51-0.85
			c-0.87-0.03-1.72,0.3-2.5,0.7C74.05,302.78,71.07,310.6,72.13,316.25"/>
		<path class="st0" d="M116.13,192.81c-3.25,2.59-4.92,7.32-5.78,11.31c-0.86,3.99-0.6,8.36,1.44,11.71
			c1.51,2.48,3.87,4.22,6.34,5.59c2.75,1.53,5.76,2.67,8.9,2.82c3.14,0.15,6.44-0.78,8.89-2.99c2.36-2.13,3.76-5.26,4.55-8.42
			c0.57-2.28,0.86-4.69,0.31-6.93c-0.72-2.91-2.76-5.17-4.83-7.17c-2.69-2.6-5.62-5.03-9.05-6.36
			C123.46,191.03,119.43,190.91,116.13,192.81"/>
		<path class="st0" d="M41.94,228.37c-2.51,0.31-4.22,0.73-6.15,2.25c-1.98,1.57-3.97,3.15-5.95,4.72c-3.03,2.4-4.11,4.64-4.72,8.6
			c-0.67,4.38,0.03,9.04,3.24,11.87c5.45,4.82,12.37,7.73,19.45,8.2c1.81,0.12,3.69,0.07,5.35-0.72c1.38-0.65,2.51-1.78,3.51-2.98
			c3.9-4.67,6.16-11.03,5.41-17.22c-0.74-6.18-4.74-11.97-10.31-13.91C48.64,228.11,45.25,228.23,41.94,228.37"/>
		<path class="st0" d="M98.57,146.08c-6.23,0.63-12.09,5.77-15.86,11.24c-2.21,3.21-4.09,6.78-4.95,10.69
			c-1.49,6.73,0.25,14.09,4.14,19.53c3.89,5.45,9.78,9.01,16,10.29c6.36,1.31,13.51,0.1,18.2-4.81c2.34-2.45,3.92-5.63,5.28-8.85
			c2.79-6.62,4.83-14.13,3.01-21.13c-1.48-5.67-5.42-10.35-10.17-13.15C109.47,147.08,103.97,146.03,98.57,146.08"/>
		<path class="st0" d="M98.84,202.15c3.11,3.76,3.7,7.67,3.21,12.45c-0.12,1.22-0.44,2.45-1.17,3.45c-1.15,1.57-3.19,2.33-5.17,2.37
			c-1.98,0.03-3.92-0.58-5.76-1.3c-3.05-1.2-6-2.79-8.32-5.08s-3.96-5.36-4.02-8.56c-0.1-4.95,4.01-9.6,9.02-10.19
			C91.64,194.68,95.5,197.51,98.84,202.15"/>
		<path class="st0" d="M289.39,64.59c-15.06,12.66-19.24,41.44-9.33,53.1c9.92,11.65,38.9,12.01,53.95-0.65
			c15.06-12.66,20.31-40.19,10.39-51.85S304.45,51.93,289.39,64.59z"/>
		<path class="st0" d="M342.21,11.71c4.63-0.7,9.64-0.5,14.44,1.17s9.39,4.92,12.13,9.22c2.15,3.38,3.06,7.16,3.92,10.85
			c1.05,4.48,2.11,8.96,2.96,13.45c0.55,2.87,1.02,5.79,0.61,8.51c-0.64,4.28-3.46,7.77-7.19,9.81c-3.74,2.05-8.33,2.75-12.98,2.59
			c-1.32-0.05-2.67-0.16-3.99-0.56c-1.44-0.43-2.8-1.18-4.15-1.91c-3.83-2.1-7.65-4.2-11.4-6.46c-2.62-1.58-5.52-3.02-7.43-5.39
			c-5.01-6.23-7.16-15.2-7.19-22.61C321.92,20.28,331.49,13.13,342.21,11.71"/>
		<path class="st0" d="M272.89,102.06c-1.42-5.08-3.66-9.93-6.61-14.32c-2.04-3.03-4.67-6-8.24-6.83c-3.08-0.72-6.32,0.3-9.12,1.75
			c-1.09,0.56-2.17,1.22-2.94,2.17c-0.88,1.09-1.28,2.5-1.45,3.88c-0.86,6.68,2.93,13.13,7.59,18.03c1.28,1.34,2.66,2.64,4.36,3.39
			c2.82,1.26,6.18,0.83,8.97-0.49C268.22,108.34,272.07,105.73,272.89,102.06"/>
		<path class="st0" d="M226.89,87.82c-8.5,1.27-16.05,7.51-18.87,15.57c-0.62,1.76-1.01,3.72-0.34,5.46
			c0.62,1.6,2.05,2.74,3.46,3.73c3.85,2.71,8.4,4.99,13.08,4.44c3.63-0.43,6.84-2.53,9.57-4.95c4.21-3.73,7.62-8.36,9.92-13.48
			c0.37-0.81,0.71-1.67,0.68-2.56c-0.03-0.87-0.42-1.69-0.88-2.44C240.51,88.69,232.47,86.33,226.89,87.82"/>
		<path class="st0" d="M306.18,8.72c-3.46-2.57-7.71-2.92-11.69-2.88c-6.97,0.08-14.74,0.5-19.29,5.68
			c-4.64,5.28-4.17,13.54-2.68,20.74c1.81,8.74,5.61,18.31,13.65,21.98c5.72,2.61,12.29,1.52,17.85-0.87
			c5.01-2.15,9.73-5.5,12.17-10.46c2.67-5.45,2.23-12.23,0.02-18.15C313.99,18.84,310.18,13.63,306.18,8.72"/>
		<path class="st0" d="M401.09,140.12c-2.32-1.71-3.1-5.03-3.75-7.52s-0.29-5.41,1.57-7.21c1.42-1.38,3.44-1.9,5.37-2.35
			c1.58-0.38,3.21-0.75,4.81-0.51c1.45,0.22,2.79,0.93,3.9,1.89c3.74,3.23,4.39,9.42,1.41,13.36
			C411.41,141.72,405.25,142.8,401.09,140.12"/>
		<path class="st0" d="M74.1,89.52c-3.99,2.51-4.49,5.6-5.19,10.03c-0.59,3.77,1.25,7.25,2.73,10.77c2.66,6.33,10.94,9.2,17.43,6.9
			c6.5-2.3,10.92-8.82,11.89-15.6c0.29-2.05,0.3-4.2-0.49-6.11c-0.72-1.72-2.03-3.11-3.39-4.39c-2.09-1.96-4.49-3.8-7.33-4.26
			c-2.14-0.35-6.06-0.59-8.18-0.12C78.51,87.42,76.71,87.36,74.1,89.52"/>
		<path class="st0" d="M71.02,116.96c-8.1,0.5-15.76,6.03-19.72,12.8s-3.78,15.27,0.44,21.42c4.22,6.15,12.32,9.7,20.41,8.95
			c1.66-0.15,3.33-0.48,4.83-1.22c2.69-1.32,4.53-3.81,5.76-6.38c3.84-8.03,2.59-17.07,0.21-25.22c-0.8-2.74-1.77-5.53-3.73-7.65
			C77.26,117.52,74.07,116.16,71.02,116.96"/>
		<path class="st0" d="M78.12,185.9c-0.22-5.83-3.24-10.39-6.46-14.34c-5.63-6.9-12.22-14.28-20.97-14.08
			c-8.91,0.2-16.7,8.27-22.64,16.38c-7.2,9.84-13.64,22.44-10.87,33.85c1.97,8.13,8.28,13.69,15.07,17.06
			c6.12,3.04,13.18,4.69,20.03,2.56c7.52-2.33,13.87-9.01,17.96-16.66C74.33,203.01,76.44,194.41,78.12,185.9"/>
		<path class="st0" d="M198.73,54.27c0,14.9,16.8,26.98,37.52,26.98s37.52-12.08,37.52-26.98S267.44,21,246.72,21
			S198.73,39.37,198.73,54.27z"/>
	</g>
</g>
<g id="Camada_4">
</g>
<g id="Camada_5">
</g>
</svg>
