<?xml version="1.0" encoding="utf-8"?>
<!-- Generator: Adobe Illustrator 27.0.0, SVG Export Plug-In . SVG Version: 6.00 Build 0)  -->
<svg version="1.1" xmlns="http://www.w3.org/2000/svg" xmlns:xlink="http://www.w3.org/1999/xlink" x="0px" y="0px"
	 viewBox="0 0 492.05 425.48" style="enable-background:new 0 0 492.05 425.48;" xml:space="preserve">
<style type="text/css">
	.st0{fill:none;stroke:#35398E;stroke-width:4;stroke-linecap:round;stroke-linejoin:round;stroke-miterlimit:10;}
	.st1{fill:none;stroke:#6CC4C7;stroke-width:6.4204;stroke-miterlimit:10;}
	.st2{fill:#6CC4C7;}
	.st3{fill:#35398E;}
	.st4{fill:#62388E;}
	.st5{fill:#E83B68;}
	.st6{fill:none;stroke:#35398E;stroke-width:4;stroke-miterlimit:10;}
	.st7{display:none;}
	.st8{display:inline;fill:none;stroke:#6CC4C7;stroke-width:6.4204;stroke-miterlimit:10;}
</style>
<g id="Camada_1">
</g>
<g id="Camada_2">
</g>
<g id="original">
	<g>
		<path class="st0" d="M273.74,283.02c0-29.54-38.22-48.92-73.55-48.92s-54.39,22.4-54.39,75.44c0,29.54,28.64,41.55,63.97,41.55
			S273.74,312.56,273.74,283.02z"/>
		<path class="st0" d="M343.57,126.93c0-24.66-28.64-36.69-63.97-36.69s-63.97,48.72-63.97,73.38s24.93,42.44,60.26,42.44
			S343.57,151.59,343.57,126.93z"/>
		<path class="st0" d="M178.42,348.1c-19.13-10.11-51.71-4.51-58.78,9.44c-7.07,13.95-4.19,47.54,14.93,57.65
			c19.13,10.11,55.5-6.16,62.56-20.11C204.2,381.14,197.54,358.22,178.42,348.1z"/>
		<path class="st0" d="M208.84,63.88c0-30.69-27.61-55.56-50.35-55.56s-50.35,27.11-50.35,57.8S144.93,128,167.67,128
			S208.84,94.56,208.84,63.88z"/>
		<path class="st0" d="M143.3,182.03c14.92-6.02,22.05-31.53,16.3-46.4c-5.75-14.87-28.26-19.79-43.18-13.76
			s-22.61,37.53-16.86,52.4C105.31,189.13,128.38,188.05,143.3,182.03z"/>
		<path class="st0" d="M264.43,221.01c0-8.6-8.23-16.53-14.67-16.53c-3.34,0-6.3-0.38-9.02,3.47c-2.53,3.57-4.95,11.23-4.95,15.37
			c0,8.6,5.73,22.23,12.17,22.23S264.43,229.6,264.43,221.01z"/>
		<path class="st0" d="M113.56,212.34c0-20.14-17.71-43.38-40.78-43.38s-50.1,23.24-50.1,43.38s17.07,43.38,40.13,43.38
			S113.56,232.48,113.56,212.34z"/>
		<path class="st0" d="M272.52,30.69c0-13.73-15.06-24.86-33.63-24.86s-33.63,11.13-33.63,24.86s5.67,30.66,24.25,30.66
			S272.52,44.42,272.52,30.69z"/>
		<path class="st0" d="M101.2,313.99c2.65-0.63,5.29,0.97,7.42,2.71c5.11,4.18,7.42,9.72,6.67,16.36c-0.5,4.44-1.21,9-4.84,11.49
			c-3.63,2.49-8.01,3.64-12.36,4.03c-2.97,0.26-6.18,0.12-8.58-1.68c-1.84-1.38-2.95-3.56-3.65-5.78
			c-1.75-5.5-1.31-11.74,1.37-16.84C89.9,319.17,95.65,315.14,101.2,313.99"/>
		<path class="st0" d="M59.98,158.43c-4.68-5.65-3.72-14.1-2.24-21.16c0.38-1.8,0.91-3.6,1.95-5.11c2.56-3.74,7.73-4.84,12.07-3.77
			c4.35,1.08,8.05,3.91,11.54,6.77c4.03,3.31,8.04,6.88,10.48,11.54c2.44,4.66,3.03,10.67,0.22,15.11c-2.47,3.9-7.09,5.9-11.61,6.36
			C73.7,169.07,66.26,165.19,59.98,158.43"/>
		<path class="st0" d="M214.97,169.51c2.87,6.09,5.81,12.69,4.67,19.36c-0.64,3.71-0.89,6.91-3.28,10.79"/>
		<path class="st0" d="M216.36,199.66c-3.48,5.22-7.56,7.17-12.89,9.16c-7.66,2.86-16.26,2.15-23.97-0.51
			c-6.26-2.16-12.25-5.71-16.19-11.12c-3.94-5.41-5.5-12.89-2.9-19.09c0.82-1.96,2.01-3.73,3.28-5.42c2.26-3,4.86-5.84,8.17-7.55
			c2.44-1.26,5.17-1.85,7.88-2.25c10.66-1.57,32.43-0.33,35.24,6.64"/>
		<path class="st0" d="M104.78,256.14c-3.06-3.8-3.64-7.75-3.16-12.59c0.12-1.23,0.43-2.48,1.15-3.48c1.13-1.59,3.14-2.36,5.09-2.39
			s3.86,0.58,5.67,1.32c3,1.22,5.9,2.82,8.18,5.13c2.28,2.31,3.89,5.41,3.96,8.66c0.1,5-3.95,9.7-8.87,10.3
			C111.87,263.68,108.06,260.82,104.78,256.14"/>
		<path class="st0" d="M235.04,416.67c-5.99-4.8-8.86-12.36-8.68-20.13c0.19-7.77,4.14-15.36,10.36-19.86
			c4.79-3.47,10.62-5.06,16.37-6.3c5.78-1.24,12.07-2.11,17.35,0.59c3.95,2.03,6.83,5.92,8.17,10.23s1.24,8.99,0.26,13.4
			c-0.69,3.11-1.82,6.13-3.33,8.92c-1.36,2.52-3.05,4.88-5.17,6.77c-3.53,3.15-8.05,4.85-12.46,6.48c-2.87,1.06-5.77,2.13-8.8,2.58
			C244.29,420.06,239.26,419.58,235.04,416.67"/>
		<path class="st0" d="M296.02,302.26c10.11,1.44,21.38,2.61,29.61-3.57c7.49-5.63,10.12-15.65,12.27-24.89
			c0.55-2.39,1.11-4.82,0.92-7.27c-0.28-3.5-2.06-6.67-3.89-9.64c-2.77-4.5-6.33-9.26-11.48-10.05c-3.14-0.48-6.38,0.43-9.21,1.89
			c-11.07,5.71-21.02,14.24-30.65,20.73c-2.96,2-4.99,5.28-6.4,8.61c-2.31,5.44-1.42,12.15,2.22,16.76
			C283.04,299.44,288.1,301.21,296.02,302.26"/>
		<path class="st0" d="M162.54,134.64c-2.37,6.85-0.09,14.97,4.59,20.43c4.68,5.46,12.33,8.08,19.29,6.59
			c6.96-1.49,12.94-7.02,15.09-13.94c0.44-1.42,0.73-2.91,0.59-4.38c-0.25-2.65-1.83-4.98-3.7-6.83
			c-5.84-5.78-14.35-7.68-22.46-8.36c-2.73-0.23-5.55-0.34-8.14,0.59C165.21,129.68,162.89,131.87,162.54,134.64"/>
		<path class="st0" d="M246.07,102.79c4.79-2.97,7.81-8.77,8.41-14.18c0.6-5.4-0.83-10.87-3.17-15.84
			c-1.15-2.44-2.55-4.83-4.55-6.71c-3.27-3.07-7.95-4.55-12.55-4.68c-10.58-0.3-20.9,6.78-23.91,16.4c-0.8,2.56-1.12,5.23-1.32,7.89
			c-0.28,3.69-0.28,7.56,1.47,10.86c2.21,4.17,6.81,6.69,11.41,8.35C229.86,107.8,239.91,108.42,246.07,102.79"/>
		<path class="st0" d="M233.98,367.28c1.59,1.64,3.23,2.2,5.42,2.8c5.65,1.55,12.09-0.56,15.81-5.17
			c3.72-4.61,4.52-11.47,1.96-16.84c-2.06-4.33-6.9-7.71-11.41-6.34c-1.6,0.48-2.99,1.5-4.24,2.63
			C235.35,349.97,232.38,359.01,233.98,367.28"/>
		<path class="st0" d="M306.88,252.11c7.35-5.54,8.7-8.37,11.53-15.63c2.02-5.21,3.56-11,1.76-16.28
			c-1.62-4.75-5.77-8.37-10.41-10.5s-9.78-2.96-14.87-3.64c-4.81-0.64-9.85-1.14-14.39,0.51c-7.01,2.54-11.16,9.56-13.75,16.4
			c-1.35,3.57-2.44,7.3-2.31,11.1c0.16,4.69,2.18,9.18,4.99,12.99c4.25,5.77,10.57,10.28,17.73,11.55
			C294.32,259.88,301.05,256.64,306.88,252.11"/>
		<path class="st0" d="M168.02,238.33c2.78-9.35,2.52-19.66-1.04-28.73c-3.56-9.07-10.45-16.79-19.11-20.93
			c-3.24-1.55-6.77-2.62-10.35-2.47c-7.35,0.3-13.77,5.77-17.2,12.42c-3.42,6.65-4.33,14.33-4.74,21.83
			c-0.32,5.77-0.34,11.74,1.83,17.07c4.06,9.99,15.5,15.54,26.04,14.49C153.99,250.97,164.25,248.57,168.02,238.33"/>
		<path class="st0" d="M88.88,134.97c7.24,2.33,13.52-2.53,17.93-7.71c1.38-1.61,2.52-3.42,3.81-5.1c1.3-1.7,2.75-3.27,4.03-5
			c1.56-2.11,2.84-4.44,3.91-6.85c1.33-3.02,2.32-6.48,1.23-9.59c-0.82-2.34-2.69-4.1-4.53-5.73c-3.28-2.9-6.79-5.73-10.94-7.05
			c-2.12-0.67-4.34-0.93-6.55-1.06c-1.51-0.09-3.04-0.13-4.51,0.22c-1.71,0.4-3.27,1.31-4.71,2.33c-5.28,3.77-9.28,9.39-11.14,15.69
			s-1.59,13.24,0.77,19.37C79.87,128.87,84.45,133.76,88.88,134.97"/>
		<path class="st0" d="M205.8,132.25c8.36-1.29,15.79-7.59,18.56-15.74c0.61-1.78,1-3.77,0.33-5.52c-0.61-1.62-2.02-2.77-3.41-3.77
			c-3.79-2.74-8.26-5.05-12.86-4.48c-3.57,0.44-6.73,2.56-9.42,5c-4.15,3.77-7.5,8.45-9.76,13.63c-0.36,0.82-0.7,1.69-0.67,2.59
			c0.03,0.88,0.41,1.71,0.86,2.46C192.4,131.36,200.31,133.75,205.8,132.25"/>
		<path class="st0" d="M273.75,354.8c9.51,1.54,18.36,2.19,27.26-1.73c2.74-1.21,5.27-2.89,7.71-4.7c2.86-2.12,5.67-4.5,7.39-7.71
			c1.53-2.86,2.08-6.19,2.37-9.46c0.51-5.9,0.21-12.01-2.02-17.44c-0.67-1.64-1.54-3.24-2.84-4.39c-2.15-1.91-5.12-2.32-7.92-2.54
			c-4.15-0.33-8.33-0.4-12.49-0.21c-4.35,0.19-8.72,0.67-12.87,2.07c-3.93,1.33-7.57,3.46-11.11,5.7c-3.43,2.17-6.83,4.48-9.57,7.55
			s-4.8,7.01-5.01,11.22c-0.26,5.29,2.43,10.35,6.13,13.89C264.48,350.59,269.12,352.82,273.75,354.8"/>
		<path class="st0" d="M321.88,316.56c-1.23,3.68-2.13,7.59-1.6,11.44c0.53,3.85,2.74,7.64,6.26,9.13
			c3.45,1.47,7.67,0.41,10.36-2.24c2.69-2.64,3.91-6.65,3.59-10.45c-0.26-3.09-1.49-6.1-3.57-8.35c-2.08-2.25-5.03-3.69-8.06-3.76
			C326.19,312.26,322.41,313.9,321.88,316.56"/>
		<path class="st0" d="M209.97,231.01c-2.89-3.06-3.96-8.12-3.84-12.24c0.11-3.61,1.91-7.12,4.75-9.27c3-2.27,6.85-2.93,10.54-3.53
			c1.22-0.2,2.47-0.4,3.67-0.15c2.2,0.45,3.87,2.31,5.03,4.27c2.38,4.04,3.23,8.84,3.51,13.55c0.04,0.73,0.07,1.48-0.17,2.17
			c-0.27,0.76-0.85,1.37-1.45,1.9c-5.36,4.66-13.2,5.86-20.18,4.19C210.6,231.62,210.21,231.72,209.97,231.01"/>
		<path class="st0" d="M119.96,339.06c3.05,4.3,8.23,7.93,12.98,6.11c2.42-0.93,4.35-2.8,6.21-4.63c2.98-2.93,6.09-6.09,7.05-10.2
			c0.45-1.96,0.38-4.01,0.11-6.01c-0.86-6.52-3.69-12.7-7.69-17.86c-2.36-3.04-4.96-4.56-8.76-4.46c-3.99,0.11-7.17,2.92-9.16,6.46
			C115.37,317.97,114.72,329.52,119.96,339.06"/>
		<path class="st0" d="M122.09,300.79c-5.74-2.42-6.36-15.52-6.23-22.6c0.12-6.2,2.09-12.25,5.19-15.94
			c3.28-3.9,7.49-5.05,11.52-6.08c1.33-0.34,2.7-0.68,4.02-0.25c2.41,0.78,4.23,3.97,5.5,7.35c2.61,6.96,3.53,15.21,3.84,23.32
			c0.05,1.26,0.08,2.55-0.19,3.74c-0.3,1.31-0.93,2.36-1.59,3.26C138.29,301.6,129.72,303.66,122.09,300.79"/>
		<path class="st0" d="M82.86,254.45c-5.18,4.97-6.82,13.25-5.13,20.3c1.69,7.05,7.31,12.97,14.16,14.92
			c6.85,1.95,14.65-0.15,19.67-5.29c1.03-1.05,1.95-2.24,2.5-3.61c0.97-2.47,0.62-5.28-0.21-7.8c-2.58-7.88-9.29-13.57-16.17-17.98
			c-2.32-1.49-4.78-2.91-7.49-3.3C87.47,251.29,84.42,252.15,82.86,254.45"/>
		<path class="st0" d="M99.08,311.35c-2.42-2.56-3.31-6.8-3.21-10.24c0.09-3.02,1.6-5.96,3.97-7.76c2.51-1.9,5.73-2.46,8.82-2.96
			c1.02-0.17,2.06-0.33,3.07-0.12c1.84,0.38,3.24,1.93,4.21,3.57c2,3.38,2.71,7.4,2.94,11.35c0.04,0.61,0.06,1.24-0.14,1.82
			c-0.23,0.64-0.71,1.15-1.22,1.59c-4.49,3.9-11.05,4.91-16.89,3.51C99.62,311.86,99.28,311.94,99.08,311.35"/>
	</g>
</g>
<g id="inv_x5F_vertical">
</g>
<g id="Camada_9">
</g>
<g id="inv_x5F_horiz">
</g>
<g id="inv_x5F_horiz_x5F_vert">
</g>
<g id="Camada_4">
</g>
<g id="Camada_5">
</g>
</svg>
