<?xml version="1.0" encoding="utf-8"?>
<!-- Generator: Adobe Illustrator 27.0.0, SVG Export Plug-In . SVG Version: 6.00 Build 0)  -->
<svg version="1.1" xmlns="http://www.w3.org/2000/svg" xmlns:xlink="http://www.w3.org/1999/xlink" x="0px" y="0px"
	 viewBox="0 0 492.05 425.48" style="enable-background:new 0 0 492.05 425.48;" xml:space="preserve">
<style type="text/css">
	.st0{fill:none;stroke:#35398E;stroke-width:4;stroke-linecap:round;stroke-linejoin:round;stroke-miterlimit:10;}
	.st1{fill:none;stroke:#6CC4C7;stroke-width:6.4204;stroke-miterlimit:10;}
	.st2{fill:#6CC4C7;}
	.st3{fill:#35398E;}
	.st4{fill:#62388E;}
	.st5{fill:#E83B68;}
	.st6{fill:none;stroke:#35398E;stroke-width:4;stroke-miterlimit:10;}
	.st7{display:none;}
	.st8{display:inline;fill:none;stroke:#6CC4C7;stroke-width:6.4204;stroke-miterlimit:10;}
</style>
<g id="Camada_1">
</g>
<g id="Camada_2">
</g>
<g id="original">
	<g>
		<path class="st0" d="M114.13,44.52c0-24.66,28.82-36.69,64.37-36.69s64.37,48.72,64.37,73.38s-25.09,42.44-60.64,42.44
			S114.13,69.18,114.13,44.52z"/>
		<path class="st0" d="M289.02,63.88c0-30.69,27.78-55.56,50.66-55.56s50.66,27.11,50.66,57.8S353.33,128,330.45,128
			C307.57,128,289.02,94.56,289.02,63.88z"/>
		<path class="st0" d="M354.97,182.03c-15.01-6.02-22.19-31.53-16.4-46.4c5.79-14.87,28.44-19.79,43.45-13.76
			c15.01,6.02,22.75,37.53,16.96,52.4C393.2,189.13,369.98,188.05,354.97,182.03z"/>
		<path class="st0" d="M198.43,144.86c0-17.03,25.55-32.74,45.51-32.74c10.35,0,19.54-0.76,28,6.86
			c7.85,7.08,15.37,22.25,15.37,30.45c0,17.03-17.79,44.03-37.75,44.03S198.43,161.89,198.43,144.86z"/>
		<path class="st0" d="M384.89,212.34c0-20.14,17.82-43.38,41.03-43.38s50.41,23.24,50.41,43.38s-17.18,43.38-40.38,43.38
			S384.89,232.48,384.89,212.34z"/>
		<path class="st0" d="M224.95,30.69c0-13.73,15.15-24.86,33.84-24.86s33.84,11.13,33.84,24.86s-5.71,30.66-24.4,30.66
			S224.95,44.42,224.95,30.69z"/>
		<path class="st0" d="M125.08,116.36c1.91-6.1,3.2-12.76,3.41-19.54c0.14-4.46,0.39-9.32-1.96-12.88
			c-3.78-5.71-10.91-6.47-17.18-6.75c-5.41-0.24-11.21-0.37-15.78,2.95c-4.68,3.41-7.01,9.66-9.08,15.54
			c-1.76,5-3.55,10.23-3.13,15.6c0.57,7.26,5.33,13.58,11.22,16.4s12.68,2.47,18.76,0.21C118.64,125.16,119.95,124.59,125.08,116.36
			"/>
		<path class="st0" d="M102.01,167.68c5.61-2.73,10.97-6.85,13.96-12.91c2.99-6.07,3.05-14.35-1.04-19.52
			c-4.44-5.61-11.91-6.01-18.53-6.01c-4.79,0-9.59,0-14.38,0c-1.66,0-3.36,0.01-4.93,0.64c-4.25,1.71-6.17,7.3-6.94,12.36
			c-0.68,4.47-0.86,9.21,0.61,13.42c1.65,4.76,5.26,8.37,9.29,10.63C87.13,170.26,93.65,170.77,102.01,167.68"/>
		<path class="st0" d="M91.24,213.39c4.31-5.56,7.2-11.1,7.78-18.15c0.64-7.7-2.84-15.42-8.37-20.73
			c-5.53-5.31-12.92-8.33-20.45-9.44c-8.45-1.24-17.39-0.09-24.83,4.16C33.5,176.02,27,189.46,22.7,202.58
			c-2.57,7.85-4.19,17.65,1.64,23.43c1.96,1.94,4.52,3.11,7.09,4.05C52.16,237.62,77.21,230.64,91.24,213.39"/>
		<path class="st0" d="M438.8,158.43c4.7-5.65,3.74-14.1,2.25-21.16c-0.38-1.8-0.92-3.6-1.96-5.11c-2.58-3.74-7.77-4.84-12.15-3.77
			c-4.37,1.08-8.1,3.91-11.61,6.77c-4.05,3.31-8.09,6.88-10.54,11.54s-3.05,10.67-0.22,15.11c2.48,3.9,7.13,5.9,11.68,6.36
			C425,169.07,432.49,165.19,438.8,158.43"/>
		<path class="st0" d="M53.1,145.33c-2.3,1.73-3.07,5.08-3.71,7.6c-0.64,2.52-0.28,5.46,1.55,7.28c1.4,1.39,3.41,1.92,5.31,2.38
			c1.56,0.38,3.17,0.76,4.76,0.51c1.43-0.22,2.76-0.94,3.86-1.91c3.7-3.27,4.34-9.52,1.39-13.5
			C63.32,143.72,57.22,142.62,53.1,145.33"/>
		<path class="st0" d="M281.45,199.66c3.5,5.22,7.61,7.17,12.97,9.16c7.7,2.86,16.36,2.15,24.12-0.51
			c6.3-2.16,12.33-5.71,16.29-11.12c3.96-5.41,5.54-12.89,2.92-19.09c-0.83-1.96-2.02-3.73-3.3-5.42c-2.27-3-4.89-5.84-8.22-7.55
			c-2.46-1.26-5.2-1.85-7.93-2.25c-10.73-1.57-21.83-0.39-32,3.4c-0.76,0.28-1.53,0.59-2.13,1.15c-0.61,0.56-0.98,1.34-1.33,2.09
			c-2.89,6.09-5.85,12.69-4.7,19.36C278.8,192.58,279.05,195.77,281.45,199.66"/>
		<path class="st0" d="M393.73,256.14c3.07-3.8,3.66-7.75,3.18-12.59c-0.12-1.23-0.44-2.48-1.16-3.48
			c-1.14-1.59-3.16-2.36-5.12-2.39s-3.88,0.58-5.7,1.32c-3.02,1.22-5.94,2.82-8.23,5.13s-3.92,5.41-3.98,8.66
			c-0.1,5,3.97,9.7,8.92,10.3C386.6,263.68,390.42,260.82,393.73,256.14"/>
		<path class="st0" d="M148.19,212.69c1.95-2.05,2.67-5.45,2.59-8.21c-0.07-2.42-1.29-4.78-3.2-6.22c-2.03-1.52-4.62-1.97-7.11-2.37
			c-0.82-0.13-1.66-0.27-2.48-0.1c-1.49,0.3-2.61,1.55-3.39,2.86c-1.61,2.71-2.18,5.93-2.37,9.09c-0.03,0.49-0.05,1,0.12,1.46
			c0.18,0.51,0.57,0.92,0.98,1.27c3.62,3.13,8.91,3.93,13.62,2.81C147.76,213.09,148.03,213.16,148.19,212.69"/>
		<path class="st0" d="M335.61,134.64c2.38,6.85,0.1,14.97-4.61,20.43c-4.71,5.46-12.41,8.08-19.41,6.59
			c-7-1.49-13.02-7.02-15.18-13.94c-0.44-1.42-0.73-2.91-0.59-4.38c0.25-2.65,1.84-4.98,3.72-6.83c5.88-5.78,14.44-7.68,22.6-8.36
			c2.75-0.23,5.59-0.34,8.19,0.59C332.93,129.68,335.26,131.87,335.61,134.64"/>
		<path class="st0" d="M251.56,102.79c-4.82-2.97-7.86-8.77-8.46-14.18c-0.6-5.4,0.84-10.87,3.19-15.84
			c1.16-2.44,2.56-4.83,4.58-6.71c3.29-3.07,8-4.55,12.62-4.68c10.65-0.3,21.03,6.78,24.06,16.4c0.8,2.56,1.13,5.23,1.33,7.89
			c0.28,3.69,0.29,7.56-1.48,10.86c-2.22,4.17-6.85,6.69-11.48,8.35C267.87,107.8,257.76,108.42,251.56,102.79"/>
		<path class="st0" d="M126.22,217.27c-5.23,0.48-10.53,0.1-15.65-1.11c-3.53-0.84-7.22-2.26-9.24-5.31
			c-1.75-2.64-1.93-6.05-1.56-9.2c0.14-1.23,0.37-2.48,1-3.54c0.71-1.22,1.88-2.09,3.11-2.75c5.93-3.19,13.26-1.93,19.45,0.7
			c1.7,0.72,3.39,1.56,4.68,2.89c2.16,2.2,2.93,5.52,2.68,8.61S129.36,215.19,126.22,217.27"/>
		<path class="st0" d="M251.2,223.84c-3.22-2.62-4.87-7.4-5.72-11.43c-0.85-4.03-0.6-8.45,1.42-11.84c1.5-2.51,3.83-4.27,6.27-5.65
			c2.73-1.54,5.7-2.7,8.81-2.85c3.11-0.15,6.37,0.79,8.8,3.02c2.34,2.16,3.72,5.32,4.5,8.51c0.56,2.3,0.85,4.75,0.31,7.01
			c-0.71,2.94-2.73,5.22-4.78,7.24c-2.66,2.63-5.56,5.09-8.96,6.43C258.46,225.64,254.47,225.76,251.2,223.84"/>
		<path class="st0" d="M427.95,310.54c-4.35,3.14-9.77,3.45-14.88,3.26c-8.93-0.34-18.89-1.13-24.89-7.85
			c-6.12-6.85-5.79-17.32-4.12-26.41c2.03-11.03,6.57-23.05,16.75-27.44c7.24-3.13,15.69-1.52,22.89,1.7
			c6.49,2.9,12.65,7.3,15.93,13.68c3.61,7.01,3.26,15.6,0.62,23.04C437.62,297.96,432.9,304.44,427.95,310.54"/>
		<path class="st0" d="M128.29,116.39c-0.05-3.53,0.43-4.81,2.41-6.71c1.98-1.9,4.85-2.61,7.58-2.47c1.73,0.08,3.5,0.5,4.85,1.58
			c2.52,2.01,2.97,5.66,3.05,8.91c0.02,0.86,0.02,1.77-0.38,2.53c-0.45,0.84-1.31,1.36-2.17,1.78c-2.9,1.41-6.26,2.14-9.36,1.27
			C131.17,122.4,128.46,119.65,128.29,116.39"/>
		<path class="st0" d="M139.66,191.45c-10.42-8.18-12.34-12.35-16.34-23.06c-2.87-7.67-5.06-16.21-2.51-24
			c2.29-7,8.16-12.33,14.73-15.47c6.57-3.14,13.85-4.35,21.05-5.34c6.81-0.94,13.94-1.67,20.38,0.77
			c9.92,3.76,15.82,14.1,19.49,24.19c1.91,5.26,3.46,10.77,3.29,16.37c-0.22,6.91-3.08,13.53-7.05,19.14
			c-6.02,8.5-14.95,15.13-25.1,17S147.93,198.14,139.66,191.45"/>
		<path class="st0" d="M113.56,191.76c-3.08-0.23-5.74-1.34-8.15-3.13c-2.1-1.56-4.23-3.15-5.8-5.25c-1.57-2.1-2.54-4.82-1.99-7.4
			c0.72-3.33,3.69-5.6,6.5-7.46c1.76-1.17,3.27-0.7,5.35-1.06c3.71-0.64,7.67,2.54,10.29,5.29c3.64,3.82,5.88,6.75,4.39,11.85
			C122.66,189.69,118.68,192.09,113.56,191.76"/>
		<path class="st0" d="M330.1,238.33c-2.79-9.35-2.54-19.66,1.04-28.73c3.58-9.07,10.51-16.79,19.23-20.93
			c3.26-1.55,6.82-2.62,10.41-2.47c7.39,0.3,13.86,5.77,17.31,12.42c3.45,6.65,4.36,14.33,4.77,21.83
			c0.32,5.77,0.34,11.74-1.84,17.07c-4.09,9.99-15.6,15.54-26.2,14.49S333.89,248.57,330.1,238.33"/>
		<path class="st0" d="M409.72,134.97c-7.29,2.33-13.6-2.53-18.04-7.71c-1.38-1.61-2.54-3.42-3.84-5.1c-1.31-1.7-2.77-3.27-4.05-5
			c-1.57-2.11-2.86-4.44-3.93-6.85c-1.34-3.02-2.34-6.48-1.24-9.59c0.82-2.34,2.71-4.1,4.55-5.73c3.3-2.9,6.83-5.73,11.01-7.05
			c2.13-0.67,4.36-0.93,6.59-1.06c1.52-0.09,3.06-0.13,4.54,0.22c1.72,0.4,3.29,1.31,4.74,2.33c5.32,3.77,9.33,9.39,11.21,15.69
			s1.6,13.24-0.78,19.37C418.79,128.87,414.19,133.76,409.72,134.97"/>
		<path class="st0" d="M292.08,132.25c-8.41-1.29-15.88-7.59-18.68-15.74c-0.61-1.78-1-3.77-0.33-5.52
			c0.62-1.62,2.03-2.77,3.43-3.77c3.81-2.74,8.31-5.05,12.94-4.48c3.59,0.44,6.77,2.56,9.48,5c4.17,3.77,7.54,8.45,9.82,13.63
			c0.36,0.82,0.7,1.69,0.67,2.59c-0.03,0.88-0.42,1.71-0.87,2.46C305.57,131.36,297.61,133.75,292.08,132.25"/>
	</g>
</g>
<g id="inv_x5F_vertical">
</g>
<g id="Camada_9">
</g>
<g id="inv_x5F_horiz">
</g>
<g id="inv_x5F_horiz_x5F_vert">
</g>
<g id="Camada_4">
</g>
<g id="Camada_5">
</g>
</svg>
