<?xml version="1.0" encoding="utf-8"?>
<!-- Generator: Adobe Illustrator 27.0.0, SVG Export Plug-In . SVG Version: 6.00 Build 0)  -->
<svg version="1.1" xmlns="http://www.w3.org/2000/svg" xmlns:xlink="http://www.w3.org/1999/xlink" x="0px" y="0px"
	 viewBox="0 0 492.05 425.48" style="enable-background:new 0 0 492.05 425.48;" xml:space="preserve">
<style type="text/css">
	.st0{fill:none;stroke:#35398E;stroke-width:4;stroke-linecap:round;stroke-linejoin:round;stroke-miterlimit:10;}
	.st1{fill:none;stroke:#6CC4C7;stroke-width:6.4204;stroke-miterlimit:10;}
	.st2{fill:#6CC4C7;}
	.st3{fill:#35398E;}
	.st4{fill:#62388E;}
	.st5{fill:#E83B68;}
	.st6{fill:none;stroke:#35398E;stroke-width:4;stroke-miterlimit:10;}
	.st7{display:none;}
	.st8{display:inline;fill:none;stroke:#6CC4C7;stroke-width:6.4204;stroke-miterlimit:10;}
</style>
<g id="Camada_1">
</g>
<g id="Camada_2">
</g>
<g id="original">
</g>
<g id="inv_x5F_vertical">
</g>
<g id="Camada_9">
</g>
<g id="inv_x5F_horiz">
	<g>
		<path class="st0" d="M263.32,199.67c0-38.97-51.29-64.54-98.7-64.54s-72.99,29.55-72.99,99.53c0,38.97,38.43,54.82,85.85,54.82
			S263.32,238.64,263.32,199.67z"/>
		<path class="st0" d="M173.48,376.4c13.11-11.58,15.3-17.21,19.71-31.56c3.17-10.29,5.35-21.64,1.33-31.63
			c-3.6-8.96-11.81-15.45-20.76-19s-18.69-4.52-28.29-5.21c-9.08-0.65-18.58-1.01-26.9,2.72c-12.82,5.76-19.76,19.79-23.78,33.3
			c-2.1,7.04-3.69,14.38-3,21.7c0.86,9.02,5.19,17.45,10.91,24.46c8.66,10.62,21.04,18.54,34.61,20.13
			C150.89,392.91,163.09,385.85,173.48,376.4"/>
		<path class="st0" d="M77.55,229.15c15.04-12.78,19.23-41.84,9.32-53.61s-38.87-12.12-53.91,0.66
			c-15.04,12.78-20.3,40.57-10.39,52.34C32.48,240.3,62.51,241.93,77.55,229.15z"/>
		<path class="st0" d="M69.2,304.27c5.31,3.44,10.76,3.76,15.74,3.53c8.72-0.41,18.3-1.32,22.07-8.74
			c3.84-7.56,0.16-19.07-4.41-29.06c-5.55-12.13-13.9-25.32-25.36-30.11c-8.16-3.41-15.98-1.6-22.06,1.97
			c-5.48,3.22-10.15,8.08-11.34,15.11c-1.31,7.72,1.79,17.17,6.78,25.34C55.6,290.47,62.34,297.58,69.2,304.27"/>
		<path class="st0" d="M102.72,165.27c4.87-3.18,7.94-9.38,8.56-15.16c0.62-5.77-0.83-11.61-3.2-16.92
			c-1.17-2.61-2.58-5.16-4.62-7.16c-3.32-3.28-8.07-4.85-12.74-4.98c-10.75-0.3-21.24,7.27-24.31,17.56
			c-0.82,2.73-1.15,5.59-1.36,8.43c-0.29,3.94-0.3,8.08,1.48,11.61c2.24,4.45,6.91,7.14,11.58,8.91
			C86.24,170.64,96.45,171.29,102.72,165.27"/>
		<path class="st0" d="M254.2,274.87c-4.35-5.55-7.27-11.08-7.86-18.12c-0.64-7.69,2.86-15.4,8.45-20.7
			c5.58-5.3,13.05-8.32,20.65-9.42c8.53-1.24,17.55-0.09,25.07,4.15c11.98,6.77,18.54,20.2,22.89,33.3
			c2.6,7.84,4.23,17.63-1.66,23.4c-1.97,1.93-4.56,3.11-7.16,4.04C293.65,299.07,268.36,292.09,254.2,274.87"/>
		<path class="st0" d="M253.47,418.38c23.45,7.2,43.4-17.22,53.9-51.69c10.5-34.47-27.32-76.64-50.76-83.85
			s-47.76,11.93-58.26,46.39C187.85,363.7,230.03,411.17,253.47,418.38z"/>
		<path class="st0" d="M310.39,338.95c3.46,2.59,7.7,2.95,11.68,2.91c6.97-0.08,14.72-0.51,19.28-5.73
			c4.64-5.33,4.17-13.67,2.68-20.94c-1.81-8.83-5.6-18.49-13.64-22.19c-5.72-2.64-12.28-1.53-17.84,0.88
			c-5.01,2.17-9.73,5.55-12.16,10.56c-2.67,5.5-2.23,12.35-0.02,18.33S306.39,333.99,310.39,338.95"/>
		<path class="st0" d="M315.84,351.62c9.14-10.94,34.67-6.64,48.02,4.61c6.92,5.83,13.47,10.52,15.04,20.19
			c1.45,8.98-1.66,22.96-6.06,28.23c-9.14,10.94-35.53,18.27-48.88,7.02C310.6,400.42,306.7,362.57,315.84,351.62z"/>
		<path class="st0" d="M446.18,270.84c0,23.8-35.65,39.41-68.61,39.41s-50.73-18.04-50.73-60.78c0-23.8,26.72-33.48,59.67-33.48
			S446.18,247.04,446.18,270.84z"/>
		<path class="st0" d="M366.63,143.8c-5.56,11.85-5.37,26.89-5.83,40.39c-0.16,4.59-0.07,9.44,2.01,13.03
			c1.63,2.81,4.27,4.47,6.83,6.05c2.3,1.42,4.61,2.84,6.91,4.27c6.34,3.92,12.91,7.91,20.3,8.4c7.39,0.49,15.89-3.41,19.68-11.52
			c2.87-6.13,2.53-13.32,1.45-19.76c-0.92-5.45-2.32-10.74-4.16-15.75c-4.05-10.99-10.59-20.91-19.9-25.54
			c-2.33-1.16-4.79-1.97-7.25-2.73c-3.23-1-6.52-1.92-9.95-1.81C373.29,138.96,368.41,140.51,366.63,143.8"/>
		<path class="st0" d="M190.87,412.37c7.22-0.24,13.89-5.36,17.22-11.79s2.92-14.66-1.03-20.73c-3.95-6.07-11.29-9.74-18.49-9.26
			c-1.47,0.1-2.96,0.37-4.28,1.03c-2.36,1.2-3.93,3.55-4.96,6c-3.19,7.65-1.8,16.43,0.57,24.38c0.8,2.68,1.74,5.4,3.56,7.51
			C185.28,411.64,188.17,413.04,190.87,412.37"/>
		<path class="st0" d="M367.41,351.94c2.78-0.36,4.67-0.85,6.8-2.64c2.19-1.84,4.39-3.68,6.58-5.52c3.35-2.81,4.55-5.43,5.22-10.06
			c0.74-5.12-0.03-10.56-3.56-13.86c-6.02-5.62-13.66-9.02-21.49-9.56c-2-0.14-4.08-0.08-5.91,0.84c-1.52,0.77-2.78,2.08-3.88,3.48
			c-4.31,5.46-6.81,12.9-6,20.12c0.81,7.22,5.23,13.98,11.38,16.24C360.01,352.26,363.76,352.11,367.41,351.94"/>
		<path class="st0" d="M459.45,239.89c-4.45,1.46-9.42,2.08-14.43,1.2c-5.01-0.88-10.06-3.36-13.47-7.2
			c-2.68-3.01-4.19-6.63-5.65-10.17c-1.77-4.29-3.55-8.58-5.13-12.91c-1.01-2.77-1.95-5.6-2-8.38c-0.07-4.37,2.13-8.3,5.48-10.95
			s7.76-4.1,12.37-4.7c1.31-0.17,2.66-0.28,4.03-0.1c1.49,0.19,2.95,0.71,4.4,1.23c4.12,1.46,8.23,2.93,12.3,4.56
			c2.84,1.15,5.94,2.1,8.21,4.15c5.96,5.38,9.55,13.97,10.8,21.34C478.05,228.03,469.79,236.72,459.45,239.89"/>
		<path class="st0" d="M450.11,154.99c3.87,3.03,5.17,8.93,6.24,13.36c1.08,4.43,0.47,9.61-2.63,12.81
			c-2.37,2.45-5.74,3.37-8.96,4.19c-2.64,0.67-5.35,1.33-8.03,0.91c-2.42-0.39-4.66-1.65-6.5-3.35c-6.23-5.74-7.31-16.74-2.33-23.73
			C432.89,152.17,443.17,150.24,450.11,154.99"/>
	</g>
</g>
<g id="inv_x5F_horiz_x5F_vert">
</g>
<g id="Camada_4">
</g>
<g id="Camada_5">
</g>
</svg>
