<?xml version="1.0" encoding="utf-8"?>
<!-- Generator: Adobe Illustrator 27.0.0, SVG Export Plug-In . SVG Version: 6.00 Build 0)  -->
<svg version="1.1" xmlns="http://www.w3.org/2000/svg" xmlns:xlink="http://www.w3.org/1999/xlink" x="0px" y="0px"
	 viewBox="0 0 492.05 425.48" style="enable-background:new 0 0 492.05 425.48;" xml:space="preserve">
<style type="text/css">
	.st0{fill:none;stroke:#35398E;stroke-width:4;stroke-linecap:round;stroke-linejoin:round;stroke-miterlimit:10;}
	.st1{fill:none;stroke:#6CC4C7;stroke-width:6.4204;stroke-miterlimit:10;}
	.st2{fill:#6CC4C7;}
	.st3{fill:#35398E;}
	.st4{fill:#62388E;}
	.st5{fill:#E83B68;}
	.st6{fill:none;stroke:#35398E;stroke-width:4;stroke-miterlimit:10;}
	.st7{display:none;}
	.st8{display:inline;fill:none;stroke:#6CC4C7;stroke-width:6.4204;stroke-miterlimit:10;}
</style>
<g id="Camada_1">
</g>
<g id="Camada_2">
</g>
<g id="original">
</g>
<g id="inv_x5F_vertical">
	<g>
		<path class="st0" d="M146.85,246.99c0,24.54-28.48,36.51-63.6,36.51s-63.6-48.49-63.6-73.02s24.79-42.23,59.92-42.23
			S146.85,222.45,146.85,246.99z"/>
		<path class="st0" d="M472.41,217.79c0,29.4-38,48.68-73.13,48.68s-54.08-22.29-54.08-75.08c0-29.4,28.48-41.35,63.6-41.35
			S472.41,188.39,472.41,217.79z"/>
		<path class="st0" d="M68.59,118.77c-4.26,5.54-7.12,11.04-7.69,18.06c-0.63,7.66,2.8,15.35,8.27,20.63s12.77,8.29,20.21,9.39
			c8.35,1.23,17.18,0.09,24.54-4.14c11.73-6.75,18.15-20.13,22.4-33.18c2.54-7.81,4.15-17.57-1.62-23.32c-1.93-1.93-4.46-3.1-7-4.03
			C107.21,94.66,82.45,101.61,68.59,118.77"/>
		<path class="st0" d="M419.81,311.18c0,16.95-25.24,32.58-44.97,32.58c-10.23,0-19.3,0.76-27.66-6.83
			c-7.76-7.05-15.19-22.14-15.19-30.3c0-16.95,17.58-43.81,37.3-43.81C389.01,262.82,419.81,294.23,419.81,311.18z"/>
		<path class="st0" d="M130.58,152.27c-5.55,2.71-10.84,6.81-13.8,12.85c-2.95,6.04-3.01,14.28,1.03,19.42
			c4.39,5.58,11.77,5.98,18.31,5.98c4.74,0,9.47,0,14.21,0c1.64,0,3.32-0.01,4.87-0.63c4.2-1.7,6.1-7.26,6.86-12.3
			c0.68-4.45,0.85-9.16-0.6-13.36c-1.64-4.73-5.2-8.33-9.18-10.57C145.28,149.7,138.85,149.2,130.58,152.27"/>
		<path class="st0" d="M176.84,195.15c4.76,2.95,7.77,8.73,8.36,14.11c0.6,5.38-0.83,10.82-3.16,15.76
			c-1.14,2.43-2.53,4.81-4.53,6.68c-3.25,3.06-7.91,4.52-12.47,4.65c-10.52,0.3-20.78-6.75-23.77-16.32
			c-0.8-2.55-1.12-5.2-1.32-7.85c-0.28-3.67-0.28-7.52,1.46-10.81c2.19-4.15,6.77-6.66,11.34-8.31
			C160.73,190.16,170.72,189.55,176.84,195.15"/>
		<path class="st0" d="M153.99,97.87c4.3-3.13,9.65-3.44,14.7-3.24c8.83,0.33,18.66,1.12,24.6,7.81c6.05,6.82,5.72,17.23,4.07,26.28
			c-2.01,10.98-6.5,22.94-16.55,27.31c-7.16,3.11-15.5,1.51-22.62-1.69c-6.41-2.89-12.5-7.27-15.74-13.62
			c-3.56-6.97-3.22-15.52-0.62-22.93S149.09,103.94,153.99,97.87"/>
		<path class="st0" d="M353.49,247.65c0,19.72-18.98,41.62-34,41.62c-15.02,0-33.59-21.9-33.59-41.62s17.36-41.62,32.38-41.62
			S353.49,227.93,353.49,247.65z"/>
		<path class="st0" d="M340.01,178.1c3.9,2.52,4.39,5.64,5.07,10.09c0.58,3.79-1.22,7.3-2.67,10.84c-2.6,6.37-10.7,9.26-17.05,6.94
			c-6.36-2.32-10.68-8.87-11.63-15.7c-0.29-2.06-0.3-4.23,0.48-6.15c0.7-1.73,1.99-3.13,3.32-4.42c2.04-1.97,4.39-3.82,7.17-4.29
			c2.1-0.35,5.92-0.6,8-0.12C335.7,175.98,337.46,175.92,340.01,178.1"/>
		<path class="st0" d="M78.22,284.88c8.31,1.28,15.7,7.55,18.46,15.67c0.6,1.77,0.99,3.75,0.33,5.5c-0.61,1.61-2.01,2.76-3.39,3.76
			c-3.76,2.72-8.21,5.02-12.79,4.46c-3.55-0.44-6.69-2.55-9.36-4.98c-4.12-3.75-7.45-8.41-9.7-13.56c-0.36-0.82-0.69-1.68-0.66-2.58
			c0.03-0.88,0.41-1.7,0.86-2.45C64.89,285.76,72.76,283.38,78.22,284.88"/>
		<path class="st0" d="M166.6,311c0,13.66-14.97,24.74-33.44,24.74S99.73,324.66,99.73,311s5.64-30.51,24.11-30.51
			S166.6,297.33,166.6,311z"/>
		<path class="st0" d="M139.7,106.18c2.64,0.63,5.26-0.97,7.38-2.7c5.08-4.16,7.37-9.68,6.63-16.29c-0.5-4.41-1.21-8.96-4.81-11.43
			c-3.61-2.48-7.96-3.62-12.29-4.01c-2.95-0.26-6.15-0.12-8.53,1.67c-1.83,1.37-2.93,3.55-3.63,5.75
			c-1.74,5.48-1.3,11.68,1.36,16.76C128.46,101.02,134.18,105.03,139.7,106.18"/>
		<path class="st0" d="M192.24,240.94c14.84,5.99,21.92,31.38,16.21,46.18c-5.72,14.8-28.1,19.69-42.94,13.7
			s-22.48-37.35-16.76-52.14S177.4,234.94,192.24,240.94z"/>
		<path class="st0" d="M172.01,306.44c-1.93,2.04-2.64,5.42-2.56,8.17c0.07,2.41,1.27,4.76,3.17,6.19c2,1.51,4.57,1.96,7.03,2.36
			c0.81,0.13,1.64,0.26,2.45,0.1c1.47-0.3,2.58-1.54,3.35-2.85c1.59-2.7,2.16-5.9,2.34-9.05c0.03-0.49,0.05-0.99-0.11-1.45
			c-0.18-0.51-0.57-0.91-0.97-1.27c-3.58-3.11-8.8-3.91-13.46-2.8C172.44,306.03,172.17,305.97,172.01,306.44"/>
		<path class="st0" d="M187.78,158.82c3.18,2.6,4.81,7.36,5.65,11.38s0.59,8.41-1.4,11.78c-1.48,2.5-3.79,4.25-6.2,5.62
			c-2.69,1.54-5.63,2.69-8.7,2.84c-3.07,0.15-6.3-0.78-8.69-3.01c-2.31-2.15-3.67-5.29-4.45-8.47c-0.56-2.29-0.84-4.72-0.3-6.97
			c0.7-2.93,2.7-5.2,4.72-7.21c2.63-2.62,5.5-5.06,8.85-6.4C180.61,157.03,184.55,156.91,187.78,158.82"/>
		<path class="st0" d="M179.05,19.59c2.76,9.3,2.51,19.57-1.03,28.59s-10.39,16.7-19,20.83c-3.22,1.54-6.73,2.6-10.29,2.46
			c-7.31-0.3-13.7-5.75-17.1-12.36c-3.4-6.62-4.31-14.26-4.72-21.72c-0.31-5.74-0.34-11.68,1.82-16.99
			c4.04-9.94,15.41-15.46,25.89-14.42C165.11,7.01,175.31,9.4,179.05,19.59"/>
		<path class="st0" d="M195.47,49.19c-3.11-0.79-3.22-1.07-6.42-1.11c-1.85-0.02-3.74,0.09-5.44,0.84
			c-1.72,0.76-3.11,2.11-4.38,3.51c-2.17,2.39-4.13,4.99-5.83,7.75c-1.08,1.76-2.07,3.62-2.57,5.64c-0.73,2.98-0.35,6.11,0.04,9.15
			c0.61,4.8,1.32,9.84,4.2,13.68c2.86,3.81,7.41,5.82,11.85,7.42c7.68,2.77,16.3,4.73,23.83,1.55c6.79-2.87,11.55-9.69,13.11-17.03
			c0.49-2.29,0.69-4.67,0.35-6.99c-0.49-3.36-2.12-6.46-4.2-9.12C213.96,56.73,204.5,52.8,195.47,49.19"/>
		<path class="st0" d="M416.01,118.73c8.31,1.28,15.7,7.55,18.46,15.67c0.6,1.77,0.99,3.75,0.33,5.5c-0.61,1.61-2.01,2.76-3.39,3.76
			c-3.76,2.72-8.21,5.02-12.79,4.46c-3.55-0.44-6.69-2.55-9.36-4.98c-4.12-3.75-7.45-8.41-9.7-13.56c-0.36-0.82-0.69-1.68-0.66-2.58
			c0.03-0.88,0.41-1.7,0.86-2.45C402.69,119.61,410.55,117.23,416.01,118.73"/>
		<path class="st0" d="M394.28,136.54c3.62-5.99,5.85-11.8,5.64-18.83c-0.23-7.68-4.49-14.92-10.5-19.54s-13.61-6.76-21.12-6.98
			c-8.44-0.26-17.08,1.9-23.92,6.96c-10.9,8.06-15.8,22.1-18.57,35.57c-1.66,8.06-2.17,17.94,4.2,22.98
			c2.13,1.69,4.78,2.56,7.41,3.19C358.59,164.97,382.42,155.19,394.28,136.54"/>
		<path class="st0" d="M405.38,99.3c2.27-1.72,3.03-5.06,3.67-7.56c0.63-2.51,0.28-5.44-1.53-7.25c-1.39-1.38-3.37-1.91-5.25-2.37
			c-1.54-0.38-3.14-0.75-4.71-0.51c-1.42,0.22-2.73,0.94-3.81,1.9c-3.65,3.25-4.29,9.48-1.38,13.44
			C395.28,100.91,401.31,102,405.38,99.3"/>
		<path class="st0" d="M329.48,300.44c2.73,9.1,2.47,19.15-1.02,27.98s-10.27,16.35-18.77,20.39c-3.18,1.51-6.65,2.55-10.16,2.41
			c-7.22-0.29-13.53-5.62-16.89-12.1c-3.36-6.48-4.25-13.95-4.66-21.26c-0.31-5.62-0.33-11.44,1.8-16.63
			c3.99-9.73,15.23-15.14,25.58-14.12S325.79,290.47,329.48,300.44"/>
		<path class="st0" d="M245.98,182.06c9.77,8.79,11.4,13.06,14.69,23.95c2.36,7.81,3.98,16.42,0.99,24
			c-2.69,6.8-8.8,11.72-15.48,14.42c-6.67,2.69-13.93,3.43-21.09,3.95c-6.77,0.49-13.85,0.77-20.05-2.07
			c-9.56-4.37-14.73-15.02-17.73-25.27c-1.56-5.34-2.75-10.91-2.23-16.47c0.64-6.85,3.87-13.24,8.13-18.56
			c6.46-8.06,15.68-14.07,25.8-15.28C229.14,169.53,238.24,174.89,245.98,182.06"/>
		<path class="st0" d="M244.79,249.35c4.3-3.13,9.65-3.44,14.7-3.24c8.83,0.33,18.66,1.12,24.6,7.81
			c6.05,6.82,5.72,17.23,4.07,26.28c-2.01,10.98-6.5,22.94-16.55,27.31c-7.16,3.11-15.5,1.51-22.62-1.69
			c-6.41-2.89-12.5-7.27-15.74-13.62c-3.56-6.97-3.22-15.52-0.62-22.93S239.89,255.42,244.79,249.35"/>
		<path class="st0" d="M213.71,257.13c-3.04,3.78-3.62,7.72-3.14,12.53c0.12,1.23,0.43,2.47,1.14,3.47
			c1.12,1.58,3.12,2.35,5.06,2.38c1.94,0.03,3.83-0.58,5.64-1.31c2.98-1.21,5.87-2.8,8.13-5.11c2.27-2.3,3.87-5.39,3.93-8.62
			c0.1-4.98-3.92-9.65-8.82-10.25S216.98,252.46,213.71,257.13"/>
		<path class="st0" d="M294.34,144.8c14.84,5.99,21.92,31.38,16.21,46.18c-5.72,14.8-28.1,19.69-42.94,13.7
			c-14.84-5.99-22.48-37.35-16.76-52.14C256.57,137.73,279.51,138.8,294.34,144.8z"/>
		<path class="st0" d="M263.87,229.63c1.39-5.11,3.58-9.99,6.47-14.4c1.99-3.04,4.57-6.03,8.06-6.87c3.01-0.72,6.18,0.3,8.92,1.76
			c1.07,0.57,2.13,1.22,2.88,2.18c0.86,1.1,1.25,2.51,1.42,3.91c0.84,6.72-2.87,13.21-7.42,18.14c-1.25,1.35-2.6,2.66-4.26,3.41
			c-2.76,1.26-6.05,0.84-8.78-0.49S264.68,233.32,263.87,229.63"/>
		<path class="st0" d="M339.48,334.66c6.09,0.63,11.83,5.81,15.51,11.3c2.17,3.23,4,6.82,4.84,10.75
			c1.46,6.77-0.24,14.17-4.05,19.65c-3.8,5.48-9.57,9.06-15.65,10.35c-6.22,1.32-13.22,0.1-17.8-4.83c-2.29-2.47-3.83-5.67-5.16-8.9
			c-2.73-6.66-4.72-14.22-2.94-21.26c1.44-5.7,5.3-10.41,9.94-13.23C328.82,335.67,334.19,334.61,339.48,334.66"/>
		<path class="st0" d="M373.41,343.82c3.05,0.23,5.67,1.33,8.06,3.12c2.07,1.55,4.18,3.13,5.73,5.23s2.51,4.8,1.96,7.37
			c-0.71,3.31-3.65,5.57-6.42,7.42c-1.74,1.16-3.23,0.7-5.28,1.05c-3.67,0.64-7.58-2.53-10.17-5.26c-3.6-3.8-5.81-6.72-4.34-11.79
			C364.42,345.87,368.35,343.49,373.41,343.82"/>
		<path class="st0" d="M371.94,385.85c2.27-1.72,3.03-5.06,3.67-7.56c0.63-2.51,0.28-5.44-1.53-7.25c-1.39-1.38-3.37-1.91-5.25-2.37
			c-1.54-0.38-3.14-0.75-4.71-0.51c-1.42,0.22-2.73,0.94-3.81,1.9c-3.65,3.25-4.29,9.48-1.38,13.44
			C361.85,387.45,367.88,388.54,371.94,385.85"/>
		<path class="st0" d="M377.69,53.74c2.72,0.3,4.57,0.72,6.65,2.26c2.14,1.58,4.28,3.16,6.43,4.74c3.27,2.41,4.44,4.66,5.08,8.65
			c0.71,4.4-0.05,9.09-3.52,11.95c-5.91,4.86-13.39,7.8-21.05,8.28c-1.96,0.12-3.99,0.08-5.78-0.71c-1.49-0.66-2.71-1.78-3.79-2.99
			c-4.21-4.69-6.64-11.09-5.82-17.31s5.15-12.05,11.18-14.01C370.45,53.48,374.11,53.6,377.69,53.74"/>
		<path class="st0" d="M245.62,303.88c14.73,12.74,18.82,41.69,9.12,53.42c-9.7,11.72-38.04,12.08-52.77-0.66
			c-14.73-12.74-19.87-40.43-10.17-52.16C201.51,292.76,230.9,291.14,245.62,303.88z"/>
		<path class="st0" d="M128.75,370.07c1.97-13.15,4.61-16.86,11.81-25.56c5.16-6.24,11.38-12.28,19.24-13.79
			c7.05-1.35,14.4,1.26,20.22,5.56c5.82,4.3,10.34,10.15,14.62,16.03c4.06,5.57,8.1,11.52,9.1,18.38
			c1.55,10.58-4.43,20.78-11.26,28.89c-3.56,4.22-7.51,8.25-12.36,10.8c-5.99,3.14-12.99,3.8-19.67,3
			c-10.12-1.22-20.04-5.92-26.49-13.98C127.5,391.33,127.01,380.61,128.75,370.07"/>
		<path class="st0" d="M236.29,170.97c-10.47-1.15-20.17-8.78-29.2-15.1c-3.07-2.15-6.19-4.63-7.5-8.18
			c-1.02-2.78-0.81-5.85-0.57-8.81c0.21-2.66,0.42-5.33,0.63-7.99c0.58-7.34,1.22-14.9,4.55-21.43
			c3.33-6.53,10.07-11.82,17.23-11.01c5.41,0.61,9.93,4.46,13.59,8.58c3.1,3.49,5.85,7.3,8.2,11.36c5.16,8.89,8.39,19.38,6.81,29.59
			c-0.4,2.55-1.08,5.04-1.8,7.52c-0.94,3.24-1.97,6.5-3.73,9.36C242.74,167.71,239.32,171.1,236.29,170.97"/>
		<path class="st0" d="M318.62,118.15c3.18,2.6,4.81,7.36,5.65,11.38c0.84,4.02,0.59,8.41-1.4,11.78c-1.48,2.5-3.79,4.25-6.2,5.62
			c-2.69,1.54-5.63,2.69-8.7,2.84c-3.07,0.15-6.3-0.78-8.69-3.01c-2.31-2.15-3.67-5.29-4.45-8.47c-0.56-2.29-0.84-4.72-0.3-6.97
			c0.7-2.93,2.7-5.2,4.72-7.21c2.63-2.62,5.5-5.06,8.85-6.4C311.45,116.36,315.39,116.24,318.62,118.15"/>
		<path class="st0" d="M306.01,115.32c-15.85,14.72-47.26,19.31-56.54,8.87s-13.1-41.45,2.75-56.17s52.85-10.85,62.13-0.41
			C323.62,78.05,321.86,100.6,306.01,115.32z"/>
		<path class="st0" d="M337.75,55.84c2.32,0.4,3.9,0.94,5.69,2.88c1.84,2,3.68,4,5.52,6c2.81,3.05,3.82,5.88,4.4,10.89
			c0.64,5.53,0.02,11.41-2.92,14.97c-5.01,6.05-11.38,9.69-17.92,10.24c-1.67,0.14-3.41,0.07-4.94-0.94
			c-1.28-0.83-2.33-2.26-3.26-3.78c-3.62-5.92-5.75-13.97-5.09-21.77c0.65-7.8,4.31-15.09,9.45-17.51
			C331.57,55.47,334.7,55.65,337.75,55.84"/>
		<path class="st0" d="M295.42,58.82c9.14,2.56,19.18,2.13,27.94-1.51s16.15-10.52,20.03-19.07c1.45-3.2,2.42-6.68,2.22-10.18
			c-0.42-7.19-5.86-13.39-12.39-16.63s-14.02-4-21.33-4.27c-5.62-0.21-11.43-0.13-16.58,2.09C285.65,13.4,280.45,24.7,281.66,35
			C282.86,45.3,285.38,55.31,295.42,58.82"/>
		<path class="st0" d="M367.79,27.92c0.83,5.24,0.84,10.61,0.03,15.85c-0.56,3.62-1.68,7.43-4.5,9.69
			c-2.44,1.95-5.73,2.37-8.83,2.23c-1.2-0.06-2.43-0.2-3.51-0.75c-1.23-0.63-2.16-1.74-2.89-2.94c-3.52-5.74-2.81-13.23-0.7-19.65
			c0.58-1.76,1.28-3.53,2.47-4.93c1.99-2.33,5.15-3.35,8.17-3.31C361.05,24.14,365.54,24.91,367.79,27.92"/>
		<path class="st0" d="M233.47,43.95c8.31,1.28,15.7,7.55,18.46,15.67c0.6,1.77,0.99,3.75,0.33,5.5c-0.61,1.61-2.01,2.76-3.39,3.76
			c-3.76,2.72-8.21,5.02-12.79,4.46c-3.55-0.44-6.69-2.55-9.36-4.98c-4.12-3.75-7.45-8.41-9.7-13.56c-0.36-0.82-0.69-1.68-0.66-2.58
			c0.03-0.88,0.41-1.7,0.86-2.45C220.15,44.83,228.01,42.45,233.47,43.95"/>
		<path class="st0" d="M271.49,10.1c4.76,2.95,7.77,8.73,8.36,14.11c0.6,5.38-0.83,10.82-3.16,15.76c-1.14,2.43-2.53,4.81-4.53,6.68
			c-3.25,3.06-7.91,4.52-12.47,4.65c-10.52,0.3-20.78-6.75-23.77-16.32c-0.8-2.55-1.12-5.2-1.32-7.85
			c-0.28-3.67-0.28-7.52,1.46-10.81c2.19-4.15,6.77-6.66,11.34-8.31C255.38,5.11,265.37,4.49,271.49,10.1"/>
		<path class="st0" d="M271.66,336.8c7.06,0.24,13.6,5.34,16.86,11.75s2.86,14.61-1.01,20.65c-3.87,6.05-11.05,9.71-18.1,9.23
			c-1.44-0.1-2.9-0.36-4.19-1.03c-2.31-1.19-3.85-3.54-4.85-5.98c-3.12-7.63-1.76-16.37,0.56-24.29c0.78-2.67,1.71-5.38,3.48-7.49
			C266.19,337.53,269.01,336.12,271.66,336.8"/>
		<path class="st0" d="M262.34,381.86c-1.99-4.28-4.92-8.34-8.94-11.37c-4.02-3.03-9.2-4.94-14.21-4.7c-3.94,0.19-7.52,1.66-11,3.11
			c-4.23,1.76-8.45,3.51-12.57,5.44c-2.63,1.23-5.27,2.55-7.26,4.5c-3.13,3.05-4.4,7.45-4,11.78c0.4,4.32,2.37,8.57,5.08,12.35
			c0.77,1.08,1.61,2.13,2.66,3.01c1.15,0.95,2.51,1.65,3.85,2.34c3.82,1.96,7.65,3.92,11.56,5.72c2.73,1.26,5.51,2.83,8.49,3.03
			c7.84,0.52,16.32-2.96,22.36-7.3C266.6,403.84,267.12,391.65,262.34,381.86"/>
		<path class="st0" d="M201.76,19.08c-6.82,0.14-11.48,3.12-16.06,8.06c-1.17,1.26-2.17,2.74-2.55,4.44
			c-0.59,2.68,0.48,5.58,2.27,7.74c1.79,2.16,4.22,3.68,6.68,4.98c4.08,2.16,8.46,3.87,13.01,4.24c4.55,0.37,9.28-0.7,12.72-3.6
			c5.3-4.47,6.4-13.18,2.41-19.1C216.26,19.92,209.72,18.38,201.76,19.08"/>
		<path class="st0" d="M286.26,372.32c3.39-2.58,7.54-2.94,11.43-2.9c6.82,0.08,14.41,0.5,18.87,5.71
			c4.54,5.31,4.08,13.62,2.62,20.86c-1.77,8.79-5.49,18.42-13.35,22.12c-5.6,2.63-12.02,1.53-17.46-0.88
			c-4.9-2.17-9.52-5.53-11.9-10.52c-2.62-5.48-2.18-12.31-0.02-18.26C278.62,382.5,282.35,377.26,286.26,372.32"/>
		<path class="st0" d="M117.26,334.69c3.05,0.23,5.67,1.33,8.06,3.12c2.07,1.55,4.18,3.13,5.73,5.23s2.51,4.8,1.96,7.37
			c-0.71,3.31-3.65,5.57-6.42,7.42c-1.74,1.16-3.23,0.7-5.28,1.05c-3.67,0.64-7.58-2.53-10.17-5.26c-3.6-3.8-5.81-6.72-4.34-11.79
			S112.19,334.36,117.26,334.69"/>
	</g>
</g>
<g id="Camada_9">
</g>
<g id="inv_x5F_horiz">
</g>
<g id="inv_x5F_horiz_x5F_vert">
</g>
<g id="Camada_4">
</g>
<g id="Camada_5">
</g>
</svg>
