<?xml version="1.0" encoding="utf-8"?>
<!-- Generator: Adobe Illustrator 27.0.0, SVG Export Plug-In . SVG Version: 6.00 Build 0)  -->
<svg version="1.1" xmlns="http://www.w3.org/2000/svg" xmlns:xlink="http://www.w3.org/1999/xlink" x="0px" y="0px"
	 viewBox="0 0 492.05 425.48" style="enable-background:new 0 0 492.05 425.48;" xml:space="preserve">
<style type="text/css">
	.st0{fill:none;stroke:#35398E;stroke-width:4;stroke-linecap:round;stroke-linejoin:round;stroke-miterlimit:10;}
	.st1{fill:none;stroke:#6CC4C7;stroke-width:6.4204;stroke-miterlimit:10;}
	.st2{fill:#6CC4C7;}
	.st3{fill:#35398E;}
	.st4{fill:#62388E;}
	.st5{fill:#E83B68;}
	.st6{fill:none;stroke:#35398E;stroke-width:4;stroke-miterlimit:10;}
	.st7{display:none;}
	.st8{display:inline;fill:none;stroke:#6CC4C7;stroke-width:6.4204;stroke-miterlimit:10;}
</style>
<g id="Camada_1">
</g>
<g id="Camada_2">
</g>
<g id="original">
</g>
<g id="inv_x5F_vertical">
</g>
<g id="Camada_9">
</g>
<g id="inv_x5F_horiz">
	<g>
		<path class="st0" d="M230.77,199.67c0-38.97,51.29-64.54,98.7-64.54s72.99,29.55,72.99,99.53c0,38.97-38.43,54.82-85.85,54.82
			S230.77,238.64,230.77,199.67z"/>
		<path class="st0" d="M276.79,56.81c0-24.62,29.09-36.64,64.98-36.64s64.98,48.66,64.98,73.28s-25.33,42.38-61.21,42.38
			S276.79,81.43,276.79,56.81z"/>
		<path class="st0" d="M204.65,104.27c0-17.01,25.79-32.7,45.94-32.7c10.45,0,19.72-0.76,28.26,6.86
			c7.93,7.07,15.52,22.22,15.52,30.41c0,17.01-17.96,43.97-38.11,43.97S204.65,121.28,204.65,104.27z"/>
		<path class="st0" d="M133.34,169.3c0-30.65,28.05-55.49,51.14-55.49s51.14,27.08,51.14,57.72s-37.37,61.8-60.47,61.8
			S133.34,199.95,133.34,169.3z"/>
		<path class="st0" d="M320.61,376.4c-13.11-11.58-15.3-17.21-19.71-31.56c-3.17-10.29-5.35-21.64-1.33-31.63
			c3.6-8.96,11.81-15.45,20.76-19s18.69-4.52,28.29-5.21c9.08-0.65,18.58-1.01,26.9,2.72c12.82,5.76,19.76,19.79,23.78,33.3
			c2.1,7.04,3.69,14.38,3,21.7c-0.86,9.02-5.19,17.45-10.91,24.46c-8.66,10.62-21.04,18.54-34.61,20.13
			C343.2,392.91,330.99,385.85,320.61,376.4"/>
		<path class="st0" d="M416.54,229.15c-15.04-12.78-19.23-41.84-9.32-53.61s38.87-12.12,53.91,0.66
			c15.04,12.78,20.3,40.57,10.39,52.34C461.6,240.3,431.58,241.93,416.54,229.15z"/>
		<path class="st0" d="M424.89,304.27c-5.31,3.44-10.76,3.76-15.74,3.53c-8.72-0.41-18.3-1.32-22.07-8.74
			c-3.84-7.56-0.16-19.07,4.41-29.06c5.55-12.13,13.9-25.32,25.36-30.11c8.16-3.41,15.98-1.6,22.06,1.97
			c5.48,3.22,10.15,8.08,11.34,15.11c1.31,7.72-1.79,17.17-6.78,25.34C438.48,290.47,431.75,297.58,424.89,304.27"/>
		<path class="st0" d="M249.75,6.42c16.13,2.33,29.04,25.43,26.78,41.24s-23.38,25.89-39.51,23.56s-30.98-31.13-28.71-46.93
			S233.62,4.09,249.75,6.42z"/>
		<path class="st0" d="M391.37,165.27c-4.87-3.18-7.94-9.38-8.56-15.16c-0.62-5.77,0.83-11.61,3.2-16.92
			c1.17-2.61,2.58-5.16,4.62-7.16c3.32-3.28,8.07-4.85,12.74-4.98c10.75-0.3,21.24,7.27,24.31,17.56c0.82,2.73,1.15,5.59,1.36,8.43
			c0.29,3.94,0.3,8.08-1.48,11.61c-2.24,4.45-6.91,7.14-11.58,8.91C407.84,170.64,397.64,171.29,391.37,165.27"/>
		<path class="st0" d="M239.89,274.87c4.35-5.55,7.27-11.08,7.86-18.12c0.64-7.69-2.86-15.4-8.45-20.7s-13.05-8.32-20.65-9.42
			c-8.53-1.24-17.55-0.09-25.07,4.15c-11.98,6.77-18.54,20.2-22.89,33.3c-2.6,7.84-4.23,17.63,1.66,23.4
			c1.97,1.93,4.56,3.11,7.16,4.04C200.44,299.07,225.73,292.09,239.89,274.87"/>
		<path class="st0" d="M240.61,418.38c-23.45,7.2-43.4-17.22-53.9-51.69s27.32-76.64,50.76-83.85s47.76,11.93,58.26,46.39
			S264.06,411.17,240.61,418.38z"/>
		<path class="st0" d="M183.7,338.95c-3.46,2.59-7.7,2.95-11.68,2.91c-6.97-0.08-14.72-0.51-19.28-5.73
			c-4.64-5.33-4.17-13.67-2.68-20.94c1.81-8.83,5.6-18.49,13.64-22.19c5.72-2.64,12.28-1.53,17.84,0.88
			c5.01,2.17,9.73,5.55,12.16,10.56c2.67,5.5,2.23,12.35,0.02,18.33S187.69,333.99,183.7,338.95"/>
		<path class="st0" d="M178.25,351.62c-9.14-10.94-34.67-6.64-48.02,4.61c-6.92,5.83-13.47,10.52-15.04,20.19
			c-1.45,8.98,1.66,22.96,6.06,28.23c9.14,10.94,35.53,18.27,48.88,7.02S187.39,362.57,178.25,351.62z"/>
		<path class="st0" d="M47.91,270.84c0,23.8,35.65,39.41,68.61,39.41s50.73-18.04,50.73-60.78c0-23.8-26.72-33.48-59.67-33.48
			S47.91,247.04,47.91,270.84z"/>
		<path class="st0" d="M127.46,143.8c5.56,11.85,5.37,26.89,5.83,40.39c0.16,4.59,0.07,9.44-2.01,13.03
			c-1.63,2.81-4.27,4.47-6.83,6.05c-2.3,1.42-4.61,2.84-6.91,4.27c-6.34,3.92-12.91,7.91-20.3,8.4
			c-7.39,0.49-15.89-3.41-19.68-11.52c-2.87-6.13-2.53-13.32-1.45-19.76c0.92-5.45,2.32-10.74,4.16-15.75
			c4.05-10.99,10.59-20.91,19.9-25.54c2.33-1.16,4.79-1.97,7.25-2.73c3.23-1,6.52-1.92,9.95-1.81
			C120.8,138.96,125.68,140.51,127.46,143.8"/>
		<path class="st0" d="M199.18,89.54c-2.78-0.3-4.66-0.72-6.79-2.26c-2.19-1.59-4.38-3.17-6.57-4.76c-3.34-2.42-4.54-4.68-5.19-8.68
			c-0.73-4.42,0.05-9.12,3.6-11.99c6.03-4.87,13.68-7.83,21.51-8.31c2-0.12,4.08-0.08,5.91,0.71c1.52,0.66,2.77,1.79,3.88,3
			c4.3,4.71,6.78,11.13,5.95,17.37s-5.26,12.1-11.42,14.06C206.58,89.79,202.84,89.67,199.18,89.54"/>
		<path class="st0" d="M303.22,412.37c-7.22-0.24-13.89-5.36-17.22-11.79c-3.33-6.43-2.92-14.66,1.03-20.73
			c3.95-6.07,11.29-9.74,18.49-9.26c1.47,0.1,2.96,0.37,4.28,1.03c2.36,1.2,3.93,3.55,4.96,6c3.19,7.65,1.8,16.43-0.57,24.38
			c-0.8,2.68-1.74,5.4-3.56,7.51C308.81,411.64,305.92,413.04,303.22,412.37"/>
		<path class="st0" d="M172.63,65.32c11.77,11.32,8.89,37.66-2.1,49.19c-10.99,11.53-34.01,7.4-45.78-3.92s-7.17-43.42,3.83-54.95
			S160.86,54,172.63,65.32z"/>
		<path class="st0" d="M115.18,137.68c-8.38-1.91-15.42-8.73-17.59-17.03c-0.47-1.81-0.71-3.81,0.1-5.51
			c0.75-1.56,2.27-2.6,3.76-3.49c4.06-2.43,8.78-4.38,13.41-3.48c3.59,0.7,6.63,3.05,9.16,5.68c3.91,4.06,6.94,8.95,8.82,14.26
			c0.3,0.84,0.57,1.73,0.47,2.62c-0.1,0.87-0.56,1.66-1.07,2.38C128.85,137.82,120.63,139.59,115.18,137.68"/>
		<path class="st0" d="M126.68,351.94c-2.78-0.36-4.67-0.85-6.8-2.64c-2.19-1.84-4.39-3.68-6.58-5.52
			c-3.35-2.81-4.55-5.43-5.22-10.06c-0.74-5.12,0.03-10.56,3.56-13.86c6.02-5.62,13.66-9.02,21.49-9.56c2-0.14,4.08-0.08,5.91,0.84
			c1.52,0.77,2.78,2.08,3.88,3.48c4.31,5.46,6.81,12.9,6,20.12c-0.81,7.22-5.23,13.98-11.38,16.24
			C134.07,352.26,130.33,352.11,126.68,351.94"/>
		<path class="st0" d="M34.64,239.89c4.45,1.46,9.42,2.08,14.43,1.2c5.01-0.88,10.06-3.36,13.47-7.2c2.68-3.01,4.19-6.63,5.65-10.17
			c1.77-4.29,3.55-8.58,5.13-12.91c1.01-2.77,1.95-5.6,2-8.38c0.07-4.37-2.13-8.3-5.48-10.95s-7.76-4.1-12.37-4.7
			c-1.31-0.17-2.66-0.28-4.03-0.1c-1.49,0.19-2.95,0.71-4.4,1.23c-4.12,1.46-8.23,2.93-12.3,4.56c-2.84,1.15-5.94,2.1-8.21,4.15
			c-5.96,5.38-9.55,13.97-10.8,21.34C16.04,228.03,24.3,236.72,34.64,239.89"/>
		<path class="st0" d="M104.44,107.78c-7.22-0.24-13.89-5.36-17.22-11.79s-2.92-14.66,1.03-20.73c3.95-6.07,11.29-9.74,18.49-9.26
			c1.47,0.1,2.96,0.37,4.28,1.03c2.36,1.2,3.93,3.55,4.96,6c3.19,7.65,1.8,16.43-0.57,24.38c-0.8,2.68-1.74,5.4-3.56,7.51
			S107.14,108.46,104.44,107.78"/>
		<path class="st0" d="M176.82,60.78c-4.56,0.67-8.58-1.06-12.14-3.02c-6.23-3.43-12.98-7.56-14.16-14.46
			c-1.21-7.03,3.86-14.31,9.25-20.14c6.55-7.07,15.34-13.94,24.64-13.41c6.62,0.38,11.91,4.54,15.57,9.39
			c3.3,4.37,5.67,9.69,5.06,15.37c-0.66,6.24-4.87,12.19-10.19,16.51S183.17,58.24,176.82,60.78"/>
		<path class="st0" d="M58.97,141.06c-3.02-11.87,0.93-24.75,9.86-32.17c1.95-1.62,4.28-3.04,6.91-2.93
			c2.43,0.1,4.69,1.48,6.76,2.91c5.63,3.89,11.11,8.89,12.96,15.37c1.43,5.02,0.47,10.25-1.17,14.98
			c-2.53,7.3-6.67,13.93-12.06,19.32c-0.86,0.86-1.78,1.7-2.95,2.06c-1.15,0.35-2.43,0.21-3.65-0.06
			C67.61,158.77,60.11,149.15,58.97,141.06"/>
		<path class="st0" d="M43.98,154.99c-3.87,3.03-5.17,8.93-6.24,13.36s-0.47,9.61,2.63,12.81c2.37,2.45,5.74,3.37,8.96,4.19
			c2.64,0.67,5.35,1.33,8.03,0.91c2.42-0.39,4.66-1.65,6.5-3.35c6.23-5.74,7.31-16.74,2.33-23.73
			C61.2,152.17,50.91,150.24,43.98,154.99"/>
		<path class="st0" d="M132.84,49.89c-8.49-1.29-16.04-7.58-18.86-15.72c-0.62-1.78-1.01-3.76-0.34-5.52
			c0.62-1.62,2.05-2.77,3.46-3.77c3.85-2.73,8.39-5.04,13.07-4.48c3.62,0.44,6.84,2.56,9.57,5c4.21,3.77,7.61,8.44,9.91,13.61
			c0.37,0.82,0.71,1.69,0.68,2.58c-0.03,0.88-0.42,1.71-0.88,2.46C146.46,49.01,138.42,51.39,132.84,49.89"/>
	</g>
</g>
<g id="inv_x5F_horiz_x5F_vert">
</g>
<g id="Camada_4">
</g>
<g id="Camada_5">
</g>
</svg>
