<?xml version="1.0" encoding="UTF-8"?>
<svg id="Camada_1" data-name="Camada 1" xmlns="http://www.w3.org/2000/svg" viewBox="0 0 34.63 33.75">
  <defs>
    <style>
      .cls-1, .cls-2 {
        fill: #fff;
        stroke: #339;
        stroke-linecap: round;
        stroke-linejoin: round;
      stroke-width: 0.8px;
      }

      .cls-2 {
      stroke-width: 2.5px;
      }
    </style>
  </defs>
  <path class="cls-2" d="m32.13,16.16c0-2.06-2.65-3.42-5.11-3.42s-3.78,1.56-3.78,5.27c0,2.06,1.99,2.9,4.44,2.9s4.44-2.69,4.44-4.76Z"/>
  <path class="cls-2" d="m23.56,5.92c0-2.06-2.65-3.42-5.11-3.42s-3.78,1.56-3.78,5.27c0,2.06,1.99,2.9,4.44,2.9s4.44-2.69,4.44-4.76Z"/>
  <path class="cls-2" d="m10.39,23.34c0,.82-.11,1.52-.57,2.16-.49.7-1.38,1.07-2.29,1.06-.91,0-1.83-.35-2.63-.87-.89-.58-1.66-1.41-2.06-2.38-.64-1.54-.29-3.2.25-4.65.32-.87.87-1.83,1.85-1.84.33,0,.65.11.97.24,2.52,1.05,4.4,3.69,4.49,6.28Z"/>
  <path class="cls-2" d="m28.46,9.6c0-1.19-1.76-2.29-3.14-2.29-.71,0-1.35-.05-1.93.48-.54.49-1.06,1.55-1.06,2.13,0,1.19,1.23,3.08,2.61,3.08s3.53-2.2,3.53-3.39Z"/>
  <path class="cls-2" d="m3.64,13.77c1.18,3.08,5.67,5.3,8.19,4.35s4.34-5.54,3.16-8.62c-1.18-3.08-5.4-5.4-7.92-4.45-2.52.95-4.61,5.64-3.44,8.72Z"/>
  <path class="cls-2" d="m16.61,24.07c-1.27-.52-2.72-.62-4.03-.25-1.32.37-2.49,1.22-3.19,2.37-.26.43-.46.91-.49,1.41-.06,1.03.62,2,1.5,2.57.88.57,1.95.8,2.99.96.8.12,1.64.21,2.41-.02,1.45-.43,2.38-1.94,2.38-3.43,0-1.48-.2-2.95-1.58-3.61Z"/>
  <path class="cls-2" d="m26.34,27.23c-.41.48-.85.84-1.45,1.02-.66.2-1.4.04-1.97-.35-.56-.39-.96-.98-1.19-1.62-.26-.72-.32-1.52-.08-2.26.38-1.17,1.45-1.98,2.52-2.6.64-.37,1.48-.69,2.09-.29.2.14.35.34.48.55,1.03,1.68.86,4.01-.4,5.55Z"/>
  <path class="cls-2" d="m22.59,16.99c1.48-1.72.84-4.71-.74-5.7-1.58-.99-4.63.26-6.11,1.97-1.48,1.72-.56,5.33,1.02,6.31,1.58.99,4.35-.87,5.83-2.59Z"/>
  <path class="cls-2" d="m19.15,19.77c-1.61.24-3.3,1.87-3.06,2.91.23,1.04,1.98,2.73,3.59,2.49,1.61-.24,3.02-2.6,2.79-3.63-.23-1.04-1.7-2-3.32-1.76Z"/>
  <path class="cls-2" d="m19.31,26.78c.72-.21,1.51-.17,2.2.12s1.27.85,1.58,1.54c.11.26.19.54.18.82-.03.58-.46,1.08-.98,1.35-.52.26-1.11.32-1.68.35-.44.02-.9.01-1.31-.17-.76-.34-1.17-1.25-1.08-2.09.09-.83.29-1.64,1.08-1.93Z"/>
  <path class="cls-2" d="m11.73,23.22c.37.26.83.29,1.27.27.76-.03,1.61-.09,2.13-.66.52-.57.49-1.45.35-2.21-.17-.92-.56-1.93-1.43-2.3-.62-.26-1.34-.13-1.95.14-.55.24-1.08.61-1.36,1.15-.31.59-.28,1.31-.05,1.93.22.62.63,1.17,1.05,1.68Z"/>
  <path class="cls-2" d="m11.73,23.22c.37.26.83.29,1.27.27.76-.03,1.61-.09,2.13-.66.52-.57.49-1.45.35-2.21-.17-.92-.56-1.93-1.43-2.3-.62-.26-1.34-.13-1.95.14-.55.24-1.08.61-1.36,1.15-.31.59-.28,1.31-.05,1.93.22.62.63,1.17,1.05,1.68Z"/>
  <path class="cls-1" d="m32.13,16.16c0-2.06-2.65-3.42-5.11-3.42s-3.78,1.56-3.78,5.27c0,2.06,1.99,2.9,4.44,2.9s4.44-2.69,4.44-4.76Z"/>
  <path class="cls-1" d="m23.56,5.92c0-2.06-2.65-3.42-5.11-3.42s-3.78,1.56-3.78,5.27c0,2.06,1.99,2.9,4.44,2.9s4.44-2.69,4.44-4.76Z"/>
  <path class="cls-1" d="m10.39,23.34c0,.82-.11,1.52-.57,2.16-.49.7-1.38,1.07-2.29,1.06-.91,0-1.83-.35-2.63-.87-.89-.58-1.66-1.41-2.06-2.38-.64-1.54-.29-3.2.25-4.65.32-.87.87-1.83,1.85-1.84.33,0,.65.11.97.24,2.52,1.05,4.4,3.69,4.49,6.28Z"/>
  <path class="cls-1" d="m28.46,9.6c0-1.19-1.76-2.29-3.14-2.29-.71,0-1.35-.05-1.93.48-.54.49-1.06,1.55-1.06,2.13,0,1.19,1.23,3.08,2.61,3.08s3.53-2.2,3.53-3.39Z"/>
  <path class="cls-1" d="m3.64,13.77c1.18,3.08,5.67,5.3,8.19,4.35s4.34-5.54,3.16-8.62c-1.18-3.08-5.4-5.4-7.92-4.45-2.52.95-4.61,5.64-3.44,8.72Z"/>
  <path class="cls-1" d="m16.61,24.07c-1.27-.52-2.72-.62-4.03-.25-1.32.37-2.49,1.22-3.19,2.37-.26.43-.46.91-.49,1.41-.06,1.03.62,2,1.5,2.57.88.57,1.95.8,2.99.96.8.12,1.64.21,2.41-.02,1.45-.43,2.38-1.94,2.38-3.43,0-1.48-.2-2.95-1.58-3.61Z"/>
  <path class="cls-1" d="m26.34,27.23c-.41.48-.85.84-1.45,1.02-.66.2-1.4.04-1.97-.35-.56-.39-.96-.98-1.19-1.62-.26-.72-.32-1.52-.08-2.26.38-1.17,1.45-1.98,2.52-2.6.64-.37,1.48-.69,2.09-.29.2.14.35.34.48.55,1.03,1.68.86,4.01-.4,5.55Z"/>
  <path class="cls-1" d="m22.59,16.99c1.48-1.72.84-4.71-.74-5.7-1.58-.99-4.63.26-6.11,1.97-1.48,1.72-.56,5.33,1.02,6.31,1.58.99,4.35-.87,5.83-2.59Z"/>
  <path class="cls-1" d="m19.15,19.77c-1.61.24-3.3,1.87-3.06,2.91.23,1.04,1.98,2.73,3.59,2.49,1.61-.24,3.02-2.6,2.79-3.63-.23-1.04-1.7-2-3.32-1.76Z"/>
  <path class="cls-1" d="m19.31,26.78c.72-.21,1.51-.17,2.2.12s1.27.85,1.58,1.54c.11.26.19.54.18.82-.03.58-.46,1.08-.98,1.35-.52.26-1.11.32-1.68.35-.44.02-.9.01-1.31-.17-.76-.34-1.17-1.25-1.08-2.09.09-.83.29-1.64,1.08-1.93Z"/>
  <path class="cls-1" d="m11.73,23.22c.37.26.83.29,1.27.27.76-.03,1.61-.09,2.13-.66.52-.57.49-1.45.35-2.21-.17-.92-.56-1.93-1.43-2.3-.62-.26-1.34-.13-1.95.14-.55.24-1.08.61-1.36,1.15-.31.59-.28,1.31-.05,1.93.22.62.63,1.17,1.05,1.68Z"/>
  <path class="cls-1" d="m11.73,23.22c.37.26.83.29,1.27.27.76-.03,1.61-.09,2.13-.66.52-.57.49-1.45.35-2.21-.17-.92-.56-1.93-1.43-2.3-.62-.26-1.34-.13-1.95.14-.55.24-1.08.61-1.36,1.15-.31.59-.28,1.31-.05,1.93.22.62.63,1.17,1.05,1.68Z"/>
</svg>