<?xml version="1.0" encoding="UTF-8"?>
<svg id="Camada_1" data-name="Camada 1" xmlns="http://www.w3.org/2000/svg" viewBox="0 0 36.88 34.2">
  <defs>
    <style>
      .cls-1 {
        fill: #fff;
      stroke-width: 0.8px;
      }

      .cls-1, .cls-2 {
        stroke: #339;
        stroke-linecap: round;
        stroke-linejoin: round;
      }

      .cls-2 {
        fill: #339;
      stroke-width: 2.5px;
      }
    </style>
  </defs>
  <path class="cls-2" d="m11.46,14.4c0-1.77-2.01-2.63-4.48-2.63s-4.48,3.49-4.48,5.26,1.75,3.04,4.22,3.04,4.74-3.9,4.74-5.67Z"/>
  <path class="cls-2" d="m34.38,16.51c0-2.12-2.68-3.5-5.15-3.5s-3.81,1.6-3.81,5.4c0,2.12,2.01,2.98,4.48,2.98s4.48-2.76,4.48-4.88Z"/>
  <path class="cls-2" d="m25.74,6c0-2.12-2.68-3.5-5.15-3.5s-3.81,1.6-3.81,5.4c0,2.12,2.01,2.98,4.48,2.98s4.48-2.76,4.48-4.88Z"/>
  <path class="cls-2" d="m6.02,24.31c-.39-.47-.65-.93-.71-1.52-.06-.64.26-1.29.76-1.74s1.17-.7,1.85-.79c.77-.1,1.58,0,2.25.35,1.08.57,1.67,1.69,2.06,2.79.23.66.38,1.48-.15,1.96-.18.16-.41.26-.64.34-1.88.63-4.15.05-5.43-1.4Z"/>
  <path class="cls-2" d="m30.67,9.78c0-1.22-1.78-2.34-3.17-2.34-.72,0-1.36-.05-1.95.49-.55.51-1.07,1.59-1.07,2.18,0,1.22,1.24,3.15,2.63,3.15s3.56-2.26,3.56-3.48Z"/>
  <path class="cls-2" d="m13.47,20.36c.43-.27.7-.8.75-1.29.05-.49-.07-.99-.28-1.45-.1-.22-.23-.44-.41-.61-.29-.28-.71-.41-1.12-.43-.94-.03-1.86.62-2.13,1.5-.07.23-.1.48-.12.72-.03.34-.03.69.13.99.2.38.61.61,1.02.76.72.27,1.61.32,2.16-.19Z"/>
  <path class="cls-2" d="m13.8,25.65c.41.3.92.33,1.41.31.85-.03,1.79-.11,2.36-.74.58-.65.55-1.64.39-2.5-.19-1.04-.62-2.18-1.59-2.59-.69-.3-1.48-.14-2.17.16-.61.27-1.2.69-1.51,1.29-.34.66-.31,1.47-.06,2.18.25.7.7,1.32,1.16,1.89Z"/>
  <path class="cls-2" d="m22.89,11.3c-1.75-.62-4.2.18-4.61,1.37-.41,1.19,1.03,3.35,2.78,3.98,1.75.62,4.16-.05,4.56-1.24.41-1.19-.99-3.48-2.73-4.1Z"/>
  <path class="cls-2" d="m12.06,10.98c.7-1.03.16-2.65-1.2-3.61-1.36-.96-3.03-.91-3.73.12-.7,1.03-1.14,2.6.22,3.56,1.36.96,4.02.96,4.72-.07Z"/>
  <path class="cls-2" d="m16.23,16.11c1.49-.68,2.2-3.57,1.63-5.25-.57-1.68-2.82-2.24-4.31-1.56-1.49.68-2.25,4.25-1.68,5.93s2.87,1.56,4.36.88Z"/>
  <path class="cls-2" d="m15.7,27.36c-.57-.77-1.39-1.36-2.3-1.61-.91-.25-1.91-.16-2.73.28-.31.16-.59.38-.78.67-.4.6-.34,1.43-.01,2.09.32.66.87,1.19,1.43,1.66.43.36.9.72,1.44.86,1.01.27,2.1-.31,2.62-1.21.52-.9.92-1.85.34-2.75Z"/>
  <path class="cls-2" d="m28.54,27.86c-.41.49-.85.86-1.47,1.04-.67.2-1.42.04-1.98-.36-.57-.4-.97-1.01-1.2-1.66-.26-.74-.32-1.56-.08-2.31.39-1.2,1.46-2.03,2.54-2.67.65-.38,1.49-.71,2.1-.3.21.14.36.35.49.56,1.04,1.72.87,4.11-.4,5.69Z"/>
  <path class="cls-2" d="m22.17,23.15c1.62.46,3.43-.96,3.59-2.37.16-1.42-1.66-3.11-3.28-3.57s-3.75,1.36-3.91,2.77c-.16,1.42,1.98,2.72,3.6,3.17Z"/>
  <path class="cls-2" d="m10.98,5.91c.15,1.03.36,1.32.91,2,.4.49.88.96,1.48,1.08.54.11,1.11-.1,1.56-.43.45-.34.8-.79,1.13-1.25.31-.44.62-.9.7-1.44.12-.83-.34-1.63-.87-2.26-.27-.33-.58-.65-.95-.84-.46-.25-1-.3-1.52-.23-.78.1-1.54.46-2.04,1.09-.5.63-.54,1.47-.4,2.29Z"/>
  <path class="cls-2" d="m22.66,23.88c-1.12-1.06-3.33-1.39-3.98-.64-.65.75-.92,2.98.19,4.04,1.12,1.06,3.72.78,4.37.03.65-.75.53-2.37-.59-3.43Z"/>
  <path class="cls-2" d="m21.92,27.95c.64-.18,1.35-.15,1.97.11.62.26,1.14.76,1.41,1.37.1.23.17.48.16.73-.03.52-.41.96-.87,1.2-.46.23-.99.29-1.5.31-.4.02-.8,0-1.17-.15-.68-.3-1.05-1.11-.96-1.85.08-.74.26-1.46.97-1.71Z"/>
  <path class="cls-2" d="m15.43,16.73c.62-.15,1.3-.13,1.89.09.59.21,1.09.62,1.35,1.12.1.19.16.39.15.6-.03.42-.4.79-.84.98-.44.19-.95.24-1.44.25-.38.01-.77,0-1.12-.12-.65-.24-1-.91-.92-1.52.08-.61.25-1.2.93-1.4Z"/>
  <path class="cls-2" d="m19.96,31.31c.51-.27.83-.8.89-1.29.06-.49-.09-.99-.34-1.45-.12-.22-.27-.44-.48-.61-.35-.28-.84-.41-1.33-.43-1.12-.03-2.21.62-2.53,1.5-.09.23-.12.48-.14.72-.03.34-.03.69.16.99.23.38.72.61,1.21.76.85.27,1.91.32,2.56-.19Z"/>
  <path class="cls-1" d="m11.58,14.4c0-1.77-2.01-2.63-4.48-2.63s-4.48,3.49-4.48,5.26,1.75,3.04,4.22,3.04,4.74-3.9,4.74-5.67Z"/>
  <path class="cls-1" d="m34.5,16.51c0-2.12-2.68-3.5-5.15-3.5s-3.81,1.6-3.81,5.4c0,2.12,2.01,2.98,4.48,2.98s4.48-2.76,4.48-4.88Z"/>
  <path class="cls-1" d="m25.86,6c0-2.12-2.68-3.5-5.15-3.5s-3.81,1.6-3.81,5.4c0,2.12,2.01,2.98,4.48,2.98s4.48-2.76,4.48-4.88Z"/>
  <path class="cls-1" d="m6.14,24.31c-.39-.47-.65-.93-.71-1.52-.06-.64.26-1.29.76-1.74.5-.44,1.17-.7,1.85-.79.77-.1,1.58,0,2.25.35,1.08.57,1.67,1.69,2.06,2.79.23.66.38,1.48-.15,1.96-.18.16-.41.26-.64.34-1.88.63-4.15.05-5.43-1.4Z"/>
  <path class="cls-1" d="m30.8,9.78c0-1.22-1.78-2.34-3.17-2.34-.72,0-1.36-.05-1.95.49-.55.51-1.07,1.59-1.07,2.18,0,1.22,1.24,3.15,2.63,3.15s3.56-2.26,3.56-3.48Z"/>
  <path class="cls-1" d="m13.59,20.36c.43-.27.7-.8.75-1.29.05-.49-.07-.99-.28-1.45-.1-.22-.23-.44-.41-.61-.29-.28-.71-.41-1.12-.43-.94-.03-1.86.62-2.13,1.5-.07.23-.1.48-.12.72-.03.34-.03.69.13.99.2.38.61.61,1.02.76.72.27,1.61.32,2.16-.19Z"/>
  <path class="cls-1" d="m13.93,25.65c.41.3.92.33,1.41.31.85-.03,1.79-.11,2.36-.74.58-.65.55-1.64.39-2.5-.19-1.04-.62-2.18-1.59-2.59-.69-.3-1.48-.14-2.17.16-.61.27-1.2.69-1.51,1.29-.34.66-.31,1.47-.06,2.18.25.7.7,1.32,1.16,1.89Z"/>
  <path class="cls-1" d="m23.02,11.3c-1.75-.62-4.2.18-4.61,1.37-.41,1.19,1.03,3.35,2.78,3.98,1.75.62,4.16-.05,4.56-1.24.41-1.19-.99-3.48-2.73-4.1Z"/>
  <path class="cls-1" d="m12.18,10.98c.7-1.03.16-2.65-1.2-3.61-1.36-.96-3.03-.91-3.73.12-.7,1.03-1.14,2.6.22,3.56,1.36.96,4.02.96,4.72-.07Z"/>
  <path class="cls-1" d="m16.36,16.11c1.49-.68,2.2-3.57,1.63-5.25-.57-1.68-2.82-2.24-4.31-1.56-1.49.68-2.25,4.25-1.68,5.93.57,1.68,2.87,1.56,4.36.88Z"/>
  <path class="cls-1" d="m15.82,27.36c-.57-.77-1.39-1.36-2.3-1.61-.91-.25-1.91-.16-2.73.28-.31.16-.59.38-.78.67-.4.6-.34,1.43-.01,2.09.32.66.87,1.19,1.43,1.66.43.36.9.72,1.44.86,1.01.27,2.1-.31,2.62-1.21.52-.9.92-1.85.34-2.75Z"/>
  <path class="cls-1" d="m28.66,27.86c-.41.49-.85.86-1.47,1.04-.67.2-1.42.04-1.98-.36-.57-.4-.97-1.01-1.2-1.66-.26-.74-.32-1.56-.08-2.31.39-1.2,1.46-2.03,2.54-2.67.65-.38,1.49-.71,2.1-.3.21.14.36.35.49.56,1.04,1.72.87,4.11-.4,5.69Z"/>
  <path class="cls-1" d="m22.29,23.15c1.62.46,3.43-.96,3.59-2.37.16-1.42-1.66-3.11-3.28-3.57-1.62-.46-3.75,1.36-3.91,2.77-.16,1.42,1.98,2.72,3.6,3.17Z"/>
  <path class="cls-1" d="m11.11,5.91c.15,1.03.36,1.32.91,2,.4.49.88.96,1.48,1.08.54.11,1.11-.1,1.56-.43.45-.34.8-.79,1.13-1.25.31-.44.62-.9.7-1.44.12-.83-.34-1.63-.87-2.26-.27-.33-.58-.65-.95-.84-.46-.25-1-.3-1.52-.23-.78.1-1.54.46-2.04,1.09-.5.63-.54,1.47-.4,2.29Z"/>
  <path class="cls-1" d="m22.78,23.88c-1.12-1.06-3.33-1.39-3.98-.64-.65.75-.92,2.98.19,4.04,1.12,1.06,3.72.78,4.37.03.65-.75.53-2.37-.59-3.43Z"/>
  <path class="cls-1" d="m22.04,27.95c.64-.18,1.35-.15,1.97.11.62.26,1.14.76,1.41,1.37.1.23.17.48.16.73-.03.52-.41.96-.87,1.2-.46.23-.99.29-1.5.31-.4.02-.8,0-1.17-.15-.68-.3-1.05-1.11-.96-1.85.08-.74.26-1.46.97-1.71Z"/>
  <path class="cls-1" d="m15.55,16.73c.62-.15,1.3-.13,1.89.09.59.21,1.09.62,1.35,1.12.1.19.16.39.15.6-.03.42-.4.79-.84.98-.44.19-.95.24-1.44.25-.38.01-.77,0-1.12-.12-.65-.24-1-.91-.92-1.52.08-.61.25-1.2.93-1.4Z"/>
  <path class="cls-1" d="m20.08,31.31c.51-.27.83-.8.89-1.29.06-.49-.09-.99-.34-1.45-.12-.22-.27-.44-.48-.61-.35-.28-.84-.41-1.33-.43-1.12-.03-2.21.62-2.53,1.5-.09.23-.12.48-.14.72-.03.34-.03.69.16.99.23.38.72.61,1.21.76.85.27,1.91.32,2.56-.19Z"/>
</svg>