<?xml version="1.0" encoding="UTF-8"?>
<svg id="Camada_1" data-name="Camada 1" xmlns="http://www.w3.org/2000/svg" viewBox="0 0 35.45 32.71">
  <defs>
    <style>
      .cls-1 {
        fill: #fff;
      }

      .cls-1, .cls-2 {
        stroke: #339;
      stroke-width: 0.8px;
      }

      .cls-2 {
        fill: #339;
      stroke-width: 2.5px;
      }
    </style>
  </defs>
  <path class="cls-2" d="m3.17,18.86c-.89-1.55-.89-3.45,0-5l5.11-8.86c.89-1.55,2.54-2.5,4.33-2.5h10.23c1.79,0,3.44.95,4.33,2.5l5.11,8.86c.89,1.55.89,3.45,0,5l-5.11,8.86c-.89,1.55-2.54,2.5-4.33,2.5h-10.23c-1.79,0-3.44-.95-4.33-2.5l-5.11-8.86Z"/>
  <path class="cls-1" d="m3.6,14.11l5.11-8.86c.8-1.39,2.29-2.25,3.9-2.25h10.23c1.61,0,3.09.86,3.9,2.25l5.11,8.86c.8,1.39.8,3.11,0,4.5l-5.11,8.86c-.8,1.39-2.29,2.25-3.9,2.25h-10.23c-1.61,0-3.09-.86-3.9-2.25l-5.11-8.86c-.8-1.39-.8-3.11,0-4.5Z"/>
</svg>