<?xml version="1.0" encoding="UTF-8"?>
<svg id="Camada_1" data-name="Camada 1" xmlns="http://www.w3.org/2000/svg" viewBox="0 0 36.88 34.07">
  <defs>
    <style>
      .cls-1 {
        fill: #fff;
      }

      .cls-1, .cls-2 {
        stroke: #339;
        stroke-linecap: round;
        stroke-linejoin: round;
      stroke-width: 0.8px;
      }

      .cls-2 {
        fill: #339;
      stroke-width: 2.5px;
      }
    </style>
  </defs>
  <path class="cls-2" d="m11.46,14.63c0-1.72-2.01-2.56-4.48-2.56s-4.48,3.41-4.48,5.13,1.75,2.97,4.22,2.97,4.74-3.81,4.74-5.53Z"/>
  <path class="cls-2" d="m34.38,16.68c0-2.07-2.68-3.42-5.15-3.42s-3.81,1.57-3.81,5.27c0,2.07,2.01,2.91,4.48,2.91s4.48-2.69,4.48-4.76Z"/>
  <path class="cls-2" d="m5.95,23.64c-.3-.39-.5-.78-.54-1.27-.04-.54.2-1.08.58-1.45.39-.37.9-.58,1.42-.66.59-.09,1.21,0,1.73.29.83.47,1.28,1.41,1.58,2.33.18.55.29,1.23-.11,1.64-.14.14-.31.22-.49.28-1.44.53-3.19.04-4.16-1.17Z"/>
  <path class="cls-2" d="m30.67,10.12c0-1.19-1.78-2.29-3.17-2.29-.72,0-1.36-.05-1.95.48-.55.5-1.07,1.56-1.07,2.13,0,1.19,1.24,3.08,2.63,3.08s3.56-2.21,3.56-3.4Z"/>
  <path class="cls-2" d="m10.31,21.28c-.39-.19-.76-.48-.97-.9-.21-.42-.21-1,.07-1.36.31-.39.83-.42,1.29-.42h1c.12,0,.23,0,.34.04.3.12.43.51.48.86.05.31.06.64-.04.94-.12.33-.37.59-.65.74-.49.28-.95.31-1.53.1Z"/>
  <path class="cls-2" d="m13.57,18.27c.34-.21.55-.61.59-.99.04-.38-.06-.76-.22-1.11-.08-.17-.18-.34-.32-.47-.23-.21-.56-.32-.88-.33-.74-.02-1.46.47-1.67,1.15-.06.18-.08.37-.09.55-.02.26-.02.53.1.76.15.29.48.47.8.58.56.2,1.27.25,1.7-.15Z"/>
  <path class="cls-2" d="m11.96,25.11c.3.22.68.24,1.04.23.62-.02,1.31-.08,1.73-.55.43-.48.4-1.21.29-1.85-.14-.77-.46-1.61-1.17-1.92-.5-.22-1.09-.11-1.59.12-.45.2-.88.51-1.11.96-.25.49-.23,1.09-.04,1.61.18.52.51.97.86,1.4Z"/>
  <path class="cls-2" d="m26,14.58c0-1.39-1.34-2.92-2.39-2.92s-2.36,1.54-2.36,2.92,1.22,2.92,2.28,2.92,2.48-1.54,2.48-2.92Z"/>
  <path class="cls-2" d="m25.06,19.47c.27-.18.31-.4.36-.71.04-.27-.09-.51-.19-.76-.18-.45-.75-.65-1.2-.49-.45.16-.75.62-.82,1.1-.02.14-.02.3.03.43.05.12.14.22.23.31.14.14.31.27.5.3.15.02.42.04.56,0,.21-.05.34-.04.51-.2Z"/>
  <path class="cls-2" d="m6.62,11.97c.59-.09,1.11-.53,1.3-1.1.04-.12.07-.26.02-.39-.04-.11-.14-.19-.24-.26-.26-.19-.58-.35-.9-.31-.25.03-.47.18-.66.35-.29.26-.52.59-.68.95-.03.06-.05.12-.05.18,0,.06.03.12.06.17.21.35.76.51,1.14.41Z"/>
  <path class="cls-2" d="m12.85,10.13c0-.96-1.05-1.74-2.35-1.74s-2.35.78-2.35,1.74.4,2.14,1.7,2.14,3.01-1.18,3.01-2.14Z"/>
  <path class="cls-2" d="m10.95,24.52c.19-.04.37.07.52.19.36.29.52.68.47,1.14-.04.31-.09.63-.34.8-.25.17-.56.25-.87.28-.21.02-.43,0-.6-.12-.13-.1-.21-.25-.26-.4-.12-.39-.09-.82.1-1.18.19-.36.59-.64.98-.72Z"/>
  <path class="cls-2" d="m14.65,15.05c1.04-.42,1.54-2.2,1.14-3.24-.4-1.04-1.98-1.38-3.02-.96-1.04.42-1.58,2.62-1.18,3.66.4,1.04,2.02.97,3.06.54Z"/>
  <path class="cls-2" d="m13.23,10.45c-.14-.14-.19-.38-.18-.57,0-.17.09-.33.22-.43.14-.11.32-.14.49-.17.06,0,.12-.02.17,0,.1.02.18.11.24.2.11.19.15.41.16.64,0,.03,0,.07,0,.1-.01.04-.04.06-.07.09-.25.22-.62.27-.95.2-.06-.01-.08,0-.09-.04Z"/>
  <path class="cls-2" d="m14.34,20.82c.22-.18.34-.52.4-.8.06-.28.04-.59-.1-.83-.1-.18-.27-.3-.44-.39-.19-.11-.4-.19-.61-.2-.22-.01-.44.05-.61.21-.16.15-.26.37-.31.6-.04.16-.06.33-.02.49.05.21.19.37.33.51.19.18.39.36.62.45.24.09.51.1.74-.03Z"/>
  <path class="cls-2" d="m13.72,30.61c.19-.65.18-1.37-.07-2.01-.25-.63-.73-1.17-1.34-1.46-.23-.11-.47-.18-.72-.17-.51.02-.96.4-1.2.87-.24.47-.3,1-.33,1.53-.02.4-.02.82.13,1.19.28.7,1.08,1.09,1.82,1.01.74-.07,1.46-.24,1.72-.96Z"/>
  <path class="cls-2" d="m14.88,28.53c-.22.06-.23.08-.45.08-.13,0-.26,0-.38-.06-.12-.05-.22-.15-.31-.25-.15-.17-.29-.35-.41-.54-.08-.12-.15-.25-.18-.4-.05-.21-.02-.43,0-.64.04-.34.09-.69.3-.96.2-.27.52-.41.83-.52.54-.19,1.15-.33,1.68-.11.48.2.81.68.92,1.2.03.16.05.33.02.49-.03.24-.15.45-.3.64-.43.54-1.09.82-1.73,1.07Z"/>
  <path class="cls-2" d="m30.41,23.64c.59-.09,1.11-.53,1.3-1.1.04-.12.07-.26.02-.39-.04-.11-.14-.19-.24-.26-.26-.19-.58-.35-.9-.31-.25.03-.47.18-.66.35-.29.26-.52.59-.68.95-.03.06-.05.12-.05.18,0,.06.03.12.06.17.21.35.76.51,1.14.41Z"/>
  <path class="cls-2" d="m28.88,22.39c.25.42.41.83.4,1.32-.02.54-.32,1.05-.74,1.37-.42.32-.96.47-1.49.49-.59.02-1.2-.13-1.68-.49-.77-.57-1.11-1.55-1.31-2.5-.12-.57-.15-1.26.3-1.61.15-.12.34-.18.52-.22,1.49-.36,3.17.33,4,1.64Z"/>
  <path class="cls-2" d="m29.66,25.01c.16.12.21.36.26.53.04.18.02.38-.11.51-.1.1-.24.13-.37.17-.11.03-.22.05-.33.04-.1-.02-.19-.07-.27-.13-.26-.23-.3-.67-.1-.94.2-.28.63-.35.92-.17Z"/>
  <path class="cls-2" d="m24.31,10.87c.19-.64.17-1.35-.07-1.97-.25-.62-.72-1.15-1.32-1.43-.22-.11-.47-.18-.72-.17-.51.02-.95.39-1.19.85-.24.46-.3.98-.33,1.49-.02.39-.02.8.13,1.17.28.68,1.07,1.06,1.8.99.73-.07,1.44-.24,1.7-.94Z"/>
  <path class="cls-2" d="m18.43,19.19c.69-.62.8-.92,1.03-1.68.17-.55.28-1.15.07-1.69-.19-.48-.62-.82-1.09-1.01-.47-.19-.98-.24-1.48-.28-.48-.03-.98-.05-1.41.15-.67.31-1.04,1.06-1.25,1.78-.11.38-.19.77-.16,1.16.05.48.27.93.57,1.3.45.57,1.1.99,1.82,1.07.71.08,1.35-.29,1.9-.8Z"/>
  <path class="cls-2" d="m18.35,14.46c.3.22.68.24,1.03.23.62-.02,1.31-.08,1.73-.55.43-.48.4-1.21.29-1.85-.14-.77-.46-1.61-1.17-1.92-.5-.22-1.09-.11-1.59.12-.45.2-.88.51-1.11.96-.25.49-.23,1.09-.04,1.61.18.52.51.97.86,1.4Z"/>
  <path class="cls-2" d="m16.16,13.92c-.21-.27-.25-.54-.22-.88,0-.09.03-.17.08-.24.08-.11.22-.17.36-.17s.27.04.4.09c.21.09.41.2.57.36.16.16.27.38.28.61,0,.35-.28.68-.62.72-.34.04-.61-.16-.84-.49Z"/>
  <path class="cls-2" d="m21.84,21.81c1.04-.42,1.54-2.2,1.14-3.24-.4-1.04-1.98-1.38-3.02-.96-1.04.42-1.58,2.62-1.18,3.66.4,1.04,2.02.97,3.06.54Z"/>
  <path class="cls-2" d="m19.69,15.85c.1.36.25.7.46,1.01.14.21.32.42.57.48.21.05.44-.02.63-.12.08-.04.15-.09.2-.15.06-.08.09-.18.1-.27.06-.47-.2-.93-.52-1.27-.09-.09-.18-.19-.3-.24-.19-.09-.43-.06-.62.03-.19.09-.46.28-.51.54Z"/>
  <path class="cls-2" d="m25.02,8.47c.43-.04.83-.41,1.09-.79.15-.23.28-.48.34-.76.1-.48-.02-1-.29-1.38-.27-.39-.67-.64-1.1-.73-.44-.09-.93,0-1.25.34-.16.17-.27.4-.36.63-.19.47-.33,1-.21,1.49.1.4.37.73.7.93.33.2.71.27,1.08.27Z"/>
  <path class="cls-2" d="m27.41,7.83c.21-.02.4-.09.57-.22.15-.11.29-.22.4-.37.11-.15.18-.34.14-.52-.05-.23-.26-.39-.45-.52-.12-.08-.23-.05-.37-.07-.26-.04-.53.18-.72.37-.25.27-.41.47-.31.83.1.36.38.52.74.5Z"/>
  <path class="cls-2" d="m27.3,4.87c.16.12.21.36.26.53.04.18.02.38-.11.51-.1.1-.24.13-.37.17-.11.03-.22.05-.33.04-.1-.02-.19-.07-.27-.13-.26-.23-.3-.67-.1-.94.21-.28.63-.35.92-.17Z"/>
  <path class="cls-2" d="m27.71,28.21c.19-.02.32-.05.47-.16.15-.11.3-.22.45-.33.23-.17.31-.33.36-.61.05-.31,0-.64-.25-.84-.42-.34-.94-.55-1.48-.58-.14,0-.28,0-.41.05-.1.05-.19.13-.27.21-.3.33-.47.78-.41,1.22.06.44.36.85.79.98.24.08.5.07.75.06Z"/>
  <path class="cls-2" d="m18.41,10.63c1.04-.9,1.33-2.93.64-3.75-.68-.82-2.68-.85-3.72.05-1.04.9-1.4,2.84-.72,3.66.68.82,2.75.94,3.79.04Z"/>
  <path class="cls-2" d="m10.18,5.98c.14.92.32,1.18.83,1.8.36.44.8.86,1.35.97.5.09,1.01-.09,1.42-.39.41-.3.73-.71,1.03-1.13.29-.39.57-.81.64-1.29.11-.74-.31-1.46-.79-2.03-.25-.3-.53-.58-.87-.76-.42-.22-.91-.27-1.38-.21-.71.09-1.41.42-1.86.98-.45.57-.49,1.32-.37,2.06Z"/>
  <path class="cls-2" d="m17.75,19.97c-.74.08-1.42.62-2.06,1.06-.22.15-.44.33-.53.57-.07.2-.06.41-.04.62.01.19.03.37.04.56.04.52.09,1.05.32,1.51.23.46.71.83,1.21.77.38-.04.7-.31.96-.6.22-.25.41-.51.58-.8.36-.62.59-1.36.48-2.08-.03-.18-.08-.35-.13-.53-.07-.23-.14-.46-.26-.66-.12-.2-.36-.44-.58-.43Z"/>
  <path class="cls-2" d="m23.55,23.68c.22-.18.34-.52.4-.8.06-.28.04-.59-.1-.83-.1-.18-.27-.3-.44-.39-.19-.11-.4-.19-.61-.2-.22-.01-.44.05-.61.21-.16.15-.26.37-.31.59-.04.16-.06.33-.02.49.05.21.19.37.33.51.19.18.39.36.62.45.24.09.51.1.74-.03Z"/>
  <path class="cls-2" d="m22.66,23.88c-1.12-1.03-3.33-1.36-3.98-.62-.65.73-.92,2.91.19,3.95,1.12,1.03,3.72.76,4.37.03.65-.73.53-2.32-.59-3.35Z"/>
  <path class="cls-2" d="m24.9,28.06c.16-.03.27-.07.4-.2.13-.14.26-.28.39-.42.2-.21.27-.41.31-.77.05-.39,0-.8-.21-1.05-.35-.42-.8-.68-1.26-.72-.12,0-.24,0-.35.07-.09.06-.16.16-.23.27-.25.42-.4.98-.36,1.53.05.55.3,1.06.67,1.23.2.09.42.08.64.07Z"/>
  <path class="cls-2" d="m21.92,27.85c.64-.18,1.35-.15,1.97.11.62.26,1.14.74,1.41,1.34.1.22.17.47.16.72-.03.51-.41.94-.87,1.17-.46.23-.99.28-1.5.3-.4.01-.8,0-1.17-.15-.68-.29-1.05-1.09-.96-1.81.08-.72.26-1.43.97-1.67Z"/>
  <path class="cls-2" d="m27.01,30.02c.06-.37.06-.75,0-1.11-.04-.25-.12-.52-.32-.68-.17-.14-.4-.17-.62-.16-.08,0-.17.01-.25.05-.09.04-.15.12-.2.21-.25.4-.2.93-.05,1.38.04.12.09.25.17.35.14.16.36.24.58.23.21,0,.53-.06.69-.27Z"/>
  <path class="cls-2" d="m17.55,28.89c.59-.09,1.11-.53,1.3-1.1.04-.12.07-.26.02-.39-.04-.11-.14-.19-.24-.26-.26-.19-.58-.35-.9-.31-.25.03-.47.18-.66.35-.29.26-.52.59-.68.95-.03.06-.05.12-.05.18,0,.06.03.12.06.17.21.35.76.51,1.14.41Z"/>
  <path class="cls-2" d="m20.23,31.27c.34-.21.55-.61.59-.99.04-.38-.06-.76-.22-1.11-.08-.17-.18-.34-.32-.47-.23-.21-.56-.32-.88-.33-.74-.02-1.46.47-1.67,1.15-.06.18-.08.37-.09.55-.02.26-.02.53.1.76.15.29.48.47.8.58.56.2,1.27.25,1.7-.15Z"/>
  <path class="cls-2" d="m20.24,8.32c.5-.02.96-.38,1.19-.83.23-.45.2-1.03-.07-1.45-.27-.43-.78-.68-1.27-.65-.1,0-.2.03-.3.07-.16.08-.27.25-.34.42-.22.54-.12,1.15.04,1.71.05.19.12.38.25.53.13.15.32.25.51.2Z"/>
  <path class="cls-2" d="m19.59,5.15c-.14.3-.35.59-.63.8-.28.21-.65.35-1,.33-.28-.01-.53-.12-.77-.22-.3-.12-.59-.25-.89-.38-.19-.09-.37-.18-.51-.32-.22-.21-.31-.52-.28-.83.03-.3.17-.6.36-.87.05-.08.11-.15.19-.21.08-.07.18-.12.27-.16.27-.14.54-.28.81-.4.19-.09.39-.2.6-.21.55-.04,1.15.21,1.57.51.58.42.62,1.27.28,1.96Z"/>
  <path class="cls-2" d="m15.32,30.64c-.48,0-.81-.22-1.13-.57-.08-.09-.15-.19-.18-.31-.04-.19.03-.39.16-.54.13-.15.3-.26.47-.35.29-.15.6-.27.92-.3.32-.03.65.05.9.25.37.31.45.93.17,1.34-.28.42-.74.52-1.3.47Z"/>
  <path class="cls-2" d="m21.27,5.82c.24.18.53.21.8.2.48,0,1.01-.04,1.33-.4.32-.37.29-.96.18-1.47-.12-.62-.39-1.29-.94-1.55-.39-.18-.85-.11-1.23.06-.34.15-.67.39-.84.74-.18.39-.15.86,0,1.28.15.42.42.79.69,1.13Z"/>
  <path class="cls-2" d="m9.37,8.47c.21-.02.4-.09.57-.22.15-.11.29-.22.4-.37.11-.15.18-.34.14-.52-.05-.23-.26-.39-.45-.52-.12-.08-.23-.05-.37-.07-.26-.04-.53.18-.72.37-.25.27-.41.47-.31.83.1.36.38.52.74.5Z"/>
  <path class="cls-1" d="m11.58,14.63c0-1.72-2.01-2.57-4.48-2.57s-4.48,3.41-4.48,5.13,1.75,2.97,4.22,2.97,4.74-3.81,4.74-5.53Z"/>
  <path class="cls-1" d="m34.5,16.68c0-2.07-2.68-3.42-5.15-3.42s-3.81,1.57-3.81,5.27c0,2.07,2.01,2.91,4.48,2.91s4.48-2.69,4.48-4.76Z"/>
  <path class="cls-1" d="m6.07,23.64c-.3-.39-.5-.78-.54-1.27-.04-.54.2-1.08.58-1.45.39-.37.9-.58,1.42-.66.59-.09,1.21,0,1.73.29.83.47,1.28,1.41,1.58,2.33.18.55.29,1.23-.11,1.64-.14.14-.31.22-.49.28-1.44.53-3.19.04-4.16-1.17Z"/>
  <path class="cls-1" d="m30.8,10.12c0-1.19-1.78-2.29-3.17-2.29-.72,0-1.36-.05-1.95.48-.55.5-1.07,1.56-1.07,2.13,0,1.19,1.24,3.08,2.63,3.08s3.56-2.21,3.56-3.4Z"/>
  <path class="cls-1" d="m10.43,21.28c-.39-.19-.76-.48-.97-.9-.21-.42-.21-1,.07-1.36.31-.39.83-.42,1.29-.42h1c.12,0,.23,0,.34.04.3.12.43.51.48.86.05.31.06.64-.04.94-.12.33-.37.59-.65.74-.49.28-.95.31-1.53.1Z"/>
  <path class="cls-1" d="m13.69,18.27c.34-.21.55-.61.59-.99.04-.38-.06-.76-.22-1.11-.08-.17-.18-.34-.32-.47-.23-.21-.56-.32-.88-.33-.74-.02-1.46.47-1.67,1.15-.06.18-.08.37-.09.55-.02.26-.02.53.1.76.15.29.48.47.8.58.56.2,1.27.25,1.7-.15Z"/>
  <path class="cls-1" d="m12.08,25.11c.3.22.68.24,1.03.23.62-.02,1.31-.08,1.73-.55.43-.48.4-1.21.29-1.85-.14-.77-.46-1.61-1.17-1.92-.5-.22-1.09-.11-1.59.12-.45.2-.88.51-1.11.96-.25.49-.23,1.09-.04,1.61.18.52.51.97.86,1.4Z"/>
  <path class="cls-1" d="m26.13,14.58c0-1.39-1.34-2.92-2.39-2.92s-2.36,1.54-2.36,2.92,1.22,2.92,2.28,2.92,2.48-1.54,2.48-2.92Z"/>
  <path class="cls-1" d="m25.18,19.47c.27-.18.31-.4.36-.71.04-.27-.09-.51-.19-.76-.18-.45-.75-.65-1.2-.49-.45.16-.75.62-.82,1.1-.02.14-.02.3.03.43.05.12.14.22.23.31.14.14.31.27.5.3.15.02.42.04.56,0,.21-.05.34-.04.51-.2Z"/>
  <path class="cls-1" d="m6.75,11.97c.59-.09,1.11-.53,1.3-1.1.04-.12.07-.26.02-.39-.04-.11-.14-.19-.24-.26-.26-.19-.58-.35-.9-.31-.25.03-.47.18-.66.35-.29.26-.52.59-.68.95-.03.06-.05.12-.05.18,0,.06.03.12.06.17.21.35.76.51,1.14.41Z"/>
  <path class="cls-1" d="m12.97,10.13c0-.96-1.05-1.74-2.35-1.74s-2.35.78-2.35,1.74.4,2.14,1.7,2.14,3.01-1.18,3.01-2.14Z"/>
  <path class="cls-1" d="m11.08,24.52c.19-.04.37.07.52.19.36.29.52.68.47,1.14-.04.31-.09.63-.34.8-.25.17-.56.25-.87.28-.21.02-.43,0-.6-.12-.13-.1-.21-.25-.26-.4-.12-.39-.09-.82.1-1.18.19-.36.59-.64.98-.72Z"/>
  <path class="cls-1" d="m14.77,15.05c1.04-.42,1.54-2.2,1.14-3.24-.4-1.04-1.98-1.38-3.02-.96-1.04.42-1.58,2.62-1.18,3.66.4,1.04,2.02.97,3.06.54Z"/>
  <path class="cls-1" d="m13.35,10.45c-.14-.14-.19-.38-.18-.57,0-.17.09-.33.22-.43.14-.11.32-.14.49-.17.06,0,.12-.02.17,0,.1.02.18.11.24.2.11.19.15.41.16.64,0,.03,0,.07,0,.1-.01.04-.04.06-.07.09-.25.22-.62.27-.95.2-.06-.01-.08,0-.09-.04Z"/>
  <path class="cls-1" d="m14.46,20.82c.22-.18.34-.52.4-.8s.04-.59-.1-.83c-.1-.18-.27-.3-.44-.39-.19-.11-.4-.19-.61-.2-.22-.01-.44.05-.61.21-.16.15-.26.37-.31.59-.04.16-.06.33-.02.49.05.21.19.37.33.51.19.18.39.36.62.45.24.09.51.1.74-.03Z"/>
  <path class="cls-1" d="m13.85,30.61c.19-.65.18-1.37-.07-2.01-.25-.63-.73-1.17-1.34-1.46-.23-.11-.47-.18-.72-.17-.51.02-.96.4-1.2.87-.24.47-.3,1-.33,1.53-.02.4-.02.82.13,1.19.28.7,1.08,1.09,1.82,1.01.74-.07,1.46-.24,1.72-.96Z"/>
  <path class="cls-1" d="m15,28.53c-.22.06-.23.08-.45.08-.13,0-.26,0-.38-.06-.12-.05-.22-.15-.31-.25-.15-.17-.29-.35-.41-.54-.08-.12-.15-.25-.18-.4-.05-.21-.02-.43,0-.64.04-.34.09-.69.3-.96.2-.27.52-.41.83-.52.54-.19,1.15-.33,1.68-.11.48.2.81.68.92,1.2.03.16.05.33.02.49-.03.24-.15.45-.3.64-.43.54-1.09.82-1.73,1.07Z"/>
  <path class="cls-1" d="m30.53,23.64c.59-.09,1.11-.53,1.3-1.1.04-.12.07-.26.02-.39-.04-.11-.14-.19-.24-.26-.26-.19-.58-.35-.9-.31-.25.03-.47.18-.66.35-.29.26-.52.59-.68.95-.03.06-.05.12-.05.18,0,.06.03.12.06.17.21.35.76.51,1.14.41Z"/>
  <path class="cls-1" d="m29,22.39c.25.42.41.83.4,1.32-.02.54-.32,1.05-.74,1.37-.42.32-.96.47-1.49.49-.59.02-1.2-.13-1.68-.49-.77-.57-1.11-1.55-1.31-2.5-.12-.57-.15-1.26.3-1.61.15-.12.34-.18.52-.22,1.49-.36,3.17.33,4,1.64Z"/>
  <path class="cls-1" d="m29.78,25.01c.16.12.21.36.26.53.04.18.02.38-.11.51-.1.1-.24.13-.37.17-.11.03-.22.05-.33.04-.1-.02-.19-.07-.27-.13-.26-.23-.3-.67-.1-.94.2-.28.63-.35.92-.17Z"/>
  <path class="cls-1" d="m24.44,10.87c.19-.64.17-1.35-.07-1.97-.25-.62-.72-1.15-1.32-1.43-.22-.11-.47-.18-.72-.17-.51.02-.95.39-1.19.85-.24.46-.3.98-.33,1.49-.02.39-.02.8.13,1.17.28.68,1.07,1.06,1.8.99.73-.07,1.44-.24,1.7-.94Z"/>
  <path class="cls-1" d="m18.56,19.19c.69-.62.8-.92,1.03-1.68.17-.55.28-1.15.07-1.69-.19-.48-.62-.82-1.09-1.01-.47-.19-.98-.24-1.48-.28-.48-.03-.98-.05-1.41.15-.67.31-1.04,1.06-1.25,1.78-.11.38-.19.77-.16,1.16.05.48.27.93.57,1.3.45.57,1.1.99,1.82,1.07.71.08,1.35-.29,1.9-.8Z"/>
  <path class="cls-1" d="m18.47,14.46c.3.22.68.24,1.03.23.62-.02,1.31-.08,1.73-.55.43-.48.4-1.21.29-1.85-.14-.77-.46-1.61-1.17-1.92-.5-.22-1.09-.11-1.59.12-.45.2-.88.51-1.11.96-.25.49-.23,1.09-.04,1.61.18.52.51.97.86,1.4Z"/>
  <path class="cls-1" d="m16.29,13.92c-.21-.27-.25-.54-.22-.88,0-.09.03-.17.08-.24.08-.11.22-.17.36-.17s.27.04.4.09c.21.09.41.2.57.36.16.16.27.38.28.61,0,.35-.28.68-.62.72-.34.04-.61-.16-.84-.49Z"/>
  <path class="cls-1" d="m21.96,21.81c1.04-.42,1.54-2.2,1.14-3.24-.4-1.04-1.98-1.38-3.02-.96-1.04.42-1.58,2.62-1.18,3.66.4,1.04,2.02.97,3.06.54Z"/>
  <path class="cls-1" d="m19.82,15.85c.1.36.25.7.46,1.01.14.21.32.42.57.48.21.05.44-.02.63-.12.08-.04.15-.09.2-.15.06-.08.09-.18.1-.27.06-.47-.2-.93-.52-1.27-.09-.09-.18-.19-.3-.24-.19-.09-.43-.06-.62.03-.19.09-.46.28-.51.54Z"/>
  <path class="cls-1" d="m25.14,8.47c.43-.04.83-.41,1.09-.79.15-.23.28-.48.34-.76.1-.48-.02-1-.29-1.38-.27-.39-.67-.64-1.1-.73-.44-.09-.93,0-1.25.34-.16.17-.27.4-.36.63-.19.47-.33,1-.21,1.49.1.4.37.73.7.93.33.2.71.27,1.08.27Z"/>
  <path class="cls-1" d="m27.53,7.83c.21-.02.4-.09.57-.22.15-.11.29-.22.4-.37.11-.15.18-.34.14-.52-.05-.23-.26-.39-.45-.52-.12-.08-.23-.05-.37-.07-.26-.04-.53.18-.72.37-.25.27-.41.47-.31.83.1.36.38.52.74.5Z"/>
  <path class="cls-1" d="m27.43,4.87c.16.12.21.36.26.53.04.18.02.38-.11.51-.1.1-.24.13-.37.17-.11.03-.22.05-.33.04-.1-.02-.19-.07-.27-.13-.26-.23-.3-.67-.1-.94.21-.28.63-.35.92-.17Z"/>
  <path class="cls-1" d="m27.83,28.21c.19-.02.32-.05.47-.16.15-.11.3-.22.45-.33.23-.17.31-.33.36-.61.05-.31,0-.64-.25-.84-.42-.34-.94-.55-1.48-.58-.14,0-.28,0-.41.05-.1.05-.19.13-.27.21-.3.33-.47.78-.41,1.22.06.44.36.85.79.98.24.08.5.07.75.06Z"/>
  <path class="cls-1" d="m18.53,10.63c1.04-.9,1.33-2.93.64-3.75-.68-.82-2.68-.85-3.72.05-1.04.9-1.4,2.84-.72,3.66.68.82,2.75.94,3.79.04Z"/>
  <path class="cls-1" d="m10.3,5.98c.14.92.32,1.18.83,1.8.36.44.8.86,1.35.97.5.09,1.01-.09,1.42-.39.41-.3.73-.71,1.03-1.13.29-.39.57-.81.64-1.29.11-.74-.31-1.46-.79-2.03-.25-.3-.53-.58-.87-.76-.42-.22-.91-.27-1.38-.21-.71.09-1.41.42-1.86.98-.45.57-.49,1.32-.37,2.06Z"/>
  <path class="cls-1" d="m17.88,19.97c-.74.08-1.42.62-2.06,1.06-.22.15-.44.33-.53.57-.07.2-.06.41-.04.62.01.19.03.37.04.56.04.52.09,1.05.32,1.51.23.46.71.83,1.21.77.38-.04.7-.31.96-.6.22-.25.41-.51.58-.8.36-.62.59-1.36.48-2.08-.03-.18-.08-.35-.13-.53-.07-.23-.14-.46-.26-.66-.12-.2-.36-.44-.58-.43Z"/>
  <path class="cls-1" d="m23.67,23.68c.22-.18.34-.52.4-.8.06-.28.04-.59-.1-.83-.1-.18-.27-.3-.44-.39-.19-.11-.4-.19-.61-.2-.22-.01-.44.05-.61.21-.16.15-.26.37-.31.6-.04.16-.06.33-.02.49.05.21.19.37.33.51.19.18.39.36.62.45.24.09.51.1.74-.03Z"/>
  <path class="cls-1" d="m22.78,23.88c-1.12-1.03-3.33-1.36-3.98-.62-.65.73-.92,2.91.19,3.95,1.12,1.03,3.72.76,4.37.03.65-.73.53-2.32-.59-3.35Z"/>
  <path class="cls-1" d="m25.02,28.06c.16-.03.27-.07.4-.2.13-.14.26-.28.39-.42.2-.21.27-.41.31-.77.05-.39,0-.8-.21-1.05-.35-.42-.8-.68-1.26-.72-.12,0-.24,0-.35.07-.09.06-.16.16-.23.27-.25.42-.4.98-.36,1.53.05.55.3,1.06.67,1.23.2.09.42.08.64.07Z"/>
  <path class="cls-1" d="m22.04,27.85c.64-.18,1.35-.15,1.97.11.62.26,1.14.74,1.41,1.34.1.22.17.47.16.72-.03.51-.41.94-.87,1.17-.46.23-.99.28-1.5.3-.4.01-.8,0-1.17-.15-.68-.29-1.05-1.09-.96-1.81.08-.72.26-1.43.97-1.67Z"/>
  <path class="cls-1" d="m27.13,30.02c.06-.37.06-.75,0-1.11-.04-.25-.12-.52-.32-.68-.17-.14-.4-.17-.62-.16-.08,0-.17.01-.25.05-.09.04-.15.12-.2.21-.25.4-.2.93-.05,1.38.04.12.09.25.17.35.14.16.36.24.58.23.21,0,.53-.06.69-.27Z"/>
  <path class="cls-1" d="m17.68,28.89c.59-.09,1.11-.53,1.3-1.1.04-.12.07-.26.02-.39-.04-.11-.14-.19-.24-.26-.26-.19-.58-.35-.9-.31-.25.03-.47.18-.66.35-.29.26-.52.59-.68.95-.03.06-.05.12-.05.18,0,.06.03.12.06.17.21.35.76.51,1.14.41Z"/>
  <path class="cls-1" d="m20.35,31.27c.34-.21.55-.61.59-.99.04-.38-.06-.76-.22-1.11-.08-.17-.18-.34-.32-.47-.23-.21-.56-.32-.88-.33-.74-.02-1.46.47-1.67,1.15-.06.18-.08.37-.09.55-.02.26-.02.53.1.76.15.29.48.47.8.58.56.2,1.27.25,1.7-.15Z"/>
  <path class="cls-1" d="m20.37,8.32c.5-.02.96-.38,1.19-.83.23-.45.2-1.03-.07-1.45-.27-.43-.78-.68-1.27-.65-.1,0-.2.03-.3.07-.16.08-.27.25-.34.42-.22.54-.12,1.15.04,1.71.06.19.12.38.25.53.13.15.32.25.51.2Z"/>
  <path class="cls-1" d="m19.71,5.15c-.14.3-.35.59-.63.8-.28.21-.65.35-1,.33-.28-.01-.53-.12-.77-.22-.3-.12-.59-.25-.88-.38-.19-.09-.37-.18-.51-.32-.22-.21-.31-.52-.28-.83.03-.3.17-.6.36-.87.05-.08.11-.15.19-.21.08-.07.18-.12.27-.16.27-.14.54-.28.81-.4.19-.09.39-.2.6-.21.55-.04,1.15.21,1.57.51.58.42.62,1.27.28,1.96Z"/>
  <path class="cls-1" d="m15.44,30.64c-.48,0-.81-.22-1.13-.57-.08-.09-.15-.19-.18-.31-.04-.19.03-.39.16-.54.13-.15.3-.26.47-.35.29-.15.6-.27.92-.3.32-.03.65.05.9.25.37.31.45.93.17,1.34-.28.42-.74.52-1.3.47Z"/>
  <path class="cls-1" d="m21.39,5.82c.24.18.53.21.8.2.48,0,1.01-.04,1.33-.4.32-.37.29-.96.18-1.47-.12-.62-.39-1.29-.94-1.55-.39-.18-.85-.11-1.23.06-.35.15-.67.39-.84.74-.18.39-.15.86,0,1.28.15.42.42.79.69,1.13Z"/>
  <path class="cls-1" d="m9.5,8.47c.21-.02.4-.09.57-.22.15-.11.29-.22.4-.37.11-.15.18-.34.14-.52-.05-.23-.26-.39-.45-.52-.12-.08-.23-.05-.37-.07-.26-.04-.53.18-.72.37-.25.27-.41.47-.31.83.1.36.38.52.74.5Z"/>
</svg>