<?xml version="1.0" encoding="UTF-8"?>
<svg id="Camada_1" data-name="Camada 1" xmlns="http://www.w3.org/2000/svg" viewBox="0 0 37 34.78">
  <defs>
    <style>
      .cls-1, .cls-2, .cls-3 {
        stroke: #339;
        stroke-linecap: round;
        stroke-linejoin: round;
      stroke-width: 0.8px;
      }

      .cls-1, .cls-4 {
        fill: #fff;
      }

      .cls-2, .cls-3 {
        fill: none;
      }

      .cls-5 {
        fill: #339;
      }

      .cls-3 {
      stroke-width: 2.5px;
      }
    </style>
  </defs>
  <path class="cls-5" d="m21.77,24.71c-1.91,2.4-1.65,5.75-.18,6.97,1.47,1.22,4.96.55,6.87-1.81,1.91-2.4,1.47-6.75,0-7.93-1.47-1.18-4.78.41-6.69,2.8v-.04Zm-2.35-1.96c.51.37,1.14.41,1.73.37,1.03,0,2.17-.15,2.87-.89.7-.77.66-1.99.48-3.02-.22-1.25-.77-2.62-1.95-3.14-.85-.37-1.8-.18-2.65.18-.74.33-1.47.85-1.84,1.55-.4.81-.37,1.77-.07,2.62s.85,1.59,1.43,2.29m-9.37-4.17c-.15-1.22-.7-2.4-1.54-3.25-.88-.85-2.06-1.4-3.27-1.44-.44,0-.92.04-1.32.26-.85.41-1.32,1.36-1.4,2.29-.07.92.22,1.88.55,2.73.26.66.55,1.36,1.07,1.88.99.96,2.57,1,3.75.33,1.18-.66,2.24-1.48,2.21-2.84M29.09,6.67c0-1.92-1.73-4.17-3.97-4.17s-4.89,2.21-4.89,4.17,1.65,4.17,3.93,4.17,4.96-2.21,4.96-4.17h-.04Zm-8.42,3.58c0-4.13-3.79-7.45-6.91-7.45s-6.87,3.65-6.87,7.78,5.04,8.34,8.16,8.34,8.97-2.88,8.97-7.01l-3.35-1.66Zm10.66,12.1c2.28-.07,3.27-2.84,3.16-6.2-.15-3.36-4.74-5.9-7.02-5.79-2.28.07-3.82,2.51-3.71,5.87.15,3.36,5.29,6.2,7.57,6.12Zm-12.5,8.52c2.54-1.84,1.8-6.42-.4-9.52-2.21-3.14-5.37-3.43-9.92-.15-2.54,1.81-1.76,5.09.44,8.23,2.21,3.14,7.35,3.28,9.89,1.44Z"/>
  <path class="cls-3" d="m19.42,22.75c.51.37,1.14.41,1.73.37,1.03,0,2.17-.15,2.87-.89.7-.77.66-1.99.48-3.02-.22-1.25-.77-2.62-1.95-3.14-.85-.37-1.8-.18-2.65.18-.74.33-1.47.85-1.84,1.55-.4.81-.37,1.77-.07,2.62s.85,1.59,1.43,2.29m-9.37-4.17c-.15-1.22-.7-2.4-1.54-3.25-.88-.85-2.06-1.4-3.27-1.44-.44,0-.92.04-1.32.26-.85.41-1.32,1.36-1.4,2.29-.07.92.22,1.88.55,2.73.26.66.55,1.36,1.07,1.88.99.96,2.57,1,3.75.33,1.18-.66,2.24-1.48,2.21-2.84m11.69,6.2c-1.91,2.4-1.65,5.75-.18,6.97,1.47,1.22,4.96.55,6.87-1.81,1.91-2.4,1.47-6.75,0-7.93-1.47-1.18-4.78.41-6.69,2.8v-.04Zm7.32-18.04c0-1.92-1.73-4.17-3.97-4.17s-4.89,2.21-4.89,4.17,1.65,4.17,3.93,4.17,4.96-2.21,4.96-4.17h-.04Zm-8.42,3.58c0-4.13-3.79-7.45-6.91-7.45s-6.87,3.65-6.87,7.78,5.04,8.34,8.16,8.34,8.97-2.88,8.97-7.01l-3.35-1.66Zm10.66,12.1c2.28-.07,3.27-2.84,3.16-6.2-.15-3.36-4.74-5.9-7.02-5.79-2.28.07-3.82,2.51-3.71,5.87.15,3.36,5.29,6.2,7.57,6.12Zm-12.5,8.52c2.54-1.84,1.8-6.42-.4-9.52-2.21-3.14-5.37-3.43-9.92-.15-2.54,1.81-1.76,5.09.44,8.23,2.21,3.14,7.35,3.28,9.89,1.44Z"/>
  <path class="cls-4" d="m21.77,24.71c-1.91,2.4-1.65,5.75-.18,6.97,1.47,1.22,4.96.55,6.87-1.81,1.91-2.4,1.47-6.75,0-7.93-1.47-1.18-4.78.41-6.69,2.8v-.04Zm-2.35-1.96c.51.37,1.14.41,1.73.37,1.03,0,2.17-.15,2.87-.89.7-.77.66-1.99.48-3.02-.22-1.25-.77-2.62-1.95-3.14-.85-.37-1.8-.18-2.65.18-.74.33-1.47.85-1.84,1.55-.4.81-.37,1.77-.07,2.62s.85,1.59,1.43,2.29m-9.34-4.21c-.15-1.22-.74-2.36-1.58-3.21-.88-.85-2.06-1.4-3.27-1.44-.44,0-.92.04-1.32.26-.85.41-1.32,1.36-1.4,2.29-.07.92.22,1.88.55,2.73.26.66.55,1.36,1.07,1.88.99.96,2.57,1,3.75.33,1.18-.66,2.24-1.48,2.21-2.84ZM29.09,6.67c0-1.92-1.73-4.17-3.97-4.17s-4.89,2.21-4.89,4.17,1.65,4.17,3.93,4.17,4.96-2.21,4.96-4.17h-.04Zm-8.42,3.58c0-4.13-3.79-7.45-6.91-7.45s-6.87,3.65-6.87,7.78,5.04,8.34,8.16,8.34,5.62-4.5,5.62-8.63v-.04Zm10.66,12.1c2.28-.07,3.27-2.84,3.16-6.2-.15-3.36-4.74-5.9-7.02-5.79-2.28.07-3.82,2.51-3.71,5.87.15,3.36,5.29,6.2,7.57,6.12Zm-12.5,8.52c2.54-1.84,1.8-6.42-.4-9.52-2.21-3.14-5.37-3.43-9.92-.15-2.54,1.81-1.76,5.09.44,8.23,2.21,3.14,7.35,3.28,9.89,1.44Z"/>
  <path class="cls-2" d="m19.42,22.75c.51.37,1.14.41,1.73.37,1.03,0,2.17-.15,2.87-.89.7-.77.66-1.99.48-3.02-.22-1.25-.77-2.62-1.95-3.14-.85-.37-1.8-.18-2.65.18-.74.33-1.47.85-1.84,1.55-.4.81-.37,1.77-.07,2.62s.85,1.59,1.43,2.29m2.35,1.99c-1.91,2.4-1.65,5.75-.18,6.97,1.47,1.22,4.96.55,6.87-1.81,1.91-2.4,1.47-6.75,0-7.93-1.47-1.18-4.78.41-6.69,2.8v-.04Zm-11.69-6.2c-.15-1.22-.74-2.36-1.58-3.21-.88-.85-2.06-1.4-3.27-1.44-.44,0-.92.04-1.32.26-.85.41-1.32,1.36-1.4,2.29-.07.92.22,1.88.55,2.73.26.66.55,1.36,1.07,1.88.99.96,2.57,1,3.75.33,1.18-.66,2.24-1.48,2.21-2.84ZM29.09,6.67c0-1.92-1.73-4.17-3.97-4.17s-4.89,2.21-4.89,4.17,1.65,4.17,3.93,4.17,4.96-2.21,4.96-4.17h-.04Zm-8.42,3.58c0-4.13-3.79-7.45-6.91-7.45s-6.87,3.65-6.87,7.78,5.04,8.34,8.16,8.34,5.62-4.5,5.62-8.63v-.04Zm10.66,12.1c2.28-.07,3.27-2.84,3.16-6.2-.15-3.36-4.74-5.9-7.02-5.79-2.28.07-3.82,2.51-3.71,5.87.15,3.36,5.29,6.2,7.57,6.12Zm-12.5,8.52c2.54-1.84,1.8-6.42-.4-9.52-2.21-3.14-5.37-3.43-9.92-.15-2.54,1.81-1.76,5.09.44,8.23,2.21,3.14,7.35,3.28,9.89,1.44Z"/>
  <path class="cls-1" d="m24.25,12.42c.09-.55-.09-1.04-.38-1.28-.29-.24-.69-.3-1.12-.25-.21.02-.43.07-.65.19-.36.2-.71.59-.97,1.02-.6.98-.75,2.2-.34,2.82.11.16.25.29.4.4.2.15.43.29.73.24.37-.06.77-.41,1.12-.78.61-.65,1.21-1.58,1.21-2.35Z"/>
</svg>