<?xml version="1.0" encoding="UTF-8"?>
<svg id="Camada_1" data-name="Camada 1" xmlns="http://www.w3.org/2000/svg" viewBox="0 0 33.33 41.86">
  <defs>
    <style>
      .cls-1 {
        fill: #fff;
      }

      .cls-1, .cls-2 {
        stroke: #339;
        stroke-linecap: round;
        stroke-linejoin: round;
      stroke-width: 0.8px;
      }

      .cls-3 {
        fill: #333;
      }

      .cls-2 {
        fill: #339;
        stroke-width: 2.5px;
      }

      .cls-4 {
        fill: none;
        stroke: #333;
        stroke-width: 1.5px;
      }
    </style>
  </defs>
  <line class="cls-4" x1="16.64" y1="28.63" x2="16.64" y2="2.41"/>
  <circle class="cls-3" cx="16.79" cy="2.41" r="2.41"/>
  <path class="cls-2" d="m3.42,23.31c-1.46.67-1.86,2.67-.91,4.46.96,1.79,2.91,2.7,4.37,2.02,1.46-.67,2.96-2.05,2-3.84-.96-1.79-4.01-3.31-5.46-2.64Z"/>
  <path class="cls-2" d="m21.34,19.67c2.15.28,4.17-1.08,4.52-3.03.35-1.95-1.1-3.76-3.25-4.03-2.15-.28-4.9-.02-5.25,1.93-.35,1.95,1.83,4.86,3.98,5.14Z"/>
  <path class="cls-2" d="m18.21,20.19c-.26,3.56-3.83,7.28-6.35,6.78-2.52-.51-6.89-4.35-6.64-7.91.26-3.56,5.62-6.68,8.14-6.18,2.52.51,5.1,3.75,4.84,7.31Z"/>
  <path class="cls-2" d="m25.48,38.31c-.74.47-1.47.78-2.37.82-.99.04-1.95-.38-2.6-1.03-.64-.65-.98-1.5-1.07-2.37-.1-.97.1-1.98.7-2.81.94-1.33,2.71-2.02,4.41-2.46,1.02-.26,2.29-.41,2.99.27.23.23.37.53.47.82.83,2.39-.23,5.22-2.53,6.75Z"/>
  <path class="cls-2" d="m28.93,28.68c1.03-.72,1.8-1.5,2.2-2.6.44-1.21.11-2.58-.7-3.65-.81-1.06-2.07-1.84-3.42-2.31-1.53-.53-3.24-.69-4.8-.3-2.49.62-4.26,2.52-5.61,4.45-.81,1.16-1.51,2.66-.66,3.82.28.39.71.67,1.16.92,3.55,2.02,8.52,1.87,11.84-.34Z"/>
  <path class="cls-2" d="m6.45,31.29c.31-1,1.17-1.68,2.05-2.24,1.54-.99,3.3-2.02,5.2-1.67,1.93.36,3.26,2.03,4.18,3.65,1.12,1.96,1.95,4.37.83,6.24-.8,1.33-2.42,2.06-4.05,2.4-1.47.3-3.08.33-4.47-.28-1.53-.67-2.61-2.06-3.15-3.53-.54-1.47-1.08-2.98-.59-4.56Z"/>
  <path class="cls-1" d="m3.42,23.31c-1.46.67-1.86,2.67-.91,4.46.96,1.79,2.91,2.7,4.37,2.02,1.46-.67,2.96-2.05,2-3.84-.96-1.79-4.01-3.31-5.46-2.64Z"/>
  <path class="cls-1" d="m21.34,19.67c2.15.28,4.17-1.08,4.52-3.03.35-1.95-1.1-3.76-3.25-4.03-2.15-.28-4.9-.02-5.25,1.93-.35,1.95,1.83,4.86,3.98,5.14Z"/>
  <path class="cls-1" d="m18.21,20.19c-.26,3.56-3.83,7.28-6.35,6.78-2.52-.51-6.89-4.35-6.64-7.91.26-3.56,5.62-6.68,8.14-6.18,2.52.51,5.1,3.75,4.84,7.31Z"/>
  <path class="cls-1" d="m25.48,38.31c-.74.47-1.47.78-2.37.82-.99.04-1.95-.38-2.6-1.03-.64-.65-.98-1.5-1.07-2.37-.1-.97.1-1.98.7-2.81.94-1.33,2.71-2.02,4.41-2.46,1.02-.26,2.29-.41,2.99.27.23.23.37.53.47.82.83,2.39-.23,5.22-2.53,6.75Z"/>
  <path class="cls-1" d="m28.93,28.68c1.03-.72,1.8-1.5,2.2-2.6.44-1.21.11-2.58-.7-3.65-.81-1.06-2.07-1.84-3.42-2.31-1.53-.53-3.24-.69-4.8-.3-2.49.62-4.26,2.52-5.61,4.45-.81,1.16-1.51,2.66-.66,3.82.28.39.71.67,1.16.92,3.55,2.02,8.52,1.87,11.84-.34Z"/>
  <path class="cls-1" d="m6.45,31.29c.31-1,1.17-1.68,2.05-2.24,1.54-.99,3.3-2.02,5.2-1.67,1.93.36,3.26,2.03,4.18,3.65,1.12,1.96,1.95,4.37.83,6.24-.8,1.33-2.42,2.06-4.05,2.4-1.47.3-3.08.33-4.47-.28-1.53-.67-2.61-2.06-3.15-3.53-.54-1.47-1.08-2.98-.59-4.56Z"/>
</svg>