<?xml version="1.0" encoding="UTF-8"?>
<svg id="Camada_1" data-name="Camada 1" xmlns="http://www.w3.org/2000/svg" viewBox="0 0 151.8 143.67">
  <defs>
    <style>
      .cls-1, .cls-2 {
        fill: #b3e5e5;
      }

      .cls-2 {
        fill-rule: evenodd;
      }
    </style>
  </defs>
  <path class="cls-2" d="m114.09,32.15c-1.46,8.11-9.88,13.74-18.8,12.59-8.92-1.15-18.01-13.24-16.55-21.34,1.46-8.11,12.9-9.16,21.83-8.01,8.93,1.15,14.98,8.66,13.52,16.76ZM17.06,78.41c-3.97-7.44-2.28-15.74,3.77-18.54,6.05-2.8,18.73,3.54,22.7,10.98,3.97,7.44-2.27,13.16-8.33,15.96-6.05,2.8-14.17-.96-18.14-8.4Zm65.21-31.49c-1.06,14.81-15.9,30.27-26.4,28.17-10.49-2.1-28.64-18.06-27.58-32.88,1.06-14.81,23.35-27.77,33.84-25.67,10.49,2.11,21.2,15.57,20.13,30.38Zm20.38,78.72c3.76-.17,6.78-1.46,9.86-3.41,9.55-6.38,13.94-18.14,10.5-28.07-.43-1.23-.98-2.47-1.96-3.42-2.91-2.85-8.17-2.23-12.41-1.13-7.1,1.84-14.42,4.72-18.35,10.23-2.46,3.46-3.32,7.68-2.89,11.7.38,3.58,1.79,7.13,4.46,9.83,2.67,2.7,6.69,4.46,10.79,4.27Zm24.18-43.44c4.3-3,7.5-6.22,9.16-10.81,1.82-5.02.46-10.72-2.91-15.15-3.37-4.42-8.58-7.64-14.23-9.59-6.34-2.2-13.46-2.88-19.97-1.26-10.37,2.58-17.72,10.48-23.32,18.51-3.35,4.81-6.3,11.07-2.76,15.86,1.18,1.6,2.97,2.8,4.8,3.84,14.76,8.38,35.39,7.79,49.23-1.4Zm-84.89,1.51c-3.66,2.34-7.25,5.16-8.54,9.31-2.04,6.55.19,12.84,2.45,18.95,2.26,6.11,6.74,11.85,13.09,14.65,5.78,2.56,12.48,2.43,18.58,1.18,6.77-1.4,13.51-4.44,16.83-9.97,4.65-7.77,1.2-17.77-3.45-25.92-3.84-6.71-9.35-13.66-17.37-15.15-7.87-1.46-15.21,2.84-21.59,6.95Z"/>
  <path class="cls-1" d="m95.29,44.74l-1.92,14.88h0l1.92-14.88Zm18.8-12.59l14.76,2.66h0l-14.76-2.66Zm-35.35-8.75l14.76,2.66h0l-14.76-2.66ZM20.82,59.87l6.3,13.61h0l-6.3-13.61Zm-3.77,18.54l-13.23,7.06h0l13.23-7.06Zm26.47-7.56l-13.23,7.06h0l13.23-7.06Zm-8.33,15.96l6.3,13.61h0l-6.3-13.61Zm47.06-39.89l-14.96-1.08h0s14.96,1.08,14.96,1.08Zm-53.97-4.71l14.96,1.08h0l-14.96-1.08Zm33.84-25.67l2.95-14.71h0s-2.95,14.71-2.95,14.71Zm50.37,105.69l8.06,12.65c.09-.06.18-.12.27-.18l-8.33-12.47Zm-9.86,3.41l.67,14.98h0l-.67-14.98Zm20.36-31.48l-14.17,4.91h0s14.17-4.91,14.17-4.91Zm-1.96-3.42l-10.5,10.71s0,.01.01.01l10.48-10.73Zm-12.41-1.13l3.76,14.52h0s-3.76-14.52-3.76-14.52Zm-18.35,10.23l12.22,8.7h0s-12.22-8.7-12.22-8.7Zm-2.89,11.7l14.92-1.57s0-.02,0-.02l-14.91,1.59Zm4.46,9.83l-10.66,10.55s0,0,.01.01l10.65-10.56Zm44.13-49.97l14.1,5.1h0s-14.1-5.1-14.1-5.1Zm-9.16,10.81l8.3,12.49c.09-.06.18-.13.28-.19l-8.58-12.3Zm6.25-25.96l11.94-9.08s0,0-.01-.01l-11.93,9.09Zm-14.23-9.59l-4.91,14.17s.01,0,.02,0l4.9-14.18Zm-19.97-1.26l3.63,14.55h0s-3.63-14.55-3.63-14.55Zm-23.32,18.51l12.31,8.57h0s-12.31-8.57-12.31-8.57Zm-2.76,15.86l12.08-8.89s0-.01-.01-.02l-12.07,8.9Zm4.8,3.84l7.4-13.05h0s-7.4,13.05-7.4,13.05Zm-44.2,9.42l-14.32-4.47h0l14.32,4.47Zm8.54-9.31l8.09,12.63s.02-.01.03-.02l-8.11-12.62Zm-6.09,28.26l14.06-5.21h0l-14.06,5.21Zm13.09,14.65l6.07-13.72h0s-6.06,13.72-6.06,13.72Zm18.58,1.18l3.02,14.69s.01,0,.02,0l-3.03-14.69Zm16.83-9.97l12.87,7.71h0s-12.87-7.71-12.87-7.71Zm-3.45-25.92l13.03-7.43h0s-13.02,7.43-13.02,7.43Zm-17.37-15.15l2.74-14.75h0s-2.73,14.75-2.73,14.75Zm29.84-17.15c15.67,2.02,32.41-7.71,35.48-24.81l-29.53-5.32c.08-.42.26-.33-.18-.04-.45.3-1.14.51-1.93.41l-3.84,29.75Zm-29.39-38.88c-1.8,9.99,2.82,19.31,7.24,25.06,4.54,5.92,12.24,12.53,22.15,13.81l3.84-29.75c.69.09.65.26-.02-.19-.63-.43-1.42-1.15-2.16-2.12-.75-.97-1.19-1.86-1.38-2.43-.22-.65.07-.26-.14.93l-29.53-5.32ZM102.49.51c-5.49-.71-12.78-.92-19.58.94-6.8,1.85-16.73,7.05-18.94,19.29l29.53,5.32c-.12.68-.38,1.45-.83,2.21-.44.75-.94,1.3-1.37,1.67-.78.68-1.18.65-.5.46.63-.17,1.7-.34,3.21-.39,1.47-.04,3.08.05,4.65.26l3.84-29.75Zm26.36,34.3c3.21-17.84-10.29-32.22-26.36-34.3l-3.84,29.75c.77.1.97.4.9.31-.03-.04-.12-.17-.18-.4-.07-.25-.07-.5-.04-.68l29.53,5.32ZM14.52,46.26C-2.4,54.09-2.42,73.77,3.82,85.47l26.47-14.13c-.52-.97-.32-1.37-.41-.96-.05.23-.2.76-.67,1.4-.49.67-1.22,1.29-2.09,1.7l-12.6-27.23Zm42.24,17.53c-3.96-7.41-11.06-12.73-17.21-15.74-3.28-1.6-7.03-2.93-10.95-3.52-3.73-.56-8.93-.65-14.07,1.73l12.6,27.23c-1.12.52-2.02.66-2.47.69-.45.04-.64,0-.52.01.28.04,1.09.24,2.23.8,1.11.54,2.16,1.24,2.97,1.94.86.75,1.06,1.15.96.97l26.47-14.13Zm-15.26,36.64c4.37-2.02,10.14-5.64,14.07-11.49,4.6-6.84,6.04-16.05,1.19-25.15l-26.47,14.13c-.2-.38-.61-1.44-.5-2.94.11-1.42.62-2.38.88-2.77.22-.33.27-.27-.15.04-.39.29-.95.64-1.63.95l12.6,27.23ZM3.82,85.47c6.21,11.63,21.82,22.29,37.68,14.95l-12.6-27.23c.85-.39,1.63-.48,2.14-.46.48.02.68.13.61.1-.06-.03-.28-.15-.56-.41-.27-.26-.56-.62-.8-1.08l-26.47,14.13Zm49.1,4.32c6.78,1.36,13.06-.32,17.84-2.62,4.86-2.34,9.18-5.76,12.74-9.53,6.93-7.34,12.89-18.02,13.72-29.65l-29.92-2.15c-.23,3.17-2.23,7.63-5.6,11.2-1.59,1.69-3.02,2.66-3.93,3.09-.98.47-.49-.06,1.04.24l-5.89,29.42ZM13.33,41.14c-.97,13.55,6.61,25.21,13.47,32.53,6.89,7.36,16.67,14.23,26.13,16.13l5.89-29.42s-.35-.07-1.09-.41c-.72-.32-1.62-.8-2.65-1.46-2.09-1.34-4.35-3.19-6.38-5.35-4.58-4.89-5.53-8.62-5.44-9.88l-29.92-2.15ZM65.07,1.83c-6.14-1.23-12.3-.07-17.1,1.47-5.09,1.64-10.2,4.21-14.81,7.38-8.43,5.8-18.82,16.28-19.84,30.46l29.92,2.15c0-.12.14-1.05,1.38-2.74,1.22-1.66,3.13-3.49,5.55-5.16,2.41-1.66,4.9-2.86,6.98-3.53,2.36-.76,2.92-.44,2.03-.61l5.89-29.42Zm32.15,46.17c.81-11.31-2.86-21.75-8.43-29.66-5.4-7.68-13.7-14.49-23.72-16.5l-5.9,29.41c.47.09,2.77,1.07,5.08,4.35,2.15,3.05,3.29,6.75,3.04,10.25l29.92,2.15Zm7.21,61.58c-.93.59-1.46.83-1.75.94-.24.09-.43.13-.71.14l1.34,29.97c7.22-.32,12.79-2.91,17.25-5.75l-16.13-25.3Zm4.39-10.51c.93,2.68-.06,7.61-4.66,10.68l16.67,24.94c14.49-9.68,22.29-28.29,16.34-45.46l-28.34,9.83Zm1.73,2.39c-.82-.8-1.29-1.55-1.53-1.99-.22-.41-.28-.62-.2-.41l28.35-9.82c-.65-1.88-2.14-5.8-5.65-9.24l-20.97,21.45Zm1.84,2.66c.68-.18,1.27-.3,1.76-.37.24-.03.42-.06.56-.06.14,0,.2,0,.19,0s-.11,0-.31-.03c-.19-.03-.51-.09-.91-.23-.83-.28-2.01-.86-3.15-1.97l21-21.43c-5.22-5.12-11.62-6.21-15.77-6.33-4.24-.12-8.18.68-10.91,1.39l7.53,29.04Zm-9.89,4.41c.56-.79,3.04-2.63,9.89-4.41l-7.52-29.04c-7.34,1.9-19.51,5.81-26.81,16.06l24.44,17.39Zm-.2,1.41c-.1-.93.15-1.35.19-1.41l-24.44-17.4c-4.89,6.87-6.35,14.87-5.58,21.99l29.83-3.19Zm.2.87c.07.06.04.07-.01-.06-.06-.14-.15-.41-.19-.79l-29.83,3.14c.67,6.33,3.23,13.27,8.71,18.81l21.32-21.1Zm-.53-.16c.15,0,.25,0,.31.02.03,0,.05.01.06.01.01,0,.02,0,.02,0,0,0,0,0,0,0,0,0,0,0,0,0,0,0,.05.03.12.11l-21.3,21.12c5.43,5.47,13.47,9.08,22.11,8.7l-1.33-29.97Zm19.9-44.36c-.13.36-.32.71-.74,1.19-.49.56-1.34,1.33-2.9,2.42l17.16,24.61c5.55-3.87,11.54-9.31,14.69-18.01l-28.21-10.21Zm-.75-.97c.42.56.6,1.04.65,1.29.04.22-.03.06.1-.32l28.21,10.21c3.92-10.84.64-21.81-5.07-29.33l-23.89,18.15Zm-7.18-4.49c3.77,1.3,6.13,3.1,7.19,4.5l23.87-18.18c-5.67-7.45-13.75-12.09-21.27-14.68l-9.79,28.36Zm-11.44-.88c3.16-.79,7.28-.56,11.42.88l9.83-28.34c-8.54-2.96-18.66-4.1-28.51-1.64l7.26,29.11Zm-14.64,12.53c5.01-7.2,9.69-11.29,14.64-12.53l-7.26-29.11c-15.79,3.94-25.82,15.62-32,24.5l24.62,17.14Zm-3-1.62c.71.97,1.15,2.13,1.28,3.21.06.49.05.88.03,1.13-.02.25-.06.39-.06.39,0,0,.02-.07.09-.25.07-.18.18-.41.33-.71.32-.61.76-1.33,1.33-2.15l-24.62-17.15c-2.08,2.99-4.81,7.47-6.18,12.76-1.45,5.62-1.6,13.45,3.65,20.57l24.14-17.81Zm.13-.3c-.3-.17-.51-.3-.68-.4-.16-.1-.24-.16-.25-.17-.01,0,.07.05.21.19.14.14.36.37.6.7l-24.17,17.77c3.16,4.3,7.33,6.78,9.49,8.01l14.8-26.1Zm33.53-.85c-9,5.98-23.55,6.51-33.53.85l-14.81,26.09c19.54,11.09,46.25,10.46,64.93-1.96l-16.6-24.99Zm-70.81,27.78c-.27.85-.64,1.12-.33.81.16-.16.44-.41.9-.76.46-.35,1.02-.73,1.74-1.19l-16.17-25.27c-3.81,2.44-11.74,7.75-14.77,17.48l28.64,8.93Zm2.2,9.27c-1.18-3.18-1.84-5.13-2.16-6.83-.27-1.46-.15-2.1-.04-2.44l-28.64-8.93c-3.79,12.14.71,23.23,2.71,28.63l28.13-10.43Zm5.09,6.15c-1.82-.8-3.89-2.9-5.09-6.15l-28.13,10.43c3.33,8.97,10.22,18.36,21.1,23.16l12.12-27.44Zm9.5.21c-4.52.93-7.69.59-9.49-.21l-12.13,27.44c9.76,4.31,19.98,3.73,27.66,2.15l-6.03-29.39Zm6.97-2.98c.05-.08-.21.4-1.5,1.11-1.3.72-3.17,1.4-5.49,1.88l6.07,29.38c8.15-1.68,20.09-5.98,26.66-16.95l-25.74-15.41Zm-3.61-10.78c1.9,3.33,3.08,6.25,3.51,8.49.2,1.06.19,1.71.15,2.03-.02.15-.04.22-.05.24,0,.01,0,.01,0,.02l25.74,15.4c4.78-8,4.94-16.49,3.62-23.35-1.29-6.73-4.16-12.89-6.91-17.71l-26.06,14.87Zm-7.07-7.84c.35.06,1.19.32,2.57,1.66,1.44,1.4,2.96,3.48,4.52,6.19l26.05-14.89c-4.12-7.2-12.58-19.66-27.65-22.46l-5.47,29.5Zm-10.74,4.81c3.15-2.02,5.48-3.38,7.56-4.19,1.93-.75,2.82-.69,3.19-.62l5.46-29.5c-14.5-2.69-26.72,5.4-32.44,9.08l16.23,25.23Z"/>
</svg>