<?xml version="1.0" encoding="UTF-8"?>
<svg id="Camada_1" data-name="Camada 1" xmlns="http://www.w3.org/2000/svg" viewBox="0 0 140 129.49">
  <defs>
    <style>
      .cls-1, .cls-2 {
        fill: #333;
      }

      .cls-2 {
        fill-rule: evenodd;
      }
    </style>
  </defs>
  <path class="cls-2" d="m98.62,21.24c0-8.3-10.49-13.74-20.19-13.74s-14.93,6.29-14.93,21.19c0,8.3,7.86,11.67,17.56,11.67s17.56-10.82,17.56-19.12ZM25.06,43.87c9.7,0,17.56,3.38,17.56,10.3s-8.88,22.22-18.57,22.22-16.54-5-16.54-11.92,7.86-20.61,17.56-20.61Zm87.25,4.81c9.7,0,20.19,5.44,20.19,13.74s-7.87,19.12-17.56,19.12-17.56-3.37-17.56-11.67c0-14.9,5.23-21.19,14.93-21.19ZM18.53,87.07c.21,2.32,1.23,4.13,2.77,5.96,4.99,5.66,13.9,7.96,21.27,5.47.91-.31,1.82-.69,2.52-1.33,2.08-1.9,1.5-5.12.58-7.7-1.53-4.31-3.84-8.72-8.06-10.95-2.65-1.4-5.83-1.77-8.83-1.37-2.68.36-5.3,1.36-7.27,3.1-1.97,1.74-3.2,4.28-2.98,6.81Zm99.45-51.01c0-4.78-6.97-9.19-12.41-9.19-.24,0-.47,0-.71,0-2.54-.02-4.82-.03-6.93,1.93-2.14,1.99-4.19,6.25-4.19,8.55,0,4.78,4.85,12.36,10.3,12.36s13.95-8.86,13.95-13.65Zm-64.53,36.39c-.21,1.94-1.27,4.01-2.94,5.08-2.15,2.01-5.66,1.79-8.47.75-1.61-.59-3.22-1.5-3.99-2.99-.61-1.18-.61-2.57-.51-3.89.07-.95.18-1.91.46-2.82,1.05-3.44,4.66-5.98,8.35-5.87,1.6.05,3.24.57,4.38,1.67.7.67,1.19,1.53,1.59,2.4.82,1.78,1.32,3.73,1.11,5.67Zm-1.63,25.83c1.62,1.17,3.63,1.28,5.52,1.21,3.32-.12,7.01-.42,9.24-2.91,2.27-2.54,2.15-6.42,1.53-9.79-.76-4.09-2.44-8.54-6.22-10.17-2.69-1.16-5.82-.56-8.5.63-2.41,1.08-4.7,2.71-5.91,5.07-1.34,2.6-1.21,5.78-.23,8.54.98,2.76,2.73,5.16,4.57,7.42Zm17.58-50.87c1.59-4.66,11.22-7.83,18.07-5.38,6.85,2.45,12.31,11.43,10.72,16.09-1.59,4.66-11.04,7.32-17.89,4.87-6.85-2.45-12.49-10.93-10.89-15.59Zm-24.43-6.64c2.74-4.04.63-10.39-4.72-14.17-5.35-3.78-11.9-3.58-14.64.47-2.74,4.04-4.48,10.18.86,13.97,5.35,3.78,15.75,3.78,18.49-.27Zm22.75-.49c2.25,6.6-.54,17.91-6.37,20.58-5.84,2.67-14.85,3.14-17.1-3.45-2.25-6.59.75-20.57,6.59-23.24,5.84-2.67,14.64-.49,16.89,6.11Zm-8.46,64.72c-2.24-3.02-5.46-5.33-9.04-6.32-3.58-.99-7.48-.64-10.7,1.09-1.2.65-2.32,1.5-3.08,2.64-1.56,2.35-1.32,5.61-.05,8.21,1.27,2.6,3.42,4.66,5.62,6.52,1.7,1.43,3.52,2.82,5.64,3.38,3.97,1.05,8.23-1.21,10.28-4.73,2.05-3.51,3.61-7.25,1.32-10.79Zm44.58,6.05c2.4-.73,4.12-2.16,5.75-4.09,4.99-6.22,5.66-15.58,1.58-22.33-.51-.84-1.1-1.66-1.9-2.2-2.41-1.63-5.7-.33-8.25,1.16-4.25,2.49-8.46,5.78-9.98,10.47-.95,2.94-.72,6.18.3,9.07.91,2.57,2.48,4.96,4.71,6.52,2.23,1.56,5.16,2.21,7.78,1.41Zm-19.22-22.56c6.37,1.79,13.45-3.75,14.07-9.3.61-5.55-6.49-12.21-12.86-14-6.37-1.79-14.72,5.32-15.33,10.86-.62,5.55,7.76,10.65,14.13,12.44ZM44.33,28.72c-2.18-2.67-2.97-3.81-3.57-7.84-.53-3.23-.38-6.52,1.57-9,1.95-2.47,4.95-3.91,8.01-4.29,2.02-.25,4.13-.04,5.94.92,1.47.78,2.66,2.02,3.74,3.31,2.06,2.49,3.87,5.62,3.4,8.86-.3,2.1-1.52,3.93-2.75,5.64-1.29,1.8-2.66,3.6-4.42,4.92-1.76,1.32-3.98,2.12-6.11,1.71-2.38-.46-4.26-2.32-5.81-4.23Zm42.23,62.62c-4.38-4.15-13.05-5.45-15.61-2.5-2.56,2.95-3.62,11.7.76,15.85.55.52,1.19.96,1.9,1.32-.83-.23-1.71-.35-2.58-.38-4.39-.11-8.67,2.43-9.92,5.87-.33.92-.47,1.87-.55,2.82-.12,1.32-.12,2.7.61,3.89.91,1.49,2.83,2.39,4.73,2.99,3.33,1.04,7.5,1.27,10.05-.75,1.99-1.06,3.24-3.14,3.49-5.08.25-1.94-.35-3.89-1.32-5.67-.48-.87-1.06-1.73-1.89-2.4-.27-.22-.56-.41-.87-.59,4.9,1.54,11.51.37,13.5-1.92,2.56-2.95,2.07-9.31-2.3-13.46Zm4.79,16.37c-2.42-1.03-5.19-1.15-7.71-.43-2.77.99-3.47,3.82-3.8,6.72-.33,2.91,1.1,6.1,3.77,7.27,1.42.63,3.03.65,4.58.59,2.02-.08,4.09-.29,5.89-1.21,1.8-.91,3.3-2.66,3.42-4.69.06-.99-.21-1.97-.61-2.87-1.07-2.41-3.11-4.35-5.53-5.38Zm-33.16-44.41c2.42-.59,5.08-.49,7.41.35,2.32.84,4.28,2.43,5.31,4.4.38.74.64,1.54.59,2.35-.11,1.66-1.55,3.09-3.28,3.84-1.73.75-3.72.92-5.65.99-1.49.05-3.03.03-4.39-.48-2.56-.96-3.94-3.57-3.62-5.94.32-2.38.98-4.69,3.64-5.5Z"/>
  <path class="cls-1" d="m21.29,93.03l-5.75,4.82s.08.09.12.14l5.63-4.96Zm-2.77-5.96l7.47-.66h0s-7.47.66-7.47.66Zm24.04,11.43l-2.39-7.11h0s2.39,7.11,2.39,7.11Zm2.52-1.33l-5.06-5.54h0s5.07,5.54,5.07,5.54Zm.58-7.7l7.07-2.51h0s-7.07,2.51-7.07,2.51Zm-8.06-10.95l3.5-6.63h0s-3.5,6.63-3.5,6.63Zm-8.83-1.37l-1-7.43h0s1.01,7.43,1.01,7.43Zm-7.27,3.1l-4.97-5.62h0l4.97,5.62ZM104.86,26.86l.05-7.5h0l-.05,7.5Zm-6.93,1.93l-5.1-5.5h0s5.1,5.5,5.1,5.5Zm-47.41,48.73l-4.02-6.33c-.4.25-.77.54-1.11.86l5.13,5.47Zm2.94-5.08l-7.46-.81h0s7.46.81,7.46.81Zm-11.4,5.83l2.61-7.03s0,0-.01,0l-2.6,7.03Zm-3.99-2.99l6.67-3.44h0s-6.66,3.44-6.66,3.44Zm-.51-3.89l7.48.56h0s-7.48-.56-7.48-.56Zm.46-2.82l7.17,2.2h0s-7.17-2.2-7.17-2.2Zm8.35-5.87l-.22,7.5h0l.22-7.5Zm4.38,1.67l-5.2,5.4s.01.01.02.02l5.19-5.42Zm1.59,2.4l-6.82,3.13s0,0,0,.01l6.81-3.14Zm5,32.7l-.28-7.49s-.01,0-.02,0l.29,7.49Zm-5.52-1.21l-5.82,4.73c.41.51.89.96,1.43,1.35l4.39-6.08Zm14.76-1.7l5.59,5h0s-5.59-5-5.59-5Zm1.53-9.79l7.38-1.36h0s-7.38,1.36-7.38,1.36Zm-6.22-10.17l2.97-6.89h0s-2.97,6.89-2.97,6.89Zm-8.5.63l-3.05-6.85h0s3.06,6.85,3.06,6.85Zm-5.91,5.07l6.67,3.43h0s-6.67-3.43-6.67-3.43Zm-.23,8.54l-7.07,2.5h0s7.07-2.5,7.07-2.5Zm22.15-43.45l-7.1-2.43h0l7.1,2.43Zm28.79,10.71l7.1,2.43h0l-7.1-2.43Zm-17.89,4.87l-2.53,7.06h0l2.53-7.06ZM40.25,26.6l-4.33,6.12h0l4.33-6.12Zm4.72,14.17l6.21,4.21h0l-6.21-4.21Zm-19.36-13.7l-6.21-4.21h0l6.21,4.21Zm.86,13.97l-4.33,6.12h0l4.33-6.12Zm34.87,19.83l-3.12-6.82h0s3.12,6.82,3.12,6.82Zm6.37-20.58l-7.1,2.42h0l7.1-2.42Zm-23.48,17.13l-7.1,2.42h0l7.1-2.42Zm6.59-23.24l-3.12-6.82h0l3.12,6.82Zm-.61,64.5l2.01-7.23h0l-2.01,7.23Zm9.04,6.32l6.29-4.08c-.08-.13-.17-.26-.27-.38l-6.02,4.47Zm-19.73-5.24l-3.55-6.61h0s3.56,6.61,3.56,6.61Zm-3.08,2.64l-6.25-4.15h0s6.25,4.15,6.25,4.15Zm-.05,8.21l-6.74,3.29h0s6.74-3.29,6.74-3.29Zm5.62,6.52l-4.84,5.73h0s4.83-5.73,4.83-5.73Zm5.64,3.38l1.92-7.25h0s-1.91,7.25-1.91,7.25Zm10.28-4.73l-6.48-3.78s0,0,0,.01l6.48,3.77Zm51.64-8.82l5.74,4.83s.07-.09.11-.13l-5.85-4.69Zm-5.75,4.09l2.17,7.18h0l-2.17-7.18Zm7.33-26.42l-6.42,3.87h0s6.42-3.87,6.42-3.87Zm-1.9-2.2l-4.2,6.21h0s4.19-6.21,4.19-6.21Zm-8.25,1.16l3.79,6.47h0s-3.79-6.47-3.79-6.47Zm-9.98,10.47l7.14,2.31h0s-7.14-2.31-7.14-2.31Zm.3,9.07l7.07-2.5h0s-7.07,2.5-7.07,2.5Zm4.71,6.52l-4.29,6.15h0s4.29-6.15,4.29-6.15Zm2.64-30.45l7.45.83h0s-7.45-.83-7.45-.83Zm-14.07,9.3l2.03-7.22h0s-2.03,7.22-2.03,7.22Zm1.21-23.3l2.03-7.22h0l-2.03,7.22Zm-15.33,10.86l7.45.83h0s-7.45-.83-7.45-.83Zm-29.74-55.17l7.42-1.1s-.01-.07-.02-.11l-7.4,1.2Zm3.57,7.84l5.81-4.74h0s-5.81,4.74-5.81,4.74Zm-1.99-16.83l5.89,4.65h0s-5.89-4.65-5.89-4.65Zm8.01-4.29l-.9-7.45h0s.91,7.45.91,7.45Zm5.94.92l3.53-6.62h0s-3.52,6.62-3.52,6.62Zm3.74,3.31l5.77-4.79h0s-5.77,4.79-5.77,4.79Zm3.4,8.86l-7.42-1.07h0s7.42,1.07,7.42,1.07Zm-2.75,5.64l-6.09-4.38h0s6.09,4.38,6.09,4.38Zm-4.42,4.92l-4.5-6h0s4.5,6,4.5,6Zm-6.11,1.71l-1.44,7.36h0s1.43-7.36,1.43-7.36Zm20.8,55.89l5.66,4.92h0l-5.66-4.92Zm15.61,2.5l5.16-5.44h0l-5.16,5.44Zm-14.85,13.35l-5.16,5.44h0l5.16-5.44Zm1.9,1.32l-2.02,7.22c3.71,1.03,7.6-.9,9-4.49,1.4-3.58-.13-7.65-3.56-9.41l-3.42,6.67Zm-2.58-.38l-.18,7.5h0l.18-7.5Zm-9.92,5.87l7.05,2.57h0s-7.05-2.57-7.05-2.57Zm-.55,2.82l7.47.66h0s-7.47-.66-7.47-.66Zm.61,3.89l6.4-3.92h0s-6.39,3.92-6.39,3.92Zm4.73,2.99l2.24-7.16h-.01s-2.23,7.16-2.23,7.16Zm10.05-.75l-3.53-6.62c-.39.21-.77.45-1.12.73l4.65,5.89Zm3.49-5.08l-7.44-.96s0,.01,0,.02l7.44.95Zm-1.32-5.67l-6.59,3.59s0,0,0,.01l6.58-3.6Zm-1.89-2.4l-4.73,5.82s.01.01.02.02l4.71-5.84Zm-.87-.59l2.25-7.16c-3.67-1.15-7.61.66-9.13,4.18s-.13,7.64,3.22,9.51l3.67-6.54Zm13.5-1.92l5.66,4.92h0s-5.66-4.92-5.66-4.92Zm-5.23,2.48l-2.06-7.21c-.15.04-.31.09-.46.15l2.52,7.06Zm7.71.43l-2.93,6.9h0l2.93-6.9Zm-11.51,6.3l7.45.86h0s-7.45-.86-7.45-.86Zm3.77,7.27l3.02-6.86h0s-3.02,6.86-3.02,6.86Zm4.58.59l-.28-7.5h0l.29,7.5Zm5.89-1.21l-3.39-6.69h0l3.39,6.69Zm3.42-4.69l7.49.43h0s-7.49-.43-7.49-.43Zm-.61-2.87l6.86-3.04h0s-6.85,3.04-6.85,3.04Zm-31.28-49.44l-2.55,7.05h0s2.55-7.05,2.55-7.05Zm-7.41-.35l-1.78-7.29c-.14.03-.27.07-.41.11l2.18,7.17Zm12.71,4.75l6.65-3.46h0s-6.65,3.46-6.65,3.46Zm.59,2.35l7.48.5h0s-7.48-.5-7.48-.5Zm-8.94,4.82l-.24-7.5h0s.24,7.5.24,7.5Zm-4.39-.48l2.64-7.02h0s-2.63,7.02-2.63,7.02Zm-3.62-5.94l7.43,1s0-.01,0-.02l-7.43-.99Zm23.88-53.79c3.58,0,7.23,1.04,9.76,2.62,2.57,1.61,2.93,2.99,2.93,3.62h15c0-7.67-4.89-13.15-9.98-16.34-5.14-3.21-11.59-4.9-17.71-4.9v15Zm-7.43,13.69c0-6.82,1.24-10.2,2.38-11.74.78-1.07,1.99-1.94,5.06-1.94V0c-6.63,0-12.89,2.27-17.15,8.07-3.91,5.33-5.28,12.54-5.28,20.62h15Zm10.06,4.17c-4.17,0-7.04-.76-8.6-1.68-.7-.42-1.01-.78-1.15-1.02-.13-.21-.31-.63-.31-1.47h-15c0,7.04,3.58,12.3,8.82,15.4,4.8,2.84,10.71,3.77,16.23,3.77v-15Zm10.06-11.62c0,2.02-1.08,5.13-3.36,7.82-2.25,2.65-4.72,3.8-6.7,3.8v15c7.72,0,14.03-4.26,18.13-9.09,4.08-4.8,6.93-11.24,6.93-17.53h-15Zm-41,32.94c0-6.93-4.18-11.71-9.09-14.35-4.66-2.51-10.41-3.45-15.97-3.45v15c4.14,0,7.16.75,8.86,1.66.79.43,1.07.77,1.14.87.02.03.06.05.06.28h15Zm-26.07,29.72c8.61,0,15.21-6.43,18.98-11.59,2.07-2.83,3.79-5.93,5-8.91,1.17-2.85,2.1-6.13,2.1-9.23h-15c0,.36-.18,1.59-.98,3.56-.75,1.84-1.86,3.87-3.22,5.72-3.09,4.23-5.78,5.44-6.87,5.44v15ZM0,64.48c0,6.2,3.15,11.32,7.74,14.63,4.47,3.23,10.24,4.79,16.3,4.79v-15c-3.64,0-6.14-.94-7.51-1.94-1.26-.91-1.53-1.76-1.53-2.48H0Zm25.06-28.11c-8.39,0-14.73,5.73-18.44,10.74-3.75,5.06-6.62,11.76-6.62,17.37h15c0-1.31,1.07-4.92,3.67-8.43,2.64-3.57,5.09-4.67,6.39-4.67v-15Zm114.94,26.04c0-7.67-4.89-13.15-9.98-16.34-5.14-3.21-11.59-4.9-17.71-4.9v15c3.58,0,7.23,1.04,9.76,2.62,2.57,1.61,2.93,2.99,2.93,3.62h15Zm-25.06,26.62c7.72,0,14.03-4.26,18.13-9.09,4.08-4.8,6.93-11.24,6.93-17.53h-15c0,2.02-1.08,5.13-3.36,7.82-2.25,2.65-4.72,3.8-6.7,3.8v15Zm-25.06-19.17c0,7.04,3.58,12.3,8.82,15.4,4.8,2.84,10.71,3.77,16.23,3.77v-15c-4.17,0-7.04-.76-8.6-1.68-.7-.42-1.01-.78-1.15-1.02-.13-.21-.31-.63-.31-1.47h-15Zm22.43-28.69c-6.63,0-12.89,2.27-17.15,8.07-3.91,5.33-5.28,12.54-5.28,20.62h15c0-6.82,1.24-10.2,2.38-11.74.78-1.07,1.99-1.94,5.06-1.94v-15ZM27.04,88.21c-.52-.63-.77-1.02-.89-1.27-.1-.2-.14-.35-.15-.53l-14.94,1.32c.39,4.42,2.42,7.65,4.49,10.12l11.49-9.64Zm13.13,3.19c-4.63,1.56-10.34-.02-13.25-3.32l-11.26,9.91c7.06,8.02,19.17,11.03,29.29,7.63l-4.78-14.22Zm-.16.25c.29-.27.52-.38.54-.39.01,0,0,0-.07.03-.07.03-.16.06-.3.11l4.77,14.22c1.13-.38,3.3-1.17,5.2-2.91l-10.14-11.06Zm-1.42.34c.15.43.26.8.33,1.1.03.15.05.27.06.36,0,.04,0,.08,0,.1,0,.02,0,.03,0,.03,0,0,0-.01,0-.04s0-.07.01-.12c.02-.11.05-.27.13-.47.16-.44.46-.92.89-1.31l10.12,11.07c3.07-2.81,3.85-6.4,3.85-9.13,0-2.6-.68-4.98-1.26-6.61l-14.14,5.01Zm-4.49-6.82c1.6.84,3.1,2.9,4.49,6.83l14.13-5.02c-1.67-4.69-4.79-11.46-11.63-15.07l-7,13.27Zm-4.33-.57c1.8-.24,3.34.05,4.33.57l6.99-13.27c-4.31-2.27-9.12-2.73-13.33-2.16l2.01,14.87Zm-3.31,1.28c.58-.51,1.69-1.06,3.31-1.28l-2.02-14.86c-3.73.51-7.88,1.94-11.24,4.91l9.94,11.23Zm-.48.52c.02.18-.03.2.03.05.07-.15.21-.37.44-.57l-9.94-11.23c-3.36,2.97-5.96,7.71-5.48,13.09l14.94-1.34Zm79.57-52.03c.39,0,1.01.09,1.8.36.77.26,1.52.65,2.14,1.09.64.45.97.83,1.1,1.01.12.17-.12-.1-.12-.76h15c0-6.01-4.14-10.27-7.36-12.53-3.46-2.43-8.04-4.16-12.56-4.16v15Zm-.76,0c.23,0,.49,0,.76,0v-15c-.21,0-.42,0-.66,0l-.1,15Zm-1.78-.07s-.03.03-.14.08c-.11.05-.17.06-.13.05.06-.01.22-.04.57-.05.38-.02.8-.02,1.47-.01l.1-15c-2.3-.01-7.54-.28-12.08,3.93l10.2,10.99Zm-1.8,3.05c0,.42-.07.5.04.12.09-.31.26-.74.5-1.23.24-.49.51-.95.77-1.33.13-.19.24-.34.34-.45.05-.05.08-.1.11-.13.03-.03.04-.04.04-.04l-10.21-10.99c-1.98,1.84-3.52,4.27-4.54,6.37-.95,1.95-2.05,4.82-2.05,7.68h15Zm2.8,4.86c.41,0,.48.14.15-.07-.33-.21-.83-.65-1.37-1.36-.53-.69-.96-1.48-1.25-2.22-.14-.36-.23-.66-.28-.9-.05-.24-.05-.35-.05-.32h-15c0,4.5,2.07,9.14,4.64,12.51,2.48,3.26,7,7.35,13.16,7.35v-15Zm6.45-6.15c0-.76.23-.69-.38.36-.51.87-1.33,1.93-2.36,2.97-1.03,1.04-2.1,1.86-2.99,2.38-1.01.59-1.22.45-.72.45v15c3.23,0,6.13-1.25,8.24-2.47,2.23-1.29,4.32-2.99,6.09-4.76,1.77-1.78,3.42-3.83,4.68-5.97,1.15-1.96,2.44-4.79,2.44-7.95h-15Zm-55.95,47.8c4.02-2.55,5.99-6.94,6.38-10.61l-14.91-1.6s0-.04,0-.02c0,.02-.01.03-.01.03,0,0,.03-.05.1-.12.07-.08.2-.21.42-.34l8.03,12.67Zm-15.1,1.45c2.13.79,4.72,1.35,7.43,1.23,2.73-.12,6.05-.98,8.78-3.54l-10.25-10.95c.27-.25.54-.39.72-.46.16-.06.2-.04.09-.04-.12,0-.33,0-.62-.05-.29-.05-.6-.14-.91-.25l-5.23,14.06Zm-8.04-6.58c2.11,4.1,6.03,5.84,8.05,6.59l5.2-14.07c-.21-.08-.37-.15-.48-.2-.11-.06-.16-.09-.14-.08.01,0,.38.27.7.89l-13.33,6.87Zm-1.33-7.88c-.11,1.43-.32,4.69,1.33,7.89l13.33-6.89c.25.48.28.82.28.82,0,0,0-.05,0-.18,0-.13,0-.3.03-.54l-14.96-1.11Zm.77-4.46c-.53,1.73-.69,3.35-.77,4.47l14.96,1.1c.06-.79.12-1.07.15-1.18l-14.34-4.4Zm15.74-11.17c-6.95-.2-13.67,4.38-15.75,11.18l14.35,4.38c-.02.07.02-.11.32-.32.3-.21.56-.25.64-.24l.44-14.99Zm9.37,3.77c-2.83-2.73-6.45-3.68-9.37-3.77l-.44,14.99c.08,0,.08.02.01-.01-.08-.03-.32-.13-.61-.41l10.41-10.8Zm3.21,4.68c-.55-1.21-1.52-3.06-3.22-4.7l-10.37,10.84c-.17-.16-.24-.27-.23-.26,0,0,.02.04.06.1.03.06.08.15.13.27l13.64-6.25Zm1.75,9.61c.41-3.73-.59-7.09-1.75-9.62l-13.62,6.28c.47,1.02.48,1.58.47,1.72l14.91,1.62Zm-3.86,18.73c-.35.01-.63.02-.85,0-.22,0-.36-.03-.42-.04-.12-.02.11,0,.44.24l-8.78,12.16c3.82,2.75,8.11,2.7,10.21,2.62l-.59-14.99Zm3.95-.42c.22-.24.29-.11-.43.07-.79.2-1.86.29-3.5.35l.56,14.99c1.67-.06,4.11-.18,6.55-.78,2.51-.62,5.55-1.89,8-4.62l-11.17-10.01Zm-.26-3.43c.25,1.34.31,2.37.24,3.08-.07.67-.21.61.02.35l11.18,10c4.86-5.44,3.95-12.69,3.32-16.15l-14.75,2.71Zm-1.81-4.64c-.12-.05.15-.01.61.84.48.89.9,2.19,1.2,3.81l14.75-2.72c-.46-2.47-1.26-5.44-2.75-8.21-1.51-2.8-3.97-5.81-7.87-7.48l-5.94,13.77Zm-2.48.59c.8-.36,1.48-.54,1.98-.59.47-.05.59.03.5,0l5.93-13.78c-5.49-2.36-11.02-.89-14.52.67l6.11,13.7Zm-2.3,1.65c.05-.1.2-.32.59-.65.4-.33.97-.68,1.72-1.01l-6.12-13.69c-3.19,1.43-7.21,3.99-9.52,8.49l13.34,6.86Zm.17,2.61c-.51-1.45-.29-2.38-.17-2.6l-13.33-6.87c-2.56,4.97-2.07,10.41-.64,14.48l14.14-5Zm3.31,5.19c-1.75-2.15-2.79-3.71-3.31-5.19l-14.14,5c1.43,4.05,3.89,7.28,5.82,9.65l11.63-9.47Zm32.36-58.58c-5.28-1.89-11.11-1.51-15.74-.08-2.37.73-4.74,1.83-6.78,3.34-1.99,1.47-4.11,3.68-5.16,6.75l14.19,4.86c-.25.74-.58.8-.1.45.42-.31,1.19-.73,2.28-1.06,2.29-.71,4.7-.69,6.27-.13l5.05-14.12Zm15.29,25.58c1.04-3.03.74-6.07.13-8.43-.63-2.45-1.75-4.82-3.12-6.94-2.65-4.1-6.91-8.28-12.3-10.21l-5.05,14.12c1.46.52,3.35,2.05,4.75,4.22.66,1.02,1.03,1.92,1.19,2.54.18.71-.03.54.21-.16l14.19,4.86Zm-27.52,9.51c5.12,1.83,10.8,1.68,15.44.4,4.14-1.14,10.05-3.96,12.08-9.9l-14.19-4.86c.26-.77.63-.89.24-.61-.36.25-1.06.62-2.11.91-2.2.61-4.67.56-6.4-.06l-5.05,14.12Zm-15.46-25.08c-1.05,3.06-.72,6.11-.07,8.48.68,2.44,1.86,4.77,3.26,6.81,2.74,3.99,7.04,7.91,12.27,9.78l5.05-14.12c-1.62-.58-3.57-2.13-4.96-4.15-.66-.96-1.02-1.79-1.17-2.32-.17-.6.05-.37-.2.37l-14.19-4.86Zm-26.39-12.26c1.48,1.05,2.3,2.31,2.61,3.24.31.94-.02.98.24.61l12.42,8.41c2.99-4.41,2.97-9.56,1.58-13.76-1.4-4.21-4.31-8.01-8.17-10.74l-8.67,12.24Zm-4.09-1.45c-.27.4-.45.15.37.12.84-.03,2.24.27,3.72,1.33l8.67-12.24c-3.86-2.73-8.41-4.22-12.87-4.08-4.47.14-9.3,2.01-12.31,6.46l12.42,8.41Zm-1.01,3.64c-.36-.26-.36-.36-.31-.26.04.08,0,.07,0-.18.01-.28.09-.73.33-1.35.24-.61.58-1.25.99-1.85l-12.42-8.41c-1.84,2.71-3.69,6.59-3.88,10.96-.21,4.83,1.69,9.84,6.62,13.33l8.67-12.24Zm7.95,1.65c.53-.79.99-.79.42-.59-.49.17-1.37.35-2.55.36-2.54.02-4.79-.7-5.82-1.42l-8.67,12.24c4.32,3.05,9.94,4.22,14.63,4.18,2.43-.02,5.01-.37,7.4-1.22,2.32-.82,5.1-2.34,7.01-5.14l-12.42-8.41Zm25.71,31.12c5.9-2.7,8.94-8.83,10.31-13.57,1.44-5.01,1.8-11.11.05-16.25l-14.2,4.83c.5,1.46.59,4.31-.27,7.28-.4,1.39-.93,2.5-1.44,3.26-.53.78-.83.88-.69.81l6.24,13.64Zm-27.32-7.85c2.37,6.94,8.39,9.65,13.45,10.23,4.88.56,9.97-.6,13.87-2.38l-6.25-13.64c-1.93.89-4.27,1.3-5.92,1.12-.77-.09-1.06-.27-1.08-.28,0,0,.01,0,.03.03.02.02.04.04.06.07.05.06.05.09.02.01l-14.2,4.84Zm10.57-32.48c-3.4,1.56-5.67,4.36-7.13,6.81-1.52,2.55-2.61,5.46-3.34,8.29-1.38,5.36-1.89,12.15-.1,17.39l14.2-4.84c-.46-1.35-.59-4.86.43-8.8.47-1.82,1.09-3.32,1.7-4.35.68-1.13.97-1.07.49-.85l-6.24-13.64Zm27.11,10.51c-2.07-6.07-7.02-9.68-11.89-11.25-4.81-1.55-10.42-1.45-15.21.74l6.24,13.64c1.04-.48,2.75-.63,4.37-.1,1.55.5,2.12,1.28,2.3,1.81l14.2-4.83Zm-26.6,68.04c1.85.51,3.69,1.78,5.02,3.57l12.05-8.93c-3.16-4.26-7.75-7.61-13.05-9.08l-4.01,14.45Zm-5.14.47c1.39-.75,3.29-.98,5.14-.47l4.01-14.45c-5.3-1.47-11.22-1-16.25,1.71l7.1,13.21Zm-.38.18c-.09.13-.14.16-.08.11.06-.05.21-.16.47-.3l-7.12-13.2c-1.83.99-4.09,2.57-5.77,5.09l12.49,8.3Zm.44.77c-.09-.18-.16-.38-.21-.57-.05-.19-.06-.35-.07-.46,0-.24.06-.08-.16.25l-12.51-8.28c-3.5,5.29-2.53,11.56-.53,15.64l13.48-6.58Zm3.72,4.08c-2.09-1.76-3.18-2.98-3.73-4.09l-13.47,6.59c2,4.09,5.2,6.99,7.52,8.96l9.68-11.46Zm2.72,1.86c-.34-.09-1.03-.44-2.72-1.86l-9.67,11.47c1.71,1.44,4.66,3.87,8.56,4.9l3.83-14.5Zm1.88-1.24c-.26.44-.7.85-1.18,1.08-.46.22-.69.16-.69.16l-3.83,14.5c7.88,2.09,15.3-2.4,18.68-8.21l-12.97-7.54Zm1.51-2.93s-.04-.07-.06-.21c-.02-.12,0-.12-.03.08-.04.22-.15.58-.39,1.13-.24.55-.58,1.18-1.01,1.93l12.95,7.57c1.96-3.36,6.11-10.98,1.13-18.65l-12.58,8.17Zm50.88-6.95c-1.09,1.29-1.66,1.58-2.18,1.74l4.34,14.36c4.29-1.3,7.15-3.87,9.32-6.44l-11.48-9.65Zm.9-13.63c2.42,4.01,2.05,9.95-1.01,13.76l11.7,9.39c6.93-8.64,7.88-21.42,2.15-30.9l-12.84,7.75Zm.33.14c-.34-.23-.5-.43-.53-.45-.01-.02,0,0,.03.05.04.05.09.14.17.26l12.85-7.75c-.64-1.06-1.92-3.06-4.14-4.55l-8.38,12.44Zm-.26,1.41c.45-.26.86-.47,1.22-.63.37-.16.61-.23.72-.25.12-.02-.03.02-.35-.02-.37-.05-.86-.19-1.34-.51l8.4-12.43c-3.47-2.35-7.21-2.27-9.84-1.71-2.57.55-4.83,1.69-6.4,2.61l7.58,12.94Zm-6.63,6.31c.61-1.89,2.64-3.97,6.63-6.31l-7.58-12.94c-4.52,2.64-10.9,7.14-13.32,14.63l14.27,4.62Zm.24,4.25c-.58-1.64-.59-3.16-.24-4.25l-14.27-4.62c-1.55,4.79-1.1,9.75.37,13.89l14.14-5.02Zm1.94,2.88c-.65-.46-1.41-1.39-1.93-2.86l-14.14,5c1.3,3.68,3.69,7.51,7.49,10.17l8.59-12.3Zm1.32.38s-.17.04-.45-.01c-.28-.06-.6-.18-.88-.38l-8.57,12.31c3.8,2.65,9.08,4,14.24,2.44l-4.34-14.36Zm-10.43-25.51s-.03.24-.34.71c-.31.46-.78.96-1.39,1.39-1.31.92-2.37.95-2.85.82l-4.06,14.44c5.89,1.66,11.55-.19,15.53-2.98,3.89-2.73,7.41-7.24,8.02-12.71l-14.91-1.66Zm-7.44-5.95c1.74.49,3.99,1.83,5.69,3.59.82.84,1.32,1.6,1.57,2.13.26.55.14.59.18.24l14.91,1.65c.67-6.09-2.8-11.27-5.88-14.45-3.29-3.41-7.78-6.3-12.41-7.6l-4.06,14.44Zm-5.85,4.47c-.02.2-.02-.13.5-.88.48-.7,1.2-1.48,2.09-2.15.89-.67,1.75-1.1,2.43-1.3.68-.2.91-.11.83-.13l4.06-14.44c-6.42-1.81-12.55,1.01-16.39,3.92-3.81,2.89-7.81,7.7-8.43,13.34l14.91,1.65Zm8.7,4.4c-2.38-.67-5.16-1.99-7.1-3.5-.96-.75-1.44-1.33-1.63-1.63-.16-.26.11.05.03.75l-14.91-1.65c-.76,6.89,4.02,11.83,7.29,14.37,3.69,2.87,8.28,4.99,12.27,6.11l4.05-14.44ZM33.34,21.97c.35,2.36.84,4.51,1.87,6.62.98,2.01,2.27,3.59,3.31,4.87l11.62-9.48c-1.13-1.39-1.33-1.72-1.45-1.95-.07-.14-.27-.58-.52-2.25l-14.84,2.19Zm3.11-14.74c-3.92,4.98-3.73,10.92-3.09,14.84l14.81-2.41c-.19-1.15-.19-1.98-.12-2.54.04-.26.09-.41.12-.5.03-.07.05-.1.06-.11l-11.78-9.29ZM49.43.15c-4.66.57-9.6,2.8-12.98,7.09l11.78,9.29c.52-.65,1.57-1.31,3.03-1.49L49.43.15Zm10.38,1.74C56.25,0,52.47-.22,49.44.15l1.81,14.89c.47-.06.84-.05,1.11,0,.27.04.38.09.41.11l7.04-13.24Zm5.98,5.14c-1.23-1.48-3.18-3.65-5.97-5.13l-7.06,13.23c.14.08.58.38,1.5,1.49l11.53-9.59Zm5.06,14.73c.95-6.58-2.72-11.91-5.05-14.72l-11.54,9.58c.77.92,1.27,1.72,1.54,2.35.26.6.19.77.21.65l14.85,2.14Zm-4.08,8.94c1.16-1.61,3.49-4.8,4.08-8.95l-14.85-2.13c0-.06,0,.08-.23.51-.24.46-.6.99-1.19,1.82l12.18,8.75Zm-6.01,6.54c2.78-2.08,4.73-4.75,6.01-6.55l-12.19-8.74c-1.3,1.81-2.08,2.73-2.82,3.29l9,12Zm-12.04,3.07c4.87.95,9.21-.94,12.04-3.07l-9-12c-.13.1-.25.17-.36.23-.11.06-.18.08-.22.09-.08.02.08-.04.4.02l-2.86,14.72Zm-10.2-6.85c1.65,2.02,4.99,5.84,10.19,6.85l2.87-14.72c.31.06.33.16,0-.09-.35-.27-.81-.74-1.44-1.51l-11.63,9.48Zm38.09,60.3c-.89,1.02-1.72,1.08-1.4,1.02.22-.04.81-.08,1.71.06.87.14,1.8.41,2.65.79.86.39,1.47.81,1.83,1.16l10.33-10.88c-3.54-3.36-8.33-5.23-12.49-5.88-2.14-.33-4.47-.41-6.73,0-2.16.4-5.04,1.39-7.21,3.89l11.32,9.84Zm.26,5.49c-.08-.08-.67-.88-.65-2.85.01-.86.15-1.66.33-2.27.21-.7.35-.71.05-.37l-11.32-9.84c-2.9,3.33-4.01,8.29-4.06,12.3-.05,4.18,1.03,9.83,5.32,13.91l10.33-10.88Zm.16.09c-.17-.09-.2-.13-.16-.09l-10.33,10.88c1.14,1.08,2.39,1.92,3.64,2.56l6.85-13.34Zm-1.41-.55c-1.48-.41-2.98-.61-4.41-.65l-.37,15c.31,0,.57.05.75.1l4.03-14.45Zm-4.41-.65c-6.78-.17-14.55,3.62-17.16,10.81l14.1,5.11c-.1.28-.1.02.55-.37.61-.36,1.4-.58,2.13-.56l.37-15Zm-17.15,10.8c-.67,1.85-.87,3.58-.97,4.74l14.94,1.31c.03-.36.06-.58.09-.74.03-.15.05-.19.04-.17l-14.1-5.13Zm-.97,4.73c-.13,1.5-.41,5.06,1.69,8.47l12.78-7.85c.34.56.42,1.03.44,1.17,0,.06,0,.07,0-.02,0-.09,0-.23.03-.45l-14.94-1.32Zm1.68,8.47c2.47,4.03,6.83,5.59,8.9,6.23l4.46-14.32c-.31-.1-.56-.19-.77-.27-.21-.09-.34-.16-.41-.19-.07-.04-.02-.02.09.08.11.1.32.31.52.64l-12.79,7.83Zm8.89,6.23c2.31.72,5.04,1.21,7.84,1.11,2.75-.1,6.17-.81,9.11-3.13l-9.3-11.77c.39-.3.44-.12-.37-.09-.76.03-1.77-.11-2.8-.43l-4.48,14.31Zm15.83-1.29c4.3-2.3,6.87-6.6,7.4-10.74l-14.88-1.89c.02-.14.04-.22.06-.25.01-.04.03-.06.04-.08.02-.03.1-.14.32-.26l7.07,13.23Zm7.39-10.73c.53-4.08-.77-7.67-2.18-10.23l-13.16,7.2c.25.45.37.79.42,1,.05.2.02.22.04.1l14.88,1.93Zm-2.17-10.22c-.69-1.27-1.84-3.1-3.77-4.66l-9.41,11.68c-.14-.11-.2-.19-.19-.18,0,0,.02.03.06.09.04.06.08.13.14.24l13.17-7.17Zm-3.75-4.64c-.63-.51-1.28-.94-1.93-1.31l-7.33,13.08s-.1-.06-.19-.13l9.45-11.65Zm2.24-1.6c.55-.63.92-.69.51-.52-.31.13-.87.3-1.65.42-1.62.25-3.31.14-4.46-.22l-4.49,14.31c3.76,1.18,7.82,1.25,11.23.73,1.74-.27,3.51-.72,5.15-1.4,1.54-.64,3.48-1.71,5.03-3.48l-11.32-9.84Zm-1.81-3.1c.91.86,1.37,1.92,1.49,2.79.06.43.02.71,0,.8-.02.1,0-.13.31-.48l11.32,9.84c3.13-3.6,3.76-8.35,3.21-12.24-.57-4.08-2.54-8.29-6.02-11.58l-10.33,10.88Zm4.3,17.72c.97-.28,1.97-.2,2.72.12l5.86-13.81c-4.09-1.74-8.63-1.9-12.71-.73l4.13,14.42Zm1.59.35c.07-.58.13-1.01.21-1.34.07-.33.13-.43.11-.39-.02.05-.15.3-.45.59-.32.31-.68.53-1,.64l-5.05-14.12c-7.53,2.69-8.43,10.36-8.72,12.94l14.91,1.68Zm-.67-.44c.26.12.45.26.55.37.1.1.13.17.14.17,0,0-.01-.02-.02-.06,0-.04,0-.05,0-.03l-14.9-1.71c-.62,5.42,1.88,12.21,8.2,14.99l6.04-13.73Zm1.27-.04c-.68.03-1.06.02-1.31,0-.23-.02-.17-.04.04.05l-6.05,13.73c3.14,1.38,6.3,1.28,7.89,1.22l-.57-14.99Zm2.78-.4c-.26.13-.92.33-2.78.4l.57,14.99c2.18-.08,5.65-.31,9-2.01l-6.79-13.38Zm-.67,1.57c.04-.74.32-1.2.45-1.36.12-.15.19-.19.22-.21l6.79,13.38c3.39-1.72,7.2-5.47,7.52-10.95l-14.98-.86Zm.02.59c.05.11.04.12.02.04-.02-.08-.06-.3-.04-.62l14.98.84c.14-2.58-.56-4.79-1.25-6.33l-13.71,6.08Zm-1.61-1.52c.75.32,1.34.93,1.61,1.52l13.71-6.09c-1.88-4.23-5.37-7.51-9.45-9.24l-5.86,13.81Zm-20.27-58.02c-3.8-1.38-7.98-1.5-11.73-.58l3.55,14.57c1.09-.26,2.24-.19,3.08.11l5.1-14.11Zm9.41,7.99c-2.04-3.91-5.63-6.62-9.41-7.99l-5.1,14.11c.39.14.7.33.92.51.22.19.29.31.29.3l13.3-6.93Zm1.42,6.31c.18-2.69-.69-4.9-1.42-6.3l-13.31,6.92s-.02-.04-.04-.09c-.02-.06-.06-.15-.09-.28-.07-.25-.15-.68-.11-1.23l14.97.98Zm-7.79,10.23c2.95-1.27,7.41-4.53,7.79-10.22l-14.97-1c.08-1.24.63-1.99.87-2.24.13-.14.23-.22.27-.25.05-.03.07-.05.09-.05l5.95,13.77Zm-8.39,1.6c2.05-.07,5.26-.25,8.39-1.6l-5.95-13.77c-.34.15-1.09.32-2.92.37l.48,14.99Zm-7.27-.96c2.89,1.08,5.77,1.01,7.27.96l-.49-14.99c-.66.02-1.07.02-1.37,0-.29-.02-.29-.06-.15,0l-5.27,14.04Zm-8.41-13.97c-.77,5.71,2.46,11.74,8.42,13.97l5.26-14.05c.44.16.77.47.96.8.17.29.3.72.23,1.28l-14.87-2.01Zm8.89-11.67c-3.33,1.01-5.67,3.15-7.08,5.71-1.24,2.25-1.63,4.57-1.81,5.98l14.87,1.97c.06-.43.11-.68.15-.82.04-.14.03-.07-.07.13-.12.21-.34.54-.71.84-.38.31-.74.47-.97.54l-4.37-14.35Z"/>
</svg>